<svg xmlns="http://www.w3.org/2000/svg" xmlns:xlink="http://www.w3.org/1999/xlink" width="600" height="400" viewBox="0 0 2400 1600">
<defs>
  <clipPath id="clip210">
    <rect x="0" y="0" width="2400" height="1600"></rect>
  </clipPath>
</defs>
<path clip-path="url(#clip210)" d="M0 1600 L2400 1600 L2400 0 L0 0  Z" fill="#ffffff" fill-rule="evenodd" fill-opacity="1"></path>
<defs>
  <clipPath id="clip211">
    <rect x="480" y="0" width="1681" height="1600"></rect>
  </clipPath>
</defs>
<path clip-path="url(#clip210)" d="M251.56 1410.9 L2352.76 1410.9 L2352.76 123.472 L251.56 123.472  Z" fill="#ffffff" fill-rule="evenodd" fill-opacity="1"></path>
<defs>
  <clipPath id="clip212">
    <rect x="251" y="123" width="2102" height="1288"></rect>
  </clipPath>
</defs>
<polyline clip-path="url(#clip212)" style="stroke:#000000; stroke-linecap:round; stroke-linejoin:round; stroke-width:2; stroke-opacity:0.1; fill:none" points="1073.86,1410.9 1073.86,123.472 "></polyline>
<polyline clip-path="url(#clip212)" style="stroke:#000000; stroke-linecap:round; stroke-linejoin:round; stroke-width:2; stroke-opacity:0.1; fill:none" points="2293.29,1410.9 2293.29,123.472 "></polyline>
<polyline clip-path="url(#clip212)" style="stroke:#000000; stroke-linecap:round; stroke-linejoin:round; stroke-width:2; stroke-opacity:0.1; fill:none" points="251.56,905.662 2352.76,905.662 "></polyline>
<polyline clip-path="url(#clip212)" style="stroke:#000000; stroke-linecap:round; stroke-linejoin:round; stroke-width:2; stroke-opacity:0.1; fill:none" points="251.56,199.321 2352.76,199.321 "></polyline>
<polyline clip-path="url(#clip210)" style="stroke:#000000; stroke-linecap:round; stroke-linejoin:round; stroke-width:4; stroke-opacity:1; fill:none" points="251.56,1410.9 2352.76,1410.9 "></polyline>
<polyline clip-path="url(#clip210)" style="stroke:#000000; stroke-linecap:round; stroke-linejoin:round; stroke-width:4; stroke-opacity:1; fill:none" points="1073.86,1410.9 1073.86,1392 "></polyline>
<polyline clip-path="url(#clip210)" style="stroke:#000000; stroke-linecap:round; stroke-linejoin:round; stroke-width:4; stroke-opacity:1; fill:none" points="2293.29,1410.9 2293.29,1392 "></polyline>
<path clip-path="url(#clip210)" d="M1011.22 1485.02 L1018.86 1485.02 L1018.86 1458.66 L1010.55 1460.32 L1010.55 1456.06 L1018.81 1454.4 L1023.49 1454.4 L1023.49 1485.02 L1031.13 1485.02 L1031.13 1488.96 L1011.22 1488.96 L1011.22 1485.02 Z" fill="#000000" fill-rule="nonzero" fill-opacity="1"></path><path clip-path="url(#clip210)" d="M1050.57 1457.48 Q1046.96 1457.48 1045.13 1461.04 Q1043.33 1464.58 1043.33 1471.71 Q1043.33 1478.82 1045.13 1482.38 Q1046.96 1485.92 1050.57 1485.92 Q1054.21 1485.92 1056.01 1482.38 Q1057.84 1478.82 1057.84 1471.71 Q1057.84 1464.58 1056.01 1461.04 Q1054.21 1457.48 1050.57 1457.48 M1050.57 1453.77 Q1056.38 1453.77 1059.44 1458.38 Q1062.52 1462.96 1062.52 1471.71 Q1062.52 1480.44 1059.44 1485.04 Q1056.38 1489.63 1050.57 1489.63 Q1044.76 1489.63 1041.68 1485.04 Q1038.63 1480.44 1038.63 1471.71 Q1038.63 1462.96 1041.68 1458.38 Q1044.76 1453.77 1050.57 1453.77 Z" fill="#000000" fill-rule="nonzero" fill-opacity="1"></path><path clip-path="url(#clip210)" d="M1062.52 1447.87 L1086.63 1447.87 L1086.63 1451.07 L1062.52 1451.07 L1062.52 1447.87 Z" fill="#000000" fill-rule="nonzero" fill-opacity="1"></path><path clip-path="url(#clip210)" d="M1095.49 1458.35 L1101.69 1458.35 L1101.69 1436.93 L1094.94 1438.28 L1094.94 1434.82 L1101.66 1433.47 L1105.46 1433.47 L1105.46 1458.35 L1111.66 1458.35 L1111.66 1461.55 L1095.49 1461.55 L1095.49 1458.35 Z" fill="#000000" fill-rule="nonzero" fill-opacity="1"></path><path clip-path="url(#clip210)" d="M1127.46 1435.97 Q1124.53 1435.97 1123.04 1438.86 Q1121.57 1441.74 1121.57 1447.53 Q1121.57 1453.31 1123.04 1456.2 Q1124.53 1459.08 1127.46 1459.08 Q1130.41 1459.08 1131.88 1456.2 Q1133.37 1453.31 1133.37 1447.53 Q1133.37 1441.74 1131.88 1438.86 Q1130.41 1435.97 1127.46 1435.97 M1127.46 1432.96 Q1132.18 1432.96 1134.66 1436.7 Q1137.17 1440.43 1137.17 1447.53 Q1137.17 1454.62 1134.66 1458.37 Q1132.18 1462.09 1127.46 1462.09 Q1122.74 1462.09 1120.24 1458.37 Q1117.76 1454.62 1117.76 1447.53 Q1117.76 1440.43 1120.24 1436.7 Q1122.74 1432.96 1127.46 1432.96 Z" fill="#000000" fill-rule="nonzero" fill-opacity="1"></path><path clip-path="url(#clip210)" d="M2258.27 1485.02 L2265.91 1485.02 L2265.91 1458.66 L2257.6 1460.32 L2257.6 1456.06 L2265.86 1454.4 L2270.54 1454.4 L2270.54 1485.02 L2278.18 1485.02 L2278.18 1488.96 L2258.27 1488.96 L2258.27 1485.02 Z" fill="#000000" fill-rule="nonzero" fill-opacity="1"></path><path clip-path="url(#clip210)" d="M2297.62 1457.48 Q2294.01 1457.48 2292.18 1461.04 Q2290.38 1464.58 2290.38 1471.71 Q2290.38 1478.82 2292.18 1482.38 Q2294.01 1485.92 2297.62 1485.92 Q2301.26 1485.92 2303.06 1482.38 Q2304.89 1478.82 2304.89 1471.71 Q2304.89 1464.58 2303.06 1461.04 Q2301.26 1457.48 2297.62 1457.48 M2297.62 1453.77 Q2303.43 1453.77 2306.49 1458.38 Q2309.57 1462.96 2309.57 1471.71 Q2309.57 1480.44 2306.49 1485.04 Q2303.43 1489.63 2297.62 1489.63 Q2291.81 1489.63 2288.73 1485.04 Q2285.68 1480.44 2285.68 1471.71 Q2285.68 1462.96 2288.73 1458.38 Q2291.81 1453.77 2297.62 1453.77 Z" fill="#000000" fill-rule="nonzero" fill-opacity="1"></path><path clip-path="url(#clip210)" d="M2319.27 1435.97 Q2316.34 1435.97 2314.85 1438.86 Q2313.38 1441.74 2313.38 1447.53 Q2313.38 1453.31 2314.85 1456.2 Q2316.34 1459.08 2319.27 1459.08 Q2322.22 1459.08 2323.69 1456.2 Q2325.18 1453.31 2325.18 1447.53 Q2325.18 1441.74 2323.69 1438.86 Q2322.22 1435.97 2319.27 1435.97 M2319.27 1432.96 Q2323.99 1432.96 2326.48 1436.7 Q2328.98 1440.43 2328.98 1447.53 Q2328.98 1454.62 2326.48 1458.37 Q2323.99 1462.09 2319.27 1462.09 Q2314.55 1462.09 2312.05 1458.37 Q2309.57 1454.62 2309.57 1447.53 Q2309.57 1440.43 2312.05 1436.7 Q2314.55 1432.96 2319.27 1432.96 Z" fill="#000000" fill-rule="nonzero" fill-opacity="1"></path><path clip-path="url(#clip210)" d="M1317.09 1552.67 L1317.09 1574.19 L1311.23 1574.19 L1311.23 1552.86 Q1311.23 1547.8 1309.26 1545.29 Q1307.28 1542.77 1303.34 1542.77 Q1298.59 1542.77 1295.86 1545.79 Q1293.12 1548.82 1293.12 1554.04 L1293.12 1574.19 L1287.23 1574.19 L1287.23 1524.66 L1293.12 1524.66 L1293.12 1544.08 Q1295.22 1540.86 1298.05 1539.27 Q1300.92 1537.68 1304.64 1537.68 Q1310.78 1537.68 1313.93 1541.5 Q1317.09 1545.29 1317.09 1552.67 Z" fill="#000000" fill-rule="nonzero" fill-opacity="1"></path><polyline clip-path="url(#clip210)" style="stroke:#000000; stroke-linecap:round; stroke-linejoin:round; stroke-width:4; stroke-opacity:1; fill:none" points="251.56,1410.9 251.56,123.472 "></polyline>
<polyline clip-path="url(#clip210)" style="stroke:#000000; stroke-linecap:round; stroke-linejoin:round; stroke-width:4; stroke-opacity:1; fill:none" points="251.56,905.662 270.458,905.662 "></polyline>
<polyline clip-path="url(#clip210)" style="stroke:#000000; stroke-linecap:round; stroke-linejoin:round; stroke-width:4; stroke-opacity:1; fill:none" points="251.56,199.321 270.458,199.321 "></polyline>
<path clip-path="url(#clip210)" d="M114.931 925.454 L122.57 925.454 L122.57 899.089 L114.26 900.755 L114.26 896.496 L122.524 894.829 L127.2 894.829 L127.2 925.454 L134.839 925.454 L134.839 929.389 L114.931 929.389 L114.931 925.454 Z" fill="#000000" fill-rule="nonzero" fill-opacity="1"></path><path clip-path="url(#clip210)" d="M154.283 897.908 Q150.672 897.908 148.843 901.473 Q147.038 905.015 147.038 912.144 Q147.038 919.251 148.843 922.815 Q150.672 926.357 154.283 926.357 Q157.917 926.357 159.723 922.815 Q161.552 919.251 161.552 912.144 Q161.552 905.015 159.723 901.473 Q157.917 897.908 154.283 897.908 M154.283 894.204 Q160.093 894.204 163.149 898.811 Q166.227 903.394 166.227 912.144 Q166.227 920.871 163.149 925.477 Q160.093 930.061 154.283 930.061 Q148.473 930.061 145.394 925.477 Q142.339 920.871 142.339 912.144 Q142.339 903.394 145.394 898.811 Q148.473 894.204 154.283 894.204 Z" fill="#000000" fill-rule="nonzero" fill-opacity="1"></path><path clip-path="url(#clip210)" d="M166.227 888.306 L190.339 888.306 L190.339 891.503 L166.227 891.503 L166.227 888.306 Z" fill="#000000" fill-rule="nonzero" fill-opacity="1"></path><path clip-path="url(#clip210)" d="M198.577 873.899 L213.491 873.899 L213.491 877.096 L202.056 877.096 L202.056 883.98 Q202.884 883.698 203.711 883.566 Q204.539 883.416 205.366 883.416 Q210.068 883.416 212.814 885.992 Q215.56 888.569 215.56 892.97 Q215.56 897.503 212.739 900.023 Q209.918 902.525 204.783 902.525 Q203.015 902.525 201.172 902.224 Q199.348 901.923 197.392 901.321 L197.392 897.503 Q199.085 898.424 200.89 898.876 Q202.696 899.327 204.708 899.327 Q207.962 899.327 209.861 897.616 Q211.761 895.904 211.761 892.97 Q211.761 890.036 209.861 888.325 Q207.962 886.613 204.708 886.613 Q203.185 886.613 201.661 886.952 Q200.157 887.29 198.577 888.005 L198.577 873.899 Z" fill="#000000" fill-rule="nonzero" fill-opacity="1"></path><path clip-path="url(#clip210)" d="M144.855 219.114 L152.493 219.114 L152.493 192.748 L144.183 194.415 L144.183 190.156 L152.447 188.489 L157.123 188.489 L157.123 219.114 L164.762 219.114 L164.762 223.049 L144.855 223.049 L144.855 219.114 Z" fill="#000000" fill-rule="nonzero" fill-opacity="1"></path><path clip-path="url(#clip210)" d="M184.206 191.568 Q180.595 191.568 178.766 195.133 Q176.961 198.674 176.961 205.804 Q176.961 212.91 178.766 216.475 Q180.595 220.017 184.206 220.017 Q187.84 220.017 189.646 216.475 Q191.475 212.91 191.475 205.804 Q191.475 198.674 189.646 195.133 Q187.84 191.568 184.206 191.568 M184.206 187.864 Q190.016 187.864 193.072 192.471 Q196.151 197.054 196.151 205.804 Q196.151 214.531 193.072 219.137 Q190.016 223.72 184.206 223.72 Q178.396 223.72 175.317 219.137 Q172.262 214.531 172.262 205.804 Q172.262 197.054 175.317 192.471 Q178.396 187.864 184.206 187.864 Z" fill="#000000" fill-rule="nonzero" fill-opacity="1"></path><path clip-path="url(#clip210)" d="M205.855 170.06 Q202.921 170.06 201.436 172.956 Q199.969 175.834 199.969 181.627 Q199.969 187.401 201.436 190.297 Q202.921 193.175 205.855 193.175 Q208.808 193.175 210.275 190.297 Q211.761 187.401 211.761 181.627 Q211.761 175.834 210.275 172.956 Q208.808 170.06 205.855 170.06 M205.855 167.051 Q210.576 167.051 213.059 170.794 Q215.56 174.518 215.56 181.627 Q215.56 188.717 213.059 192.46 Q210.576 196.184 205.855 196.184 Q201.135 196.184 198.633 192.46 Q196.151 188.717 196.151 181.627 Q196.151 174.518 198.633 170.794 Q201.135 167.051 205.855 167.051 Z" fill="#000000" fill-rule="nonzero" fill-opacity="1"></path><path clip-path="url(#clip210)" d="M14.1925 846.071 L79.3773 846.071 L79.3773 851.482 L14.1925 851.482 L14.1925 846.071 Z" fill="#000000" fill-rule="nonzero" fill-opacity="1"></path><path clip-path="url(#clip210)" d="M46.212 806.063 Q39.7508 806.063 36.0905 808.737 Q32.3984 811.378 32.3984 816.025 Q32.3984 820.672 36.0905 823.346 Q39.7508 825.988 46.212 825.988 Q52.6732 825.988 56.3653 823.346 Q60.0256 820.672 60.0256 816.025 Q60.0256 811.378 56.3653 808.737 Q52.6732 806.063 46.212 806.063 M33.7671 825.988 Q30.5842 824.142 29.0564 821.341 Q27.4968 818.508 27.4968 814.593 Q27.4968 808.1 32.6531 804.058 Q37.8093 799.984 46.212 799.984 Q54.6147 799.984 59.771 804.058 Q64.9272 808.1 64.9272 814.593 Q64.9272 818.508 63.3994 821.341 Q61.8398 824.142 58.657 825.988 L64.0042 825.988 L64.0042 831.876 L14.479 831.876 L14.479 825.988 L33.7671 825.988 Z" fill="#000000" fill-rule="nonzero" fill-opacity="1"></path><path clip-path="url(#clip210)" d="M14.479 790.085 L14.479 784.229 L33.6397 784.229 L30.7752 780.25 L34.149 777.831 L38.6368 784.229 L64.0042 784.229 L64.0042 790.085 L42.8064 790.085 L45.6073 794 L42.2334 796.355 L37.7456 790.085 L14.479 790.085 Z" fill="#000000" fill-rule="nonzero" fill-opacity="1"></path><path clip-path="url(#clip210)" d="M46.0847 755.551 Q46.0847 762.649 47.7079 765.386 Q49.3312 768.123 53.2461 768.123 Q56.3653 768.123 58.2114 766.086 Q60.0256 764.017 60.0256 760.484 Q60.0256 755.615 56.5881 752.686 Q53.1188 749.726 47.3897 749.726 L46.0847 749.726 L46.0847 755.551 M43.6657 743.87 L64.0042 743.87 L64.0042 749.726 L58.5933 749.726 Q61.8398 751.732 63.3994 754.724 Q64.9272 757.715 64.9272 762.044 Q64.9272 767.519 61.8716 770.765 Q58.7843 773.98 53.6281 773.98 Q47.6125 773.98 44.5569 769.969 Q41.5014 765.927 41.5014 757.938 L41.5014 749.726 L40.9285 749.726 Q36.8862 749.726 34.6901 752.4 Q32.4621 755.042 32.4621 759.848 Q32.4621 762.903 33.1941 765.8 Q33.9262 768.696 35.3903 771.37 L29.9795 771.37 Q28.7381 768.155 28.1334 765.131 Q27.4968 762.108 27.4968 759.243 Q27.4968 751.509 31.5072 747.689 Q35.5176 743.87 43.6657 743.87 M64.0042 749.663 L64.0042 745.875 Q65.9457 747.307 67.3462 748.008 Q68.7466 748.676 69.7333 748.676 Q71.1974 748.676 71.9295 747.817 Q72.6615 746.926 72.6615 745.207 Q72.6615 744.188 72.4069 743.202 Q72.1841 742.215 71.7067 741.228 L75.9399 741.228 Q76.2581 742.438 76.4173 743.52 Q76.5764 744.602 76.5764 745.557 Q76.5764 749.44 75.176 751.286 Q73.8073 753.1 70.8473 753.1 Q69.3195 753.1 67.6326 752.273 Q65.9775 751.413 64.0042 749.663 Z" fill="#000000" fill-rule="nonzero" fill-opacity="1"></path><path clip-path="url(#clip210)" d="M33.7671 708.349 L14.479 708.349 L14.479 702.493 L64.0042 702.493 L64.0042 708.349 L58.657 708.349 Q61.8398 710.195 63.3994 713.028 Q64.9272 715.829 64.9272 719.776 Q64.9272 726.237 59.771 730.311 Q54.6147 734.353 46.212 734.353 Q37.8093 734.353 32.6531 730.311 Q27.4968 726.237 27.4968 719.776 Q27.4968 715.829 29.0564 713.028 Q30.5842 710.195 33.7671 708.349 M46.212 728.306 Q52.6732 728.306 56.3653 725.664 Q60.0256 722.99 60.0256 718.344 Q60.0256 713.697 56.3653 711.023 Q52.6732 708.349 46.212 708.349 Q39.7508 708.349 36.0905 711.023 Q32.3984 713.697 32.3984 718.344 Q32.3984 722.99 36.0905 725.664 Q39.7508 728.306 46.212 728.306 Z" fill="#000000" fill-rule="nonzero" fill-opacity="1"></path><path clip-path="url(#clip210)" d="M14.1925 682.887 L79.3773 682.887 L79.3773 688.297 L14.1925 688.297 L14.1925 682.887 Z" fill="#000000" fill-rule="nonzero" fill-opacity="1"></path><path clip-path="url(#clip210)" d="M181.273 43.6931 L181.273 65.8515 L194.398 65.8515 Q201.001 65.8515 204.16 63.1374 Q207.361 60.3828 207.361 54.752 Q207.361 49.0808 204.16 46.4072 Q201.001 43.6931 194.398 43.6931 L181.273 43.6931 M181.273 18.8205 L181.273 37.0496 L193.385 37.0496 Q199.38 37.0496 202.297 34.8216 Q205.254 32.5531 205.254 27.935 Q205.254 23.3575 202.297 21.089 Q199.38 18.8205 193.385 18.8205 L181.273 18.8205 M173.09 12.096 L193.993 12.096 Q203.35 12.096 208.414 15.9849 Q213.478 19.8737 213.478 27.0438 Q213.478 32.5936 210.885 35.8748 Q208.292 39.156 203.269 39.9662 Q209.305 41.2625 212.627 45.3944 Q215.989 49.4858 215.989 55.6432 Q215.989 63.745 210.48 68.1605 Q204.971 72.576 194.803 72.576 L173.09 72.576 L173.09 12.096 Z" fill="#000000" fill-rule="nonzero" fill-opacity="1"></path><path clip-path="url(#clip210)" d="M229.924 9.54393 L237.378 9.54393 L237.378 33.9304 L242.442 30.2846 L245.52 34.5785 L237.378 40.2903 L237.378 72.576 L229.924 72.576 L229.924 45.597 L224.942 49.1618 L221.944 44.8678 L229.924 39.156 L229.924 9.54393 Z" fill="#000000" fill-rule="nonzero" fill-opacity="1"></path><path clip-path="url(#clip210)" d="M273.877 49.7694 Q264.843 49.7694 261.359 51.8354 Q257.875 53.9013 257.875 58.8839 Q257.875 62.8538 260.468 65.2034 Q263.101 67.5124 267.598 67.5124 Q273.796 67.5124 277.522 63.1374 Q281.29 58.7219 281.29 51.4303 L281.29 49.7694 L273.877 49.7694 M288.743 46.6907 L288.743 72.576 L281.29 72.576 L281.29 65.6895 Q278.738 69.8214 274.93 71.8063 Q271.122 73.7508 265.613 73.7508 Q258.645 73.7508 254.513 69.8619 Q250.422 65.9325 250.422 59.3701 Q250.422 51.7138 255.526 47.825 Q260.671 43.9361 270.838 43.9361 L281.29 43.9361 L281.29 43.2069 Q281.29 38.0623 277.887 35.2672 Q274.525 32.4315 268.408 32.4315 Q264.519 32.4315 260.833 33.3632 Q257.146 34.295 253.744 36.1584 L253.744 29.2718 Q257.835 27.692 261.683 26.9223 Q265.532 26.1121 269.178 26.1121 Q279.021 26.1121 283.882 31.2163 Q288.743 36.3204 288.743 46.6907 M281.371 72.576 L286.191 72.576 Q284.368 75.0471 283.477 76.8294 Q282.627 78.6118 282.627 79.8676 Q282.627 81.731 283.72 82.6628 Q284.855 83.5945 287.042 83.5945 Q288.338 83.5945 289.594 83.2704 Q290.85 82.9868 292.106 82.3792 L292.106 87.7669 Q290.566 88.172 289.189 88.3745 Q287.812 88.5771 286.596 88.5771 Q281.654 88.5771 279.305 86.7947 Q276.996 85.0528 276.996 81.2854 Q276.996 79.341 278.049 77.194 Q279.143 75.0876 281.371 72.576 Z" fill="#000000" fill-rule="nonzero" fill-opacity="1"></path><path clip-path="url(#clip210)" d="M333.951 34.0924 L333.951 9.54393 L341.405 9.54393 L341.405 72.576 L333.951 72.576 L333.951 65.7705 Q331.602 69.8214 327.997 71.8063 Q324.432 73.7508 319.409 73.7508 Q311.185 73.7508 306 67.1883 Q300.856 60.6258 300.856 49.9314 Q300.856 39.2371 306 32.6746 Q311.185 26.1121 319.409 26.1121 Q324.432 26.1121 327.997 28.0971 Q331.602 30.0415 333.951 34.0924 M308.552 49.9314 Q308.552 58.1548 311.915 62.8538 Q315.317 67.5124 321.232 67.5124 Q327.146 67.5124 330.549 62.8538 Q333.951 58.1548 333.951 49.9314 Q333.951 41.7081 330.549 37.0496 Q327.146 32.3505 321.232 32.3505 Q315.317 32.3505 311.915 37.0496 Q308.552 41.7081 308.552 49.9314 Z" fill="#000000" fill-rule="nonzero" fill-opacity="1"></path><path clip-path="url(#clip210)" d="M390.34 65.7705 L390.34 89.8329 L382.846 89.8329 L382.846 27.2059 L390.34 27.2059 L390.34 34.0924 Q392.69 30.0415 396.254 28.0971 Q399.86 26.1121 404.842 26.1121 Q413.106 26.1121 418.251 32.6746 Q423.436 39.2371 423.436 49.9314 Q423.436 60.6258 418.251 67.1883 Q413.106 73.7508 404.842 73.7508 Q399.86 73.7508 396.254 71.8063 Q392.69 69.8214 390.34 65.7705 M415.699 49.9314 Q415.699 41.7081 412.296 37.0496 Q408.934 32.3505 403.019 32.3505 Q397.105 32.3505 393.702 37.0496 Q390.34 41.7081 390.34 49.9314 Q390.34 58.1548 393.702 62.8538 Q397.105 67.5124 403.019 67.5124 Q408.934 67.5124 412.296 62.8538 Q415.699 58.1548 415.699 49.9314 Z" fill="#000000" fill-rule="nonzero" fill-opacity="1"></path><path clip-path="url(#clip210)" d="M462.082 34.1734 Q460.826 33.4443 459.327 33.1202 Q457.869 32.7556 456.086 32.7556 Q449.767 32.7556 446.364 36.8875 Q443.002 40.9789 443.002 48.6757 L443.002 72.576 L435.508 72.576 L435.508 27.2059 L443.002 27.2059 L443.002 34.2544 Q445.351 30.1225 449.119 28.1376 Q452.886 26.1121 458.274 26.1121 Q459.043 26.1121 459.975 26.2337 Q460.907 26.3147 462.041 26.5172 L462.082 34.1734 Z" fill="#000000" fill-rule="nonzero" fill-opacity="1"></path><path clip-path="url(#clip210)" d="M466.659 27.2059 L502.064 27.2059 L502.064 34.0114 L474.032 66.6212 L502.064 66.6212 L502.064 72.576 L465.646 72.576 L465.646 65.7705 L493.679 33.1607 L466.659 33.1607 L466.659 27.2059 Z" fill="#000000" fill-rule="nonzero" fill-opacity="1"></path><path clip-path="url(#clip210)" d="M532.324 76.7889 Q529.165 84.8907 526.167 87.3618 Q523.169 89.8329 518.146 89.8329 L512.191 89.8329 L512.191 83.5945 L516.566 83.5945 Q519.645 83.5945 521.346 82.1361 Q523.048 80.6778 525.114 75.2496 L526.45 71.8468 L508.1 27.2059 L515.999 27.2059 L530.177 62.6918 L544.355 27.2059 L552.255 27.2059 L532.324 76.7889 Z" fill="#000000" fill-rule="nonzero" fill-opacity="1"></path><path clip-path="url(#clip210)" d="M595.113 49.9314 Q595.113 41.7081 591.71 37.0496 Q588.348 32.3505 582.434 32.3505 Q576.52 32.3505 573.117 37.0496 Q569.755 41.7081 569.755 49.9314 Q569.755 58.1548 573.117 62.8538 Q576.52 67.5124 582.434 67.5124 Q588.348 67.5124 591.71 62.8538 Q595.113 58.1548 595.113 49.9314 M569.755 34.0924 Q572.104 30.0415 575.669 28.0971 Q579.274 26.1121 584.257 26.1121 Q592.521 26.1121 597.665 32.6746 Q602.85 39.2371 602.85 49.9314 Q602.85 60.6258 597.665 67.1883 Q592.521 73.7508 584.257 73.7508 Q579.274 73.7508 575.669 71.8063 Q572.104 69.8214 569.755 65.7705 L569.755 72.576 L562.26 72.576 L562.26 9.54393 L569.755 9.54393 L569.755 34.0924 Z" fill="#000000" fill-rule="nonzero" fill-opacity="1"></path><path clip-path="url(#clip210)" d="M615.206 9.54393 L622.659 9.54393 L622.659 72.576 L615.206 72.576 L615.206 9.54393 Z" fill="#000000" fill-rule="nonzero" fill-opacity="1"></path><path clip-path="url(#clip210)" d="M638.255 27.2059 L645.709 27.2059 L645.709 72.576 L638.255 72.576 L638.255 27.2059 M638.255 9.54393 L645.709 9.54393 L645.709 18.9825 L638.255 18.9825 L638.255 9.54393 Z" fill="#000000" fill-rule="nonzero" fill-opacity="1"></path><path clip-path="url(#clip210)" d="M671.351 9.54393 L678.805 9.54393 L678.805 18.9825 L671.351 18.9825 L671.351 9.54393 M675.159 26.1121 L675.159 26.1121 M658.064 27.2059 L693.469 27.2059 L693.469 34.0114 L665.437 66.6212 L693.469 66.6212 L693.469 72.576 L657.052 72.576 L657.052 65.7705 L685.084 33.1607 L658.064 33.1607 L658.064 27.2059 Z" fill="#000000" fill-rule="nonzero" fill-opacity="1"></path><path clip-path="url(#clip210)" d="M743.66 48.0275 L743.66 51.6733 L709.389 51.6733 Q709.875 59.3701 714.007 63.421 Q718.18 67.4314 725.593 67.4314 Q729.887 67.4314 733.897 66.3781 Q737.948 65.3249 741.918 63.2184 L741.918 70.267 Q737.908 71.9684 733.695 72.8596 Q729.482 73.7508 725.147 73.7508 Q714.291 73.7508 707.931 67.4314 Q701.612 61.1119 701.612 50.3365 Q701.612 39.1965 707.607 32.6746 Q713.643 26.1121 723.851 26.1121 Q733.006 26.1121 738.313 32.0264 Q743.66 37.9003 743.66 48.0275 M736.206 45.84 Q736.125 39.7232 732.763 36.0774 Q729.441 32.4315 723.932 32.4315 Q717.694 32.4315 713.926 35.9558 Q710.199 39.4801 709.632 45.8805 L736.206 45.84 Z" fill="#000000" fill-rule="nonzero" fill-opacity="1"></path><path clip-path="url(#clip210)" d="M793.608 45.1919 L793.608 72.576 L786.154 72.576 L786.154 45.4349 Q786.154 38.994 783.642 35.7938 Q781.131 32.5936 776.108 32.5936 Q770.072 32.5936 766.588 36.4419 Q763.104 40.2903 763.104 46.9338 L763.104 72.576 L755.61 72.576 L755.61 27.2059 L763.104 27.2059 L763.104 34.2544 Q765.778 30.163 769.383 28.1376 Q773.029 26.1121 777.769 26.1121 Q785.587 26.1121 789.597 30.9732 Q793.608 35.7938 793.608 45.1919 Z" fill="#000000" fill-rule="nonzero" fill-opacity="1"></path><path clip-path="url(#clip210)" d="M808.474 27.2059 L815.928 27.2059 L815.928 72.576 L808.474 72.576 L808.474 27.2059 M808.474 9.54393 L815.928 9.54393 L815.928 18.9825 L808.474 18.9825 L808.474 9.54393 Z" fill="#000000" fill-rule="nonzero" fill-opacity="1"></path><path clip-path="url(#clip210)" d="M852.143 49.7694 Q843.11 49.7694 839.626 51.8354 Q836.142 53.9013 836.142 58.8839 Q836.142 62.8538 838.735 65.2034 Q841.368 67.5124 845.864 67.5124 Q852.062 67.5124 855.789 63.1374 Q859.556 58.7219 859.556 51.4303 L859.556 49.7694 L852.143 49.7694 M867.01 46.6907 L867.01 72.576 L859.556 72.576 L859.556 65.6895 Q857.004 69.8214 853.196 71.8063 Q849.389 73.7508 843.879 73.7508 Q836.912 73.7508 832.78 69.8619 Q828.688 65.9325 828.688 59.3701 Q828.688 51.7138 833.793 47.825 Q838.937 43.9361 849.105 43.9361 L859.556 43.9361 L859.556 43.2069 Q859.556 38.0623 856.154 35.2672 Q852.791 32.4315 846.674 32.4315 Q842.786 32.4315 839.099 33.3632 Q835.413 34.295 832.01 36.1584 L832.01 29.2718 Q836.102 27.692 839.95 26.9223 Q843.798 26.1121 847.444 26.1121 Q857.288 26.1121 862.149 31.2163 Q867.01 36.3204 867.01 46.6907 Z" fill="#000000" fill-rule="nonzero" fill-opacity="1"></path><path clip-path="url(#clip210)" d="M915.945 65.7705 L915.945 89.8329 L908.451 89.8329 L908.451 27.2059 L915.945 27.2059 L915.945 34.0924 Q918.294 30.0415 921.859 28.0971 Q925.464 26.1121 930.447 26.1121 Q938.711 26.1121 943.856 32.6746 Q949.041 39.2371 949.041 49.9314 Q949.041 60.6258 943.856 67.1883 Q938.711 73.7508 930.447 73.7508 Q925.464 73.7508 921.859 71.8063 Q918.294 69.8214 915.945 65.7705 M941.304 49.9314 Q941.304 41.7081 937.901 37.0496 Q934.539 32.3505 928.624 32.3505 Q922.71 32.3505 919.307 37.0496 Q915.945 41.7081 915.945 49.9314 Q915.945 58.1548 919.307 62.8538 Q922.71 67.5124 928.624 67.5124 Q934.539 67.5124 937.901 62.8538 Q941.304 58.1548 941.304 49.9314 Z" fill="#000000" fill-rule="nonzero" fill-opacity="1"></path><path clip-path="url(#clip210)" d="M978.977 32.4315 Q972.982 32.4315 969.498 37.1306 Q966.014 41.7891 966.014 49.9314 Q966.014 58.0738 969.457 62.7728 Q972.941 67.4314 978.977 67.4314 Q984.932 67.4314 988.416 62.7323 Q991.899 58.0333 991.899 49.9314 Q991.899 41.8701 988.416 37.1711 Q984.932 32.4315 978.977 32.4315 M978.977 26.1121 Q988.699 26.1121 994.249 32.4315 Q999.799 38.7509 999.799 49.9314 Q999.799 61.0714 994.249 67.4314 Q988.699 73.7508 978.977 73.7508 Q969.214 73.7508 963.665 67.4314 Q958.155 61.0714 958.155 49.9314 Q958.155 38.7509 963.665 32.4315 Q969.214 26.1121 978.977 26.1121 Z" fill="#000000" fill-rule="nonzero" fill-opacity="1"></path><path clip-path="url(#clip210)" d="M1044.8 28.9478 L1044.8 35.9153 Q1041.64 34.1734 1038.44 33.3227 Q1035.28 32.4315 1032.04 32.4315 Q1024.79 32.4315 1020.78 37.0496 Q1016.77 41.6271 1016.77 49.9314 Q1016.77 58.2358 1020.78 62.8538 Q1024.79 67.4314 1032.04 67.4314 Q1035.28 67.4314 1038.44 66.5807 Q1041.64 65.6895 1044.8 63.9476 L1044.8 70.8341 Q1041.68 72.2924 1038.32 73.0216 Q1035 73.7508 1031.23 73.7508 Q1020.98 73.7508 1014.95 67.3098 Q1008.91 60.8689 1008.91 49.9314 Q1008.91 38.832 1014.99 32.472 Q1021.11 26.1121 1031.72 26.1121 Q1035.16 26.1121 1038.44 26.8413 Q1041.73 27.5299 1044.8 28.9478 Z" fill="#000000" fill-rule="nonzero" fill-opacity="1"></path><path clip-path="url(#clip210)" d="M1095.48 45.1919 L1095.48 72.576 L1088.03 72.576 L1088.03 45.4349 Q1088.03 38.994 1085.52 35.7938 Q1083 32.5936 1077.98 32.5936 Q1071.95 32.5936 1068.46 36.4419 Q1064.98 40.2903 1064.98 46.9338 L1064.98 72.576 L1057.48 72.576 L1057.48 9.54393 L1064.98 9.54393 L1064.98 34.2544 Q1067.65 30.163 1071.26 28.1376 Q1074.9 26.1121 1079.64 26.1121 Q1087.46 26.1121 1091.47 30.9732 Q1095.48 35.7938 1095.48 45.1919 Z" fill="#000000" fill-rule="nonzero" fill-opacity="1"></path><path clip-path="url(#clip210)" d="M1127.93 32.4315 Q1121.93 32.4315 1118.45 37.1306 Q1114.97 41.7891 1114.97 49.9314 Q1114.97 58.0738 1118.41 62.7728 Q1121.89 67.4314 1127.93 67.4314 Q1133.88 67.4314 1137.37 62.7323 Q1140.85 58.0333 1140.85 49.9314 Q1140.85 41.8701 1137.37 37.1711 Q1133.88 32.4315 1127.93 32.4315 M1127.93 26.1121 Q1137.65 26.1121 1143.2 32.4315 Q1148.75 38.7509 1148.75 49.9314 Q1148.75 61.0714 1143.2 67.4314 Q1137.65 73.7508 1127.93 73.7508 Q1118.17 73.7508 1112.62 67.4314 Q1107.11 61.0714 1107.11 49.9314 Q1107.11 38.7509 1112.62 32.4315 Q1118.17 26.1121 1127.93 26.1121 Z" fill="#000000" fill-rule="nonzero" fill-opacity="1"></path><path clip-path="url(#clip210)" d="M1190.96 34.0924 L1190.96 9.54393 L1198.41 9.54393 L1198.41 72.576 L1190.96 72.576 L1190.96 65.7705 Q1188.61 69.8214 1185.01 71.8063 Q1181.44 73.7508 1176.42 73.7508 Q1168.19 73.7508 1163.01 67.1883 Q1157.86 60.6258 1157.86 49.9314 Q1157.86 39.2371 1163.01 32.6746 Q1168.19 26.1121 1176.42 26.1121 Q1181.44 26.1121 1185.01 28.0971 Q1188.61 30.0415 1190.96 34.0924 M1165.56 49.9314 Q1165.56 58.1548 1168.92 62.8538 Q1172.33 67.5124 1178.24 67.5124 Q1184.16 67.5124 1187.56 62.8538 Q1190.96 58.1548 1190.96 49.9314 Q1190.96 41.7081 1187.56 37.0496 Q1184.16 32.3505 1178.24 32.3505 Q1172.33 32.3505 1168.92 37.0496 Q1165.56 41.7081 1165.56 49.9314 Z" fill="#000000" fill-rule="nonzero" fill-opacity="1"></path><path clip-path="url(#clip210)" d="M1251.48 45.1919 L1251.48 72.576 L1244.03 72.576 L1244.03 45.4349 Q1244.03 38.994 1241.52 35.7938 Q1239 32.5936 1233.98 32.5936 Q1227.95 32.5936 1224.46 36.4419 Q1220.98 40.2903 1220.98 46.9338 L1220.98 72.576 L1213.48 72.576 L1213.48 27.2059 L1220.98 27.2059 L1220.98 34.2544 Q1223.65 30.163 1227.26 28.1376 Q1230.9 26.1121 1235.64 26.1121 Q1243.46 26.1121 1247.47 30.9732 Q1251.48 35.7938 1251.48 45.1919 Z" fill="#000000" fill-rule="nonzero" fill-opacity="1"></path><path clip-path="url(#clip210)" d="M1305.16 48.0275 L1305.16 51.6733 L1270.89 51.6733 Q1271.37 59.3701 1275.5 63.421 Q1279.68 67.4314 1287.09 67.4314 Q1291.38 67.4314 1295.39 66.3781 Q1299.44 65.3249 1303.41 63.2184 L1303.41 70.267 Q1299.4 71.9684 1295.19 72.8596 Q1290.98 73.7508 1286.64 73.7508 Q1275.79 73.7508 1269.43 67.4314 Q1263.11 61.1119 1263.11 50.3365 Q1263.11 39.1965 1269.1 32.6746 Q1275.14 26.1121 1285.35 26.1121 Q1294.5 26.1121 1299.81 32.0264 Q1305.16 37.9003 1305.16 48.0275 M1297.7 45.84 Q1297.62 39.7232 1294.26 36.0774 Q1290.94 32.4315 1285.43 32.4315 Q1279.19 32.4315 1275.42 35.9558 Q1271.7 39.4801 1271.13 45.8805 L1297.7 45.84 Z" fill="#000000" fill-rule="nonzero" fill-opacity="1"></path><path clip-path="url(#clip210)" d="M1317.39 27.2059 L1324.84 27.2059 L1324.84 73.3862 Q1324.84 82.0551 1321.52 85.944 Q1318.24 89.8329 1310.91 89.8329 L1308.07 89.8329 L1308.07 83.5134 L1310.06 83.5134 Q1314.31 83.5134 1315.85 81.5285 Q1317.39 79.5841 1317.39 73.3862 L1317.39 27.2059 M1317.39 9.54393 L1324.84 9.54393 L1324.84 18.9825 L1317.39 18.9825 L1317.39 9.54393 Z" fill="#000000" fill-rule="nonzero" fill-opacity="1"></path><path clip-path="url(#clip210)" d="M1396.67 34.0924 L1396.67 9.54393 L1404.12 9.54393 L1404.12 72.576 L1396.67 72.576 L1396.67 65.7705 Q1394.32 69.8214 1390.71 71.8063 Q1387.15 73.7508 1382.12 73.7508 Q1373.9 73.7508 1368.71 67.1883 Q1363.57 60.6258 1363.57 49.9314 Q1363.57 39.2371 1368.71 32.6746 Q1373.9 26.1121 1382.12 26.1121 Q1387.15 26.1121 1390.71 28.0971 Q1394.32 30.0415 1396.67 34.0924 M1371.27 49.9314 Q1371.27 58.1548 1374.63 62.8538 Q1378.03 67.5124 1383.95 67.5124 Q1389.86 67.5124 1393.26 62.8538 Q1396.67 58.1548 1396.67 49.9314 Q1396.67 41.7081 1393.26 37.0496 Q1389.86 32.3505 1383.95 32.3505 Q1378.03 32.3505 1374.63 37.0496 Q1371.27 41.7081 1371.27 49.9314 Z" fill="#000000" fill-rule="nonzero" fill-opacity="1"></path><path clip-path="url(#clip210)" d="M1419.47 9.54393 L1426.93 9.54393 L1426.93 72.576 L1419.47 72.576 L1419.47 9.54393 Z" fill="#000000" fill-rule="nonzero" fill-opacity="1"></path><path clip-path="url(#clip210)" d="M1463.14 49.7694 Q1454.11 49.7694 1450.62 51.8354 Q1447.14 53.9013 1447.14 58.8839 Q1447.14 62.8538 1449.73 65.2034 Q1452.37 67.5124 1456.86 67.5124 Q1463.06 67.5124 1466.79 63.1374 Q1470.55 58.7219 1470.55 51.4303 L1470.55 49.7694 L1463.14 49.7694 M1478.01 46.6907 L1478.01 72.576 L1470.55 72.576 L1470.55 65.6895 Q1468 69.8214 1464.19 71.8063 Q1460.39 73.7508 1454.88 73.7508 Q1447.91 73.7508 1443.78 69.8619 Q1439.69 65.9325 1439.69 59.3701 Q1439.69 51.7138 1444.79 47.825 Q1449.94 43.9361 1460.1 43.9361 L1470.55 43.9361 L1470.55 43.2069 Q1470.55 38.0623 1467.15 35.2672 Q1463.79 32.4315 1457.67 32.4315 Q1453.78 32.4315 1450.1 33.3632 Q1446.41 34.295 1443.01 36.1584 L1443.01 29.2718 Q1447.1 27.692 1450.95 26.9223 Q1454.8 26.1121 1458.44 26.1121 Q1468.29 26.1121 1473.15 31.2163 Q1478.01 36.3204 1478.01 46.6907 Z" fill="#000000" fill-rule="nonzero" fill-opacity="1"></path><path clip-path="url(#clip210)" d="M1542.7 9.54393 L1542.7 15.7418 L1535.57 15.7418 Q1531.56 15.7418 1529.98 17.3622 Q1528.44 18.9825 1528.44 23.1955 L1528.44 27.2059 L1540.72 27.2059 L1540.72 32.9987 L1528.44 32.9987 L1528.44 72.576 L1520.95 72.576 L1520.95 32.9987 L1513.82 32.9987 L1513.82 27.2059 L1520.95 27.2059 L1520.95 24.0462 Q1520.95 16.471 1524.47 13.0277 Q1528 9.54393 1535.65 9.54393 L1542.7 9.54393 Z" fill="#000000" fill-rule="nonzero" fill-opacity="1"></path><path clip-path="url(#clip210)" d="M1566.84 9.62495 Q1561.42 18.942 1558.78 28.0566 Q1556.15 37.1711 1556.15 46.5287 Q1556.15 55.8863 1558.78 65.0818 Q1561.46 74.2369 1566.84 83.5134 L1560.36 83.5134 Q1554.29 73.9938 1551.25 64.7983 Q1548.25 55.6027 1548.25 46.5287 Q1548.25 37.4952 1551.25 28.3401 Q1554.25 19.1851 1560.36 9.62495 L1566.84 9.62495 Z" fill="#000000" fill-rule="nonzero" fill-opacity="1"></path><path clip-path="url(#clip210)" d="M1619.02 27.2059 L1602.61 49.2833 L1619.87 72.576 L1611.08 72.576 L1597.87 54.752 L1584.67 72.576 L1575.88 72.576 L1593.5 48.8377 L1577.38 27.2059 L1586.17 27.2059 L1598.2 43.369 L1610.23 27.2059 L1619.02 27.2059 Z" fill="#000000" fill-rule="nonzero" fill-opacity="1"></path><path clip-path="url(#clip210)" d="M1629.23 9.62495 L1635.71 9.62495 Q1641.79 19.1851 1644.78 28.3401 Q1647.82 37.4952 1647.82 46.5287 Q1647.82 55.6027 1644.78 64.7983 Q1641.79 73.9938 1635.71 83.5134 L1629.23 83.5134 Q1634.62 74.2369 1637.25 65.0818 Q1639.92 55.8863 1639.92 46.5287 Q1639.92 37.1711 1637.25 28.0566 Q1634.62 18.942 1629.23 9.62495 Z" fill="#000000" fill-rule="nonzero" fill-opacity="1"></path><path clip-path="url(#clip210)" d="M1690.11 34.9026 L1742.05 34.9026 L1742.05 41.7081 L1690.11 41.7081 L1690.11 34.9026 M1690.11 51.4303 L1742.05 51.4303 L1742.05 58.3168 L1690.11 58.3168 L1690.11 51.4303 Z" fill="#000000" fill-rule="nonzero" fill-opacity="1"></path><path clip-path="url(#clip210)" d="M1813.95 28.5427 L1813.95 35.5912 Q1810.79 33.9709 1807.39 33.1607 Q1803.98 32.3505 1800.34 32.3505 Q1794.79 32.3505 1791.99 34.0519 Q1789.24 35.7533 1789.24 39.156 Q1789.24 41.7486 1791.22 43.2475 Q1793.21 44.7058 1799.2 46.0426 L1801.76 46.6097 Q1809.7 48.3111 1813.02 51.4303 Q1816.38 54.509 1816.38 60.0587 Q1816.38 66.3781 1811.36 70.0644 Q1806.37 73.7508 1797.62 73.7508 Q1793.98 73.7508 1790.01 73.0216 Q1786.08 72.3329 1781.7 70.9151 L1781.7 63.2184 Q1785.84 65.3654 1789.85 66.4591 Q1793.86 67.5124 1797.79 67.5124 Q1803.05 67.5124 1805.89 65.73 Q1808.72 63.9071 1808.72 60.6258 Q1808.72 57.5877 1806.66 55.9673 Q1804.63 54.3469 1797.71 52.8481 L1795.11 52.2405 Q1788.19 50.7821 1785.11 47.7845 Q1782.03 44.7463 1782.03 39.4801 Q1782.03 33.0797 1786.57 29.5959 Q1791.1 26.1121 1799.45 26.1121 Q1803.58 26.1121 1807.22 26.7198 Q1810.87 27.3274 1813.95 28.5427 Z" fill="#000000" fill-rule="nonzero" fill-opacity="1"></path><path clip-path="url(#clip210)" d="M1828.25 27.2059 L1835.7 27.2059 L1835.7 72.576 L1828.25 72.576 L1828.25 27.2059 M1828.25 9.54393 L1835.7 9.54393 L1835.7 18.9825 L1828.25 18.9825 L1828.25 9.54393 Z" fill="#000000" fill-rule="nonzero" fill-opacity="1"></path><path clip-path="url(#clip210)" d="M1889.01 45.1919 L1889.01 72.576 L1881.56 72.576 L1881.56 45.4349 Q1881.56 38.994 1879.05 35.7938 Q1876.54 32.5936 1871.51 32.5936 Q1865.48 32.5936 1861.99 36.4419 Q1858.51 40.2903 1858.51 46.9338 L1858.51 72.576 L1851.02 72.576 L1851.02 27.2059 L1858.51 27.2059 L1858.51 34.2544 Q1861.18 30.163 1864.79 28.1376 Q1868.43 26.1121 1873.17 26.1121 Q1880.99 26.1121 1885 30.9732 Q1889.01 35.7938 1889.01 45.1919 Z" fill="#000000" fill-rule="nonzero" fill-opacity="1"></path><path clip-path="url(#clip210)" d="M1921.78 9.62495 Q1916.36 18.942 1913.72 28.0566 Q1911.09 37.1711 1911.09 46.5287 Q1911.09 55.8863 1913.72 65.0818 Q1916.4 74.2369 1921.78 83.5134 L1915.3 83.5134 Q1909.23 73.9938 1906.19 64.7983 Q1903.19 55.6027 1903.19 46.5287 Q1903.19 37.4952 1906.19 28.3401 Q1909.19 19.1851 1915.3 9.62495 L1921.78 9.62495 Z" fill="#000000" fill-rule="nonzero" fill-opacity="1"></path><path clip-path="url(#clip210)" d="M1973.96 27.2059 L1957.55 49.2833 L1974.81 72.576 L1966.02 72.576 L1952.81 54.752 L1939.61 72.576 L1930.82 72.576 L1948.44 48.8377 L1932.32 27.2059 L1941.11 27.2059 L1953.14 43.369 L1965.17 27.2059 L1973.96 27.2059 Z" fill="#000000" fill-rule="nonzero" fill-opacity="1"></path><path clip-path="url(#clip210)" d="M1984.17 9.62495 L1990.65 9.62495 Q1996.73 19.1851 1999.72 28.3401 Q2002.76 37.4952 2002.76 46.5287 Q2002.76 55.6027 1999.72 64.7983 Q1996.73 73.9938 1990.65 83.5134 L1984.17 83.5134 Q1989.56 74.2369 1992.19 65.0818 Q1994.86 55.8863 1994.86 46.5287 Q1994.86 37.1711 1992.19 28.0566 Q1989.56 18.942 1984.17 9.62495 Z" fill="#000000" fill-rule="nonzero" fill-opacity="1"></path><path clip-path="url(#clip210)" d="M2074.42 20.5624 L2074.42 43.1259 L2096.99 43.1259 L2096.99 50.0125 L2074.42 50.0125 L2074.42 72.576 L2067.62 72.576 L2067.62 50.0125 L2045.05 50.0125 L2045.05 43.1259 L2067.62 43.1259 L2067.62 20.5624 L2074.42 20.5624 Z" fill="#000000" fill-rule="nonzero" fill-opacity="1"></path><path clip-path="url(#clip210)" d="M2172.62 28.9478 L2172.62 35.9153 Q2169.46 34.1734 2166.26 33.3227 Q2163.1 32.4315 2159.86 32.4315 Q2152.6 32.4315 2148.59 37.0496 Q2144.58 41.6271 2144.58 49.9314 Q2144.58 58.2358 2148.59 62.8538 Q2152.6 67.4314 2159.86 67.4314 Q2163.1 67.4314 2166.26 66.5807 Q2169.46 65.6895 2172.62 63.9476 L2172.62 70.8341 Q2169.5 72.2924 2166.13 73.0216 Q2162.81 73.7508 2159.05 73.7508 Q2148.8 73.7508 2142.76 67.3098 Q2136.73 60.8689 2136.73 49.9314 Q2136.73 38.832 2142.8 32.472 Q2148.92 26.1121 2159.53 26.1121 Q2162.98 26.1121 2166.26 26.8413 Q2169.54 27.5299 2172.62 28.9478 Z" fill="#000000" fill-rule="nonzero" fill-opacity="1"></path><path clip-path="url(#clip210)" d="M2203.16 32.4315 Q2197.16 32.4315 2193.68 37.1306 Q2190.2 41.7891 2190.2 49.9314 Q2190.2 58.0738 2193.64 62.7728 Q2197.12 67.4314 2203.16 67.4314 Q2209.12 67.4314 2212.6 62.7323 Q2216.08 58.0333 2216.08 49.9314 Q2216.08 41.8701 2212.6 37.1711 Q2209.12 32.4315 2203.16 32.4315 M2203.16 26.1121 Q2212.88 26.1121 2218.43 32.4315 Q2223.98 38.7509 2223.98 49.9314 Q2223.98 61.0714 2218.43 67.4314 Q2212.88 73.7508 2203.16 73.7508 Q2193.4 73.7508 2187.85 67.4314 Q2182.34 61.0714 2182.34 49.9314 Q2182.34 38.7509 2187.85 32.4315 Q2193.4 26.1121 2203.16 26.1121 Z" fill="#000000" fill-rule="nonzero" fill-opacity="1"></path><path clip-path="url(#clip210)" d="M2265.26 28.5427 L2265.26 35.5912 Q2262.1 33.9709 2258.7 33.1607 Q2255.3 32.3505 2251.65 32.3505 Q2246.1 32.3505 2243.3 34.0519 Q2240.55 35.7533 2240.55 39.156 Q2240.55 41.7486 2242.53 43.2475 Q2244.52 44.7058 2250.52 46.0426 L2253.07 46.6097 Q2261.01 48.3111 2264.33 51.4303 Q2267.69 54.509 2267.69 60.0587 Q2267.69 66.3781 2262.67 70.0644 Q2257.69 73.7508 2248.94 73.7508 Q2245.29 73.7508 2241.32 73.0216 Q2237.39 72.3329 2233.02 70.9151 L2233.02 63.2184 Q2237.15 65.3654 2241.16 66.4591 Q2245.17 67.5124 2249.1 67.5124 Q2254.36 67.5124 2257.2 65.73 Q2260.03 63.9071 2260.03 60.6258 Q2260.03 57.5877 2257.97 55.9673 Q2255.94 54.3469 2249.02 52.8481 L2246.42 52.2405 Q2239.5 50.7821 2236.42 47.7845 Q2233.34 44.7463 2233.34 39.4801 Q2233.34 33.0797 2237.88 29.5959 Q2242.41 26.1121 2250.76 26.1121 Q2254.89 26.1121 2258.54 26.7198 Q2262.18 27.3274 2265.26 28.5427 Z" fill="#000000" fill-rule="nonzero" fill-opacity="1"></path><path clip-path="url(#clip210)" d="M2297.47 9.62495 Q2292.04 18.942 2289.4 28.0566 Q2286.77 37.1711 2286.77 46.5287 Q2286.77 55.8863 2289.4 65.0818 Q2292.08 74.2369 2297.47 83.5134 L2290.98 83.5134 Q2284.91 73.9938 2281.87 64.7983 Q2278.87 55.6027 2278.87 46.5287 Q2278.87 37.4952 2281.87 28.3401 Q2284.87 19.1851 2290.98 9.62495 L2297.47 9.62495 Z" fill="#000000" fill-rule="nonzero" fill-opacity="1"></path><path clip-path="url(#clip210)" d="M2337.77 39.9662 Q2343.65 41.222 2346.93 45.1919 Q2350.25 49.1618 2350.25 54.9951 Q2350.25 63.9476 2344.09 68.8492 Q2337.93 73.7508 2326.59 73.7508 Q2322.78 73.7508 2318.73 72.9811 Q2314.72 72.2519 2310.43 70.7531 L2310.43 62.8538 Q2313.83 64.8388 2317.88 65.8515 Q2321.93 66.8642 2326.35 66.8642 Q2334.04 66.8642 2338.06 63.826 Q2342.11 60.7879 2342.11 54.9951 Q2342.11 49.6479 2338.34 46.6502 Q2334.61 43.612 2327.93 43.612 L2320.88 43.612 L2320.88 36.8875 L2328.25 36.8875 Q2334.29 36.8875 2337.49 34.4975 Q2340.69 32.067 2340.69 27.5299 Q2340.69 22.8714 2337.37 20.4004 Q2334.09 17.8888 2327.93 17.8888 Q2324.57 17.8888 2320.72 18.618 Q2316.87 19.3471 2312.25 20.8865 L2312.25 13.5948 Q2316.91 12.2985 2320.96 11.6504 Q2325.05 11.0023 2328.66 11.0023 Q2337.97 11.0023 2343.4 15.2557 Q2348.83 19.4686 2348.83 26.6793 Q2348.83 31.7024 2345.95 35.1862 Q2343.08 38.6294 2337.77 39.9662 Z" fill="#000000" fill-rule="nonzero" fill-opacity="1"></path><path clip-path="url(#clip210)" d="M2402.42 27.2059 L2386.02 49.2833 L2403.27 72.576 L2394.48 72.576 L2381.28 54.752 L2368.07 72.576 L2359.28 72.576 L2376.9 48.8377 L2360.78 27.2059 L2369.57 27.2059 L2381.6 43.369 L2393.63 27.2059 L2402.42 27.2059 Z" fill="#000000" fill-rule="nonzero" fill-opacity="1"></path><path clip-path="url(#clip210)" d="M2412.63 9.62495 L2419.11 9.62495 Q2425.19 19.1851 2428.19 28.3401 Q2431.23 37.4952 2431.23 46.5287 Q2431.23 55.6027 2428.19 64.7983 Q2425.19 73.9938 2419.11 83.5134 L2412.63 83.5134 Q2418.02 74.2369 2420.65 65.0818 Q2423.33 55.8863 2423.33 46.5287 Q2423.33 37.1711 2420.65 28.0566 Q2418.02 18.942 2412.63 9.62495 Z" fill="#000000" fill-rule="nonzero" fill-opacity="1"></path><polyline clip-path="url(#clip212)" style="stroke:#009af9; stroke-linecap:round; stroke-linejoin:round; stroke-width:8; stroke-opacity:1; fill:none" points="2293.29,159.909 2256.58,164.865 2219.87,199.886 2183.16,241.079 2146.45,283.531 2109.75,326.167 2073.04,368.785 2036.33,411.367 1999.62,453.923 1962.91,496.464 1926.2,538.998 1889.49,581.528 1852.79,624.056 1816.08,666.583 1779.37,709.109 1742.66,751.636 1705.95,794.162 1669.24,836.688 1632.53,879.214 1595.83,921.74 1559.12,964.266 1522.41,1006.79 1485.7,1049.35 1448.99,1091.87 1412.28,1134.62 1375.58,1178.8 1338.87,1222.73 1302.16,1253.3 1265.45,1374.46 1228.74,1225.1 1192.03,1179.94 1155.32,1179.94 1118.62,1110.85 1081.91,1058.39 1045.2,1058.39 1008.49,985.157 971.781,1042.34 935.073,884.23 898.364,1042.34 861.656,795.777 824.947,752.703 788.239,1042.34 751.53,709.904 714.822,642.321 678.113,709.362 641.405,543.507 604.696,498.96 567.988,498.96 531.279,430.246 494.571,495.107 457.862,330.987 421.154,330.987 384.445,228.953 347.737,330.987 311.028,330.987 "></polyline>
<circle clip-path="url(#clip212)" cx="2293.29" cy="159.909" r="14.4" fill="#009af9" fill-rule="evenodd" fill-opacity="1" stroke="#000000" stroke-opacity="1" stroke-width="3.2"></circle>
<circle clip-path="url(#clip212)" cx="2256.58" cy="164.865" r="14.4" fill="#009af9" fill-rule="evenodd" fill-opacity="1" stroke="#000000" stroke-opacity="1" stroke-width="3.2"></circle>
<circle clip-path="url(#clip212)" cx="2219.87" cy="199.886" r="14.4" fill="#009af9" fill-rule="evenodd" fill-opacity="1" stroke="#000000" stroke-opacity="1" stroke-width="3.2"></circle>
<circle clip-path="url(#clip212)" cx="2183.16" cy="241.079" r="14.4" fill="#009af9" fill-rule="evenodd" fill-opacity="1" stroke="#000000" stroke-opacity="1" stroke-width="3.2"></circle>
<circle clip-path="url(#clip212)" cx="2146.45" cy="283.531" r="14.4" fill="#009af9" fill-rule="evenodd" fill-opacity="1" stroke="#000000" stroke-opacity="1" stroke-width="3.2"></circle>
<circle clip-path="url(#clip212)" cx="2109.75" cy="326.167" r="14.4" fill="#009af9" fill-rule="evenodd" fill-opacity="1" stroke="#000000" stroke-opacity="1" stroke-width="3.2"></circle>
<circle clip-path="url(#clip212)" cx="2073.04" cy="368.785" r="14.4" fill="#009af9" fill-rule="evenodd" fill-opacity="1" stroke="#000000" stroke-opacity="1" stroke-width="3.2"></circle>
<circle clip-path="url(#clip212)" cx="2036.33" cy="411.367" r="14.4" fill="#009af9" fill-rule="evenodd" fill-opacity="1" stroke="#000000" stroke-opacity="1" stroke-width="3.2"></circle>
<circle clip-path="url(#clip212)" cx="1999.62" cy="453.923" r="14.4" fill="#009af9" fill-rule="evenodd" fill-opacity="1" stroke="#000000" stroke-opacity="1" stroke-width="3.2"></circle>
<circle clip-path="url(#clip212)" cx="1962.91" cy="496.464" r="14.4" fill="#009af9" fill-rule="evenodd" fill-opacity="1" stroke="#000000" stroke-opacity="1" stroke-width="3.2"></circle>
<circle clip-path="url(#clip212)" cx="1926.2" cy="538.998" r="14.4" fill="#009af9" fill-rule="evenodd" fill-opacity="1" stroke="#000000" stroke-opacity="1" stroke-width="3.2"></circle>
<circle clip-path="url(#clip212)" cx="1889.49" cy="581.528" r="14.4" fill="#009af9" fill-rule="evenodd" fill-opacity="1" stroke="#000000" stroke-opacity="1" stroke-width="3.2"></circle>
<circle clip-path="url(#clip212)" cx="1852.79" cy="624.056" r="14.4" fill="#009af9" fill-rule="evenodd" fill-opacity="1" stroke="#000000" stroke-opacity="1" stroke-width="3.2"></circle>
<circle clip-path="url(#clip212)" cx="1816.08" cy="666.583" r="14.4" fill="#009af9" fill-rule="evenodd" fill-opacity="1" stroke="#000000" stroke-opacity="1" stroke-width="3.2"></circle>
<circle clip-path="url(#clip212)" cx="1779.37" cy="709.109" r="14.4" fill="#009af9" fill-rule="evenodd" fill-opacity="1" stroke="#000000" stroke-opacity="1" stroke-width="3.2"></circle>
<circle clip-path="url(#clip212)" cx="1742.66" cy="751.636" r="14.4" fill="#009af9" fill-rule="evenodd" fill-opacity="1" stroke="#000000" stroke-opacity="1" stroke-width="3.2"></circle>
<circle clip-path="url(#clip212)" cx="1705.95" cy="794.162" r="14.4" fill="#009af9" fill-rule="evenodd" fill-opacity="1" stroke="#000000" stroke-opacity="1" stroke-width="3.2"></circle>
<circle clip-path="url(#clip212)" cx="1669.24" cy="836.688" r="14.4" fill="#009af9" fill-rule="evenodd" fill-opacity="1" stroke="#000000" stroke-opacity="1" stroke-width="3.2"></circle>
<circle clip-path="url(#clip212)" cx="1632.53" cy="879.214" r="14.4" fill="#009af9" fill-rule="evenodd" fill-opacity="1" stroke="#000000" stroke-opacity="1" stroke-width="3.2"></circle>
<circle clip-path="url(#clip212)" cx="1595.83" cy="921.74" r="14.4" fill="#009af9" fill-rule="evenodd" fill-opacity="1" stroke="#000000" stroke-opacity="1" stroke-width="3.2"></circle>
<circle clip-path="url(#clip212)" cx="1559.12" cy="964.266" r="14.4" fill="#009af9" fill-rule="evenodd" fill-opacity="1" stroke="#000000" stroke-opacity="1" stroke-width="3.2"></circle>
<circle clip-path="url(#clip212)" cx="1522.41" cy="1006.79" r="14.4" fill="#009af9" fill-rule="evenodd" fill-opacity="1" stroke="#000000" stroke-opacity="1" stroke-width="3.2"></circle>
<circle clip-path="url(#clip212)" cx="1485.7" cy="1049.35" r="14.4" fill="#009af9" fill-rule="evenodd" fill-opacity="1" stroke="#000000" stroke-opacity="1" stroke-width="3.2"></circle>
<circle clip-path="url(#clip212)" cx="1448.99" cy="1091.87" r="14.4" fill="#009af9" fill-rule="evenodd" fill-opacity="1" stroke="#000000" stroke-opacity="1" stroke-width="3.2"></circle>
<circle clip-path="url(#clip212)" cx="1412.28" cy="1134.62" r="14.4" fill="#009af9" fill-rule="evenodd" fill-opacity="1" stroke="#000000" stroke-opacity="1" stroke-width="3.2"></circle>
<circle clip-path="url(#clip212)" cx="1375.58" cy="1178.8" r="14.4" fill="#009af9" fill-rule="evenodd" fill-opacity="1" stroke="#000000" stroke-opacity="1" stroke-width="3.2"></circle>
<circle clip-path="url(#clip212)" cx="1338.87" cy="1222.73" r="14.4" fill="#009af9" fill-rule="evenodd" fill-opacity="1" stroke="#000000" stroke-opacity="1" stroke-width="3.2"></circle>
<circle clip-path="url(#clip212)" cx="1302.16" cy="1253.3" r="14.4" fill="#009af9" fill-rule="evenodd" fill-opacity="1" stroke="#000000" stroke-opacity="1" stroke-width="3.2"></circle>
<circle clip-path="url(#clip212)" cx="1265.45" cy="1374.46" r="14.4" fill="#009af9" fill-rule="evenodd" fill-opacity="1" stroke="#000000" stroke-opacity="1" stroke-width="3.2"></circle>
<circle clip-path="url(#clip212)" cx="1228.74" cy="1225.1" r="14.4" fill="#009af9" fill-rule="evenodd" fill-opacity="1" stroke="#000000" stroke-opacity="1" stroke-width="3.2"></circle>
<circle clip-path="url(#clip212)" cx="1192.03" cy="1179.94" r="14.4" fill="#009af9" fill-rule="evenodd" fill-opacity="1" stroke="#000000" stroke-opacity="1" stroke-width="3.2"></circle>
<circle clip-path="url(#clip212)" cx="1155.32" cy="1179.94" r="14.4" fill="#009af9" fill-rule="evenodd" fill-opacity="1" stroke="#000000" stroke-opacity="1" stroke-width="3.2"></circle>
<circle clip-path="url(#clip212)" cx="1118.62" cy="1110.85" r="14.4" fill="#009af9" fill-rule="evenodd" fill-opacity="1" stroke="#000000" stroke-opacity="1" stroke-width="3.2"></circle>
<circle clip-path="url(#clip212)" cx="1081.91" cy="1058.39" r="14.4" fill="#009af9" fill-rule="evenodd" fill-opacity="1" stroke="#000000" stroke-opacity="1" stroke-width="3.2"></circle>
<circle clip-path="url(#clip212)" cx="1045.2" cy="1058.39" r="14.4" fill="#009af9" fill-rule="evenodd" fill-opacity="1" stroke="#000000" stroke-opacity="1" stroke-width="3.2"></circle>
<circle clip-path="url(#clip212)" cx="1008.49" cy="985.157" r="14.4" fill="#009af9" fill-rule="evenodd" fill-opacity="1" stroke="#000000" stroke-opacity="1" stroke-width="3.2"></circle>
<circle clip-path="url(#clip212)" cx="971.781" cy="1042.34" r="14.4" fill="#009af9" fill-rule="evenodd" fill-opacity="1" stroke="#000000" stroke-opacity="1" stroke-width="3.2"></circle>
<circle clip-path="url(#clip212)" cx="935.073" cy="884.23" r="14.4" fill="#009af9" fill-rule="evenodd" fill-opacity="1" stroke="#000000" stroke-opacity="1" stroke-width="3.2"></circle>
<circle clip-path="url(#clip212)" cx="898.364" cy="1042.34" r="14.4" fill="#009af9" fill-rule="evenodd" fill-opacity="1" stroke="#000000" stroke-opacity="1" stroke-width="3.2"></circle>
<circle clip-path="url(#clip212)" cx="861.656" cy="795.777" r="14.4" fill="#009af9" fill-rule="evenodd" fill-opacity="1" stroke="#000000" stroke-opacity="1" stroke-width="3.2"></circle>
<circle clip-path="url(#clip212)" cx="824.947" cy="752.703" r="14.4" fill="#009af9" fill-rule="evenodd" fill-opacity="1" stroke="#000000" stroke-opacity="1" stroke-width="3.2"></circle>
<circle clip-path="url(#clip212)" cx="788.239" cy="1042.34" r="14.4" fill="#009af9" fill-rule="evenodd" fill-opacity="1" stroke="#000000" stroke-opacity="1" stroke-width="3.2"></circle>
<circle clip-path="url(#clip212)" cx="751.53" cy="709.904" r="14.4" fill="#009af9" fill-rule="evenodd" fill-opacity="1" stroke="#000000" stroke-opacity="1" stroke-width="3.2"></circle>
<circle clip-path="url(#clip212)" cx="714.822" cy="642.321" r="14.4" fill="#009af9" fill-rule="evenodd" fill-opacity="1" stroke="#000000" stroke-opacity="1" stroke-width="3.2"></circle>
<circle clip-path="url(#clip212)" cx="678.113" cy="709.362" r="14.4" fill="#009af9" fill-rule="evenodd" fill-opacity="1" stroke="#000000" stroke-opacity="1" stroke-width="3.2"></circle>
<circle clip-path="url(#clip212)" cx="641.405" cy="543.507" r="14.4" fill="#009af9" fill-rule="evenodd" fill-opacity="1" stroke="#000000" stroke-opacity="1" stroke-width="3.2"></circle>
<circle clip-path="url(#clip212)" cx="604.696" cy="498.96" r="14.4" fill="#009af9" fill-rule="evenodd" fill-opacity="1" stroke="#000000" stroke-opacity="1" stroke-width="3.2"></circle>
<circle clip-path="url(#clip212)" cx="567.988" cy="498.96" r="14.4" fill="#009af9" fill-rule="evenodd" fill-opacity="1" stroke="#000000" stroke-opacity="1" stroke-width="3.2"></circle>
<circle clip-path="url(#clip212)" cx="531.279" cy="430.246" r="14.4" fill="#009af9" fill-rule="evenodd" fill-opacity="1" stroke="#000000" stroke-opacity="1" stroke-width="3.2"></circle>
<circle clip-path="url(#clip212)" cx="494.571" cy="495.107" r="14.4" fill="#009af9" fill-rule="evenodd" fill-opacity="1" stroke="#000000" stroke-opacity="1" stroke-width="3.2"></circle>
<circle clip-path="url(#clip212)" cx="457.862" cy="330.987" r="14.4" fill="#009af9" fill-rule="evenodd" fill-opacity="1" stroke="#000000" stroke-opacity="1" stroke-width="3.2"></circle>
<circle clip-path="url(#clip212)" cx="421.154" cy="330.987" r="14.4" fill="#009af9" fill-rule="evenodd" fill-opacity="1" stroke="#000000" stroke-opacity="1" stroke-width="3.2"></circle>
<circle clip-path="url(#clip212)" cx="384.445" cy="228.953" r="14.4" fill="#009af9" fill-rule="evenodd" fill-opacity="1" stroke="#000000" stroke-opacity="1" stroke-width="3.2"></circle>
<circle clip-path="url(#clip212)" cx="347.737" cy="330.987" r="14.4" fill="#009af9" fill-rule="evenodd" fill-opacity="1" stroke="#000000" stroke-opacity="1" stroke-width="3.2"></circle>
<circle clip-path="url(#clip212)" cx="311.028" cy="330.987" r="14.4" fill="#009af9" fill-rule="evenodd" fill-opacity="1" stroke="#000000" stroke-opacity="1" stroke-width="3.2"></circle>
<circle clip-path="url(#clip212)" cx="1265.45" cy="1374.46" r="14.4" fill="#ff0000" fill-rule="evenodd" fill-opacity="1" stroke="#000000" stroke-opacity="1" stroke-width="3.2"></circle>
<path clip-path="url(#clip210)" d="M1178.33 1370.79 Q1179.93 1367.92 1182.15 1366.56 Q1184.37 1365.19 1187.38 1365.19 Q1191.43 1365.19 1193.63 1368.04 Q1195.83 1370.86 1195.83 1376.09 L1195.83 1391.74 L1191.55 1391.74 L1191.55 1376.23 Q1191.55 1372.5 1190.23 1370.7 Q1188.91 1368.89 1186.2 1368.89 Q1182.89 1368.89 1180.97 1371.09 Q1179.05 1373.29 1179.05 1377.09 L1179.05 1391.74 L1174.77 1391.74 L1174.77 1376.23 Q1174.77 1372.48 1173.45 1370.7 Q1172.13 1368.89 1169.37 1368.89 Q1166.11 1368.89 1164.19 1371.12 Q1162.27 1373.31 1162.27 1377.09 L1162.27 1391.74 L1157.98 1391.74 L1157.98 1365.81 L1162.27 1365.81 L1162.27 1369.84 Q1163.73 1367.46 1165.76 1366.32 Q1167.8 1365.19 1170.6 1365.19 Q1173.42 1365.19 1175.39 1366.62 Q1177.38 1368.06 1178.33 1370.79 Z" fill="#ff0000" fill-rule="nonzero" fill-opacity="1"></path><path clip-path="url(#clip210)" d="M1204.33 1365.81 L1208.59 1365.81 L1208.59 1391.74 L1204.33 1391.74 L1204.33 1365.81 M1204.33 1355.72 L1208.59 1355.72 L1208.59 1361.12 L1204.33 1361.12 L1204.33 1355.72 Z" fill="#ff0000" fill-rule="nonzero" fill-opacity="1"></path><path clip-path="url(#clip210)" d="M1239.05 1376.09 L1239.05 1391.74 L1234.79 1391.74 L1234.79 1376.23 Q1234.79 1372.55 1233.35 1370.72 Q1231.92 1368.89 1229.05 1368.89 Q1225.6 1368.89 1223.61 1371.09 Q1221.62 1373.29 1221.62 1377.09 L1221.62 1391.74 L1217.34 1391.74 L1217.34 1365.81 L1221.62 1365.81 L1221.62 1369.84 Q1223.15 1367.5 1225.21 1366.35 Q1227.29 1365.19 1230 1365.19 Q1234.47 1365.19 1236.76 1367.97 Q1239.05 1370.72 1239.05 1376.09 Z" fill="#ff0000" fill-rule="nonzero" fill-opacity="1"></path><path clip-path="url(#clip210)" d="M1284.79 1377.71 L1284.79 1379.8 L1265.21 1379.8 Q1265.48 1384.19 1267.85 1386.51 Q1270.23 1388.8 1274.47 1388.8 Q1276.92 1388.8 1279.21 1388.2 Q1281.53 1387.6 1283.79 1386.39 L1283.79 1390.42 Q1281.5 1391.39 1279.1 1391.9 Q1276.69 1392.41 1274.21 1392.41 Q1268.01 1392.41 1264.37 1388.8 Q1260.76 1385.19 1260.76 1379.03 Q1260.76 1372.67 1264.19 1368.94 Q1267.64 1365.19 1273.47 1365.19 Q1278.7 1365.19 1281.73 1368.57 Q1284.79 1371.93 1284.79 1377.71 M1280.53 1376.46 Q1280.48 1372.97 1278.56 1370.88 Q1276.66 1368.8 1273.52 1368.8 Q1269.95 1368.8 1267.8 1370.81 Q1265.67 1372.83 1265.35 1376.49 L1280.53 1376.46 Z" fill="#ff0000" fill-rule="nonzero" fill-opacity="1"></path><path clip-path="url(#clip210)" d="M1306.8 1369.8 Q1306.09 1369.38 1305.23 1369.19 Q1304.4 1368.99 1303.38 1368.99 Q1299.77 1368.99 1297.82 1371.35 Q1295.9 1373.68 1295.9 1378.08 L1295.9 1391.74 L1291.62 1391.74 L1291.62 1365.81 L1295.9 1365.81 L1295.9 1369.84 Q1297.24 1367.48 1299.4 1366.35 Q1301.55 1365.19 1304.63 1365.19 Q1305.07 1365.19 1305.6 1365.26 Q1306.13 1365.31 1306.78 1365.42 L1306.8 1369.8 Z" fill="#ff0000" fill-rule="nonzero" fill-opacity="1"></path><path clip-path="url(#clip210)" d="M1325.46 1369.8 Q1324.74 1369.38 1323.89 1369.19 Q1323.05 1368.99 1322.03 1368.99 Q1318.42 1368.99 1316.48 1371.35 Q1314.56 1373.68 1314.56 1378.08 L1314.56 1391.74 L1310.28 1391.74 L1310.28 1365.81 L1314.56 1365.81 L1314.56 1369.84 Q1315.9 1367.48 1318.05 1366.35 Q1320.21 1365.19 1323.28 1365.19 Q1323.72 1365.19 1324.26 1365.26 Q1324.79 1365.31 1325.44 1365.42 L1325.46 1369.8 Z" fill="#ff0000" fill-rule="nonzero" fill-opacity="1"></path><path clip-path="url(#clip210)" d="M1338.93 1368.8 Q1335.51 1368.8 1333.52 1371.49 Q1331.53 1374.15 1331.53 1378.8 Q1331.53 1383.45 1333.49 1386.14 Q1335.48 1388.8 1338.93 1388.8 Q1342.34 1388.8 1344.33 1386.12 Q1346.32 1383.43 1346.32 1378.8 Q1346.32 1374.19 1344.33 1371.51 Q1342.34 1368.8 1338.93 1368.8 M1338.93 1365.19 Q1344.49 1365.19 1347.66 1368.8 Q1350.83 1372.41 1350.83 1378.8 Q1350.83 1385.17 1347.66 1388.8 Q1344.49 1392.41 1338.93 1392.41 Q1333.35 1392.41 1330.18 1388.8 Q1327.03 1385.17 1327.03 1378.8 Q1327.03 1372.41 1330.18 1368.8 Q1333.35 1365.19 1338.93 1365.19 Z" fill="#ff0000" fill-rule="nonzero" fill-opacity="1"></path><path clip-path="url(#clip210)" d="M1372.91 1369.8 Q1372.2 1369.38 1371.34 1369.19 Q1370.51 1368.99 1369.49 1368.99 Q1365.88 1368.99 1363.93 1371.35 Q1362.01 1373.68 1362.01 1378.08 L1362.01 1391.74 L1357.73 1391.74 L1357.73 1365.81 L1362.01 1365.81 L1362.01 1369.84 Q1363.35 1367.48 1365.51 1366.35 Q1367.66 1365.19 1370.74 1365.19 Q1371.18 1365.19 1371.71 1365.26 Q1372.24 1365.31 1372.89 1365.42 L1372.91 1369.8 Z" fill="#ff0000" fill-rule="nonzero" fill-opacity="1"></path></svg>