<svg xmlns="http://www.w3.org/2000/svg" xmlns:xlink="http://www.w3.org/1999/xlink" width="600" height="400" viewBox="0 0 2400 1600">
<defs>
  <clipPath id="clip330">
    <rect x="0" y="0" width="2400" height="1600"></rect>
  </clipPath>
</defs>
<path clip-path="url(#clip330)" d="M0 1600 L2400 1600 L2400 0 L0 0  Z" fill="#ffffff" fill-rule="evenodd" fill-opacity="1"></path>
<defs>
  <clipPath id="clip331">
    <rect x="480" y="0" width="1681" height="1600"></rect>
  </clipPath>
</defs>
<path clip-path="url(#clip330)" d="M249.195 1410.9 L2352.76 1410.9 L2352.76 123.472 L249.195 123.472  Z" fill="#ffffff" fill-rule="evenodd" fill-opacity="1"></path>
<defs>
  <clipPath id="clip332">
    <rect x="249" y="123" width="2105" height="1288"></rect>
  </clipPath>
</defs>
<polyline clip-path="url(#clip332)" style="stroke:#000000; stroke-linecap:round; stroke-linejoin:round; stroke-width:2; stroke-opacity:0.1; fill:none" points="1072.42,1410.9 1072.42,123.472 "></polyline>
<polyline clip-path="url(#clip332)" style="stroke:#000000; stroke-linecap:round; stroke-linejoin:round; stroke-width:2; stroke-opacity:0.1; fill:none" points="2293.22,1410.9 2293.22,123.472 "></polyline>
<polyline clip-path="url(#clip332)" style="stroke:#000000; stroke-linecap:round; stroke-linejoin:round; stroke-width:2; stroke-opacity:0.1; fill:none" points="249.195,1374.46 2352.76,1374.46 "></polyline>
<polyline clip-path="url(#clip332)" style="stroke:#000000; stroke-linecap:round; stroke-linejoin:round; stroke-width:2; stroke-opacity:0.1; fill:none" points="249.195,1070.82 2352.76,1070.82 "></polyline>
<polyline clip-path="url(#clip332)" style="stroke:#000000; stroke-linecap:round; stroke-linejoin:round; stroke-width:2; stroke-opacity:0.1; fill:none" points="249.195,767.184 2352.76,767.184 "></polyline>
<polyline clip-path="url(#clip332)" style="stroke:#000000; stroke-linecap:round; stroke-linejoin:round; stroke-width:2; stroke-opacity:0.1; fill:none" points="249.195,463.547 2352.76,463.547 "></polyline>
<polyline clip-path="url(#clip332)" style="stroke:#000000; stroke-linecap:round; stroke-linejoin:round; stroke-width:2; stroke-opacity:0.1; fill:none" points="249.195,159.909 2352.76,159.909 "></polyline>
<polyline clip-path="url(#clip330)" style="stroke:#000000; stroke-linecap:round; stroke-linejoin:round; stroke-width:4; stroke-opacity:1; fill:none" points="249.195,1410.9 2352.76,1410.9 "></polyline>
<polyline clip-path="url(#clip330)" style="stroke:#000000; stroke-linecap:round; stroke-linejoin:round; stroke-width:4; stroke-opacity:1; fill:none" points="1072.42,1410.9 1072.42,1392 "></polyline>
<polyline clip-path="url(#clip330)" style="stroke:#000000; stroke-linecap:round; stroke-linejoin:round; stroke-width:4; stroke-opacity:1; fill:none" points="2293.22,1410.9 2293.22,1392 "></polyline>
<path clip-path="url(#clip330)" d="M1009.78 1485.02 L1017.42 1485.02 L1017.42 1458.66 L1009.11 1460.32 L1009.11 1456.06 L1017.37 1454.4 L1022.05 1454.4 L1022.05 1485.02 L1029.69 1485.02 L1029.69 1488.96 L1009.78 1488.96 L1009.78 1485.02 Z" fill="#000000" fill-rule="nonzero" fill-opacity="1"></path><path clip-path="url(#clip330)" d="M1049.13 1457.48 Q1045.52 1457.48 1043.69 1461.04 Q1041.89 1464.58 1041.89 1471.71 Q1041.89 1478.82 1043.69 1482.38 Q1045.52 1485.92 1049.13 1485.92 Q1052.77 1485.92 1054.57 1482.38 Q1056.4 1478.82 1056.4 1471.71 Q1056.4 1464.58 1054.57 1461.04 Q1052.77 1457.48 1049.13 1457.48 M1049.13 1453.77 Q1054.94 1453.77 1058 1458.38 Q1061.08 1462.96 1061.08 1471.71 Q1061.08 1480.44 1058 1485.04 Q1054.94 1489.63 1049.13 1489.63 Q1043.32 1489.63 1040.24 1485.04 Q1037.19 1480.44 1037.19 1471.71 Q1037.19 1462.96 1040.24 1458.38 Q1043.32 1453.77 1049.13 1453.77 Z" fill="#000000" fill-rule="nonzero" fill-opacity="1"></path><path clip-path="url(#clip330)" d="M1061.08 1447.87 L1085.19 1447.87 L1085.19 1451.07 L1061.08 1451.07 L1061.08 1447.87 Z" fill="#000000" fill-rule="nonzero" fill-opacity="1"></path><path clip-path="url(#clip330)" d="M1094.05 1458.35 L1100.25 1458.35 L1100.25 1436.93 L1093.5 1438.28 L1093.5 1434.82 L1100.22 1433.47 L1104.02 1433.47 L1104.02 1458.35 L1110.22 1458.35 L1110.22 1461.55 L1094.05 1461.55 L1094.05 1458.35 Z" fill="#000000" fill-rule="nonzero" fill-opacity="1"></path><path clip-path="url(#clip330)" d="M1126.02 1435.97 Q1123.09 1435.97 1121.6 1438.86 Q1120.13 1441.74 1120.13 1447.53 Q1120.13 1453.31 1121.6 1456.2 Q1123.09 1459.08 1126.02 1459.08 Q1128.97 1459.08 1130.44 1456.2 Q1131.93 1453.31 1131.93 1447.53 Q1131.93 1441.74 1130.44 1438.86 Q1128.97 1435.97 1126.02 1435.97 M1126.02 1432.96 Q1130.74 1432.96 1133.22 1436.7 Q1135.73 1440.43 1135.73 1447.53 Q1135.73 1454.62 1133.22 1458.37 Q1130.74 1462.09 1126.02 1462.09 Q1121.3 1462.09 1118.8 1458.37 Q1116.32 1454.62 1116.32 1447.53 Q1116.32 1440.43 1118.8 1436.7 Q1121.3 1432.96 1126.02 1432.96 Z" fill="#000000" fill-rule="nonzero" fill-opacity="1"></path><path clip-path="url(#clip330)" d="M2258.2 1485.02 L2265.84 1485.02 L2265.84 1458.66 L2257.53 1460.32 L2257.53 1456.06 L2265.8 1454.4 L2270.47 1454.4 L2270.47 1485.02 L2278.11 1485.02 L2278.11 1488.96 L2258.2 1488.96 L2258.2 1485.02 Z" fill="#000000" fill-rule="nonzero" fill-opacity="1"></path><path clip-path="url(#clip330)" d="M2297.56 1457.48 Q2293.94 1457.48 2292.12 1461.04 Q2290.31 1464.58 2290.31 1471.71 Q2290.31 1478.82 2292.12 1482.38 Q2293.94 1485.92 2297.56 1485.92 Q2301.19 1485.92 2303 1482.38 Q2304.82 1478.82 2304.82 1471.71 Q2304.82 1464.58 2303 1461.04 Q2301.19 1457.48 2297.56 1457.48 M2297.56 1453.77 Q2303.37 1453.77 2306.42 1458.38 Q2309.5 1462.96 2309.5 1471.71 Q2309.5 1480.44 2306.42 1485.04 Q2303.37 1489.63 2297.56 1489.63 Q2291.75 1489.63 2288.67 1485.04 Q2285.61 1480.44 2285.61 1471.71 Q2285.61 1462.96 2288.67 1458.38 Q2291.75 1453.77 2297.56 1453.77 Z" fill="#000000" fill-rule="nonzero" fill-opacity="1"></path><path clip-path="url(#clip330)" d="M2319.2 1435.97 Q2316.27 1435.97 2314.78 1438.86 Q2313.32 1441.74 2313.32 1447.53 Q2313.32 1453.31 2314.78 1456.2 Q2316.27 1459.08 2319.2 1459.08 Q2322.16 1459.08 2323.62 1456.2 Q2325.11 1453.31 2325.11 1447.53 Q2325.11 1441.74 2323.62 1438.86 Q2322.16 1435.97 2319.2 1435.97 M2319.2 1432.96 Q2323.93 1432.96 2326.41 1436.7 Q2328.91 1440.43 2328.91 1447.53 Q2328.91 1454.62 2326.41 1458.37 Q2323.93 1462.09 2319.2 1462.09 Q2314.48 1462.09 2311.98 1458.37 Q2309.5 1454.62 2309.5 1447.53 Q2309.5 1440.43 2311.98 1436.7 Q2314.48 1432.96 2319.2 1432.96 Z" fill="#000000" fill-rule="nonzero" fill-opacity="1"></path><path clip-path="url(#clip330)" d="M1315.9 1552.67 L1315.9 1574.19 L1310.05 1574.19 L1310.05 1552.86 Q1310.05 1547.8 1308.07 1545.29 Q1306.1 1542.77 1302.15 1542.77 Q1297.41 1542.77 1294.67 1545.79 Q1291.94 1548.82 1291.94 1554.04 L1291.94 1574.19 L1286.05 1574.19 L1286.05 1524.66 L1291.94 1524.66 L1291.94 1544.08 Q1294.04 1540.86 1296.87 1539.27 Q1299.73 1537.68 1303.46 1537.68 Q1309.6 1537.68 1312.75 1541.5 Q1315.9 1545.29 1315.9 1552.67 Z" fill="#000000" fill-rule="nonzero" fill-opacity="1"></path><polyline clip-path="url(#clip330)" style="stroke:#000000; stroke-linecap:round; stroke-linejoin:round; stroke-width:4; stroke-opacity:1; fill:none" points="249.195,1410.9 249.195,123.472 "></polyline>
<polyline clip-path="url(#clip330)" style="stroke:#000000; stroke-linecap:round; stroke-linejoin:round; stroke-width:4; stroke-opacity:1; fill:none" points="249.195,1374.46 268.092,1374.46 "></polyline>
<polyline clip-path="url(#clip330)" style="stroke:#000000; stroke-linecap:round; stroke-linejoin:round; stroke-width:4; stroke-opacity:1; fill:none" points="249.195,1070.82 268.092,1070.82 "></polyline>
<polyline clip-path="url(#clip330)" style="stroke:#000000; stroke-linecap:round; stroke-linejoin:round; stroke-width:4; stroke-opacity:1; fill:none" points="249.195,767.184 268.092,767.184 "></polyline>
<polyline clip-path="url(#clip330)" style="stroke:#000000; stroke-linecap:round; stroke-linejoin:round; stroke-width:4; stroke-opacity:1; fill:none" points="249.195,463.547 268.092,463.547 "></polyline>
<polyline clip-path="url(#clip330)" style="stroke:#000000; stroke-linecap:round; stroke-linejoin:round; stroke-width:4; stroke-opacity:1; fill:none" points="249.195,159.909 268.092,159.909 "></polyline>
<path clip-path="url(#clip330)" d="M116.668 1387.8 L124.306 1387.8 L124.306 1361.44 L115.996 1363.11 L115.996 1358.85 L124.26 1357.18 L128.936 1357.18 L128.936 1387.8 L136.575 1387.8 L136.575 1391.74 L116.668 1391.74 L116.668 1387.8 Z" fill="#000000" fill-rule="nonzero" fill-opacity="1"></path><path clip-path="url(#clip330)" d="M146.019 1385.86 L150.903 1385.86 L150.903 1391.74 L146.019 1391.74 L146.019 1385.86 Z" fill="#000000" fill-rule="nonzero" fill-opacity="1"></path><path clip-path="url(#clip330)" d="M171.089 1360.26 Q167.477 1360.26 165.649 1363.82 Q163.843 1367.37 163.843 1374.49 Q163.843 1381.6 165.649 1385.17 Q167.477 1388.71 171.089 1388.71 Q174.723 1388.71 176.528 1385.17 Q178.357 1381.6 178.357 1374.49 Q178.357 1367.37 176.528 1363.82 Q174.723 1360.26 171.089 1360.26 M171.089 1356.56 Q176.899 1356.56 179.954 1361.16 Q183.033 1365.74 183.033 1374.49 Q183.033 1383.22 179.954 1387.83 Q176.899 1392.41 171.089 1392.41 Q165.278 1392.41 162.2 1387.83 Q159.144 1383.22 159.144 1374.49 Q159.144 1365.74 162.2 1361.16 Q165.278 1356.56 171.089 1356.56 Z" fill="#000000" fill-rule="nonzero" fill-opacity="1"></path><path clip-path="url(#clip330)" d="M201.25 1360.26 Q197.639 1360.26 195.811 1363.82 Q194.005 1367.37 194.005 1374.49 Q194.005 1381.6 195.811 1385.17 Q197.639 1388.71 201.25 1388.71 Q204.885 1388.71 206.69 1385.17 Q208.519 1381.6 208.519 1374.49 Q208.519 1367.37 206.69 1363.82 Q204.885 1360.26 201.25 1360.26 M201.25 1356.56 Q207.061 1356.56 210.116 1361.16 Q213.195 1365.74 213.195 1374.49 Q213.195 1383.22 210.116 1387.83 Q207.061 1392.41 201.25 1392.41 Q195.44 1392.41 192.362 1387.83 Q189.306 1383.22 189.306 1374.49 Q189.306 1365.74 192.362 1361.16 Q195.44 1356.56 201.25 1356.56 Z" fill="#000000" fill-rule="nonzero" fill-opacity="1"></path><path clip-path="url(#clip330)" d="M117.663 1084.17 L125.302 1084.17 L125.302 1057.8 L116.992 1059.47 L116.992 1055.21 L125.255 1053.54 L129.931 1053.54 L129.931 1084.17 L137.57 1084.17 L137.57 1088.1 L117.663 1088.1 L117.663 1084.17 Z" fill="#000000" fill-rule="nonzero" fill-opacity="1"></path><path clip-path="url(#clip330)" d="M147.015 1082.22 L151.899 1082.22 L151.899 1088.1 L147.015 1088.1 L147.015 1082.22 Z" fill="#000000" fill-rule="nonzero" fill-opacity="1"></path><path clip-path="url(#clip330)" d="M166.112 1084.17 L182.431 1084.17 L182.431 1088.1 L160.487 1088.1 L160.487 1084.17 Q163.149 1081.41 167.732 1076.78 Q172.339 1072.13 173.519 1070.79 Q175.764 1068.26 176.644 1066.53 Q177.547 1064.77 177.547 1063.08 Q177.547 1060.32 175.602 1058.59 Q173.681 1056.85 170.579 1056.85 Q168.38 1056.85 165.927 1057.62 Q163.496 1058.38 160.718 1059.93 L160.718 1055.21 Q163.542 1054.07 165.996 1053.5 Q168.45 1052.92 170.487 1052.92 Q175.857 1052.92 179.051 1055.6 Q182.246 1058.29 182.246 1062.78 Q182.246 1064.91 181.436 1066.83 Q180.649 1068.73 178.542 1071.32 Q177.964 1071.99 174.862 1075.21 Q171.76 1078.4 166.112 1084.17 Z" fill="#000000" fill-rule="nonzero" fill-opacity="1"></path><path clip-path="url(#clip330)" d="M192.292 1053.54 L210.649 1053.54 L210.649 1057.48 L196.575 1057.48 L196.575 1065.95 Q197.593 1065.6 198.612 1065.44 Q199.63 1065.26 200.649 1065.26 Q206.436 1065.26 209.815 1068.43 Q213.195 1071.6 213.195 1077.01 Q213.195 1082.59 209.723 1085.69 Q206.25 1088.77 199.931 1088.77 Q197.755 1088.77 195.487 1088.4 Q193.241 1088.03 190.834 1087.29 L190.834 1082.59 Q192.917 1083.73 195.139 1084.28 Q197.362 1084.84 199.838 1084.84 Q203.843 1084.84 206.181 1082.73 Q208.519 1080.63 208.519 1077.01 Q208.519 1073.4 206.181 1071.3 Q203.843 1069.19 199.838 1069.19 Q197.963 1069.19 196.088 1069.61 Q194.237 1070.02 192.292 1070.9 L192.292 1053.54 Z" fill="#000000" fill-rule="nonzero" fill-opacity="1"></path><path clip-path="url(#clip330)" d="M116.668 780.529 L124.306 780.529 L124.306 754.164 L115.996 755.83 L115.996 751.571 L124.26 749.904 L128.936 749.904 L128.936 780.529 L136.575 780.529 L136.575 784.464 L116.668 784.464 L116.668 780.529 Z" fill="#000000" fill-rule="nonzero" fill-opacity="1"></path><path clip-path="url(#clip330)" d="M146.019 778.585 L150.903 778.585 L150.903 784.464 L146.019 784.464 L146.019 778.585 Z" fill="#000000" fill-rule="nonzero" fill-opacity="1"></path><path clip-path="url(#clip330)" d="M161.135 749.904 L179.491 749.904 L179.491 753.84 L165.417 753.84 L165.417 762.312 Q166.436 761.965 167.454 761.802 Q168.473 761.617 169.491 761.617 Q175.278 761.617 178.658 764.789 Q182.038 767.96 182.038 773.376 Q182.038 778.955 178.565 782.057 Q175.093 785.136 168.774 785.136 Q166.598 785.136 164.329 784.765 Q162.084 784.395 159.677 783.654 L159.677 778.955 Q161.76 780.089 163.982 780.645 Q166.204 781.201 168.681 781.201 Q172.686 781.201 175.024 779.094 Q177.362 776.988 177.362 773.376 Q177.362 769.765 175.024 767.659 Q172.686 765.552 168.681 765.552 Q166.806 765.552 164.931 765.969 Q163.079 766.386 161.135 767.265 L161.135 749.904 Z" fill="#000000" fill-rule="nonzero" fill-opacity="1"></path><path clip-path="url(#clip330)" d="M201.25 752.983 Q197.639 752.983 195.811 756.548 Q194.005 760.09 194.005 767.219 Q194.005 774.326 195.811 777.89 Q197.639 781.432 201.25 781.432 Q204.885 781.432 206.69 777.89 Q208.519 774.326 208.519 767.219 Q208.519 760.09 206.69 756.548 Q204.885 752.983 201.25 752.983 M201.25 749.279 Q207.061 749.279 210.116 753.886 Q213.195 758.469 213.195 767.219 Q213.195 775.946 210.116 780.552 Q207.061 785.136 201.25 785.136 Q195.44 785.136 192.362 780.552 Q189.306 775.946 189.306 767.219 Q189.306 758.469 192.362 753.886 Q195.44 749.279 201.25 749.279 Z" fill="#000000" fill-rule="nonzero" fill-opacity="1"></path><path clip-path="url(#clip330)" d="M117.663 476.891 L125.302 476.891 L125.302 450.526 L116.992 452.192 L116.992 447.933 L125.255 446.267 L129.931 446.267 L129.931 476.891 L137.57 476.891 L137.57 480.827 L117.663 480.827 L117.663 476.891 Z" fill="#000000" fill-rule="nonzero" fill-opacity="1"></path><path clip-path="url(#clip330)" d="M147.015 474.947 L151.899 474.947 L151.899 480.827 L147.015 480.827 L147.015 474.947 Z" fill="#000000" fill-rule="nonzero" fill-opacity="1"></path><path clip-path="url(#clip330)" d="M160.903 446.267 L183.126 446.267 L183.126 448.257 L170.579 480.827 L165.695 480.827 L177.501 450.202 L160.903 450.202 L160.903 446.267 Z" fill="#000000" fill-rule="nonzero" fill-opacity="1"></path><path clip-path="url(#clip330)" d="M192.292 446.267 L210.649 446.267 L210.649 450.202 L196.575 450.202 L196.575 458.674 Q197.593 458.327 198.612 458.165 Q199.63 457.979 200.649 457.979 Q206.436 457.979 209.815 461.151 Q213.195 464.322 213.195 469.739 Q213.195 475.317 209.723 478.419 Q206.25 481.498 199.931 481.498 Q197.755 481.498 195.487 481.127 Q193.241 480.757 190.834 480.016 L190.834 475.317 Q192.917 476.452 195.139 477.007 Q197.362 477.563 199.838 477.563 Q203.843 477.563 206.181 475.456 Q208.519 473.35 208.519 469.739 Q208.519 466.128 206.181 464.021 Q203.843 461.915 199.838 461.915 Q197.963 461.915 196.088 462.331 Q194.237 462.748 192.292 463.628 L192.292 446.267 Z" fill="#000000" fill-rule="nonzero" fill-opacity="1"></path><path clip-path="url(#clip330)" d="M119.885 173.254 L136.204 173.254 L136.204 177.189 L114.26 177.189 L114.26 173.254 Q116.922 170.499 121.505 165.869 Q126.112 161.217 127.292 159.874 Q129.538 157.351 130.417 155.615 Q131.32 153.855 131.32 152.166 Q131.32 149.411 129.376 147.675 Q127.455 145.939 124.353 145.939 Q122.154 145.939 119.7 146.703 Q117.269 147.467 114.492 149.018 L114.492 144.295 Q117.316 143.161 119.769 142.582 Q122.223 142.004 124.26 142.004 Q129.63 142.004 132.825 144.689 Q136.019 147.374 136.019 151.865 Q136.019 153.994 135.209 155.916 Q134.422 157.814 132.316 160.406 Q131.737 161.078 128.635 164.295 Q125.533 167.49 119.885 173.254 Z" fill="#000000" fill-rule="nonzero" fill-opacity="1"></path><path clip-path="url(#clip330)" d="M146.019 171.309 L150.903 171.309 L150.903 177.189 L146.019 177.189 L146.019 171.309 Z" fill="#000000" fill-rule="nonzero" fill-opacity="1"></path><path clip-path="url(#clip330)" d="M171.089 145.707 Q167.477 145.707 165.649 149.272 Q163.843 152.814 163.843 159.943 Q163.843 167.05 165.649 170.615 Q167.477 174.156 171.089 174.156 Q174.723 174.156 176.528 170.615 Q178.357 167.05 178.357 159.943 Q178.357 152.814 176.528 149.272 Q174.723 145.707 171.089 145.707 M171.089 142.004 Q176.899 142.004 179.954 146.61 Q183.033 151.193 183.033 159.943 Q183.033 168.67 179.954 173.277 Q176.899 177.86 171.089 177.86 Q165.278 177.86 162.2 173.277 Q159.144 168.67 159.144 159.943 Q159.144 151.193 162.2 146.61 Q165.278 142.004 171.089 142.004 Z" fill="#000000" fill-rule="nonzero" fill-opacity="1"></path><path clip-path="url(#clip330)" d="M201.25 145.707 Q197.639 145.707 195.811 149.272 Q194.005 152.814 194.005 159.943 Q194.005 167.05 195.811 170.615 Q197.639 174.156 201.25 174.156 Q204.885 174.156 206.69 170.615 Q208.519 167.05 208.519 159.943 Q208.519 152.814 206.69 149.272 Q204.885 145.707 201.25 145.707 M201.25 142.004 Q207.061 142.004 210.116 146.61 Q213.195 151.193 213.195 159.943 Q213.195 168.67 210.116 173.277 Q207.061 177.86 201.25 177.86 Q195.44 177.86 192.362 173.277 Q189.306 168.67 189.306 159.943 Q189.306 151.193 192.362 146.61 Q195.44 142.004 201.25 142.004 Z" fill="#000000" fill-rule="nonzero" fill-opacity="1"></path><path clip-path="url(#clip330)" d="M58.5933 849.334 L58.5933 838.83 L22.3406 838.83 L24.6323 850.257 L18.7758 850.257 L16.4842 838.894 L16.4842 832.465 L58.5933 832.465 L58.5933 821.961 L64.0042 821.961 L64.0042 849.334 L58.5933 849.334 Z" fill="#000000" fill-rule="nonzero" fill-opacity="1"></path><path clip-path="url(#clip330)" d="M23.1363 765.243 L40.8648 765.243 L40.8648 747.514 L46.2757 747.514 L46.2757 765.243 L64.0042 765.243 L64.0042 770.59 L46.2757 770.59 L46.2757 788.319 L40.8648 788.319 L40.8648 770.59 L23.1363 770.59 L23.1363 765.243 Z" fill="#000000" fill-rule="nonzero" fill-opacity="1"></path><path clip-path="url(#clip330)" d="M42.4881 684.112 L64.0042 684.112 L64.0042 689.968 L42.679 689.968 Q37.6183 689.968 35.1038 691.942 Q32.5894 693.915 32.5894 697.862 Q32.5894 702.604 35.6131 705.342 Q38.6368 708.079 43.8567 708.079 L64.0042 708.079 L64.0042 713.967 L14.479 713.967 L14.479 708.079 L33.8944 708.079 Q30.6797 705.978 29.0883 703.145 Q27.4968 700.281 27.4968 696.557 Q27.4968 690.414 31.3163 687.263 Q35.1038 684.112 42.4881 684.112 Z" fill="#000000" fill-rule="nonzero" fill-opacity="1"></path><path clip-path="url(#clip330)" d="M273.869 12.096 L321.386 12.096 L321.386 18.3344 L283.145 65.6895 L322.317 65.6895 L322.317 72.576 L272.937 72.576 L272.937 66.3376 L311.177 18.9825 L273.869 18.9825 L273.869 12.096 Z" fill="#000000" fill-rule="nonzero" fill-opacity="1"></path><path clip-path="url(#clip330)" d="M354.482 49.7694 Q345.448 49.7694 341.964 51.8354 Q338.481 53.9013 338.481 58.8839 Q338.481 62.8538 341.073 65.2034 Q343.706 67.5124 348.203 67.5124 Q354.401 67.5124 358.127 63.1374 Q361.895 58.7219 361.895 51.4303 L361.895 49.7694 L354.482 49.7694 M369.348 46.6907 L369.348 72.576 L361.895 72.576 L361.895 65.6895 Q359.343 69.8214 355.535 71.8063 Q351.727 73.7508 346.218 73.7508 Q339.25 73.7508 335.118 69.8619 Q331.027 65.9325 331.027 59.3701 Q331.027 51.7138 336.131 47.825 Q341.276 43.9361 351.443 43.9361 L361.895 43.9361 L361.895 43.2069 Q361.895 38.0623 358.492 35.2672 Q355.13 32.4315 349.013 32.4315 Q345.124 32.4315 341.438 33.3632 Q337.751 34.295 334.349 36.1584 L334.349 29.2718 Q338.44 27.692 342.288 26.9223 Q346.137 26.1121 349.783 26.1121 Q359.626 26.1121 364.487 31.2163 Q369.348 36.3204 369.348 46.6907 Z" fill="#000000" fill-rule="nonzero" fill-opacity="1"></path><path clip-path="url(#clip330)" d="M417.352 28.9478 L417.352 35.9153 Q414.192 34.1734 410.992 33.3227 Q407.832 32.4315 404.591 32.4315 Q397.34 32.4315 393.33 37.0496 Q389.319 41.6271 389.319 49.9314 Q389.319 58.2358 393.33 62.8538 Q397.34 67.4314 404.591 67.4314 Q407.832 67.4314 410.992 66.5807 Q414.192 65.6895 417.352 63.9476 L417.352 70.8341 Q414.232 72.2924 410.87 73.0216 Q407.548 73.7508 403.781 73.7508 Q393.532 73.7508 387.496 67.3098 Q381.461 60.8689 381.461 49.9314 Q381.461 38.832 387.537 32.472 Q393.654 26.1121 404.267 26.1121 Q407.71 26.1121 410.992 26.8413 Q414.273 27.5299 417.352 28.9478 Z" fill="#000000" fill-rule="nonzero" fill-opacity="1"></path><path clip-path="url(#clip330)" d="M468.028 45.1919 L468.028 72.576 L460.575 72.576 L460.575 45.4349 Q460.575 38.994 458.063 35.7938 Q455.552 32.5936 450.529 32.5936 Q444.493 32.5936 441.009 36.4419 Q437.525 40.2903 437.525 46.9338 L437.525 72.576 L430.031 72.576 L430.031 9.54393 L437.525 9.54393 L437.525 34.2544 Q440.199 30.163 443.804 28.1376 Q447.45 26.1121 452.189 26.1121 Q460.008 26.1121 464.018 30.9732 Q468.028 35.7938 468.028 45.1919 Z" fill="#000000" fill-rule="nonzero" fill-opacity="1"></path><path clip-path="url(#clip330)" d="M500.476 32.4315 Q494.481 32.4315 490.997 37.1306 Q487.513 41.7891 487.513 49.9314 Q487.513 58.0738 490.957 62.7728 Q494.44 67.4314 500.476 67.4314 Q506.431 67.4314 509.915 62.7323 Q513.399 58.0333 513.399 49.9314 Q513.399 41.8701 509.915 37.1711 Q506.431 32.4315 500.476 32.4315 M500.476 26.1121 Q510.198 26.1121 515.748 32.4315 Q521.298 38.7509 521.298 49.9314 Q521.298 61.0714 515.748 67.4314 Q510.198 73.7508 500.476 73.7508 Q490.713 73.7508 485.164 67.4314 Q479.655 61.0714 479.655 49.9314 Q479.655 38.7509 485.164 32.4315 Q490.713 26.1121 500.476 26.1121 Z" fill="#000000" fill-rule="nonzero" fill-opacity="1"></path><path clip-path="url(#clip330)" d="M529.319 27.2059 L536.772 27.2059 L546.089 62.6108 L555.366 27.2059 L564.156 27.2059 L573.473 62.6108 L582.75 27.2059 L590.204 27.2059 L578.335 72.576 L569.544 72.576 L559.781 35.3887 L549.978 72.576 L541.188 72.576 L529.319 27.2059 Z" fill="#000000" fill-rule="nonzero" fill-opacity="1"></path><path clip-path="url(#clip330)" d="M622.125 49.7694 Q613.091 49.7694 609.608 51.8354 Q606.124 53.9013 606.124 58.8839 Q606.124 62.8538 608.716 65.2034 Q611.349 67.5124 615.846 67.5124 Q622.044 67.5124 625.771 63.1374 Q629.538 58.7219 629.538 51.4303 L629.538 49.7694 L622.125 49.7694 M636.992 46.6907 L636.992 72.576 L629.538 72.576 L629.538 65.6895 Q626.986 69.8214 623.178 71.8063 Q619.37 73.7508 613.861 73.7508 Q606.893 73.7508 602.762 69.8619 Q598.67 65.9325 598.67 59.3701 Q598.67 51.7138 603.774 47.825 Q608.919 43.9361 619.087 43.9361 L629.538 43.9361 L629.538 43.2069 Q629.538 38.0623 626.135 35.2672 Q622.773 32.4315 616.656 32.4315 Q612.767 32.4315 609.081 33.3632 Q605.395 34.295 601.992 36.1584 L601.992 29.2718 Q606.083 27.692 609.932 26.9223 Q613.78 26.1121 617.426 26.1121 Q627.269 26.1121 632.131 31.2163 Q636.992 36.3204 636.992 46.6907 Z" fill="#000000" fill-rule="nonzero" fill-opacity="1"></path><path clip-path="url(#clip330)" d="M690.058 45.1919 L690.058 72.576 L682.605 72.576 L682.605 45.4349 Q682.605 38.994 680.093 35.7938 Q677.582 32.5936 672.559 32.5936 Q666.523 32.5936 663.039 36.4419 Q659.555 40.2903 659.555 46.9338 L659.555 72.576 L652.061 72.576 L652.061 27.2059 L659.555 27.2059 L659.555 34.2544 Q662.229 30.163 665.834 28.1376 Q669.48 26.1121 674.219 26.1121 Q682.038 26.1121 686.048 30.9732 Q690.058 35.7938 690.058 45.1919 Z" fill="#000000" fill-rule="nonzero" fill-opacity="1"></path><path clip-path="url(#clip330)" d="M704.925 27.2059 L712.379 27.2059 L712.379 72.576 L704.925 72.576 L704.925 27.2059 M704.925 9.54393 L712.379 9.54393 L712.379 18.9825 L704.925 18.9825 L704.925 9.54393 Z" fill="#000000" fill-rule="nonzero" fill-opacity="1"></path><path clip-path="url(#clip330)" d="M766.783 48.0275 L766.783 51.6733 L732.512 51.6733 Q732.998 59.3701 737.13 63.421 Q741.302 67.4314 748.716 67.4314 Q753.01 67.4314 757.02 66.3781 Q761.071 65.3249 765.041 63.2184 L765.041 70.267 Q761.03 71.9684 756.817 72.8596 Q752.604 73.7508 748.27 73.7508 Q737.414 73.7508 731.054 67.4314 Q724.734 61.1119 724.734 50.3365 Q724.734 39.1965 730.73 32.6746 Q736.765 26.1121 746.974 26.1121 Q756.129 26.1121 761.435 32.0264 Q766.783 37.9003 766.783 48.0275 M759.329 45.84 Q759.248 39.7232 755.886 36.0774 Q752.564 32.4315 747.055 32.4315 Q740.816 32.4315 737.049 35.9558 Q733.322 39.4801 732.755 45.8805 L759.329 45.84 Z" fill="#000000" fill-rule="nonzero" fill-opacity="1"></path><path clip-path="url(#clip330)" d="M801.053 27.2059 L808.507 27.2059 L817.824 62.6108 L827.101 27.2059 L835.891 27.2059 L845.208 62.6108 L854.485 27.2059 L861.938 27.2059 L850.069 72.576 L841.279 72.576 L831.516 35.3887 L821.713 72.576 L812.922 72.576 L801.053 27.2059 Z" fill="#000000" fill-rule="nonzero" fill-opacity="1"></path><path clip-path="url(#clip330)" d="M893.859 49.7694 Q884.826 49.7694 881.342 51.8354 Q877.858 53.9013 877.858 58.8839 Q877.858 62.8538 880.451 65.2034 Q883.084 67.5124 887.581 67.5124 Q893.778 67.5124 897.505 63.1374 Q901.273 58.7219 901.273 51.4303 L901.273 49.7694 L893.859 49.7694 M908.726 46.6907 L908.726 72.576 L901.273 72.576 L901.273 65.6895 Q898.721 69.8214 894.913 71.8063 Q891.105 73.7508 885.596 73.7508 Q878.628 73.7508 874.496 69.8619 Q870.405 65.9325 870.405 59.3701 Q870.405 51.7138 875.509 47.825 Q880.654 43.9361 890.821 43.9361 L901.273 43.9361 L901.273 43.2069 Q901.273 38.0623 897.87 35.2672 Q894.508 32.4315 888.391 32.4315 Q884.502 32.4315 880.816 33.3632 Q877.129 34.295 873.726 36.1584 L873.726 29.2718 Q877.818 27.692 881.666 26.9223 Q885.515 26.1121 889.16 26.1121 Q899.004 26.1121 903.865 31.2163 Q908.726 36.3204 908.726 46.6907 Z" fill="#000000" fill-rule="nonzero" fill-opacity="1"></path><path clip-path="url(#clip330)" d="M950.37 34.1734 Q949.114 33.4443 947.615 33.1202 Q946.157 32.7556 944.374 32.7556 Q938.055 32.7556 934.652 36.8875 Q931.29 40.9789 931.29 48.6757 L931.29 72.576 L923.796 72.576 L923.796 27.2059 L931.29 27.2059 L931.29 34.2544 Q933.639 30.1225 937.407 28.1376 Q941.174 26.1121 946.562 26.1121 Q947.331 26.1121 948.263 26.2337 Q949.195 26.3147 950.329 26.5172 L950.37 34.1734 Z" fill="#000000" fill-rule="nonzero" fill-opacity="1"></path><path clip-path="url(#clip330)" d="M965.56 14.324 L965.56 27.2059 L980.913 27.2059 L980.913 32.9987 L965.56 32.9987 L965.56 57.6282 Q965.56 63.1779 967.059 64.7578 Q968.599 66.3376 973.257 66.3376 L980.913 66.3376 L980.913 72.576 L973.257 72.576 Q964.629 72.576 961.348 69.3758 Q958.066 66.1351 958.066 57.6282 L958.066 32.9987 L952.598 32.9987 L952.598 27.2059 L958.066 27.2059 L958.066 14.324 L965.56 14.324 Z" fill="#000000" fill-rule="nonzero" fill-opacity="1"></path><path clip-path="url(#clip330)" d="M1008.3 32.4315 Q1002.3 32.4315 998.818 37.1306 Q995.335 41.7891 995.335 49.9314 Q995.335 58.0738 998.778 62.7728 Q1002.26 67.4314 1008.3 67.4314 Q1014.25 67.4314 1017.74 62.7323 Q1021.22 58.0333 1021.22 49.9314 Q1021.22 41.8701 1017.74 37.1711 Q1014.25 32.4315 1008.3 32.4315 M1008.3 26.1121 Q1018.02 26.1121 1023.57 32.4315 Q1029.12 38.7509 1029.12 49.9314 Q1029.12 61.0714 1023.57 67.4314 Q1018.02 73.7508 1008.3 73.7508 Q998.535 73.7508 992.985 67.4314 Q987.476 61.0714 987.476 49.9314 Q987.476 38.7509 992.985 32.4315 Q998.535 26.1121 1008.3 26.1121 Z" fill="#000000" fill-rule="nonzero" fill-opacity="1"></path><path clip-path="url(#clip330)" d="M1062.7 5.93863 L1070.76 5.93863 L1057.56 21.17 L1051.36 21.17 L1062.7 5.93863 M1070.4 28.5427 L1070.4 35.5912 Q1067.24 33.9709 1063.84 33.1607 Q1060.43 32.3505 1056.79 32.3505 Q1051.24 32.3505 1048.44 34.0519 Q1045.69 35.7533 1045.69 39.156 Q1045.69 41.7486 1047.67 43.2475 Q1049.66 44.7058 1055.65 46.0426 L1058.2 46.6097 Q1066.14 48.3111 1069.47 51.4303 Q1072.83 54.509 1072.83 60.0587 Q1072.83 66.3781 1067.81 70.0644 Q1062.82 73.7508 1054.07 73.7508 Q1050.43 73.7508 1046.46 73.0216 Q1042.53 72.3329 1038.15 70.9151 L1038.15 63.2184 Q1042.28 65.3654 1046.3 66.4591 Q1050.31 67.5124 1054.23 67.5124 Q1059.5 67.5124 1062.34 65.73 Q1065.17 63.9071 1065.17 60.6258 Q1065.17 57.5877 1063.11 55.9673 Q1061.08 54.3469 1054.15 52.8481 L1051.56 52.2405 Q1044.63 50.7821 1041.56 47.7845 Q1038.48 44.7463 1038.48 39.4801 Q1038.48 33.0797 1043.01 29.5959 Q1047.55 26.1121 1055.9 26.1121 Q1060.03 26.1121 1063.67 26.7198 Q1067.32 27.3274 1070.4 28.5427 Z" fill="#000000" fill-rule="nonzero" fill-opacity="1"></path><path clip-path="url(#clip330)" d="M1117.35 28.9478 L1117.35 35.9153 Q1114.19 34.1734 1110.99 33.3227 Q1107.83 32.4315 1104.59 32.4315 Q1097.34 32.4315 1093.33 37.0496 Q1089.32 41.6271 1089.32 49.9314 Q1089.32 58.2358 1093.33 62.8538 Q1097.34 67.4314 1104.59 67.4314 Q1107.83 67.4314 1110.99 66.5807 Q1114.19 65.6895 1117.35 63.9476 L1117.35 70.8341 Q1114.23 72.2924 1110.87 73.0216 Q1107.54 73.7508 1103.78 73.7508 Q1093.53 73.7508 1087.49 67.3098 Q1081.46 60.8689 1081.46 49.9314 Q1081.46 38.832 1087.53 32.472 Q1093.65 26.1121 1104.26 26.1121 Q1107.71 26.1121 1110.99 26.8413 Q1114.27 27.5299 1117.35 28.9478 Z" fill="#000000" fill-rule="nonzero" fill-opacity="1"></path><path clip-path="url(#clip330)" d="M1130.31 27.2059 L1137.76 27.2059 L1137.76 72.576 L1130.31 72.576 L1130.31 27.2059 M1130.31 9.54393 L1137.76 9.54393 L1137.76 18.9825 L1130.31 18.9825 L1130.31 9.54393 Z" fill="#000000" fill-rule="nonzero" fill-opacity="1"></path><path clip-path="url(#clip330)" d="M1182.2 65.6895 L1195.57 65.6895 L1195.57 19.5497 L1181.03 22.4663 L1181.03 15.0127 L1195.49 12.096 L1203.67 12.096 L1203.67 65.6895 L1217.04 65.6895 L1217.04 72.576 L1182.2 72.576 L1182.2 65.6895 Z" fill="#000000" fill-rule="nonzero" fill-opacity="1"></path><path clip-path="url(#clip330)" d="M1289.23 20.5624 L1289.23 43.1259 L1311.79 43.1259 L1311.79 50.0125 L1289.23 50.0125 L1289.23 72.576 L1282.42 72.576 L1282.42 50.0125 L1259.86 50.0125 L1259.86 43.1259 L1282.42 43.1259 L1282.42 20.5624 L1289.23 20.5624 Z" fill="#000000" fill-rule="nonzero" fill-opacity="1"></path><path clip-path="url(#clip330)" d="M1392.49 45.1919 L1392.49 72.576 L1385.03 72.576 L1385.03 45.4349 Q1385.03 38.994 1382.52 35.7938 Q1380.01 32.5936 1374.99 32.5936 Q1368.95 32.5936 1365.47 36.4419 Q1361.98 40.2903 1361.98 46.9338 L1361.98 72.576 L1354.49 72.576 L1354.49 9.54393 L1361.98 9.54393 L1361.98 34.2544 Q1364.66 30.163 1368.26 28.1376 Q1371.91 26.1121 1376.65 26.1121 Q1384.46 26.1121 1388.47 30.9732 Q1392.49 35.7938 1392.49 45.1919 Z" fill="#000000" fill-rule="nonzero" fill-opacity="1"></path><path clip-path="url(#clip330)" d="M1429.39 27.2059 L1436.84 27.2059 L1446.16 62.6108 L1455.44 27.2059 L1464.23 27.2059 L1473.54 62.6108 L1482.82 27.2059 L1490.27 27.2059 L1478.4 72.576 L1469.61 72.576 L1459.85 35.3887 L1450.05 72.576 L1441.26 72.576 L1429.39 27.2059 Z" fill="#000000" fill-rule="nonzero" fill-opacity="1"></path><path clip-path="url(#clip330)" d="M1548.57 49.7694 Q1539.53 49.7694 1536.05 51.8354 Q1532.57 53.9013 1532.57 58.8839 Q1532.57 62.8538 1535.16 65.2034 Q1537.79 67.5124 1542.29 67.5124 Q1548.49 67.5124 1552.21 63.1374 Q1555.98 58.7219 1555.98 51.4303 L1555.98 49.7694 L1548.57 49.7694 M1563.43 46.6907 L1563.43 72.576 L1555.98 72.576 L1555.98 65.6895 Q1553.43 69.8214 1549.62 71.8063 Q1545.81 73.7508 1540.3 73.7508 Q1533.34 73.7508 1529.2 69.8619 Q1525.11 65.9325 1525.11 59.3701 Q1525.11 51.7138 1530.22 47.825 Q1535.36 43.9361 1545.53 43.9361 L1555.98 43.9361 L1555.98 43.2069 Q1555.98 38.0623 1552.58 35.2672 Q1549.21 32.4315 1543.1 32.4315 Q1539.21 32.4315 1535.52 33.3632 Q1531.84 34.295 1528.43 36.1584 L1528.43 29.2718 Q1532.53 27.692 1536.37 26.9223 Q1540.22 26.1121 1543.87 26.1121 Q1553.71 26.1121 1558.57 31.2163 Q1563.43 36.3204 1563.43 46.6907 Z" fill="#000000" fill-rule="nonzero" fill-opacity="1"></path><path clip-path="url(#clip330)" d="M1605.08 34.1734 Q1603.82 33.4443 1602.32 33.1202 Q1600.86 32.7556 1599.08 32.7556 Q1592.76 32.7556 1589.36 36.8875 Q1586 40.9789 1586 48.6757 L1586 72.576 L1578.5 72.576 L1578.5 27.2059 L1586 27.2059 L1586 34.2544 Q1588.35 30.1225 1592.11 28.1376 Q1595.88 26.1121 1601.27 26.1121 Q1602.04 26.1121 1602.97 26.2337 Q1603.9 26.3147 1605.04 26.5172 L1605.08 34.1734 Z" fill="#000000" fill-rule="nonzero" fill-opacity="1"></path><path clip-path="url(#clip330)" d="M1631.77 76.7889 Q1628.61 84.8907 1625.61 87.3618 Q1622.62 89.8329 1617.59 89.8329 L1611.64 89.8329 L1611.64 83.5945 L1616.01 83.5945 Q1619.09 83.5945 1620.79 82.1361 Q1622.5 80.6778 1624.56 75.2496 L1625.9 71.8468 L1607.55 27.2059 L1615.45 27.2059 L1629.63 62.6918 L1643.8 27.2059 L1651.7 27.2059 L1631.77 76.7889 Z" fill="#000000" fill-rule="nonzero" fill-opacity="1"></path><path clip-path="url(#clip330)" d="M1669.36 14.324 L1669.36 27.2059 L1684.72 27.2059 L1684.72 32.9987 L1669.36 32.9987 L1669.36 57.6282 Q1669.36 63.1779 1670.86 64.7578 Q1672.4 66.3376 1677.06 66.3376 L1684.72 66.3376 L1684.72 72.576 L1677.06 72.576 Q1668.43 72.576 1665.15 69.3758 Q1661.87 66.1351 1661.87 57.6282 L1661.87 32.9987 L1656.4 32.9987 L1656.4 27.2059 L1661.87 27.2059 L1661.87 14.324 L1669.36 14.324 Z" fill="#000000" fill-rule="nonzero" fill-opacity="1"></path><path clip-path="url(#clip330)" d="M1729.84 35.9153 Q1732.64 30.8922 1736.53 28.5022 Q1740.42 26.1121 1745.68 26.1121 Q1752.77 26.1121 1756.62 31.0947 Q1760.47 36.0368 1760.47 45.1919 L1760.47 72.576 L1752.98 72.576 L1752.98 45.4349 Q1752.98 38.913 1750.67 35.7533 Q1748.36 32.5936 1743.62 32.5936 Q1737.82 32.5936 1734.46 36.4419 Q1731.1 40.2903 1731.1 46.9338 L1731.1 72.576 L1723.61 72.576 L1723.61 45.4349 Q1723.61 38.8725 1721.3 35.7533 Q1718.99 32.5936 1714.17 32.5936 Q1708.46 32.5936 1705.09 36.4824 Q1701.73 40.3308 1701.73 46.9338 L1701.73 72.576 L1694.24 72.576 L1694.24 27.2059 L1701.73 27.2059 L1701.73 34.2544 Q1704.28 30.082 1707.85 28.0971 Q1711.41 26.1121 1716.31 26.1121 Q1721.26 26.1121 1724.7 28.6237 Q1728.18 31.1352 1729.84 35.9153 Z" fill="#000000" fill-rule="nonzero" fill-opacity="1"></path><path clip-path="url(#clip330)" d="M1814.14 48.0275 L1814.14 51.6733 L1779.87 51.6733 Q1780.36 59.3701 1784.49 63.421 Q1788.66 67.4314 1796.08 67.4314 Q1800.37 67.4314 1804.38 66.3781 Q1808.43 65.3249 1812.4 63.2184 L1812.4 70.267 Q1808.39 71.9684 1804.18 72.8596 Q1799.97 73.7508 1795.63 73.7508 Q1784.77 73.7508 1778.41 67.4314 Q1772.1 61.1119 1772.1 50.3365 Q1772.1 39.1965 1778.09 32.6746 Q1784.13 26.1121 1794.33 26.1121 Q1803.49 26.1121 1808.8 32.0264 Q1814.14 37.9003 1814.14 48.0275 M1806.69 45.84 Q1806.61 39.7232 1803.25 36.0774 Q1799.93 32.4315 1794.42 32.4315 Q1788.18 32.4315 1784.41 35.9558 Q1780.68 39.4801 1780.12 45.8805 L1806.69 45.84 Z" fill="#000000" fill-rule="nonzero" fill-opacity="1"></path><path clip-path="url(#clip330)" d="M1833.75 14.324 L1833.75 27.2059 L1849.1 27.2059 L1849.1 32.9987 L1833.75 32.9987 L1833.75 57.6282 Q1833.75 63.1779 1835.25 64.7578 Q1836.79 66.3376 1841.45 66.3376 L1849.1 66.3376 L1849.1 72.576 L1841.45 72.576 Q1832.82 72.576 1829.54 69.3758 Q1826.26 66.1351 1826.26 57.6282 L1826.26 32.9987 L1820.79 32.9987 L1820.79 27.2059 L1826.26 27.2059 L1826.26 14.324 L1833.75 14.324 Z" fill="#000000" fill-rule="nonzero" fill-opacity="1"></path><path clip-path="url(#clip330)" d="M1877.78 76.7889 Q1874.62 84.8907 1871.63 87.3618 Q1868.63 89.8329 1863.61 89.8329 L1857.65 89.8329 L1857.65 83.5945 L1862.03 83.5945 Q1865.1 83.5945 1866.81 82.1361 Q1868.51 80.6778 1870.57 75.2496 L1871.91 71.8468 L1853.56 27.2059 L1861.46 27.2059 L1875.64 62.6918 L1889.81 27.2059 L1897.71 27.2059 L1877.78 76.7889 Z" fill="#000000" fill-rule="nonzero" fill-opacity="1"></path><path clip-path="url(#clip330)" d="M1940.65 28.9478 L1940.65 35.9153 Q1937.49 34.1734 1934.29 33.3227 Q1931.13 32.4315 1927.89 32.4315 Q1920.64 32.4315 1916.63 37.0496 Q1912.62 41.6271 1912.62 49.9314 Q1912.62 58.2358 1916.63 62.8538 Q1920.64 67.4314 1927.89 67.4314 Q1931.13 67.4314 1934.29 66.5807 Q1937.49 65.6895 1940.65 63.9476 L1940.65 70.8341 Q1937.53 72.2924 1934.17 73.0216 Q1930.85 73.7508 1927.08 73.7508 Q1916.83 73.7508 1910.8 67.3098 Q1904.76 60.8689 1904.76 49.9314 Q1904.76 38.832 1910.84 32.472 Q1916.96 26.1121 1927.57 26.1121 Q1931.01 26.1121 1934.29 26.8413 Q1937.57 27.5299 1940.65 28.9478 Z" fill="#000000" fill-rule="nonzero" fill-opacity="1"></path><path clip-path="url(#clip330)" d="M1992.42 48.0275 L1992.42 51.6733 L1958.15 51.6733 Q1958.64 59.3701 1962.77 63.421 Q1966.94 67.4314 1974.36 67.4314 Q1978.65 67.4314 1982.66 66.3781 Q1986.71 65.3249 1990.68 63.2184 L1990.68 70.267 Q1986.67 71.9684 1982.46 72.8596 Q1978.25 73.7508 1973.91 73.7508 Q1963.06 73.7508 1956.7 67.4314 Q1950.38 61.1119 1950.38 50.3365 Q1950.38 39.1965 1956.37 32.6746 Q1962.41 26.1121 1972.62 26.1121 Q1981.77 26.1121 1987.08 32.0264 Q1992.42 37.9003 1992.42 48.0275 M1984.97 45.84 Q1984.89 39.7232 1981.53 36.0774 Q1978.21 32.4315 1972.7 32.4315 Q1966.46 32.4315 1962.69 35.9558 Q1958.96 39.4801 1958.4 45.8805 L1984.97 45.84 Z" fill="#000000" fill-rule="nonzero" fill-opacity="1"></path><path clip-path="url(#clip330)" d="M2031.35 12.096 L2066.11 12.096 L2066.11 18.9825 L2039.54 18.9825 L2039.54 36.8065 L2063.52 36.8065 L2063.52 43.6931 L2039.54 43.6931 L2039.54 72.576 L2031.35 72.576 L2031.35 12.096 Z" fill="#000000" fill-rule="nonzero" fill-opacity="1"></path><path clip-path="url(#clip330)" d="M2078.75 9.54393 L2086.2 9.54393 L2086.2 72.576 L2078.75 72.576 L2078.75 9.54393 Z" fill="#000000" fill-rule="nonzero" fill-opacity="1"></path><path clip-path="url(#clip330)" d="M2119.38 32.4315 Q2113.38 32.4315 2109.9 37.1306 Q2106.42 41.7891 2106.42 49.9314 Q2106.42 58.0738 2109.86 62.7728 Q2113.34 67.4314 2119.38 67.4314 Q2125.33 67.4314 2128.82 62.7323 Q2132.3 58.0333 2132.3 49.9314 Q2132.3 41.8701 2128.82 37.1711 Q2125.33 32.4315 2119.38 32.4315 M2119.38 26.1121 Q2129.1 26.1121 2134.65 32.4315 Q2140.2 38.7509 2140.2 49.9314 Q2140.2 61.0714 2134.65 67.4314 Q2129.1 73.7508 2119.38 73.7508 Q2109.62 73.7508 2104.07 67.4314 Q2098.56 61.0714 2098.56 49.9314 Q2098.56 38.7509 2104.07 32.4315 Q2109.62 26.1121 2119.38 26.1121 Z" fill="#000000" fill-rule="nonzero" fill-opacity="1"></path><path clip-path="url(#clip330)" d="M2173.18 49.7694 Q2164.14 49.7694 2160.66 51.8354 Q2157.17 53.9013 2157.17 58.8839 Q2157.17 62.8538 2159.77 65.2034 Q2162.4 67.5124 2166.9 67.5124 Q2173.09 67.5124 2176.82 63.1374 Q2180.59 58.7219 2180.59 51.4303 L2180.59 49.7694 L2173.18 49.7694 M2188.04 46.6907 L2188.04 72.576 L2180.59 72.576 L2180.59 65.6895 Q2178.04 69.8214 2174.23 71.8063 Q2170.42 73.7508 2164.91 73.7508 Q2157.94 73.7508 2153.81 69.8619 Q2149.72 65.9325 2149.72 59.3701 Q2149.72 51.7138 2154.82 47.825 Q2159.97 43.9361 2170.14 43.9361 L2180.59 43.9361 L2180.59 43.2069 Q2180.59 38.0623 2177.19 35.2672 Q2173.82 32.4315 2167.71 32.4315 Q2163.82 32.4315 2160.13 33.3632 Q2156.45 34.295 2153.04 36.1584 L2153.04 29.2718 Q2157.13 27.692 2160.98 26.9223 Q2164.83 26.1121 2168.48 26.1121 Q2178.32 26.1121 2183.18 31.2163 Q2188.04 36.3204 2188.04 46.6907 Z" fill="#000000" fill-rule="nonzero" fill-opacity="1"></path><path clip-path="url(#clip330)" d="M2210.77 14.324 L2210.77 27.2059 L2226.12 27.2059 L2226.12 32.9987 L2210.77 32.9987 L2210.77 57.6282 Q2210.77 63.1779 2212.27 64.7578 Q2213.81 66.3376 2218.46 66.3376 L2226.12 66.3376 L2226.12 72.576 L2218.46 72.576 Q2209.84 72.576 2206.55 69.3758 Q2203.27 66.1351 2203.27 57.6282 L2203.27 32.9987 L2197.81 32.9987 L2197.81 27.2059 L2203.27 27.2059 L2203.27 14.324 L2210.77 14.324 Z" fill="#000000" fill-rule="nonzero" fill-opacity="1"></path><path clip-path="url(#clip330)" d="M2255.49 39.075 Q2249.98 39.075 2246.74 42.8424 Q2243.54 46.6097 2243.54 53.1722 Q2243.54 59.6941 2246.74 63.502 Q2249.98 67.2693 2255.49 67.2693 Q2261 67.2693 2264.2 63.502 Q2267.44 59.6941 2267.44 53.1722 Q2267.44 46.6097 2264.2 42.8424 Q2261 39.075 2255.49 39.075 M2271.73 13.4328 L2271.73 20.8865 Q2268.66 19.4281 2265.5 18.6585 Q2262.38 17.8888 2259.3 17.8888 Q2251.2 17.8888 2246.9 23.3575 Q2242.65 28.8262 2242.04 39.8852 Q2244.43 36.3609 2248.04 34.4975 Q2251.64 32.5936 2255.98 32.5936 Q2265.09 32.5936 2270.36 38.1433 Q2275.66 43.6525 2275.66 53.1722 Q2275.66 62.4892 2270.15 68.12 Q2264.64 73.7508 2255.49 73.7508 Q2245 73.7508 2239.45 65.73 Q2233.9 57.6687 2233.9 42.3968 Q2233.9 28.0566 2240.7 19.5497 Q2247.51 11.0023 2258.97 11.0023 Q2262.05 11.0023 2265.17 11.6099 Q2268.33 12.2175 2271.73 13.4328 Z" fill="#000000" fill-rule="nonzero" fill-opacity="1"></path><path clip-path="url(#clip330)" d="M2312.24 19.2256 L2291.58 51.5113 L2312.24 51.5113 L2312.24 19.2256 M2310.1 12.096 L2320.39 12.096 L2320.39 51.5113 L2329.01 51.5113 L2329.01 58.3168 L2320.39 58.3168 L2320.39 72.576 L2312.24 72.576 L2312.24 58.3168 L2284.94 58.3168 L2284.94 50.4176 L2310.1 12.096 Z" fill="#000000" fill-rule="nonzero" fill-opacity="1"></path><polyline clip-path="url(#clip332)" style="stroke:#0000ff; stroke-linecap:round; stroke-linejoin:round; stroke-width:8; stroke-opacity:1; fill:none" points="2293.22,159.909 2256.47,767.184 2219.72,1070.82 2182.97,1222.64 2146.22,1298.55 2109.47,1336.51 2072.72,1355.48 2035.97,1364.97 1999.22,1369.72 1962.47,1372.09 1925.72,1373.27 1888.97,1373.87 1852.22,1374.16 1815.47,1374.31 1778.72,1374.39 1741.97,1374.42 1705.22,1374.44 1668.47,1374.45 1631.72,1374.46 1594.97,1374.46 1558.22,1374.46 1521.47,1374.46 1484.72,1374.46 1447.97,1374.46 1411.22,1374.46 1374.48,1374.46 1337.73,1374.46 1300.98,1374.46 1264.23,1374.46 1227.48,1374.46 1190.73,1374.46 1153.98,1374.46 1117.23,1374.46 1080.48,1374.46 1043.73,1374.46 1006.98,1374.46 970.227,1374.46 933.477,1374.46 896.727,1374.46 859.977,1374.46 823.227,1374.46 786.478,1374.46 749.728,1374.46 712.978,1374.46 676.228,1374.46 639.478,1374.46 602.728,1374.46 565.978,1374.46 529.229,1374.46 492.479,1374.46 455.729,1374.46 418.979,1374.46 382.229,1374.46 345.479,1374.46 308.73,1374.46 "></polyline>
<circle clip-path="url(#clip332)" cx="2293.22" cy="159.909" r="14.4" fill="#0000ff" fill-rule="evenodd" fill-opacity="1" stroke="#000000" stroke-opacity="1" stroke-width="3.2"></circle>
<circle clip-path="url(#clip332)" cx="2256.47" cy="767.184" r="14.4" fill="#0000ff" fill-rule="evenodd" fill-opacity="1" stroke="#000000" stroke-opacity="1" stroke-width="3.2"></circle>
<circle clip-path="url(#clip332)" cx="2219.72" cy="1070.82" r="14.4" fill="#0000ff" fill-rule="evenodd" fill-opacity="1" stroke="#000000" stroke-opacity="1" stroke-width="3.2"></circle>
<circle clip-path="url(#clip332)" cx="2182.97" cy="1222.64" r="14.4" fill="#0000ff" fill-rule="evenodd" fill-opacity="1" stroke="#000000" stroke-opacity="1" stroke-width="3.2"></circle>
<circle clip-path="url(#clip332)" cx="2146.22" cy="1298.55" r="14.4" fill="#0000ff" fill-rule="evenodd" fill-opacity="1" stroke="#000000" stroke-opacity="1" stroke-width="3.2"></circle>
<circle clip-path="url(#clip332)" cx="2109.47" cy="1336.51" r="14.4" fill="#0000ff" fill-rule="evenodd" fill-opacity="1" stroke="#000000" stroke-opacity="1" stroke-width="3.2"></circle>
<circle clip-path="url(#clip332)" cx="2072.72" cy="1355.48" r="14.4" fill="#0000ff" fill-rule="evenodd" fill-opacity="1" stroke="#000000" stroke-opacity="1" stroke-width="3.2"></circle>
<circle clip-path="url(#clip332)" cx="2035.97" cy="1364.97" r="14.4" fill="#0000ff" fill-rule="evenodd" fill-opacity="1" stroke="#000000" stroke-opacity="1" stroke-width="3.2"></circle>
<circle clip-path="url(#clip332)" cx="1999.22" cy="1369.72" r="14.4" fill="#0000ff" fill-rule="evenodd" fill-opacity="1" stroke="#000000" stroke-opacity="1" stroke-width="3.2"></circle>
<circle clip-path="url(#clip332)" cx="1962.47" cy="1372.09" r="14.4" fill="#0000ff" fill-rule="evenodd" fill-opacity="1" stroke="#000000" stroke-opacity="1" stroke-width="3.2"></circle>
<circle clip-path="url(#clip332)" cx="1925.72" cy="1373.27" r="14.4" fill="#0000ff" fill-rule="evenodd" fill-opacity="1" stroke="#000000" stroke-opacity="1" stroke-width="3.2"></circle>
<circle clip-path="url(#clip332)" cx="1888.97" cy="1373.87" r="14.4" fill="#0000ff" fill-rule="evenodd" fill-opacity="1" stroke="#000000" stroke-opacity="1" stroke-width="3.2"></circle>
<circle clip-path="url(#clip332)" cx="1852.22" cy="1374.16" r="14.4" fill="#0000ff" fill-rule="evenodd" fill-opacity="1" stroke="#000000" stroke-opacity="1" stroke-width="3.2"></circle>
<circle clip-path="url(#clip332)" cx="1815.47" cy="1374.31" r="14.4" fill="#0000ff" fill-rule="evenodd" fill-opacity="1" stroke="#000000" stroke-opacity="1" stroke-width="3.2"></circle>
<circle clip-path="url(#clip332)" cx="1778.72" cy="1374.39" r="14.4" fill="#0000ff" fill-rule="evenodd" fill-opacity="1" stroke="#000000" stroke-opacity="1" stroke-width="3.2"></circle>
<circle clip-path="url(#clip332)" cx="1741.97" cy="1374.42" r="14.4" fill="#0000ff" fill-rule="evenodd" fill-opacity="1" stroke="#000000" stroke-opacity="1" stroke-width="3.2"></circle>
<circle clip-path="url(#clip332)" cx="1705.22" cy="1374.44" r="14.4" fill="#0000ff" fill-rule="evenodd" fill-opacity="1" stroke="#000000" stroke-opacity="1" stroke-width="3.2"></circle>
<circle clip-path="url(#clip332)" cx="1668.47" cy="1374.45" r="14.4" fill="#0000ff" fill-rule="evenodd" fill-opacity="1" stroke="#000000" stroke-opacity="1" stroke-width="3.2"></circle>
<circle clip-path="url(#clip332)" cx="1631.72" cy="1374.46" r="14.4" fill="#0000ff" fill-rule="evenodd" fill-opacity="1" stroke="#000000" stroke-opacity="1" stroke-width="3.2"></circle>
<circle clip-path="url(#clip332)" cx="1594.97" cy="1374.46" r="14.4" fill="#0000ff" fill-rule="evenodd" fill-opacity="1" stroke="#000000" stroke-opacity="1" stroke-width="3.2"></circle>
<circle clip-path="url(#clip332)" cx="1558.22" cy="1374.46" r="14.4" fill="#0000ff" fill-rule="evenodd" fill-opacity="1" stroke="#000000" stroke-opacity="1" stroke-width="3.2"></circle>
<circle clip-path="url(#clip332)" cx="1521.47" cy="1374.46" r="14.4" fill="#0000ff" fill-rule="evenodd" fill-opacity="1" stroke="#000000" stroke-opacity="1" stroke-width="3.2"></circle>
<circle clip-path="url(#clip332)" cx="1484.72" cy="1374.46" r="14.4" fill="#0000ff" fill-rule="evenodd" fill-opacity="1" stroke="#000000" stroke-opacity="1" stroke-width="3.2"></circle>
<circle clip-path="url(#clip332)" cx="1447.97" cy="1374.46" r="14.4" fill="#0000ff" fill-rule="evenodd" fill-opacity="1" stroke="#000000" stroke-opacity="1" stroke-width="3.2"></circle>
<circle clip-path="url(#clip332)" cx="1411.22" cy="1374.46" r="14.4" fill="#0000ff" fill-rule="evenodd" fill-opacity="1" stroke="#000000" stroke-opacity="1" stroke-width="3.2"></circle>
<circle clip-path="url(#clip332)" cx="1374.48" cy="1374.46" r="14.4" fill="#0000ff" fill-rule="evenodd" fill-opacity="1" stroke="#000000" stroke-opacity="1" stroke-width="3.2"></circle>
<circle clip-path="url(#clip332)" cx="1337.73" cy="1374.46" r="14.4" fill="#0000ff" fill-rule="evenodd" fill-opacity="1" stroke="#000000" stroke-opacity="1" stroke-width="3.2"></circle>
<circle clip-path="url(#clip332)" cx="1300.98" cy="1374.46" r="14.4" fill="#0000ff" fill-rule="evenodd" fill-opacity="1" stroke="#000000" stroke-opacity="1" stroke-width="3.2"></circle>
<circle clip-path="url(#clip332)" cx="1264.23" cy="1374.46" r="14.4" fill="#0000ff" fill-rule="evenodd" fill-opacity="1" stroke="#000000" stroke-opacity="1" stroke-width="3.2"></circle>
<circle clip-path="url(#clip332)" cx="1227.48" cy="1374.46" r="14.4" fill="#0000ff" fill-rule="evenodd" fill-opacity="1" stroke="#000000" stroke-opacity="1" stroke-width="3.2"></circle>
<circle clip-path="url(#clip332)" cx="1190.73" cy="1374.46" r="14.4" fill="#0000ff" fill-rule="evenodd" fill-opacity="1" stroke="#000000" stroke-opacity="1" stroke-width="3.2"></circle>
<circle clip-path="url(#clip332)" cx="1153.98" cy="1374.46" r="14.4" fill="#0000ff" fill-rule="evenodd" fill-opacity="1" stroke="#000000" stroke-opacity="1" stroke-width="3.2"></circle>
<circle clip-path="url(#clip332)" cx="1117.23" cy="1374.46" r="14.4" fill="#0000ff" fill-rule="evenodd" fill-opacity="1" stroke="#000000" stroke-opacity="1" stroke-width="3.2"></circle>
<circle clip-path="url(#clip332)" cx="1080.48" cy="1374.46" r="14.4" fill="#0000ff" fill-rule="evenodd" fill-opacity="1" stroke="#000000" stroke-opacity="1" stroke-width="3.2"></circle>
<circle clip-path="url(#clip332)" cx="1043.73" cy="1374.46" r="14.4" fill="#0000ff" fill-rule="evenodd" fill-opacity="1" stroke="#000000" stroke-opacity="1" stroke-width="3.2"></circle>
<circle clip-path="url(#clip332)" cx="1006.98" cy="1374.46" r="14.4" fill="#0000ff" fill-rule="evenodd" fill-opacity="1" stroke="#000000" stroke-opacity="1" stroke-width="3.2"></circle>
<circle clip-path="url(#clip332)" cx="970.227" cy="1374.46" r="14.4" fill="#0000ff" fill-rule="evenodd" fill-opacity="1" stroke="#000000" stroke-opacity="1" stroke-width="3.2"></circle>
<circle clip-path="url(#clip332)" cx="933.477" cy="1374.46" r="14.4" fill="#0000ff" fill-rule="evenodd" fill-opacity="1" stroke="#000000" stroke-opacity="1" stroke-width="3.2"></circle>
<circle clip-path="url(#clip332)" cx="896.727" cy="1374.46" r="14.4" fill="#0000ff" fill-rule="evenodd" fill-opacity="1" stroke="#000000" stroke-opacity="1" stroke-width="3.2"></circle>
<circle clip-path="url(#clip332)" cx="859.977" cy="1374.46" r="14.4" fill="#0000ff" fill-rule="evenodd" fill-opacity="1" stroke="#000000" stroke-opacity="1" stroke-width="3.2"></circle>
<circle clip-path="url(#clip332)" cx="823.227" cy="1374.46" r="14.4" fill="#0000ff" fill-rule="evenodd" fill-opacity="1" stroke="#000000" stroke-opacity="1" stroke-width="3.2"></circle>
<circle clip-path="url(#clip332)" cx="786.478" cy="1374.46" r="14.4" fill="#0000ff" fill-rule="evenodd" fill-opacity="1" stroke="#000000" stroke-opacity="1" stroke-width="3.2"></circle>
<circle clip-path="url(#clip332)" cx="749.728" cy="1374.46" r="14.4" fill="#0000ff" fill-rule="evenodd" fill-opacity="1" stroke="#000000" stroke-opacity="1" stroke-width="3.2"></circle>
<circle clip-path="url(#clip332)" cx="712.978" cy="1374.46" r="14.4" fill="#0000ff" fill-rule="evenodd" fill-opacity="1" stroke="#000000" stroke-opacity="1" stroke-width="3.2"></circle>
<circle clip-path="url(#clip332)" cx="676.228" cy="1374.46" r="14.4" fill="#0000ff" fill-rule="evenodd" fill-opacity="1" stroke="#000000" stroke-opacity="1" stroke-width="3.2"></circle>
<circle clip-path="url(#clip332)" cx="639.478" cy="1374.46" r="14.4" fill="#0000ff" fill-rule="evenodd" fill-opacity="1" stroke="#000000" stroke-opacity="1" stroke-width="3.2"></circle>
<circle clip-path="url(#clip332)" cx="602.728" cy="1374.46" r="14.4" fill="#0000ff" fill-rule="evenodd" fill-opacity="1" stroke="#000000" stroke-opacity="1" stroke-width="3.2"></circle>
<circle clip-path="url(#clip332)" cx="565.978" cy="1374.46" r="14.4" fill="#0000ff" fill-rule="evenodd" fill-opacity="1" stroke="#000000" stroke-opacity="1" stroke-width="3.2"></circle>
<circle clip-path="url(#clip332)" cx="529.229" cy="1374.46" r="14.4" fill="#0000ff" fill-rule="evenodd" fill-opacity="1" stroke="#000000" stroke-opacity="1" stroke-width="3.2"></circle>
<circle clip-path="url(#clip332)" cx="492.479" cy="1374.46" r="14.4" fill="#0000ff" fill-rule="evenodd" fill-opacity="1" stroke="#000000" stroke-opacity="1" stroke-width="3.2"></circle>
<circle clip-path="url(#clip332)" cx="455.729" cy="1374.46" r="14.4" fill="#0000ff" fill-rule="evenodd" fill-opacity="1" stroke="#000000" stroke-opacity="1" stroke-width="3.2"></circle>
<circle clip-path="url(#clip332)" cx="418.979" cy="1374.46" r="14.4" fill="#0000ff" fill-rule="evenodd" fill-opacity="1" stroke="#000000" stroke-opacity="1" stroke-width="3.2"></circle>
<circle clip-path="url(#clip332)" cx="382.229" cy="1374.46" r="14.4" fill="#0000ff" fill-rule="evenodd" fill-opacity="1" stroke="#000000" stroke-opacity="1" stroke-width="3.2"></circle>
<circle clip-path="url(#clip332)" cx="345.479" cy="1374.46" r="14.4" fill="#0000ff" fill-rule="evenodd" fill-opacity="1" stroke="#000000" stroke-opacity="1" stroke-width="3.2"></circle>
<circle clip-path="url(#clip332)" cx="308.73" cy="1374.46" r="14.4" fill="#0000ff" fill-rule="evenodd" fill-opacity="1" stroke="#000000" stroke-opacity="1" stroke-width="3.2"></circle>
<polyline clip-path="url(#clip332)" style="stroke:#ff0000; stroke-linecap:round; stroke-linejoin:round; stroke-width:4; stroke-opacity:1; fill:none" stroke-dasharray="16, 10" points="-1854.37,1374.46 4456.32,1374.46 "></polyline>
<polyline clip-path="url(#clip332)" style="stroke:#008000; stroke-linecap:round; stroke-linejoin:round; stroke-width:4; stroke-opacity:1; fill:none" stroke-dasharray="2, 4" points="382.229,2698.32 382.229,-1163.95 "></polyline>
</svg>