<svg xmlns="http://www.w3.org/2000/svg" xmlns:xlink="http://www.w3.org/1999/xlink" width="600" height="400" viewBox="0 0 2400 1600">
<defs>
  <clipPath id="clip990">
    <rect x="0" y="0" width="2400" height="1600"></rect>
  </clipPath>
</defs>
<path clip-path="url(#clip990)" d="M0 1600 L2400 1600 L2400 0 L0 0  Z" fill="#ffffff" fill-rule="evenodd" fill-opacity="1"></path>
<defs>
  <clipPath id="clip991">
    <rect x="480" y="0" width="1681" height="1600"></rect>
  </clipPath>
</defs>
<path clip-path="url(#clip990)" d="M249.542 1423.18 L2352.76 1423.18 L2352.76 121.456 L249.542 121.456  Z" fill="#ffffff" fill-rule="evenodd" fill-opacity="1"></path>
<defs>
  <clipPath id="clip992">
    <rect x="249" y="121" width="2104" height="1303"></rect>
  </clipPath>
</defs>
<polyline clip-path="url(#clip992)" style="stroke:#000000; stroke-linecap:round; stroke-linejoin:round; stroke-width:2; stroke-opacity:0.1; fill:none" points="309.067,1423.18 309.067,121.456 "></polyline>
<polyline clip-path="url(#clip992)" style="stroke:#000000; stroke-linecap:round; stroke-linejoin:round; stroke-width:2; stroke-opacity:0.1; fill:none" points="805.108,1423.18 805.108,121.456 "></polyline>
<polyline clip-path="url(#clip992)" style="stroke:#000000; stroke-linecap:round; stroke-linejoin:round; stroke-width:2; stroke-opacity:0.1; fill:none" points="1301.15,1423.18 1301.15,121.456 "></polyline>
<polyline clip-path="url(#clip992)" style="stroke:#000000; stroke-linecap:round; stroke-linejoin:round; stroke-width:2; stroke-opacity:0.1; fill:none" points="1797.19,1423.18 1797.19,121.456 "></polyline>
<polyline clip-path="url(#clip992)" style="stroke:#000000; stroke-linecap:round; stroke-linejoin:round; stroke-width:2; stroke-opacity:0.1; fill:none" points="2293.23,1423.18 2293.23,121.456 "></polyline>
<polyline clip-path="url(#clip992)" style="stroke:#000000; stroke-linecap:round; stroke-linejoin:round; stroke-width:2; stroke-opacity:0.1; fill:none" points="249.542,1386.9 2352.76,1386.9 "></polyline>
<polyline clip-path="url(#clip992)" style="stroke:#000000; stroke-linecap:round; stroke-linejoin:round; stroke-width:2; stroke-opacity:0.1; fill:none" points="249.542,1079.75 2352.76,1079.75 "></polyline>
<polyline clip-path="url(#clip992)" style="stroke:#000000; stroke-linecap:round; stroke-linejoin:round; stroke-width:2; stroke-opacity:0.1; fill:none" points="249.542,772.597 2352.76,772.597 "></polyline>
<polyline clip-path="url(#clip992)" style="stroke:#000000; stroke-linecap:round; stroke-linejoin:round; stroke-width:2; stroke-opacity:0.1; fill:none" points="249.542,465.447 2352.76,465.447 "></polyline>
<polyline clip-path="url(#clip992)" style="stroke:#000000; stroke-linecap:round; stroke-linejoin:round; stroke-width:2; stroke-opacity:0.1; fill:none" points="249.542,158.297 2352.76,158.297 "></polyline>
<polyline clip-path="url(#clip990)" style="stroke:#000000; stroke-linecap:round; stroke-linejoin:round; stroke-width:4; stroke-opacity:1; fill:none" points="249.542,1423.18 2352.76,1423.18 "></polyline>
<polyline clip-path="url(#clip990)" style="stroke:#000000; stroke-linecap:round; stroke-linejoin:round; stroke-width:4; stroke-opacity:1; fill:none" points="309.067,1423.18 309.067,1404.28 "></polyline>
<polyline clip-path="url(#clip990)" style="stroke:#000000; stroke-linecap:round; stroke-linejoin:round; stroke-width:4; stroke-opacity:1; fill:none" points="805.108,1423.18 805.108,1404.28 "></polyline>
<polyline clip-path="url(#clip990)" style="stroke:#000000; stroke-linecap:round; stroke-linejoin:round; stroke-width:4; stroke-opacity:1; fill:none" points="1301.15,1423.18 1301.15,1404.28 "></polyline>
<polyline clip-path="url(#clip990)" style="stroke:#000000; stroke-linecap:round; stroke-linejoin:round; stroke-width:4; stroke-opacity:1; fill:none" points="1797.19,1423.18 1797.19,1404.28 "></polyline>
<polyline clip-path="url(#clip990)" style="stroke:#000000; stroke-linecap:round; stroke-linejoin:round; stroke-width:4; stroke-opacity:1; fill:none" points="2293.23,1423.18 2293.23,1404.28 "></polyline>
<path clip-path="url(#clip990)" d="M263.13 1468.75 L292.805 1468.75 L292.805 1472.69 L263.13 1472.69 L263.13 1468.75 Z" fill="#000000" fill-rule="nonzero" fill-opacity="1"></path><path clip-path="url(#clip990)" d="M303.708 1481.64 L311.347 1481.64 L311.347 1455.28 L303.037 1456.95 L303.037 1452.69 L311.301 1451.02 L315.977 1451.02 L315.977 1481.64 L323.615 1481.64 L323.615 1485.58 L303.708 1485.58 L303.708 1481.64 Z" fill="#000000" fill-rule="nonzero" fill-opacity="1"></path><path clip-path="url(#clip990)" d="M343.06 1454.1 Q339.449 1454.1 337.62 1457.66 Q335.814 1461.2 335.814 1468.33 Q335.814 1475.44 337.62 1479.01 Q339.449 1482.55 343.06 1482.55 Q346.694 1482.55 348.5 1479.01 Q350.328 1475.44 350.328 1468.33 Q350.328 1461.2 348.5 1457.66 Q346.694 1454.1 343.06 1454.1 M343.06 1450.39 Q348.87 1450.39 351.926 1455 Q355.004 1459.58 355.004 1468.33 Q355.004 1477.06 351.926 1481.67 Q348.87 1486.25 343.06 1486.25 Q337.25 1486.25 334.171 1481.67 Q331.115 1477.06 331.115 1468.33 Q331.115 1459.58 334.171 1455 Q337.25 1450.39 343.06 1450.39 Z" fill="#000000" fill-rule="nonzero" fill-opacity="1"></path><path clip-path="url(#clip990)" d="M774.749 1468.75 L804.425 1468.75 L804.425 1472.69 L774.749 1472.69 L774.749 1468.75 Z" fill="#000000" fill-rule="nonzero" fill-opacity="1"></path><path clip-path="url(#clip990)" d="M814.564 1451.02 L832.92 1451.02 L832.92 1454.96 L818.846 1454.96 L818.846 1463.43 Q819.865 1463.08 820.883 1462.92 Q821.902 1462.73 822.92 1462.73 Q828.707 1462.73 832.087 1465.9 Q835.467 1469.08 835.467 1474.49 Q835.467 1480.07 831.994 1483.17 Q828.522 1486.25 822.203 1486.25 Q820.027 1486.25 817.758 1485.88 Q815.513 1485.51 813.106 1484.77 L813.106 1480.07 Q815.189 1481.2 817.411 1481.76 Q819.633 1482.32 822.11 1482.32 Q826.115 1482.32 828.453 1480.21 Q830.791 1478.1 830.791 1474.49 Q830.791 1470.88 828.453 1468.77 Q826.115 1466.67 822.11 1466.67 Q820.235 1466.67 818.36 1467.08 Q816.508 1467.5 814.564 1468.38 L814.564 1451.02 Z" fill="#000000" fill-rule="nonzero" fill-opacity="1"></path><path clip-path="url(#clip990)" d="M1301.15 1454.1 Q1297.54 1454.1 1295.71 1457.66 Q1293.9 1461.2 1293.9 1468.33 Q1293.9 1475.44 1295.71 1479.01 Q1297.54 1482.55 1301.15 1482.55 Q1304.78 1482.55 1306.59 1479.01 Q1308.42 1475.44 1308.42 1468.33 Q1308.42 1461.2 1306.59 1457.66 Q1304.78 1454.1 1301.15 1454.1 M1301.15 1450.39 Q1306.96 1450.39 1310.01 1455 Q1313.09 1459.58 1313.09 1468.33 Q1313.09 1477.06 1310.01 1481.67 Q1306.96 1486.25 1301.15 1486.25 Q1295.34 1486.25 1292.26 1481.67 Q1289.2 1477.06 1289.2 1468.33 Q1289.2 1459.58 1292.26 1455 Q1295.34 1450.39 1301.15 1450.39 Z" fill="#000000" fill-rule="nonzero" fill-opacity="1"></path><path clip-path="url(#clip990)" d="M1787.47 1451.02 L1805.82 1451.02 L1805.82 1454.96 L1791.75 1454.96 L1791.75 1463.43 Q1792.77 1463.08 1793.79 1462.92 Q1794.81 1462.73 1795.82 1462.73 Q1801.61 1462.73 1804.99 1465.9 Q1808.37 1469.08 1808.37 1474.49 Q1808.37 1480.07 1804.9 1483.17 Q1801.43 1486.25 1795.11 1486.25 Q1792.93 1486.25 1790.66 1485.88 Q1788.42 1485.51 1786.01 1484.77 L1786.01 1480.07 Q1788.09 1481.2 1790.32 1481.76 Q1792.54 1482.32 1795.01 1482.32 Q1799.02 1482.32 1801.36 1480.21 Q1803.69 1478.1 1803.69 1474.49 Q1803.69 1470.88 1801.36 1468.77 Q1799.02 1466.67 1795.01 1466.67 Q1793.14 1466.67 1791.26 1467.08 Q1789.41 1467.5 1787.47 1468.38 L1787.47 1451.02 Z" fill="#000000" fill-rule="nonzero" fill-opacity="1"></path><path clip-path="url(#clip990)" d="M2267.92 1481.64 L2275.56 1481.64 L2275.56 1455.28 L2267.25 1456.95 L2267.25 1452.69 L2275.51 1451.02 L2280.19 1451.02 L2280.19 1481.64 L2287.83 1481.64 L2287.83 1485.58 L2267.92 1485.58 L2267.92 1481.64 Z" fill="#000000" fill-rule="nonzero" fill-opacity="1"></path><path clip-path="url(#clip990)" d="M2307.27 1454.1 Q2303.66 1454.1 2301.83 1457.66 Q2300.02 1461.2 2300.02 1468.33 Q2300.02 1475.44 2301.83 1479.01 Q2303.66 1482.55 2307.27 1482.55 Q2310.9 1482.55 2312.71 1479.01 Q2314.54 1475.44 2314.54 1468.33 Q2314.54 1461.2 2312.71 1457.66 Q2310.9 1454.1 2307.27 1454.1 M2307.27 1450.39 Q2313.08 1450.39 2316.14 1455 Q2319.21 1459.58 2319.21 1468.33 Q2319.21 1477.06 2316.14 1481.67 Q2313.08 1486.25 2307.27 1486.25 Q2301.46 1486.25 2298.38 1481.67 Q2295.33 1477.06 2295.33 1468.33 Q2295.33 1459.58 2298.38 1455 Q2301.46 1450.39 2307.27 1450.39 Z" fill="#000000" fill-rule="nonzero" fill-opacity="1"></path><path clip-path="url(#clip990)" d="M1317.76 1532.4 L1304.87 1549.74 L1318.43 1568.04 L1311.53 1568.04 L1301.15 1554.04 L1290.77 1568.04 L1283.87 1568.04 L1297.71 1549.39 L1285.04 1532.4 L1291.95 1532.4 L1301.4 1545.1 L1310.86 1532.4 L1317.76 1532.4 Z" fill="#000000" fill-rule="nonzero" fill-opacity="1"></path><polyline clip-path="url(#clip990)" style="stroke:#000000; stroke-linecap:round; stroke-linejoin:round; stroke-width:4; stroke-opacity:1; fill:none" points="249.542,1423.18 249.542,121.456 "></polyline>
<polyline clip-path="url(#clip990)" style="stroke:#000000; stroke-linecap:round; stroke-linejoin:round; stroke-width:4; stroke-opacity:1; fill:none" points="249.542,1386.9 268.44,1386.9 "></polyline>
<polyline clip-path="url(#clip990)" style="stroke:#000000; stroke-linecap:round; stroke-linejoin:round; stroke-width:4; stroke-opacity:1; fill:none" points="249.542,1079.75 268.44,1079.75 "></polyline>
<polyline clip-path="url(#clip990)" style="stroke:#000000; stroke-linecap:round; stroke-linejoin:round; stroke-width:4; stroke-opacity:1; fill:none" points="249.542,772.597 268.44,772.597 "></polyline>
<polyline clip-path="url(#clip990)" style="stroke:#000000; stroke-linecap:round; stroke-linejoin:round; stroke-width:4; stroke-opacity:1; fill:none" points="249.542,465.447 268.44,465.447 "></polyline>
<polyline clip-path="url(#clip990)" style="stroke:#000000; stroke-linecap:round; stroke-linejoin:round; stroke-width:4; stroke-opacity:1; fill:none" points="249.542,158.297 268.44,158.297 "></polyline>
<path clip-path="url(#clip990)" d="M126.205 1372.7 Q122.593 1372.7 120.765 1376.26 Q118.959 1379.8 118.959 1386.93 Q118.959 1394.04 120.765 1397.6 Q122.593 1401.14 126.205 1401.14 Q129.839 1401.14 131.644 1397.6 Q133.473 1394.04 133.473 1386.93 Q133.473 1379.8 131.644 1376.26 Q129.839 1372.7 126.205 1372.7 M126.205 1368.99 Q132.015 1368.99 135.07 1373.6 Q138.149 1378.18 138.149 1386.93 Q138.149 1395.66 135.07 1400.26 Q132.015 1404.85 126.205 1404.85 Q120.394 1404.85 117.316 1400.26 Q114.26 1395.66 114.26 1386.93 Q114.26 1378.18 117.316 1373.6 Q120.394 1368.99 126.205 1368.99 Z" fill="#000000" fill-rule="nonzero" fill-opacity="1"></path><path clip-path="url(#clip990)" d="M146.366 1398.3 L151.251 1398.3 L151.251 1404.18 L146.366 1404.18 L146.366 1398.3 Z" fill="#000000" fill-rule="nonzero" fill-opacity="1"></path><path clip-path="url(#clip990)" d="M171.436 1372.7 Q167.825 1372.7 165.996 1376.26 Q164.19 1379.8 164.19 1386.93 Q164.19 1394.04 165.996 1397.6 Q167.825 1401.14 171.436 1401.14 Q175.07 1401.14 176.876 1397.6 Q178.704 1394.04 178.704 1386.93 Q178.704 1379.8 176.876 1376.26 Q175.07 1372.7 171.436 1372.7 M171.436 1368.99 Q177.246 1368.99 180.301 1373.6 Q183.38 1378.18 183.38 1386.93 Q183.38 1395.66 180.301 1400.26 Q177.246 1404.85 171.436 1404.85 Q165.626 1404.85 162.547 1400.26 Q159.491 1395.66 159.491 1386.93 Q159.491 1378.18 162.547 1373.6 Q165.626 1368.99 171.436 1368.99 Z" fill="#000000" fill-rule="nonzero" fill-opacity="1"></path><path clip-path="url(#clip990)" d="M201.598 1372.7 Q197.987 1372.7 196.158 1376.26 Q194.352 1379.8 194.352 1386.93 Q194.352 1394.04 196.158 1397.6 Q197.987 1401.14 201.598 1401.14 Q205.232 1401.14 207.037 1397.6 Q208.866 1394.04 208.866 1386.93 Q208.866 1379.8 207.037 1376.26 Q205.232 1372.7 201.598 1372.7 M201.598 1368.99 Q207.408 1368.99 210.463 1373.6 Q213.542 1378.18 213.542 1386.93 Q213.542 1395.66 210.463 1400.26 Q207.408 1404.85 201.598 1404.85 Q195.787 1404.85 192.709 1400.26 Q189.653 1395.66 189.653 1386.93 Q189.653 1378.18 192.709 1373.6 Q195.787 1368.99 201.598 1368.99 Z" fill="#000000" fill-rule="nonzero" fill-opacity="1"></path><path clip-path="url(#clip990)" d="M127.2 1065.55 Q123.589 1065.55 121.76 1069.11 Q119.955 1072.65 119.955 1079.78 Q119.955 1086.89 121.76 1090.45 Q123.589 1093.99 127.2 1093.99 Q130.834 1093.99 132.64 1090.45 Q134.468 1086.89 134.468 1079.78 Q134.468 1072.65 132.64 1069.11 Q130.834 1065.55 127.2 1065.55 M127.2 1061.84 Q133.01 1061.84 136.066 1066.45 Q139.144 1071.03 139.144 1079.78 Q139.144 1088.51 136.066 1093.11 Q133.01 1097.7 127.2 1097.7 Q121.39 1097.7 118.311 1093.11 Q115.256 1088.51 115.256 1079.78 Q115.256 1071.03 118.311 1066.45 Q121.39 1061.84 127.2 1061.84 Z" fill="#000000" fill-rule="nonzero" fill-opacity="1"></path><path clip-path="url(#clip990)" d="M147.362 1091.15 L152.246 1091.15 L152.246 1097.03 L147.362 1097.03 L147.362 1091.15 Z" fill="#000000" fill-rule="nonzero" fill-opacity="1"></path><path clip-path="url(#clip990)" d="M166.459 1093.09 L182.778 1093.09 L182.778 1097.03 L160.834 1097.03 L160.834 1093.09 Q163.496 1090.34 168.079 1085.71 Q172.686 1081.05 173.866 1079.71 Q176.112 1077.19 176.991 1075.45 Q177.894 1073.69 177.894 1072 Q177.894 1069.25 175.95 1067.51 Q174.028 1065.78 170.927 1065.78 Q168.727 1065.78 166.274 1066.54 Q163.843 1067.3 161.065 1068.86 L161.065 1064.13 Q163.89 1063 166.343 1062.42 Q168.797 1061.84 170.834 1061.84 Q176.204 1061.84 179.399 1064.53 Q182.593 1067.21 182.593 1071.7 Q182.593 1073.83 181.783 1075.75 Q180.996 1077.65 178.889 1080.24 Q178.311 1080.92 175.209 1084.13 Q172.107 1087.33 166.459 1093.09 Z" fill="#000000" fill-rule="nonzero" fill-opacity="1"></path><path clip-path="url(#clip990)" d="M192.639 1062.47 L210.996 1062.47 L210.996 1066.4 L196.922 1066.4 L196.922 1074.87 Q197.94 1074.53 198.959 1074.36 Q199.977 1074.18 200.996 1074.18 Q206.783 1074.18 210.162 1077.35 Q213.542 1080.52 213.542 1085.94 Q213.542 1091.52 210.07 1094.62 Q206.598 1097.7 200.278 1097.7 Q198.102 1097.7 195.834 1097.33 Q193.588 1096.96 191.181 1096.22 L191.181 1091.52 Q193.264 1092.65 195.487 1093.21 Q197.709 1093.76 200.186 1093.76 Q204.19 1093.76 206.528 1091.66 Q208.866 1089.55 208.866 1085.94 Q208.866 1082.33 206.528 1080.22 Q204.19 1078.11 200.186 1078.11 Q198.311 1078.11 196.436 1078.53 Q194.584 1078.95 192.639 1079.83 L192.639 1062.47 Z" fill="#000000" fill-rule="nonzero" fill-opacity="1"></path><path clip-path="url(#clip990)" d="M126.205 758.396 Q122.593 758.396 120.765 761.96 Q118.959 765.502 118.959 772.632 Q118.959 779.738 120.765 783.303 Q122.593 786.844 126.205 786.844 Q129.839 786.844 131.644 783.303 Q133.473 779.738 133.473 772.632 Q133.473 765.502 131.644 761.96 Q129.839 758.396 126.205 758.396 M126.205 754.692 Q132.015 754.692 135.07 759.298 Q138.149 763.882 138.149 772.632 Q138.149 781.358 135.07 785.965 Q132.015 790.548 126.205 790.548 Q120.394 790.548 117.316 785.965 Q114.26 781.358 114.26 772.632 Q114.26 763.882 117.316 759.298 Q120.394 754.692 126.205 754.692 Z" fill="#000000" fill-rule="nonzero" fill-opacity="1"></path><path clip-path="url(#clip990)" d="M146.366 783.997 L151.251 783.997 L151.251 789.877 L146.366 789.877 L146.366 783.997 Z" fill="#000000" fill-rule="nonzero" fill-opacity="1"></path><path clip-path="url(#clip990)" d="M161.482 755.317 L179.839 755.317 L179.839 759.252 L165.765 759.252 L165.765 767.724 Q166.783 767.377 167.802 767.215 Q168.82 767.03 169.839 767.03 Q175.626 767.03 179.005 770.201 Q182.385 773.372 182.385 778.789 Q182.385 784.368 178.913 787.469 Q175.44 790.548 169.121 790.548 Q166.945 790.548 164.677 790.178 Q162.431 789.807 160.024 789.067 L160.024 784.368 Q162.107 785.502 164.329 786.057 Q166.552 786.613 169.028 786.613 Q173.033 786.613 175.371 784.507 Q177.709 782.4 177.709 778.789 Q177.709 775.178 175.371 773.071 Q173.033 770.965 169.028 770.965 Q167.153 770.965 165.278 771.382 Q163.427 771.798 161.482 772.678 L161.482 755.317 Z" fill="#000000" fill-rule="nonzero" fill-opacity="1"></path><path clip-path="url(#clip990)" d="M201.598 758.396 Q197.987 758.396 196.158 761.96 Q194.352 765.502 194.352 772.632 Q194.352 779.738 196.158 783.303 Q197.987 786.844 201.598 786.844 Q205.232 786.844 207.037 783.303 Q208.866 779.738 208.866 772.632 Q208.866 765.502 207.037 761.96 Q205.232 758.396 201.598 758.396 M201.598 754.692 Q207.408 754.692 210.463 759.298 Q213.542 763.882 213.542 772.632 Q213.542 781.358 210.463 785.965 Q207.408 790.548 201.598 790.548 Q195.787 790.548 192.709 785.965 Q189.653 781.358 189.653 772.632 Q189.653 763.882 192.709 759.298 Q195.787 754.692 201.598 754.692 Z" fill="#000000" fill-rule="nonzero" fill-opacity="1"></path><path clip-path="url(#clip990)" d="M127.2 451.246 Q123.589 451.246 121.76 454.811 Q119.955 458.352 119.955 465.482 Q119.955 472.588 121.76 476.153 Q123.589 479.695 127.2 479.695 Q130.834 479.695 132.64 476.153 Q134.468 472.588 134.468 465.482 Q134.468 458.352 132.64 454.811 Q130.834 451.246 127.2 451.246 M127.2 447.542 Q133.01 447.542 136.066 452.149 Q139.144 456.732 139.144 465.482 Q139.144 474.209 136.066 478.815 Q133.01 483.398 127.2 483.398 Q121.39 483.398 118.311 478.815 Q115.256 474.209 115.256 465.482 Q115.256 456.732 118.311 452.149 Q121.39 447.542 127.2 447.542 Z" fill="#000000" fill-rule="nonzero" fill-opacity="1"></path><path clip-path="url(#clip990)" d="M147.362 476.848 L152.246 476.848 L152.246 482.727 L147.362 482.727 L147.362 476.848 Z" fill="#000000" fill-rule="nonzero" fill-opacity="1"></path><path clip-path="url(#clip990)" d="M161.251 448.167 L183.473 448.167 L183.473 450.158 L170.927 482.727 L166.042 482.727 L177.848 452.102 L161.251 452.102 L161.251 448.167 Z" fill="#000000" fill-rule="nonzero" fill-opacity="1"></path><path clip-path="url(#clip990)" d="M192.639 448.167 L210.996 448.167 L210.996 452.102 L196.922 452.102 L196.922 460.574 Q197.94 460.227 198.959 460.065 Q199.977 459.88 200.996 459.88 Q206.783 459.88 210.162 463.051 Q213.542 466.223 213.542 471.639 Q213.542 477.218 210.07 480.32 Q206.598 483.398 200.278 483.398 Q198.102 483.398 195.834 483.028 Q193.588 482.658 191.181 481.917 L191.181 477.218 Q193.264 478.352 195.487 478.908 Q197.709 479.463 200.186 479.463 Q204.19 479.463 206.528 477.357 Q208.866 475.25 208.866 471.639 Q208.866 468.028 206.528 465.922 Q204.19 463.815 200.186 463.815 Q198.311 463.815 196.436 464.232 Q194.584 464.649 192.639 465.528 L192.639 448.167 Z" fill="#000000" fill-rule="nonzero" fill-opacity="1"></path><path clip-path="url(#clip990)" d="M117.015 171.642 L124.654 171.642 L124.654 145.277 L116.343 146.943 L116.343 142.684 L124.607 141.017 L129.283 141.017 L129.283 171.642 L136.922 171.642 L136.922 175.577 L117.015 175.577 L117.015 171.642 Z" fill="#000000" fill-rule="nonzero" fill-opacity="1"></path><path clip-path="url(#clip990)" d="M146.366 169.698 L151.251 169.698 L151.251 175.577 L146.366 175.577 L146.366 169.698 Z" fill="#000000" fill-rule="nonzero" fill-opacity="1"></path><path clip-path="url(#clip990)" d="M171.436 144.096 Q167.825 144.096 165.996 147.661 Q164.19 151.202 164.19 158.332 Q164.19 165.439 165.996 169.003 Q167.825 172.545 171.436 172.545 Q175.07 172.545 176.876 169.003 Q178.704 165.439 178.704 158.332 Q178.704 151.202 176.876 147.661 Q175.07 144.096 171.436 144.096 M171.436 140.392 Q177.246 140.392 180.301 144.999 Q183.38 149.582 183.38 158.332 Q183.38 167.059 180.301 171.665 Q177.246 176.249 171.436 176.249 Q165.626 176.249 162.547 171.665 Q159.491 167.059 159.491 158.332 Q159.491 149.582 162.547 144.999 Q165.626 140.392 171.436 140.392 Z" fill="#000000" fill-rule="nonzero" fill-opacity="1"></path><path clip-path="url(#clip990)" d="M201.598 144.096 Q197.987 144.096 196.158 147.661 Q194.352 151.202 194.352 158.332 Q194.352 165.439 196.158 169.003 Q197.987 172.545 201.598 172.545 Q205.232 172.545 207.037 169.003 Q208.866 165.439 208.866 158.332 Q208.866 151.202 207.037 147.661 Q205.232 144.096 201.598 144.096 M201.598 140.392 Q207.408 140.392 210.463 144.999 Q213.542 149.582 213.542 158.332 Q213.542 167.059 210.463 171.665 Q207.408 176.249 201.598 176.249 Q195.787 176.249 192.709 171.665 Q189.653 167.059 189.653 158.332 Q189.653 149.582 192.709 144.999 Q195.787 140.392 201.598 140.392 Z" fill="#000000" fill-rule="nonzero" fill-opacity="1"></path><path clip-path="url(#clip990)" d="M14.479 802.269 L19.3487 802.269 L19.3487 807.87 Q19.3487 811.021 20.6219 812.263 Q21.895 813.472 25.2052 813.472 L28.3562 813.472 L28.3562 803.828 L32.9077 803.828 L32.9077 813.472 L64.0042 813.472 L64.0042 819.361 L32.9077 819.361 L32.9077 824.962 L28.3562 824.962 L28.3562 819.361 L25.8736 819.361 Q19.9216 819.361 17.2162 816.591 Q14.479 813.822 14.479 807.807 L14.479 802.269 Z" fill="#000000" fill-rule="nonzero" fill-opacity="1"></path><path clip-path="url(#clip990)" d="M14.5426 783.299 Q21.8632 787.564 29.0246 789.633 Q36.186 791.702 43.5384 791.702 Q50.8908 791.702 58.1159 789.633 Q65.3091 787.532 72.5979 783.299 L72.5979 788.391 Q65.1182 793.166 57.8931 795.553 Q50.668 797.908 43.5384 797.908 Q36.4406 797.908 29.2474 795.553 Q22.0542 793.198 14.5426 788.391 L14.5426 783.299 Z" fill="#000000" fill-rule="nonzero" fill-opacity="1"></path><path clip-path="url(#clip990)" d="M28.3562 742.304 L45.7028 755.194 L64.0042 741.635 L64.0042 748.542 L49.9996 758.918 L64.0042 769.294 L64.0042 776.201 L45.3526 762.356 L28.3562 775.023 L28.3562 768.117 L41.0558 758.664 L28.3562 749.21 L28.3562 742.304 Z" fill="#000000" fill-rule="nonzero" fill-opacity="1"></path><path clip-path="url(#clip990)" d="M14.5426 734.283 L14.5426 729.19 Q22.0542 724.416 29.2474 722.061 Q36.4406 719.674 43.5384 719.674 Q50.668 719.674 57.8931 722.061 Q65.1182 724.416 72.5979 729.19 L72.5979 734.283 Q65.3091 730.05 58.1159 727.981 Q50.8908 725.88 43.5384 725.88 Q36.186 725.88 29.0246 727.981 Q21.8632 730.05 14.5426 734.283 Z" fill="#000000" fill-rule="nonzero" fill-opacity="1"></path><path clip-path="url(#clip990)" d="M971.567 14.5152 L979.831 14.5152 L992.551 65.6376 L1005.23 14.5152 L1014.43 14.5152 L1027.15 65.6376 L1039.83 14.5152 L1048.13 14.5152 L1032.94 74.9952 L1022.65 74.9952 L1009.89 22.4955 L997.007 74.9952 L986.718 74.9952 L971.567 14.5152 Z" fill="#000000" fill-rule="nonzero" fill-opacity="1"></path><path clip-path="url(#clip990)" d="M1076.08 79.2081 Q1072.92 87.3099 1069.92 89.781 Q1066.93 92.2521 1061.9 92.2521 L1055.95 92.2521 L1055.95 86.0137 L1060.32 86.0137 Q1063.4 86.0137 1065.1 84.5553 Q1066.8 83.097 1068.87 77.6688 L1070.21 74.266 L1051.86 29.6251 L1059.76 29.6251 L1073.93 65.111 L1088.11 29.6251 L1096.01 29.6251 L1076.08 79.2081 Z" fill="#000000" fill-rule="nonzero" fill-opacity="1"></path><path clip-path="url(#clip990)" d="M1106.02 11.9631 L1113.51 11.9631 L1113.51 49.1909 L1135.75 29.6251 L1145.27 29.6251 L1121.21 50.8518 L1146.28 74.9952 L1136.56 74.9952 L1113.51 52.8368 L1113.51 74.9952 L1106.02 74.9952 L1106.02 11.9631 Z" fill="#000000" fill-rule="nonzero" fill-opacity="1"></path><path clip-path="url(#clip990)" d="M1180.63 36.5926 Q1179.38 35.8635 1177.88 35.5394 Q1176.42 35.1748 1174.64 35.1748 Q1168.32 35.1748 1164.92 39.3067 Q1161.55 43.3981 1161.55 51.0949 L1161.55 74.9952 L1154.06 74.9952 L1154.06 29.6251 L1161.55 29.6251 L1161.55 36.6736 Q1163.9 32.5417 1167.67 30.5568 Q1171.44 28.5313 1176.83 28.5313 Q1177.6 28.5313 1178.53 28.6529 Q1179.46 28.7339 1180.59 28.9364 L1180.63 36.5926 Z" fill="#000000" fill-rule="nonzero" fill-opacity="1"></path><path clip-path="url(#clip990)" d="M1225.44 50.4467 L1225.44 54.0925 L1191.17 54.0925 Q1191.65 61.7893 1195.78 65.8402 Q1199.96 69.8506 1207.37 69.8506 Q1211.66 69.8506 1215.67 68.7973 Q1219.73 67.7441 1223.7 65.6376 L1223.7 72.6862 Q1219.69 74.3876 1215.47 75.2788 Q1211.26 76.17 1206.92 76.17 Q1196.07 76.17 1189.71 69.8506 Q1183.39 63.5311 1183.39 52.7557 Q1183.39 41.6157 1189.38 35.0938 Q1195.42 28.5313 1205.63 28.5313 Q1214.78 28.5313 1220.09 34.4456 Q1225.44 40.3195 1225.44 50.4467 M1217.98 48.2592 Q1217.9 42.1424 1214.54 38.4966 Q1211.22 34.8507 1205.71 34.8507 Q1199.47 34.8507 1195.7 38.375 Q1191.98 41.8993 1191.41 48.2997 L1217.98 48.2592 Z" fill="#000000" fill-rule="nonzero" fill-opacity="1"></path><path clip-path="url(#clip990)" d="M1266.59 30.9619 L1266.59 38.0104 Q1263.44 36.3901 1260.03 35.5799 Q1256.63 34.7697 1252.98 34.7697 Q1247.43 34.7697 1244.64 36.4711 Q1241.88 38.1725 1241.88 41.5752 Q1241.88 44.1678 1243.87 45.6667 Q1245.85 47.125 1251.85 48.4618 L1254.4 49.0289 Q1262.34 50.7303 1265.66 53.8495 Q1269.03 56.9282 1269.03 62.4779 Q1269.03 68.7973 1264 72.4836 Q1259.02 76.17 1250.27 76.17 Q1246.62 76.17 1242.65 75.4408 Q1238.72 74.7521 1234.35 73.3343 L1234.35 65.6376 Q1238.48 67.7846 1242.49 68.8783 Q1246.5 69.9316 1250.43 69.9316 Q1255.7 69.9316 1258.53 68.1492 Q1261.37 66.3263 1261.37 63.045 Q1261.37 60.0069 1259.3 58.3865 Q1257.28 56.7661 1250.35 55.2673 L1247.76 54.6597 Q1240.83 53.2013 1237.75 50.2037 Q1234.67 47.1655 1234.67 41.8993 Q1234.67 35.4989 1239.21 32.0151 Q1243.75 28.5313 1252.09 28.5313 Q1256.22 28.5313 1259.87 29.139 Q1263.52 29.7466 1266.59 30.9619 Z" fill="#000000" fill-rule="nonzero" fill-opacity="1"></path><path clip-path="url(#clip990)" d="M1330.23 11.9631 L1330.23 18.161 L1323.1 18.161 Q1319.09 18.161 1317.51 19.7814 Q1315.98 21.4017 1315.98 25.6147 L1315.98 29.6251 L1328.25 29.6251 L1328.25 35.4179 L1315.98 35.4179 L1315.98 74.9952 L1308.48 74.9952 L1308.48 35.4179 L1301.35 35.4179 L1301.35 29.6251 L1308.48 29.6251 L1308.48 26.4654 Q1308.48 18.8902 1312.01 15.4469 Q1315.53 11.9631 1323.19 11.9631 L1330.23 11.9631 Z" fill="#000000" fill-rule="nonzero" fill-opacity="1"></path><path clip-path="url(#clip990)" d="M1335.7 57.0902 L1335.7 29.6251 L1343.16 29.6251 L1343.16 56.8066 Q1343.16 63.2476 1345.67 66.4883 Q1348.18 69.6885 1353.2 69.6885 Q1359.24 69.6885 1362.72 65.8402 Q1366.25 61.9918 1366.25 55.3483 L1366.25 29.6251 L1373.7 29.6251 L1373.7 74.9952 L1366.25 74.9952 L1366.25 68.0276 Q1363.53 72.1596 1359.93 74.185 Q1356.36 76.17 1351.62 76.17 Q1343.8 76.17 1339.75 71.3089 Q1335.7 66.4478 1335.7 57.0902 M1354.46 28.5313 L1354.46 28.5313 Z" fill="#000000" fill-rule="nonzero" fill-opacity="1"></path><path clip-path="url(#clip990)" d="M1426.77 47.6111 L1426.77 74.9952 L1419.31 74.9952 L1419.31 47.8541 Q1419.31 41.4132 1416.8 38.213 Q1414.29 35.0128 1409.27 35.0128 Q1403.23 35.0128 1399.75 38.8611 Q1396.26 42.7095 1396.26 49.353 L1396.26 74.9952 L1388.77 74.9952 L1388.77 29.6251 L1396.26 29.6251 L1396.26 36.6736 Q1398.94 32.5822 1402.54 30.5568 Q1406.19 28.5313 1410.93 28.5313 Q1418.75 28.5313 1422.76 33.3924 Q1426.77 38.213 1426.77 47.6111 Z" fill="#000000" fill-rule="nonzero" fill-opacity="1"></path><path clip-path="url(#clip990)" d="M1441.35 11.9631 L1448.84 11.9631 L1448.84 49.1909 L1471.08 29.6251 L1480.6 29.6251 L1456.54 50.8518 L1481.62 74.9952 L1471.89 74.9952 L1448.84 52.8368 L1448.84 74.9952 L1441.35 74.9952 L1441.35 11.9631 Z" fill="#000000" fill-rule="nonzero" fill-opacity="1"></path><path clip-path="url(#clip990)" d="M1522.33 31.367 L1522.33 38.3345 Q1519.17 36.5926 1515.97 35.7419 Q1512.81 34.8507 1509.57 34.8507 Q1502.32 34.8507 1498.31 39.4688 Q1494.3 44.0463 1494.3 52.3506 Q1494.3 60.655 1498.31 65.273 Q1502.32 69.8506 1509.57 69.8506 Q1512.81 69.8506 1515.97 68.9999 Q1519.17 68.1087 1522.33 66.3668 L1522.33 73.2533 Q1519.21 74.7116 1515.85 75.4408 Q1512.53 76.17 1508.76 76.17 Q1498.51 76.17 1492.47 69.729 Q1486.44 63.2881 1486.44 52.3506 Q1486.44 41.2512 1492.51 34.8912 Q1498.63 28.5313 1509.24 28.5313 Q1512.69 28.5313 1515.97 29.2605 Q1519.25 29.9491 1522.33 31.367 Z" fill="#000000" fill-rule="nonzero" fill-opacity="1"></path><path clip-path="url(#clip990)" d="M1535.29 29.6251 L1542.74 29.6251 L1542.74 75.8054 Q1542.74 84.4743 1539.42 88.3632 Q1536.14 92.2521 1528.81 92.2521 L1525.97 92.2521 L1525.97 85.9326 L1527.96 85.9326 Q1532.21 85.9326 1533.75 83.9477 Q1535.29 82.0033 1535.29 75.8054 L1535.29 29.6251 M1535.29 11.9631 L1542.74 11.9631 L1542.74 21.4017 L1535.29 21.4017 L1535.29 11.9631 Z" fill="#000000" fill-rule="nonzero" fill-opacity="1"></path><path clip-path="url(#clip990)" d="M1558.34 29.6251 L1565.79 29.6251 L1565.79 74.9952 L1558.34 74.9952 L1558.34 29.6251 M1558.34 11.9631 L1565.79 11.9631 L1565.79 21.4017 L1558.34 21.4017 L1558.34 11.9631 Z" fill="#000000" fill-rule="nonzero" fill-opacity="1"></path><path clip-path="url(#clip990)" d="M1630.73 11.9631 L1630.73 18.161 L1623.6 18.161 Q1619.59 18.161 1618.01 19.7814 Q1616.47 21.4017 1616.47 25.6147 L1616.47 29.6251 L1628.75 29.6251 L1628.75 35.4179 L1616.47 35.4179 L1616.47 74.9952 L1608.98 74.9952 L1608.98 35.4179 L1601.85 35.4179 L1601.85 29.6251 L1608.98 29.6251 L1608.98 26.4654 Q1608.98 18.8902 1612.5 15.4469 Q1616.03 11.9631 1623.68 11.9631 L1630.73 11.9631 Z" fill="#000000" fill-rule="nonzero" fill-opacity="1"></path><polyline clip-path="url(#clip992)" style="stroke:#0000ff; stroke-linecap:round; stroke-linejoin:round; stroke-width:8; stroke-opacity:1; fill:none" points="309.067,1386.34 318.988,1386.29 328.909,1386.23 338.829,1386.17 348.75,1386.1 358.671,1386.02 368.592,1385.94 378.513,1385.85 388.434,1385.75 398.354,1385.65 408.275,1385.53 418.196,1385.41 428.117,1385.27 438.038,1385.12 447.958,1384.95 457.879,1384.77 467.8,1384.58 477.721,1384.36 487.642,1384.13 497.563,1383.88 507.483,1383.6 517.404,1383.3 527.325,1382.97 537.246,1382.61 547.167,1382.22 557.087,1381.8 567.008,1381.34 576.929,1380.84 586.85,1380.29 596.771,1379.7 606.692,1379.05 616.612,1378.35 626.533,1377.59 636.454,1376.76 646.375,1375.86 656.296,1374.89 666.216,1373.83 676.137,1372.68 686.058,1371.43 695.979,1370.08 705.9,1368.62 715.821,1367.03 725.741,1365.31 735.662,1363.45 745.583,1361.44 755.504,1359.26 765.425,1356.91 775.346,1354.36 785.266,1351.62 795.187,1348.65 805.108,1345.45 815.029,1342 824.95,1338.28 834.87,1334.28 844.791,1329.96 854.712,1325.33 864.633,1320.34 874.554,1314.99 884.475,1309.24 894.395,1303.08 904.316,1296.48 914.237,1289.41 924.158,1281.85 934.079,1273.77 943.999,1265.14 953.92,1255.94 963.841,1246.14 973.762,1235.72 983.683,1224.64 993.604,1212.88 1003.52,1200.42 1013.45,1187.23 1023.37,1173.29 1033.29,1158.59 1043.21,1143.1 1053.13,1126.82 1063.05,1109.72 1072.97,1091.82 1082.89,1073.1 1092.81,1053.57 1102.73,1033.25 1112.65,1012.14 1122.57,990.274 1132.5,967.682 1142.42,944.4 1152.34,920.475 1162.26,895.96 1172.18,870.917 1182.1,845.413 1192.02,819.525 1201.94,793.333 1211.86,766.926 1221.78,740.396 1231.7,713.838 1241.62,687.35 1251.54,661.031 1261.47,634.979 1271.39,609.289 1281.31,584.055 1291.23,559.364 1301.15,535.296 1311.07,511.927 1320.99,489.321 1330.91,467.534 1340.83,446.614 1350.75,426.598 1360.67,407.513 1370.59,389.376 1380.52,372.197 1390.44,355.975 1400.36,340.703 1410.28,326.366 1420.2,312.943 1430.12,300.408 1440.04,288.73 1449.96,277.875 1459.88,267.807 1469.8,258.487 1479.72,249.876 1489.64,241.934 1499.57,234.62 1509.49,227.895 1519.41,221.72 1529.33,216.056 1539.25,210.869 1549.17,206.122 1559.09,201.783 1569.01,197.82 1578.93,194.204 1588.85,190.907 1598.77,187.903 1608.69,185.167 1618.62,182.677 1628.54,180.413 1638.46,178.354 1648.38,176.482 1658.3,174.783 1668.22,173.239 1678.14,171.838 1688.06,170.567 1697.98,169.413 1707.9,168.367 1717.82,167.418 1727.74,166.558 1737.67,165.778 1747.59,165.071 1757.51,164.431 1767.43,163.851 1777.35,163.325 1787.27,162.849 1797.19,162.418 1807.11,162.027 1817.03,161.674 1826.95,161.354 1836.87,161.064 1846.79,160.801 1856.71,160.563 1866.64,160.348 1876.56,160.153 1886.48,159.977 1896.4,159.818 1906.32,159.673 1916.24,159.542 1926.16,159.424 1936.08,159.317 1946,159.22 1955.92,159.132 1965.84,159.053 1975.76,158.981 1985.69,158.916 1995.61,158.857 2005.53,158.804 2015.45,158.756 2025.37,158.712 2035.29,158.673 2045.21,158.637 2055.13,158.605 2065.05,158.575 2074.97,158.549 2084.89,158.525 2094.81,158.503 2104.74,158.484 2114.66,158.466 2124.58,158.45 2134.5,158.435 2144.42,158.422 2154.34,158.41 2164.26,158.4 2174.18,158.39 2184.1,158.381 2194.02,158.373 2203.94,158.366 2213.86,158.359 2223.79,158.354 2233.71,158.348 2243.63,158.343 2253.55,158.339 2263.47,158.335 2273.39,158.331 2283.31,158.328 2293.23,158.325 "></polyline>
<polyline clip-path="url(#clip992)" style="stroke:#ff0000; stroke-linecap:round; stroke-linejoin:round; stroke-width:4; stroke-opacity:1; fill:none" stroke-dasharray="16, 10" points="-1853.67,158.297 4455.97,158.297 "></polyline>
<path clip-path="url(#clip990)" d="M1689.48 1379.79 L2282.65 1379.79 L2282.65 1224.27 L1689.48 1224.27  Z" fill="#ffffff" fill-rule="evenodd" fill-opacity="1"></path>
<polyline clip-path="url(#clip990)" style="stroke:#000000; stroke-linecap:round; stroke-linejoin:round; stroke-width:4; stroke-opacity:1; fill:none" points="1689.48,1379.79 2282.65,1379.79 2282.65,1224.27 1689.48,1224.27 1689.48,1379.79 "></polyline>
<polyline clip-path="url(#clip990)" style="stroke:#0000ff; stroke-linecap:round; stroke-linejoin:round; stroke-width:8; stroke-opacity:1; fill:none" points="1712.85,1276.11 1853.07,1276.11 "></polyline>
<path clip-path="url(#clip990)" d="M1892.94 1253.74 L1892.94 1257.28 L1888.87 1257.28 Q1886.57 1257.28 1885.67 1258.21 Q1884.79 1259.14 1884.79 1261.54 L1884.79 1263.83 L1891.8 1263.83 L1891.8 1267.14 L1884.79 1267.14 L1884.79 1289.76 L1880.51 1289.76 L1880.51 1267.14 L1876.43 1267.14 L1876.43 1263.83 L1880.51 1263.83 L1880.51 1262.03 Q1880.51 1257.7 1882.52 1255.73 Q1884.54 1253.74 1888.91 1253.74 L1892.94 1253.74 Z" fill="#000000" fill-rule="nonzero" fill-opacity="1"></path><polyline clip-path="url(#clip990)" style="stroke:#ff0000; stroke-linecap:round; stroke-linejoin:round; stroke-width:4; stroke-opacity:1; fill:none" stroke-dasharray="16, 10" points="1712.85,1327.95 1853.07,1327.95 "></polyline>
<path clip-path="url(#clip990)" d="M1876.43 1309.21 L1880.69 1309.21 L1880.69 1345.23 L1876.43 1345.23 L1876.43 1309.21 Z" fill="#000000" fill-rule="nonzero" fill-opacity="1"></path><path clip-path="url(#clip990)" d="M1889.61 1319.3 L1893.87 1319.3 L1893.87 1345.23 L1889.61 1345.23 L1889.61 1319.3 M1889.61 1309.21 L1893.87 1309.21 L1893.87 1314.6 L1889.61 1314.6 L1889.61 1309.21 Z" fill="#000000" fill-rule="nonzero" fill-opacity="1"></path><path clip-path="url(#clip990)" d="M1922.96 1324.28 Q1924.56 1321.41 1926.78 1320.04 Q1929 1318.68 1932.01 1318.68 Q1936.06 1318.68 1938.26 1321.53 Q1940.46 1324.35 1940.46 1329.58 L1940.46 1345.23 L1936.18 1345.23 L1936.18 1329.72 Q1936.18 1325.99 1934.86 1324.19 Q1933.54 1322.38 1930.83 1322.38 Q1927.52 1322.38 1925.6 1324.58 Q1923.68 1326.78 1923.68 1330.58 L1923.68 1345.23 L1919.4 1345.23 L1919.4 1329.72 Q1919.4 1325.97 1918.08 1324.19 Q1916.76 1322.38 1914 1322.38 Q1910.74 1322.38 1908.82 1324.6 Q1906.9 1326.8 1906.9 1330.58 L1906.9 1345.23 L1902.61 1345.23 L1902.61 1319.3 L1906.9 1319.3 L1906.9 1323.33 Q1908.36 1320.95 1910.39 1319.81 Q1912.43 1318.68 1915.23 1318.68 Q1918.05 1318.68 1920.02 1320.11 Q1922.01 1321.55 1922.96 1324.28 Z" fill="#000000" fill-rule="nonzero" fill-opacity="1"></path><path clip-path="url(#clip990)" d="M1985.58 1319.3 L1976.2 1331.92 L1986.06 1345.23 L1981.04 1345.23 L1973.49 1335.04 L1965.95 1345.23 L1960.92 1345.23 L1970.99 1331.66 L1961.78 1319.3 L1966.8 1319.3 L1973.68 1328.54 L1980.55 1319.3 L1985.58 1319.3 Z" fill="#000000" fill-rule="nonzero" fill-opacity="1"></path><path clip-path="url(#clip990)" d="M2025.02 1329.33 L2025.02 1331.41 L2015.92 1340.51 L2013.15 1337.73 L2018.54 1332.34 L1990.32 1332.34 L1990.32 1328.4 L2018.54 1328.4 L2013.15 1323.01 L2015.92 1320.23 L2025.02 1329.33 Z" fill="#000000" fill-rule="nonzero" fill-opacity="1"></path><path clip-path="url(#clip990)" d="M2048.93 1337.15 Q2048.22 1336.32 2047.08 1334.37 Q2045.53 1337.15 2044.17 1338.38 Q2042.45 1339.86 2039.79 1339.86 Q2036.67 1339.86 2034.61 1337.52 Q2032.43 1335.07 2032.43 1331.02 Q2032.43 1327.13 2034.61 1324.49 Q2036.55 1322.15 2039.84 1322.15 Q2041.53 1322.15 2042.78 1322.84 Q2044.23 1323.61 2045.23 1324.93 Q2046.16 1326.11 2047.08 1327.71 Q2048.63 1324.93 2050 1323.7 Q2051.71 1322.22 2054.37 1322.22 Q2057.5 1322.22 2059.56 1324.56 Q2061.73 1327.01 2061.73 1331.06 Q2061.73 1334.95 2059.56 1337.59 Q2057.61 1339.93 2054.33 1339.93 Q2052.64 1339.93 2051.39 1339.23 Q2050.14 1338.61 2048.93 1337.15 M2039.54 1336.83 Q2043.35 1336.83 2045.65 1331.27 Q2042.71 1325.21 2039.54 1325.21 Q2037.22 1325.21 2036.04 1326.87 Q2034.77 1328.66 2034.77 1331.02 Q2034.77 1333.61 2036.04 1335.21 Q2037.34 1336.83 2039.54 1336.83 M2054.63 1325.25 Q2051.18 1325.25 2048.52 1330.81 Q2051.43 1336.87 2054.63 1336.87 Q2056.94 1336.87 2058.12 1335.21 Q2059.4 1333.42 2059.4 1331.06 Q2059.4 1328.47 2058.12 1326.87 Q2056.83 1325.25 2054.63 1325.25 Z" fill="#000000" fill-rule="nonzero" fill-opacity="1"></path><path clip-path="url(#clip990)" d="M2099.49 1309.21 L2099.49 1312.75 L2095.41 1312.75 Q2093.12 1312.75 2092.22 1313.68 Q2091.34 1314.6 2091.34 1317.01 L2091.34 1319.3 L2098.35 1319.3 L2098.35 1322.61 L2091.34 1322.61 L2091.34 1345.23 L2087.06 1345.23 L2087.06 1322.61 L2082.98 1322.61 L2082.98 1319.3 L2087.06 1319.3 L2087.06 1317.5 Q2087.06 1313.17 2089.07 1311.2 Q2091.09 1309.21 2095.46 1309.21 L2099.49 1309.21 Z" fill="#000000" fill-rule="nonzero" fill-opacity="1"></path><path clip-path="url(#clip990)" d="M2113.29 1309.26 Q2110.18 1314.58 2108.68 1319.79 Q2107.17 1325 2107.17 1330.34 Q2107.17 1335.69 2108.68 1340.95 Q2110.21 1346.18 2113.29 1351.48 L2109.58 1351.48 Q2106.11 1346.04 2104.37 1340.78 Q2102.66 1335.53 2102.66 1330.34 Q2102.66 1325.18 2104.37 1319.95 Q2106.09 1314.72 2109.58 1309.26 L2113.29 1309.26 Z" fill="#000000" fill-rule="nonzero" fill-opacity="1"></path><path clip-path="url(#clip990)" d="M2143.1 1319.3 L2133.72 1331.92 L2143.59 1345.23 L2138.56 1345.23 L2131.02 1335.04 L2123.47 1345.23 L2118.45 1345.23 L2128.52 1331.66 L2119.3 1319.3 L2124.33 1319.3 L2131.2 1328.54 L2138.08 1319.3 L2143.1 1319.3 Z" fill="#000000" fill-rule="nonzero" fill-opacity="1"></path><path clip-path="url(#clip990)" d="M2148.93 1309.26 L2152.64 1309.26 Q2156.11 1314.72 2157.82 1319.95 Q2159.56 1325.18 2159.56 1330.34 Q2159.56 1335.53 2157.82 1340.78 Q2156.11 1346.04 2152.64 1351.48 L2148.93 1351.48 Q2152.01 1346.18 2153.52 1340.95 Q2155.04 1335.69 2155.04 1330.34 Q2155.04 1325 2153.52 1319.79 Q2152.01 1314.58 2148.93 1309.26 Z" fill="#000000" fill-rule="nonzero" fill-opacity="1"></path><path clip-path="url(#clip990)" d="M2183.72 1323.7 L2213.4 1323.7 L2213.4 1327.59 L2183.72 1327.59 L2183.72 1323.7 M2183.72 1333.15 L2213.4 1333.15 L2213.4 1337.08 L2183.72 1337.08 L2183.72 1333.15 Z" fill="#000000" fill-rule="nonzero" fill-opacity="1"></path><path clip-path="url(#clip990)" d="M2239.37 1341.29 L2247.01 1341.29 L2247.01 1314.93 L2238.7 1316.59 L2238.7 1312.34 L2246.96 1310.67 L2251.64 1310.67 L2251.64 1341.29 L2259.28 1341.29 L2259.28 1345.23 L2239.37 1345.23 L2239.37 1341.29 Z" fill="#000000" fill-rule="nonzero" fill-opacity="1"></path></svg>