<svg xmlns="http://www.w3.org/2000/svg" xmlns:xlink="http://www.w3.org/1999/xlink" width="600" height="400" viewBox="0 0 2400 1600">
<defs>
  <clipPath id="clip870">
    <rect x="0" y="0" width="2400" height="1600"></rect>
  </clipPath>
</defs>
<path clip-path="url(#clip870)" d="M0 1600 L2400 1600 L2400 0 L0 0  Z" fill="#ffffff" fill-rule="evenodd" fill-opacity="1"></path>
<defs>
  <clipPath id="clip871">
    <rect x="480" y="0" width="1681" height="1600"></rect>
  </clipPath>
</defs>
<path clip-path="url(#clip870)" d="M219.866 1423.18 L1624.07 1423.18 L1624.07 123.472 L219.866 123.472  Z" fill="#ffffff" fill-rule="evenodd" fill-opacity="1"></path>
<defs>
  <clipPath id="clip872">
    <rect x="219" y="123" width="1405" height="1301"></rect>
  </clipPath>
</defs>
<polyline clip-path="url(#clip872)" style="stroke:#000000; stroke-linecap:round; stroke-linejoin:round; stroke-width:2; stroke-opacity:0.1; fill:none" points="225.641,1423.18 225.641,123.472 "></polyline>
<polyline clip-path="url(#clip872)" style="stroke:#000000; stroke-linecap:round; stroke-linejoin:round; stroke-width:2; stroke-opacity:0.1; fill:none" points="565.312,1423.18 565.312,123.472 "></polyline>
<polyline clip-path="url(#clip872)" style="stroke:#000000; stroke-linecap:round; stroke-linejoin:round; stroke-width:2; stroke-opacity:0.1; fill:none" points="904.983,1423.18 904.983,123.472 "></polyline>
<polyline clip-path="url(#clip872)" style="stroke:#000000; stroke-linecap:round; stroke-linejoin:round; stroke-width:2; stroke-opacity:0.1; fill:none" points="1244.65,1423.18 1244.65,123.472 "></polyline>
<polyline clip-path="url(#clip872)" style="stroke:#000000; stroke-linecap:round; stroke-linejoin:round; stroke-width:2; stroke-opacity:0.1; fill:none" points="1584.33,1423.18 1584.33,123.472 "></polyline>
<polyline clip-path="url(#clip872)" style="stroke:#000000; stroke-linecap:round; stroke-linejoin:round; stroke-width:2; stroke-opacity:0.1; fill:none" points="219.866,1387.24 1624.07,1387.24 "></polyline>
<polyline clip-path="url(#clip872)" style="stroke:#000000; stroke-linecap:round; stroke-linejoin:round; stroke-width:2; stroke-opacity:0.1; fill:none" points="219.866,1203.16 1624.07,1203.16 "></polyline>
<polyline clip-path="url(#clip872)" style="stroke:#000000; stroke-linecap:round; stroke-linejoin:round; stroke-width:2; stroke-opacity:0.1; fill:none" points="219.866,1019.08 1624.07,1019.08 "></polyline>
<polyline clip-path="url(#clip872)" style="stroke:#000000; stroke-linecap:round; stroke-linejoin:round; stroke-width:2; stroke-opacity:0.1; fill:none" points="219.866,835.001 1624.07,835.001 "></polyline>
<polyline clip-path="url(#clip872)" style="stroke:#000000; stroke-linecap:round; stroke-linejoin:round; stroke-width:2; stroke-opacity:0.1; fill:none" points="219.866,650.922 1624.07,650.922 "></polyline>
<polyline clip-path="url(#clip872)" style="stroke:#000000; stroke-linecap:round; stroke-linejoin:round; stroke-width:2; stroke-opacity:0.1; fill:none" points="219.866,466.844 1624.07,466.844 "></polyline>
<polyline clip-path="url(#clip872)" style="stroke:#000000; stroke-linecap:round; stroke-linejoin:round; stroke-width:2; stroke-opacity:0.1; fill:none" points="219.866,282.765 1624.07,282.765 "></polyline>
<polyline clip-path="url(#clip870)" style="stroke:#000000; stroke-linecap:round; stroke-linejoin:round; stroke-width:4; stroke-opacity:1; fill:none" points="219.866,1423.18 1624.07,1423.18 "></polyline>
<polyline clip-path="url(#clip870)" style="stroke:#000000; stroke-linecap:round; stroke-linejoin:round; stroke-width:4; stroke-opacity:1; fill:none" points="225.641,1423.18 225.641,1404.28 "></polyline>
<polyline clip-path="url(#clip870)" style="stroke:#000000; stroke-linecap:round; stroke-linejoin:round; stroke-width:4; stroke-opacity:1; fill:none" points="565.312,1423.18 565.312,1404.28 "></polyline>
<polyline clip-path="url(#clip870)" style="stroke:#000000; stroke-linecap:round; stroke-linejoin:round; stroke-width:4; stroke-opacity:1; fill:none" points="904.983,1423.18 904.983,1404.28 "></polyline>
<polyline clip-path="url(#clip870)" style="stroke:#000000; stroke-linecap:round; stroke-linejoin:round; stroke-width:4; stroke-opacity:1; fill:none" points="1244.65,1423.18 1244.65,1404.28 "></polyline>
<polyline clip-path="url(#clip870)" style="stroke:#000000; stroke-linecap:round; stroke-linejoin:round; stroke-width:4; stroke-opacity:1; fill:none" points="1584.33,1423.18 1584.33,1404.28 "></polyline>
<path clip-path="url(#clip870)" d="M225.641 1454.1 Q222.03 1454.1 220.201 1457.66 Q218.395 1461.2 218.395 1468.33 Q218.395 1475.44 220.201 1479.01 Q222.03 1482.55 225.641 1482.55 Q229.275 1482.55 231.08 1479.01 Q232.909 1475.44 232.909 1468.33 Q232.909 1461.2 231.08 1457.66 Q229.275 1454.1 225.641 1454.1 M225.641 1450.39 Q231.451 1450.39 234.506 1455 Q237.585 1459.58 237.585 1468.33 Q237.585 1477.06 234.506 1481.67 Q231.451 1486.25 225.641 1486.25 Q219.831 1486.25 216.752 1481.67 Q213.696 1477.06 213.696 1468.33 Q213.696 1459.58 216.752 1455 Q219.831 1450.39 225.641 1450.39 Z" fill="#000000" fill-rule="nonzero" fill-opacity="1"></path><path clip-path="url(#clip870)" d="M540 1481.64 L547.638 1481.64 L547.638 1455.28 L539.328 1456.95 L539.328 1452.69 L547.592 1451.02 L552.268 1451.02 L552.268 1481.64 L559.907 1481.64 L559.907 1485.58 L540 1485.58 L540 1481.64 Z" fill="#000000" fill-rule="nonzero" fill-opacity="1"></path><path clip-path="url(#clip870)" d="M579.351 1454.1 Q575.74 1454.1 573.911 1457.66 Q572.106 1461.2 572.106 1468.33 Q572.106 1475.44 573.911 1479.01 Q575.74 1482.55 579.351 1482.55 Q582.986 1482.55 584.791 1479.01 Q586.62 1475.44 586.62 1468.33 Q586.62 1461.2 584.791 1457.66 Q582.986 1454.1 579.351 1454.1 M579.351 1450.39 Q585.161 1450.39 588.217 1455 Q591.296 1459.58 591.296 1468.33 Q591.296 1477.06 588.217 1481.67 Q585.161 1486.25 579.351 1486.25 Q573.541 1486.25 570.462 1481.67 Q567.407 1477.06 567.407 1468.33 Q567.407 1459.58 570.462 1455 Q573.541 1450.39 579.351 1450.39 Z" fill="#000000" fill-rule="nonzero" fill-opacity="1"></path><path clip-path="url(#clip870)" d="M883.757 1481.64 L900.076 1481.64 L900.076 1485.58 L878.132 1485.58 L878.132 1481.64 Q880.794 1478.89 885.377 1474.26 Q889.983 1469.61 891.164 1468.27 Q893.409 1465.74 894.289 1464.01 Q895.192 1462.25 895.192 1460.56 Q895.192 1457.8 893.247 1456.07 Q891.326 1454.33 888.224 1454.33 Q886.025 1454.33 883.571 1455.09 Q881.141 1455.86 878.363 1457.41 L878.363 1452.69 Q881.187 1451.55 883.641 1450.97 Q886.095 1450.39 888.132 1450.39 Q893.502 1450.39 896.696 1453.08 Q899.891 1455.77 899.891 1460.26 Q899.891 1462.39 899.081 1464.31 Q898.294 1466.2 896.187 1468.8 Q895.608 1469.47 892.507 1472.69 Q889.405 1475.88 883.757 1481.64 Z" fill="#000000" fill-rule="nonzero" fill-opacity="1"></path><path clip-path="url(#clip870)" d="M919.891 1454.1 Q916.28 1454.1 914.451 1457.66 Q912.645 1461.2 912.645 1468.33 Q912.645 1475.44 914.451 1479.01 Q916.28 1482.55 919.891 1482.55 Q923.525 1482.55 925.33 1479.01 Q927.159 1475.44 927.159 1468.33 Q927.159 1461.2 925.33 1457.66 Q923.525 1454.1 919.891 1454.1 M919.891 1450.39 Q925.701 1450.39 928.756 1455 Q931.835 1459.58 931.835 1468.33 Q931.835 1477.06 928.756 1481.67 Q925.701 1486.25 919.891 1486.25 Q914.08 1486.25 911.002 1481.67 Q907.946 1477.06 907.946 1468.33 Q907.946 1459.58 911.002 1455 Q914.08 1450.39 919.891 1450.39 Z" fill="#000000" fill-rule="nonzero" fill-opacity="1"></path><path clip-path="url(#clip870)" d="M1233.5 1466.95 Q1236.85 1467.66 1238.73 1469.93 Q1240.63 1472.2 1240.63 1475.53 Q1240.63 1480.65 1237.11 1483.45 Q1233.59 1486.25 1227.11 1486.25 Q1224.93 1486.25 1222.62 1485.81 Q1220.33 1485.39 1217.87 1484.54 L1217.87 1480.02 Q1219.82 1481.16 1222.13 1481.74 Q1224.45 1482.32 1226.97 1482.32 Q1231.37 1482.32 1233.66 1480.58 Q1235.97 1478.84 1235.97 1475.53 Q1235.97 1472.48 1233.82 1470.77 Q1231.69 1469.03 1227.87 1469.03 L1223.84 1469.03 L1223.84 1465.19 L1228.06 1465.19 Q1231.51 1465.19 1233.34 1463.82 Q1235.16 1462.43 1235.16 1459.84 Q1235.16 1457.18 1233.27 1455.77 Q1231.39 1454.33 1227.87 1454.33 Q1225.95 1454.33 1223.75 1454.75 Q1221.55 1455.16 1218.91 1456.04 L1218.91 1451.88 Q1221.58 1451.14 1223.89 1450.77 Q1226.23 1450.39 1228.29 1450.39 Q1233.61 1450.39 1236.71 1452.83 Q1239.82 1455.23 1239.82 1459.35 Q1239.82 1462.22 1238.17 1464.21 Q1236.53 1466.18 1233.5 1466.95 Z" fill="#000000" fill-rule="nonzero" fill-opacity="1"></path><path clip-path="url(#clip870)" d="M1259.49 1454.1 Q1255.88 1454.1 1254.05 1457.66 Q1252.25 1461.2 1252.25 1468.33 Q1252.25 1475.44 1254.05 1479.01 Q1255.88 1482.55 1259.49 1482.55 Q1263.13 1482.55 1264.93 1479.01 Q1266.76 1475.44 1266.76 1468.33 Q1266.76 1461.2 1264.93 1457.66 Q1263.13 1454.1 1259.49 1454.1 M1259.49 1450.39 Q1265.3 1450.39 1268.36 1455 Q1271.44 1459.58 1271.44 1468.33 Q1271.44 1477.06 1268.36 1481.67 Q1265.3 1486.25 1259.49 1486.25 Q1253.68 1486.25 1250.6 1481.67 Q1247.55 1477.06 1247.55 1468.33 Q1247.55 1459.58 1250.6 1455 Q1253.68 1450.39 1259.49 1450.39 Z" fill="#000000" fill-rule="nonzero" fill-opacity="1"></path><path clip-path="url(#clip870)" d="M1572.5 1455.09 L1560.69 1473.54 L1572.5 1473.54 L1572.5 1455.09 M1571.27 1451.02 L1577.15 1451.02 L1577.15 1473.54 L1582.08 1473.54 L1582.08 1477.43 L1577.15 1477.43 L1577.15 1485.58 L1572.5 1485.58 L1572.5 1477.43 L1556.9 1477.43 L1556.9 1472.92 L1571.27 1451.02 Z" fill="#000000" fill-rule="nonzero" fill-opacity="1"></path><path clip-path="url(#clip870)" d="M1599.81 1454.1 Q1596.2 1454.1 1594.37 1457.66 Q1592.57 1461.2 1592.57 1468.33 Q1592.57 1475.44 1594.37 1479.01 Q1596.2 1482.55 1599.81 1482.55 Q1603.45 1482.55 1605.25 1479.01 Q1607.08 1475.44 1607.08 1468.33 Q1607.08 1461.2 1605.25 1457.66 Q1603.45 1454.1 1599.81 1454.1 M1599.81 1450.39 Q1605.62 1450.39 1608.68 1455 Q1611.76 1459.58 1611.76 1468.33 Q1611.76 1477.06 1608.68 1481.67 Q1605.62 1486.25 1599.81 1486.25 Q1594 1486.25 1590.92 1481.67 Q1587.87 1477.06 1587.87 1468.33 Q1587.87 1459.58 1590.92 1455 Q1594 1450.39 1599.81 1450.39 Z" fill="#000000" fill-rule="nonzero" fill-opacity="1"></path><path clip-path="url(#clip870)" d="M936.894 1546.53 L936.894 1568.04 L931.038 1568.04 L931.038 1546.72 Q931.038 1541.66 929.065 1539.14 Q927.091 1536.63 923.145 1536.63 Q918.402 1536.63 915.665 1539.65 Q912.928 1542.68 912.928 1547.9 L912.928 1568.04 L907.039 1568.04 L907.039 1532.4 L912.928 1532.4 L912.928 1537.93 Q915.028 1534.72 917.861 1533.13 Q920.726 1531.54 924.449 1531.54 Q930.592 1531.54 933.743 1535.36 Q936.894 1539.14 936.894 1546.53 Z" fill="#000000" fill-rule="nonzero" fill-opacity="1"></path><polyline clip-path="url(#clip870)" style="stroke:#000000; stroke-linecap:round; stroke-linejoin:round; stroke-width:4; stroke-opacity:1; fill:none" points="219.866,1423.18 219.866,123.472 "></polyline>
<polyline clip-path="url(#clip870)" style="stroke:#000000; stroke-linecap:round; stroke-linejoin:round; stroke-width:4; stroke-opacity:1; fill:none" points="219.866,1387.24 232.308,1387.24 "></polyline>
<polyline clip-path="url(#clip870)" style="stroke:#000000; stroke-linecap:round; stroke-linejoin:round; stroke-width:4; stroke-opacity:1; fill:none" points="219.866,1203.16 232.308,1203.16 "></polyline>
<polyline clip-path="url(#clip870)" style="stroke:#000000; stroke-linecap:round; stroke-linejoin:round; stroke-width:4; stroke-opacity:1; fill:none" points="219.866,1019.08 232.308,1019.08 "></polyline>
<polyline clip-path="url(#clip870)" style="stroke:#000000; stroke-linecap:round; stroke-linejoin:round; stroke-width:4; stroke-opacity:1; fill:none" points="219.866,835.001 232.308,835.001 "></polyline>
<polyline clip-path="url(#clip870)" style="stroke:#000000; stroke-linecap:round; stroke-linejoin:round; stroke-width:4; stroke-opacity:1; fill:none" points="219.866,650.922 232.308,650.922 "></polyline>
<polyline clip-path="url(#clip870)" style="stroke:#000000; stroke-linecap:round; stroke-linejoin:round; stroke-width:4; stroke-opacity:1; fill:none" points="219.866,466.844 232.308,466.844 "></polyline>
<polyline clip-path="url(#clip870)" style="stroke:#000000; stroke-linecap:round; stroke-linejoin:round; stroke-width:4; stroke-opacity:1; fill:none" points="219.866,282.765 232.308,282.765 "></polyline>
<path clip-path="url(#clip870)" d="M126.691 1373.03 Q123.08 1373.03 121.251 1376.6 Q119.445 1380.14 119.445 1387.27 Q119.445 1394.38 121.251 1397.94 Q123.08 1401.48 126.691 1401.48 Q130.325 1401.48 132.13 1397.94 Q133.959 1394.38 133.959 1387.27 Q133.959 1380.14 132.13 1376.6 Q130.325 1373.03 126.691 1373.03 M126.691 1369.33 Q132.501 1369.33 135.556 1373.94 Q138.635 1378.52 138.635 1387.27 Q138.635 1396 135.556 1400.6 Q132.501 1405.19 126.691 1405.19 Q120.88 1405.19 117.802 1400.6 Q114.746 1396 114.746 1387.27 Q114.746 1378.52 117.802 1373.94 Q120.88 1369.33 126.691 1369.33 Z" fill="#000000" fill-rule="nonzero" fill-opacity="1"></path><path clip-path="url(#clip870)" d="M146.853 1398.64 L151.737 1398.64 L151.737 1404.52 L146.853 1404.52 L146.853 1398.64 Z" fill="#000000" fill-rule="nonzero" fill-opacity="1"></path><path clip-path="url(#clip870)" d="M171.922 1373.03 Q168.311 1373.03 166.482 1376.6 Q164.677 1380.14 164.677 1387.27 Q164.677 1394.38 166.482 1397.94 Q168.311 1401.48 171.922 1401.48 Q175.556 1401.48 177.362 1397.94 Q179.19 1394.38 179.19 1387.27 Q179.19 1380.14 177.362 1376.6 Q175.556 1373.03 171.922 1373.03 M171.922 1369.33 Q177.732 1369.33 180.788 1373.94 Q183.866 1378.52 183.866 1387.27 Q183.866 1396 180.788 1400.6 Q177.732 1405.19 171.922 1405.19 Q166.112 1405.19 163.033 1400.6 Q159.978 1396 159.978 1387.27 Q159.978 1378.52 163.033 1373.94 Q166.112 1369.33 171.922 1369.33 Z" fill="#000000" fill-rule="nonzero" fill-opacity="1"></path><path clip-path="url(#clip870)" d="M128.288 1188.96 Q124.677 1188.96 122.848 1192.52 Q121.043 1196.06 121.043 1203.19 Q121.043 1210.3 122.848 1213.86 Q124.677 1217.41 128.288 1217.41 Q131.922 1217.41 133.728 1213.86 Q135.556 1210.3 135.556 1203.19 Q135.556 1196.06 133.728 1192.52 Q131.922 1188.96 128.288 1188.96 M128.288 1185.25 Q134.098 1185.25 137.154 1189.86 Q140.232 1194.44 140.232 1203.19 Q140.232 1211.92 137.154 1216.53 Q134.098 1221.11 128.288 1221.11 Q122.478 1221.11 119.399 1216.53 Q116.343 1211.92 116.343 1203.19 Q116.343 1194.44 119.399 1189.86 Q122.478 1185.25 128.288 1185.25 Z" fill="#000000" fill-rule="nonzero" fill-opacity="1"></path><path clip-path="url(#clip870)" d="M148.45 1214.56 L153.334 1214.56 L153.334 1220.44 L148.45 1220.44 L148.45 1214.56 Z" fill="#000000" fill-rule="nonzero" fill-opacity="1"></path><path clip-path="url(#clip870)" d="M167.547 1216.5 L183.866 1216.5 L183.866 1220.44 L161.922 1220.44 L161.922 1216.5 Q164.584 1213.75 169.167 1209.12 Q173.774 1204.47 174.954 1203.12 Q177.2 1200.6 178.079 1198.86 Q178.982 1197.1 178.982 1195.41 Q178.982 1192.66 177.038 1190.92 Q175.116 1189.19 172.014 1189.19 Q169.815 1189.19 167.362 1189.95 Q164.931 1190.72 162.153 1192.27 L162.153 1187.54 Q164.977 1186.41 167.431 1185.83 Q169.885 1185.25 171.922 1185.25 Q177.292 1185.25 180.487 1187.94 Q183.681 1190.62 183.681 1195.11 Q183.681 1197.24 182.871 1199.16 Q182.084 1201.06 179.977 1203.66 Q179.399 1204.33 176.297 1207.54 Q173.195 1210.74 167.547 1216.5 Z" fill="#000000" fill-rule="nonzero" fill-opacity="1"></path><path clip-path="url(#clip870)" d="M126.205 1004.88 Q122.593 1004.88 120.765 1008.44 Q118.959 1011.98 118.959 1019.11 Q118.959 1026.22 120.765 1029.79 Q122.593 1033.33 126.205 1033.33 Q129.839 1033.33 131.644 1029.79 Q133.473 1026.22 133.473 1019.11 Q133.473 1011.98 131.644 1008.44 Q129.839 1004.88 126.205 1004.88 M126.205 1001.17 Q132.015 1001.17 135.07 1005.78 Q138.149 1010.36 138.149 1019.11 Q138.149 1027.84 135.07 1032.45 Q132.015 1037.03 126.205 1037.03 Q120.394 1037.03 117.316 1032.45 Q114.26 1027.84 114.26 1019.11 Q114.26 1010.36 117.316 1005.78 Q120.394 1001.17 126.205 1001.17 Z" fill="#000000" fill-rule="nonzero" fill-opacity="1"></path><path clip-path="url(#clip870)" d="M146.366 1030.48 L151.251 1030.48 L151.251 1036.36 L146.366 1036.36 L146.366 1030.48 Z" fill="#000000" fill-rule="nonzero" fill-opacity="1"></path><path clip-path="url(#clip870)" d="M174.283 1005.87 L162.477 1024.32 L174.283 1024.32 L174.283 1005.87 M173.056 1001.8 L178.936 1001.8 L178.936 1024.32 L183.866 1024.32 L183.866 1028.21 L178.936 1028.21 L178.936 1036.36 L174.283 1036.36 L174.283 1028.21 L158.681 1028.21 L158.681 1023.7 L173.056 1001.8 Z" fill="#000000" fill-rule="nonzero" fill-opacity="1"></path><path clip-path="url(#clip870)" d="M126.529 820.799 Q122.918 820.799 121.089 824.364 Q119.283 827.906 119.283 835.035 Q119.283 842.142 121.089 845.707 Q122.918 849.248 126.529 849.248 Q130.163 849.248 131.968 845.707 Q133.797 842.142 133.797 835.035 Q133.797 827.906 131.968 824.364 Q130.163 820.799 126.529 820.799 M126.529 817.096 Q132.339 817.096 135.394 821.702 Q138.473 826.285 138.473 835.035 Q138.473 843.762 135.394 848.369 Q132.339 852.952 126.529 852.952 Q120.718 852.952 117.64 848.369 Q114.584 843.762 114.584 835.035 Q114.584 826.285 117.64 821.702 Q120.718 817.096 126.529 817.096 Z" fill="#000000" fill-rule="nonzero" fill-opacity="1"></path><path clip-path="url(#clip870)" d="M146.691 846.401 L151.575 846.401 L151.575 852.281 L146.691 852.281 L146.691 846.401 Z" fill="#000000" fill-rule="nonzero" fill-opacity="1"></path><path clip-path="url(#clip870)" d="M172.339 833.137 Q169.19 833.137 167.339 835.29 Q165.51 837.443 165.51 841.193 Q165.51 844.92 167.339 847.095 Q169.19 849.248 172.339 849.248 Q175.487 849.248 177.315 847.095 Q179.167 844.92 179.167 841.193 Q179.167 837.443 177.315 835.29 Q175.487 833.137 172.339 833.137 M181.621 818.484 L181.621 822.744 Q179.862 821.91 178.056 821.471 Q176.274 821.031 174.514 821.031 Q169.885 821.031 167.431 824.156 Q165.001 827.281 164.653 833.6 Q166.019 831.586 168.079 830.521 Q170.139 829.433 172.616 829.433 Q177.825 829.433 180.834 832.605 Q183.866 835.753 183.866 841.193 Q183.866 846.517 180.718 849.734 Q177.57 852.952 172.339 852.952 Q166.343 852.952 163.172 848.369 Q160.001 843.762 160.001 835.035 Q160.001 826.841 163.89 821.98 Q167.778 817.096 174.329 817.096 Q176.089 817.096 177.871 817.443 Q179.676 817.79 181.621 818.484 Z" fill="#000000" fill-rule="nonzero" fill-opacity="1"></path><path clip-path="url(#clip870)" d="M126.783 636.721 Q123.172 636.721 121.343 640.286 Q119.538 643.827 119.538 650.957 Q119.538 658.063 121.343 661.628 Q123.172 665.17 126.783 665.17 Q130.417 665.17 132.223 661.628 Q134.052 658.063 134.052 650.957 Q134.052 643.827 132.223 640.286 Q130.417 636.721 126.783 636.721 M126.783 633.017 Q132.593 633.017 135.649 637.624 Q138.728 642.207 138.728 650.957 Q138.728 659.684 135.649 664.29 Q132.593 668.873 126.783 668.873 Q120.973 668.873 117.894 664.29 Q114.839 659.684 114.839 650.957 Q114.839 642.207 117.894 637.624 Q120.973 633.017 126.783 633.017 Z" fill="#000000" fill-rule="nonzero" fill-opacity="1"></path><path clip-path="url(#clip870)" d="M146.945 662.323 L151.829 662.323 L151.829 668.202 L146.945 668.202 L146.945 662.323 Z" fill="#000000" fill-rule="nonzero" fill-opacity="1"></path><path clip-path="url(#clip870)" d="M172.014 651.79 Q168.681 651.79 166.76 653.573 Q164.862 655.355 164.862 658.48 Q164.862 661.605 166.76 663.387 Q168.681 665.17 172.014 665.17 Q175.348 665.17 177.269 663.387 Q179.19 661.582 179.19 658.48 Q179.19 655.355 177.269 653.573 Q175.371 651.79 172.014 651.79 M167.339 649.799 Q164.329 649.059 162.64 646.999 Q160.973 644.938 160.973 641.975 Q160.973 637.832 163.913 635.425 Q166.876 633.017 172.014 633.017 Q177.176 633.017 180.116 635.425 Q183.056 637.832 183.056 641.975 Q183.056 644.938 181.366 646.999 Q179.7 649.059 176.714 649.799 Q180.093 650.586 181.968 652.878 Q183.866 655.17 183.866 658.48 Q183.866 663.503 180.788 666.188 Q177.732 668.873 172.014 668.873 Q166.297 668.873 163.218 666.188 Q160.163 663.503 160.163 658.48 Q160.163 655.17 162.061 652.878 Q163.959 650.586 167.339 649.799 M165.626 642.415 Q165.626 645.1 167.292 646.605 Q168.982 648.11 172.014 648.11 Q175.024 648.11 176.714 646.605 Q178.426 645.1 178.426 642.415 Q178.426 639.73 176.714 638.225 Q175.024 636.721 172.014 636.721 Q168.982 636.721 167.292 638.225 Q165.626 639.73 165.626 642.415 Z" fill="#000000" fill-rule="nonzero" fill-opacity="1"></path><path clip-path="url(#clip870)" d="M117.501 480.188 L125.14 480.188 L125.14 453.823 L116.83 455.49 L116.83 451.23 L125.093 449.564 L129.769 449.564 L129.769 480.188 L137.408 480.188 L137.408 484.124 L117.501 484.124 L117.501 480.188 Z" fill="#000000" fill-rule="nonzero" fill-opacity="1"></path><path clip-path="url(#clip870)" d="M146.853 478.244 L151.737 478.244 L151.737 484.124 L146.853 484.124 L146.853 478.244 Z" fill="#000000" fill-rule="nonzero" fill-opacity="1"></path><path clip-path="url(#clip870)" d="M171.922 452.642 Q168.311 452.642 166.482 456.207 Q164.677 459.749 164.677 466.878 Q164.677 473.985 166.482 477.55 Q168.311 481.091 171.922 481.091 Q175.556 481.091 177.362 477.55 Q179.19 473.985 179.19 466.878 Q179.19 459.749 177.362 456.207 Q175.556 452.642 171.922 452.642 M171.922 448.939 Q177.732 448.939 180.788 453.545 Q183.866 458.128 183.866 466.878 Q183.866 475.605 180.788 480.212 Q177.732 484.795 171.922 484.795 Q166.112 484.795 163.033 480.212 Q159.978 475.605 159.978 466.878 Q159.978 458.128 163.033 453.545 Q166.112 448.939 171.922 448.939 Z" fill="#000000" fill-rule="nonzero" fill-opacity="1"></path><path clip-path="url(#clip870)" d="M119.098 296.11 L126.737 296.11 L126.737 269.744 L118.427 271.411 L118.427 267.152 L126.691 265.485 L131.367 265.485 L131.367 296.11 L139.005 296.11 L139.005 300.045 L119.098 300.045 L119.098 296.11 Z" fill="#000000" fill-rule="nonzero" fill-opacity="1"></path><path clip-path="url(#clip870)" d="M148.45 294.166 L153.334 294.166 L153.334 300.045 L148.45 300.045 L148.45 294.166 Z" fill="#000000" fill-rule="nonzero" fill-opacity="1"></path><path clip-path="url(#clip870)" d="M167.547 296.11 L183.866 296.11 L183.866 300.045 L161.922 300.045 L161.922 296.11 Q164.584 293.355 169.167 288.726 Q173.774 284.073 174.954 282.73 Q177.2 280.207 178.079 278.471 Q178.982 276.712 178.982 275.022 Q178.982 272.268 177.038 270.531 Q175.116 268.795 172.014 268.795 Q169.815 268.795 167.362 269.559 Q164.931 270.323 162.153 271.874 L162.153 267.152 Q164.977 266.018 167.431 265.439 Q169.885 264.86 171.922 264.86 Q177.292 264.86 180.487 267.545 Q183.681 270.231 183.681 274.721 Q183.681 276.851 182.871 278.772 Q182.084 280.67 179.977 283.263 Q179.399 283.934 176.297 287.152 Q173.195 290.346 167.547 296.11 Z" fill="#000000" fill-rule="nonzero" fill-opacity="1"></path><path clip-path="url(#clip870)" d="M16.4842 871.676 L16.4842 865.183 L56.6518 855.189 L16.4842 845.227 L16.4842 838.002 L56.6518 828.007 L16.4842 818.045 L16.4842 811.52 L64.0042 823.456 L64.0042 831.54 L22.7544 841.566 L64.0042 851.688 L64.0042 859.772 L16.4842 871.676 Z" fill="#000000" fill-rule="nonzero" fill-opacity="1"></path><path clip-path="url(#clip870)" d="M67.3143 789.559 Q73.68 792.041 75.6216 794.396 Q77.5631 796.752 77.5631 800.699 L77.5631 805.377 L72.6615 805.377 L72.6615 801.94 Q72.6615 799.521 71.5157 798.184 Q70.3699 796.847 66.1048 795.224 L63.4312 794.174 L28.3562 808.592 L28.3562 802.385 L56.238 791.245 L28.3562 780.105 L28.3562 773.899 L67.3143 789.559 Z" fill="#000000" fill-rule="nonzero" fill-opacity="1"></path><path clip-path="url(#clip870)" d="M42.4881 736.182 L64.0042 736.182 L64.0042 742.039 L42.679 742.039 Q37.6183 742.039 35.1038 744.012 Q32.5894 745.985 32.5894 749.932 Q32.5894 754.674 35.6131 757.412 Q38.6368 760.149 43.8567 760.149 L64.0042 760.149 L64.0042 766.037 L28.3562 766.037 L28.3562 760.149 L33.8944 760.149 Q30.6797 758.048 29.0883 755.216 Q27.4968 752.351 27.4968 748.627 Q27.4968 742.484 31.3163 739.333 Q35.1038 736.182 42.4881 736.182 Z" fill="#000000" fill-rule="nonzero" fill-opacity="1"></path><path clip-path="url(#clip870)" d="M28.3562 724.501 L28.3562 718.645 L64.0042 718.645 L64.0042 724.501 L28.3562 724.501 M14.479 724.501 L14.479 718.645 L21.895 718.645 L21.895 724.501 L14.479 724.501 Z" fill="#000000" fill-rule="nonzero" fill-opacity="1"></path><path clip-path="url(#clip870)" d="M14.479 706.613 L14.479 700.725 L43.7294 700.725 L28.3562 683.251 L28.3562 675.772 L45.0344 694.678 L64.0042 674.976 L64.0042 682.615 L46.5939 700.725 L64.0042 700.725 L64.0042 706.613 L14.479 706.613 Z" fill="#000000" fill-rule="nonzero" fill-opacity="1"></path><path clip-path="url(#clip870)" d="M529.191 12.096 L537.455 12.096 L550.175 63.2184 L562.854 12.096 L572.05 12.096 L584.77 63.2184 L597.449 12.096 L605.753 12.096 L590.562 72.576 L580.273 72.576 L567.513 20.0763 L554.631 72.576 L544.342 72.576 L529.191 12.096 Z" fill="#000000" fill-rule="nonzero" fill-opacity="1"></path><path clip-path="url(#clip870)" d="M633.705 76.7889 Q630.545 84.8907 627.547 87.3618 Q624.549 89.8329 619.526 89.8329 L613.572 89.8329 L613.572 83.5945 L617.946 83.5945 Q621.025 83.5945 622.727 82.1361 Q624.428 80.6778 626.494 75.2496 L627.831 71.8468 L609.48 27.2059 L617.379 27.2059 L631.558 62.6918 L645.736 27.2059 L653.635 27.2059 L633.705 76.7889 Z" fill="#000000" fill-rule="nonzero" fill-opacity="1"></path><path clip-path="url(#clip870)" d="M663.641 9.54393 L671.135 9.54393 L671.135 46.7717 L693.374 27.2059 L702.894 27.2059 L678.832 48.4326 L703.907 72.576 L694.185 72.576 L671.135 50.4176 L671.135 72.576 L663.641 72.576 L663.641 9.54393 Z" fill="#000000" fill-rule="nonzero" fill-opacity="1"></path><path clip-path="url(#clip870)" d="M738.258 34.1734 Q737.003 33.4443 735.504 33.1202 Q734.045 32.7556 732.263 32.7556 Q725.944 32.7556 722.541 36.8875 Q719.179 40.9789 719.179 48.6757 L719.179 72.576 L711.684 72.576 L711.684 27.2059 L719.179 27.2059 L719.179 34.2544 Q721.528 30.1225 725.295 28.1376 Q729.063 26.1121 734.45 26.1121 Q735.22 26.1121 736.152 26.2337 Q737.084 26.3147 738.218 26.5172 L738.258 34.1734 Z" fill="#000000" fill-rule="nonzero" fill-opacity="1"></path><path clip-path="url(#clip870)" d="M783.061 48.0275 L783.061 51.6733 L748.791 51.6733 Q749.277 59.3701 753.409 63.421 Q757.581 67.4314 764.994 67.4314 Q769.288 67.4314 773.299 66.3781 Q777.35 65.3249 781.319 63.2184 L781.319 70.267 Q777.309 71.9684 773.096 72.8596 Q768.883 73.7508 764.549 73.7508 Q753.692 73.7508 747.332 67.4314 Q741.013 61.1119 741.013 50.3365 Q741.013 39.1965 747.008 32.6746 Q753.044 26.1121 763.252 26.1121 Q772.407 26.1121 777.714 32.0264 Q783.061 37.9003 783.061 48.0275 M775.608 45.84 Q775.527 39.7232 772.164 36.0774 Q768.843 32.4315 763.333 32.4315 Q757.095 32.4315 753.328 35.9558 Q749.601 39.4801 749.034 45.8805 L775.608 45.84 Z" fill="#000000" fill-rule="nonzero" fill-opacity="1"></path><path clip-path="url(#clip870)" d="M824.219 28.5427 L824.219 35.5912 Q821.059 33.9709 817.656 33.1607 Q814.253 32.3505 810.607 32.3505 Q805.058 32.3505 802.263 34.0519 Q799.508 35.7533 799.508 39.156 Q799.508 41.7486 801.493 43.2475 Q803.478 44.7058 809.473 46.0426 L812.025 46.6097 Q819.965 48.3111 823.287 51.4303 Q826.649 54.509 826.649 60.0587 Q826.649 66.3781 821.626 70.0644 Q816.643 73.7508 807.893 73.7508 Q804.248 73.7508 800.278 73.0216 Q796.348 72.3329 791.973 70.9151 L791.973 63.2184 Q796.105 65.3654 800.116 66.4591 Q804.126 67.5124 808.055 67.5124 Q813.322 67.5124 816.157 65.73 Q818.993 63.9071 818.993 60.6258 Q818.993 57.5877 816.927 55.9673 Q814.901 54.3469 807.974 52.8481 L805.382 52.2405 Q798.455 50.7821 795.376 47.7845 Q792.297 44.7463 792.297 39.4801 Q792.297 33.0797 796.834 29.5959 Q801.371 26.1121 809.716 26.1121 Q813.848 26.1121 817.494 26.7198 Q821.14 27.3274 824.219 28.5427 Z" fill="#000000" fill-rule="nonzero" fill-opacity="1"></path><path clip-path="url(#clip870)" d="M857.395 76.7889 Q854.236 84.8907 851.238 87.3618 Q848.24 89.8329 843.217 89.8329 L837.262 89.8329 L837.262 83.5945 L841.637 83.5945 Q844.716 83.5945 846.417 82.1361 Q848.119 80.6778 850.185 75.2496 L851.522 71.8468 L833.171 27.2059 L841.07 27.2059 L855.248 62.6918 L869.427 27.2059 L877.326 27.2059 L857.395 76.7889 Z" fill="#000000" fill-rule="nonzero" fill-opacity="1"></path><path clip-path="url(#clip870)" d="M914.311 12.096 L949.067 12.096 L949.067 18.9825 L922.493 18.9825 L922.493 36.8065 L946.475 36.8065 L946.475 43.6931 L922.493 43.6931 L922.493 72.576 L914.311 72.576 L914.311 12.096 Z" fill="#000000" fill-rule="nonzero" fill-opacity="1"></path><path clip-path="url(#clip870)" d="M956.4 54.671 L956.4 27.2059 L963.853 27.2059 L963.853 54.3874 Q963.853 60.8284 966.365 64.0691 Q968.876 67.2693 973.899 67.2693 Q979.935 67.2693 983.419 63.421 Q986.943 59.5726 986.943 52.9291 L986.943 27.2059 L994.397 27.2059 L994.397 72.576 L986.943 72.576 L986.943 65.6084 Q984.229 69.7404 980.624 71.7658 Q977.059 73.7508 972.32 73.7508 Q964.501 73.7508 960.45 68.8897 Q956.4 64.0286 956.4 54.671 M975.155 26.1121 L975.155 26.1121 Z" fill="#000000" fill-rule="nonzero" fill-opacity="1"></path><path clip-path="url(#clip870)" d="M1047.46 45.1919 L1047.46 72.576 L1040.01 72.576 L1040.01 45.4349 Q1040.01 38.994 1037.5 35.7938 Q1034.99 32.5936 1029.96 32.5936 Q1023.93 32.5936 1020.44 36.4419 Q1016.96 40.2903 1016.96 46.9338 L1016.96 72.576 L1009.47 72.576 L1009.47 27.2059 L1016.96 27.2059 L1016.96 34.2544 Q1019.63 30.163 1023.24 28.1376 Q1026.89 26.1121 1031.62 26.1121 Q1039.44 26.1121 1043.45 30.9732 Q1047.46 35.7938 1047.46 45.1919 Z" fill="#000000" fill-rule="nonzero" fill-opacity="1"></path><path clip-path="url(#clip870)" d="M1062.05 9.54393 L1069.54 9.54393 L1069.54 46.7717 L1091.78 27.2059 L1101.3 27.2059 L1077.24 48.4326 L1102.31 72.576 L1092.59 72.576 L1069.54 50.4176 L1069.54 72.576 L1062.05 72.576 L1062.05 9.54393 Z" fill="#000000" fill-rule="nonzero" fill-opacity="1"></path><path clip-path="url(#clip870)" d="M1143.02 28.9478 L1143.02 35.9153 Q1139.86 34.1734 1136.66 33.3227 Q1133.51 32.4315 1130.26 32.4315 Q1123.01 32.4315 1119 37.0496 Q1114.99 41.6271 1114.99 49.9314 Q1114.99 58.2358 1119 62.8538 Q1123.01 67.4314 1130.26 67.4314 Q1133.51 67.4314 1136.66 66.5807 Q1139.86 65.6895 1143.02 63.9476 L1143.02 70.8341 Q1139.91 72.2924 1136.54 73.0216 Q1133.22 73.7508 1129.45 73.7508 Q1119.21 73.7508 1113.17 67.3098 Q1107.13 60.8689 1107.13 49.9314 Q1107.13 38.832 1113.21 32.472 Q1119.33 26.1121 1129.94 26.1121 Q1133.38 26.1121 1136.66 26.8413 Q1139.95 27.5299 1143.02 28.9478 Z" fill="#000000" fill-rule="nonzero" fill-opacity="1"></path><path clip-path="url(#clip870)" d="M1155.99 27.2059 L1163.44 27.2059 L1163.44 73.3862 Q1163.44 82.0551 1160.12 85.944 Q1156.84 89.8329 1149.51 89.8329 L1146.67 89.8329 L1146.67 83.5134 L1148.66 83.5134 Q1152.91 83.5134 1154.45 81.5285 Q1155.99 79.5841 1155.99 73.3862 L1155.99 27.2059 M1155.99 9.54393 L1163.44 9.54393 L1163.44 18.9825 L1155.99 18.9825 L1155.99 9.54393 Z" fill="#000000" fill-rule="nonzero" fill-opacity="1"></path><path clip-path="url(#clip870)" d="M1179.04 27.2059 L1186.49 27.2059 L1186.49 72.576 L1179.04 72.576 L1179.04 27.2059 M1179.04 9.54393 L1186.49 9.54393 L1186.49 18.9825 L1179.04 18.9825 L1179.04 9.54393 Z" fill="#000000" fill-rule="nonzero" fill-opacity="1"></path><path clip-path="url(#clip870)" d="M1236.97 18.8205 L1236.97 41.5461 L1247.25 41.5461 Q1252.97 41.5461 1256.09 38.5889 Q1259.2 35.6318 1259.2 30.163 Q1259.2 24.7348 1256.09 21.7777 Q1252.97 18.8205 1247.25 18.8205 L1236.97 18.8205 M1228.78 12.096 L1247.25 12.096 Q1257.42 12.096 1262.61 16.714 Q1267.83 21.2916 1267.83 30.163 Q1267.83 39.1155 1262.61 43.6931 Q1257.42 48.2706 1247.25 48.2706 L1236.97 48.2706 L1236.97 72.576 L1228.78 72.576 L1228.78 12.096 Z" fill="#000000" fill-rule="nonzero" fill-opacity="1"></path><path clip-path="url(#clip870)" d="M1314.74 45.1919 L1314.74 72.576 L1307.29 72.576 L1307.29 45.4349 Q1307.29 38.994 1304.78 35.7938 Q1302.27 32.5936 1297.24 32.5936 Q1291.21 32.5936 1287.72 36.4419 Q1284.24 40.2903 1284.24 46.9338 L1284.24 72.576 L1276.75 72.576 L1276.75 27.2059 L1284.24 27.2059 L1284.24 34.2544 Q1286.91 30.163 1290.52 28.1376 Q1294.16 26.1121 1298.9 26.1121 Q1306.72 26.1121 1310.73 30.9732 Q1314.74 35.7938 1314.74 45.1919 Z" fill="#000000" fill-rule="nonzero" fill-opacity="1"></path><polyline clip-path="url(#clip872)" style="stroke:#0000ff; stroke-linecap:round; stroke-linejoin:round; stroke-width:24; stroke-opacity:1; fill:none" points="259.608,1378.03 293.575,1350.7 327.542,1245.43 361.509,885.555 395.476,200.87 429.443,1229.37 463.411,837.007 497.378,173.134 531.345,1335.44 565.312,1188.81 599.279,722.713 633.246,168.5 667.213,1353.65 701.181,1256.58 735.148,920.249 769.115,230.105 803.082,1123 837.049,557.868 871.016,311.802 904.983,855.279 938.95,181.77 972.918,1301.88 1006.88,1069.56 1040.85,445.475 1074.82,511.069 1108.79,384.769 1142.75,652.95 1176.72,207.525 1210.69,1204.67 1244.65,765.612 1278.62,160.256 1312.59,1386.4 1346.56,1383.88 1380.52,1373.84 1414.49,1334.22 1448.46,1184.34 1482.42,709.836 1516.39,173.316 1550.36,1334.73 1584.33,1186.2 "></polyline>
<polyline clip-path="url(#clip872)" style="stroke:#ff0000; stroke-linecap:round; stroke-linejoin:round; stroke-width:16; stroke-opacity:1; fill:none" stroke-dasharray="64, 40" points="259.608,1378.03 293.575,1350.7 327.542,1245.43 361.509,885.555 395.476,200.87 429.443,1229.37 463.411,837.008 497.378,173.134 531.345,1335.44 565.312,1188.81 599.279,722.713 633.246,168.5 667.213,1353.65 701.181,1256.58 735.148,920.247 769.115,230.103 803.082,1123.01 837.049,557.884 871.016,311.779 904.983,855.348 938.95,181.806 972.918,1301.74 1006.88,1069.07 1040.85,444.534 1074.82,513.086 1108.79,381.329 1142.75,661.708 1176.72,200.884 1210.69,1229.32 1244.65,836.855 1278.62,173.071 1312.59,1335.69 1346.56,1189.71 1380.52,724.316 1414.49,167.976 1448.46,1355.72 1482.42,1264.41 1516.39,945.109 1550.36,255.879 1584.33,1033.84 "></polyline>
<polyline clip-path="url(#clip872)" style="stroke:#008000; stroke-linecap:round; stroke-linejoin:round; stroke-width:8; stroke-opacity:1; fill:none" stroke-dasharray="4, 8" points="259.608,1378.03 293.575,1350.7 327.542,1245.43 361.509,885.555 395.476,200.87 429.443,1229.37 463.411,837.008 497.378,173.134 531.345,1335.44 565.312,1188.81 599.279,722.713 633.246,168.5 667.213,1353.65 701.181,1256.58 735.148,920.247 769.115,230.103 803.082,1123.01 837.049,557.884 871.016,311.779 904.983,855.348 938.95,181.806 972.918,1301.74 1006.88,1069.07 1040.85,444.534 1074.82,513.086 1108.79,381.329 1142.75,661.708 1176.72,200.884 1210.69,1229.32 1244.65,836.855 1278.62,173.071 1312.59,1335.69 1346.56,1189.71 1380.52,724.316 1414.49,167.976 1448.46,1355.72 1482.42,1264.41 1516.39,945.109 1550.36,255.879 1584.33,1033.84 "></polyline>
<path clip-path="url(#clip870)" d="M1695.16 894.41 L2352.76 894.41 L2352.76 687.05 L1695.16 687.05  Z" fill="#ffffff" fill-rule="evenodd" fill-opacity="1"></path>
<polyline clip-path="url(#clip870)" style="stroke:#000000; stroke-linecap:round; stroke-linejoin:round; stroke-width:4; stroke-opacity:1; fill:none" points="1695.16,894.41 2352.76,894.41 2352.76,687.05 1695.16,687.05 1695.16,894.41 "></polyline>
<polyline clip-path="url(#clip870)" style="stroke:#0000ff; stroke-linecap:round; stroke-linejoin:round; stroke-width:20; stroke-opacity:1; fill:none" points="1718.86,738.89 1861.06,738.89 "></polyline>
<path clip-path="url(#clip870)" d="M1884.75 721.61 L1904.61 721.61 L1904.61 725.545 L1889.43 725.545 L1889.43 735.73 L1903.13 735.73 L1903.13 739.665 L1889.43 739.665 L1889.43 756.17 L1884.75 756.17 L1884.75 721.61 Z" fill="#000000" fill-rule="nonzero" fill-opacity="1"></path><path clip-path="url(#clip870)" d="M1911.84 720.151 L1916.1 720.151 L1916.1 756.17 L1911.84 756.17 L1911.84 720.151 Z" fill="#000000" fill-rule="nonzero" fill-opacity="1"></path><path clip-path="url(#clip870)" d="M1935.05 733.23 Q1931.63 733.23 1929.64 735.915 Q1927.65 738.577 1927.65 743.23 Q1927.65 747.883 1929.61 750.568 Q1931.61 753.23 1935.05 753.23 Q1938.46 753.23 1940.45 750.545 Q1942.44 747.859 1942.44 743.23 Q1942.44 738.623 1940.45 735.938 Q1938.46 733.23 1935.05 733.23 M1935.05 729.619 Q1940.61 729.619 1943.78 733.23 Q1946.95 736.841 1946.95 743.23 Q1946.95 749.596 1943.78 753.23 Q1940.61 756.841 1935.05 756.841 Q1929.48 756.841 1926.3 753.23 Q1923.16 749.596 1923.16 743.23 Q1923.16 736.841 1926.3 733.23 Q1929.48 729.619 1935.05 729.619 Z" fill="#000000" fill-rule="nonzero" fill-opacity="1"></path><path clip-path="url(#clip870)" d="M1965.8 743.137 Q1960.63 743.137 1958.64 744.318 Q1956.65 745.498 1956.65 748.346 Q1956.65 750.614 1958.13 751.957 Q1959.64 753.276 1962.21 753.276 Q1965.75 753.276 1967.88 750.776 Q1970.03 748.253 1970.03 744.086 L1970.03 743.137 L1965.8 743.137 M1974.29 741.378 L1974.29 756.17 L1970.03 756.17 L1970.03 752.234 Q1968.57 754.596 1966.4 755.73 Q1964.22 756.841 1961.07 756.841 Q1957.09 756.841 1954.73 754.619 Q1952.39 752.373 1952.39 748.623 Q1952.39 744.248 1955.31 742.026 Q1958.25 739.804 1964.06 739.804 L1970.03 739.804 L1970.03 739.387 Q1970.03 736.447 1968.09 734.85 Q1966.17 733.23 1962.67 733.23 Q1960.45 733.23 1958.34 733.762 Q1956.24 734.295 1954.29 735.36 L1954.29 731.424 Q1956.63 730.522 1958.83 730.082 Q1961.03 729.619 1963.11 729.619 Q1968.73 729.619 1971.51 732.535 Q1974.29 735.452 1974.29 741.378 Z" fill="#000000" fill-rule="nonzero" fill-opacity="1"></path><path clip-path="url(#clip870)" d="M1987.28 722.883 L1987.28 730.244 L1996.05 730.244 L1996.05 733.554 L1987.28 733.554 L1987.28 747.628 Q1987.28 750.799 1988.13 751.702 Q1989.01 752.605 1991.67 752.605 L1996.05 752.605 L1996.05 756.17 L1991.67 756.17 Q1986.74 756.17 1984.87 754.341 Q1982.99 752.489 1982.99 747.628 L1982.99 733.554 L1979.87 733.554 L1979.87 730.244 L1982.99 730.244 L1982.99 722.883 L1987.28 722.883 Z" fill="#000000" fill-rule="nonzero" fill-opacity="1"></path><path clip-path="url(#clip870)" d="M2012.83 737.026 Q2009.68 737.026 2007.83 739.179 Q2006 741.332 2006 745.082 Q2006 748.809 2007.83 750.984 Q2009.68 753.137 2012.83 753.137 Q2015.98 753.137 2017.81 750.984 Q2019.66 748.809 2019.66 745.082 Q2019.66 741.332 2017.81 739.179 Q2015.98 737.026 2012.83 737.026 M2022.11 722.373 L2022.11 726.633 Q2020.36 725.799 2018.55 725.36 Q2016.77 724.92 2015.01 724.92 Q2010.38 724.92 2007.92 728.045 Q2005.49 731.17 2005.15 737.489 Q2006.51 735.475 2008.57 734.41 Q2010.63 733.322 2013.11 733.322 Q2018.32 733.322 2021.33 736.494 Q2024.36 739.642 2024.36 745.082 Q2024.36 750.406 2021.21 753.623 Q2018.06 756.841 2012.83 756.841 Q2006.84 756.841 2003.67 752.258 Q2000.49 747.651 2000.49 738.924 Q2000.49 730.73 2004.38 725.869 Q2008.27 720.985 2014.82 720.985 Q2016.58 720.985 2018.36 721.332 Q2020.17 721.679 2022.11 722.373 Z" fill="#000000" fill-rule="nonzero" fill-opacity="1"></path><path clip-path="url(#clip870)" d="M2045.26 725.684 L2033.46 744.133 L2045.26 744.133 L2045.26 725.684 M2044.04 721.61 L2049.92 721.61 L2049.92 744.133 L2054.85 744.133 L2054.85 748.021 L2049.92 748.021 L2049.92 756.17 L2045.26 756.17 L2045.26 748.021 L2029.66 748.021 L2029.66 743.508 L2044.04 721.61 Z" fill="#000000" fill-rule="nonzero" fill-opacity="1"></path><polyline clip-path="url(#clip870)" style="stroke:#ff0000; stroke-linecap:round; stroke-linejoin:round; stroke-width:16; stroke-opacity:1; fill:none" stroke-dasharray="64, 40" points="1718.86,790.73 1861.06,790.73 "></polyline>
<path clip-path="url(#clip870)" d="M1884.75 773.45 L1904.61 773.45 L1904.61 777.385 L1889.43 777.385 L1889.43 787.57 L1903.13 787.57 L1903.13 791.505 L1889.43 791.505 L1889.43 808.01 L1884.75 808.01 L1884.75 773.45 Z" fill="#000000" fill-rule="nonzero" fill-opacity="1"></path><path clip-path="url(#clip870)" d="M1911.84 771.991 L1916.1 771.991 L1916.1 808.01 L1911.84 808.01 L1911.84 771.991 Z" fill="#000000" fill-rule="nonzero" fill-opacity="1"></path><path clip-path="url(#clip870)" d="M1935.05 785.07 Q1931.63 785.07 1929.64 787.755 Q1927.65 790.417 1927.65 795.07 Q1927.65 799.723 1929.61 802.408 Q1931.61 805.07 1935.05 805.07 Q1938.46 805.07 1940.45 802.385 Q1942.44 799.699 1942.44 795.07 Q1942.44 790.463 1940.45 787.778 Q1938.46 785.07 1935.05 785.07 M1935.05 781.459 Q1940.61 781.459 1943.78 785.07 Q1946.95 788.681 1946.95 795.07 Q1946.95 801.436 1943.78 805.07 Q1940.61 808.681 1935.05 808.681 Q1929.48 808.681 1926.3 805.07 Q1923.16 801.436 1923.16 795.07 Q1923.16 788.681 1926.3 785.07 Q1929.48 781.459 1935.05 781.459 Z" fill="#000000" fill-rule="nonzero" fill-opacity="1"></path><path clip-path="url(#clip870)" d="M1965.8 794.977 Q1960.63 794.977 1958.64 796.158 Q1956.65 797.338 1956.65 800.186 Q1956.65 802.454 1958.13 803.797 Q1959.64 805.116 1962.21 805.116 Q1965.75 805.116 1967.88 802.616 Q1970.03 800.093 1970.03 795.926 L1970.03 794.977 L1965.8 794.977 M1974.29 793.218 L1974.29 808.01 L1970.03 808.01 L1970.03 804.074 Q1968.57 806.436 1966.4 807.57 Q1964.22 808.681 1961.07 808.681 Q1957.09 808.681 1954.73 806.459 Q1952.39 804.213 1952.39 800.463 Q1952.39 796.088 1955.31 793.866 Q1958.25 791.644 1964.06 791.644 L1970.03 791.644 L1970.03 791.227 Q1970.03 788.287 1968.09 786.69 Q1966.17 785.07 1962.67 785.07 Q1960.45 785.07 1958.34 785.602 Q1956.24 786.135 1954.29 787.2 L1954.29 783.264 Q1956.63 782.362 1958.83 781.922 Q1961.03 781.459 1963.11 781.459 Q1968.73 781.459 1971.51 784.375 Q1974.29 787.292 1974.29 793.218 Z" fill="#000000" fill-rule="nonzero" fill-opacity="1"></path><path clip-path="url(#clip870)" d="M1987.28 774.723 L1987.28 782.084 L1996.05 782.084 L1996.05 785.394 L1987.28 785.394 L1987.28 799.468 Q1987.28 802.639 1988.13 803.542 Q1989.01 804.445 1991.67 804.445 L1996.05 804.445 L1996.05 808.01 L1991.67 808.01 Q1986.74 808.01 1984.87 806.181 Q1982.99 804.329 1982.99 799.468 L1982.99 785.394 L1979.87 785.394 L1979.87 782.084 L1982.99 782.084 L1982.99 774.723 L1987.28 774.723 Z" fill="#000000" fill-rule="nonzero" fill-opacity="1"></path><path clip-path="url(#clip870)" d="M2016.42 789.375 Q2019.78 790.093 2021.65 792.362 Q2023.55 794.63 2023.55 797.963 Q2023.55 803.079 2020.03 805.88 Q2016.51 808.681 2010.03 808.681 Q2007.86 808.681 2005.54 808.241 Q2003.25 807.824 2000.8 806.968 L2000.8 802.454 Q2002.74 803.588 2005.05 804.167 Q2007.37 804.746 2009.89 804.746 Q2014.29 804.746 2016.58 803.01 Q2018.9 801.273 2018.9 797.963 Q2018.9 794.908 2016.74 793.195 Q2014.61 791.459 2010.79 791.459 L2006.77 791.459 L2006.77 787.616 L2010.98 787.616 Q2014.43 787.616 2016.26 786.25 Q2018.09 784.862 2018.09 782.269 Q2018.09 779.607 2016.19 778.195 Q2014.31 776.76 2010.79 776.76 Q2008.87 776.76 2006.67 777.176 Q2004.48 777.593 2001.84 778.473 L2001.84 774.306 Q2004.5 773.565 2006.81 773.195 Q2009.15 772.825 2011.21 772.825 Q2016.54 772.825 2019.64 775.255 Q2022.74 777.663 2022.74 781.783 Q2022.74 784.653 2021.1 786.644 Q2019.45 788.612 2016.42 789.375 Z" fill="#000000" fill-rule="nonzero" fill-opacity="1"></path><path clip-path="url(#clip870)" d="M2036.44 804.074 L2052.76 804.074 L2052.76 808.01 L2030.82 808.01 L2030.82 804.074 Q2033.48 801.32 2038.06 796.69 Q2042.67 792.037 2043.85 790.695 Q2046.1 788.172 2046.98 786.436 Q2047.88 784.676 2047.88 782.987 Q2047.88 780.232 2045.93 778.496 Q2044.01 776.76 2040.91 776.76 Q2038.71 776.76 2036.26 777.524 Q2033.83 778.288 2031.05 779.838 L2031.05 775.116 Q2033.87 773.982 2036.33 773.403 Q2038.78 772.825 2040.82 772.825 Q2046.19 772.825 2049.38 775.51 Q2052.58 778.195 2052.58 782.686 Q2052.58 784.815 2051.77 786.737 Q2050.98 788.635 2048.87 791.227 Q2048.29 791.899 2045.19 795.116 Q2042.09 798.311 2036.44 804.074 Z" fill="#000000" fill-rule="nonzero" fill-opacity="1"></path><polyline clip-path="url(#clip870)" style="stroke:#008000; stroke-linecap:round; stroke-linejoin:round; stroke-width:8; stroke-opacity:1; fill:none" stroke-dasharray="4, 8" points="1718.86,842.57 1861.06,842.57 "></polyline>
<path clip-path="url(#clip870)" d="M1884.75 825.29 L1904.61 825.29 L1904.61 829.225 L1889.43 829.225 L1889.43 839.41 L1903.13 839.41 L1903.13 843.345 L1889.43 843.345 L1889.43 859.85 L1884.75 859.85 L1884.75 825.29 Z" fill="#000000" fill-rule="nonzero" fill-opacity="1"></path><path clip-path="url(#clip870)" d="M1911.84 823.831 L1916.1 823.831 L1916.1 859.85 L1911.84 859.85 L1911.84 823.831 Z" fill="#000000" fill-rule="nonzero" fill-opacity="1"></path><path clip-path="url(#clip870)" d="M1935.05 836.91 Q1931.63 836.91 1929.64 839.595 Q1927.65 842.257 1927.65 846.91 Q1927.65 851.563 1929.61 854.248 Q1931.61 856.91 1935.05 856.91 Q1938.46 856.91 1940.45 854.225 Q1942.44 851.539 1942.44 846.91 Q1942.44 842.303 1940.45 839.618 Q1938.46 836.91 1935.05 836.91 M1935.05 833.299 Q1940.61 833.299 1943.78 836.91 Q1946.95 840.521 1946.95 846.91 Q1946.95 853.276 1943.78 856.91 Q1940.61 860.521 1935.05 860.521 Q1929.48 860.521 1926.3 856.91 Q1923.16 853.276 1923.16 846.91 Q1923.16 840.521 1926.3 836.91 Q1929.48 833.299 1935.05 833.299 Z" fill="#000000" fill-rule="nonzero" fill-opacity="1"></path><path clip-path="url(#clip870)" d="M1965.8 846.817 Q1960.63 846.817 1958.64 847.998 Q1956.65 849.178 1956.65 852.026 Q1956.65 854.294 1958.13 855.637 Q1959.64 856.956 1962.21 856.956 Q1965.75 856.956 1967.88 854.456 Q1970.03 851.933 1970.03 847.766 L1970.03 846.817 L1965.8 846.817 M1974.29 845.058 L1974.29 859.85 L1970.03 859.85 L1970.03 855.914 Q1968.57 858.276 1966.4 859.41 Q1964.22 860.521 1961.07 860.521 Q1957.09 860.521 1954.73 858.299 Q1952.39 856.053 1952.39 852.303 Q1952.39 847.928 1955.31 845.706 Q1958.25 843.484 1964.06 843.484 L1970.03 843.484 L1970.03 843.067 Q1970.03 840.127 1968.09 838.53 Q1966.17 836.91 1962.67 836.91 Q1960.45 836.91 1958.34 837.442 Q1956.24 837.975 1954.29 839.04 L1954.29 835.104 Q1956.63 834.202 1958.83 833.762 Q1961.03 833.299 1963.11 833.299 Q1968.73 833.299 1971.51 836.215 Q1974.29 839.132 1974.29 845.058 Z" fill="#000000" fill-rule="nonzero" fill-opacity="1"></path><path clip-path="url(#clip870)" d="M1987.28 826.563 L1987.28 833.924 L1996.05 833.924 L1996.05 837.234 L1987.28 837.234 L1987.28 851.308 Q1987.28 854.479 1988.13 855.382 Q1989.01 856.285 1991.67 856.285 L1996.05 856.285 L1996.05 859.85 L1991.67 859.85 Q1986.74 859.85 1984.87 858.021 Q1982.99 856.169 1982.99 851.308 L1982.99 837.234 L1979.87 837.234 L1979.87 833.924 L1982.99 833.924 L1982.99 826.563 L1987.28 826.563 Z" fill="#000000" fill-rule="nonzero" fill-opacity="1"></path><path clip-path="url(#clip870)" d="M2016.42 841.215 Q2019.78 841.933 2021.65 844.202 Q2023.55 846.47 2023.55 849.803 Q2023.55 854.919 2020.03 857.72 Q2016.51 860.521 2010.03 860.521 Q2007.86 860.521 2005.54 860.081 Q2003.25 859.664 2000.8 858.808 L2000.8 854.294 Q2002.74 855.428 2005.05 856.007 Q2007.37 856.586 2009.89 856.586 Q2014.29 856.586 2016.58 854.85 Q2018.9 853.113 2018.9 849.803 Q2018.9 846.748 2016.74 845.035 Q2014.61 843.299 2010.79 843.299 L2006.77 843.299 L2006.77 839.456 L2010.98 839.456 Q2014.43 839.456 2016.26 838.09 Q2018.09 836.702 2018.09 834.109 Q2018.09 831.447 2016.19 830.035 Q2014.31 828.6 2010.79 828.6 Q2008.87 828.6 2006.67 829.016 Q2004.48 829.433 2001.84 830.313 L2001.84 826.146 Q2004.5 825.405 2006.81 825.035 Q2009.15 824.665 2011.21 824.665 Q2016.54 824.665 2019.64 827.095 Q2022.74 829.503 2022.74 833.623 Q2022.74 836.493 2021.1 838.484 Q2019.45 840.452 2016.42 841.215 Z" fill="#000000" fill-rule="nonzero" fill-opacity="1"></path><path clip-path="url(#clip870)" d="M2036.44 855.914 L2052.76 855.914 L2052.76 859.85 L2030.82 859.85 L2030.82 855.914 Q2033.48 853.16 2038.06 848.53 Q2042.67 843.877 2043.85 842.535 Q2046.1 840.012 2046.98 838.276 Q2047.88 836.516 2047.88 834.827 Q2047.88 832.072 2045.93 830.336 Q2044.01 828.6 2040.91 828.6 Q2038.71 828.6 2036.26 829.364 Q2033.83 830.128 2031.05 831.678 L2031.05 826.956 Q2033.87 825.822 2036.33 825.243 Q2038.78 824.665 2040.82 824.665 Q2046.19 824.665 2049.38 827.35 Q2052.58 830.035 2052.58 834.526 Q2052.58 836.655 2051.77 838.577 Q2050.98 840.475 2048.87 843.067 Q2048.29 843.739 2045.19 846.956 Q2042.09 850.151 2036.44 855.914 Z" fill="#000000" fill-rule="nonzero" fill-opacity="1"></path><path clip-path="url(#clip870)" d="M2094.38 830.128 L2094.38 843.021 L2107.28 843.021 L2107.28 846.956 L2094.38 846.956 L2094.38 859.85 L2090.49 859.85 L2090.49 846.956 L2077.6 846.956 L2077.6 843.021 L2090.49 843.021 L2090.49 830.128 L2094.38 830.128 Z" fill="#000000" fill-rule="nonzero" fill-opacity="1"></path><path clip-path="url(#clip870)" d="M2146.05 828.461 Q2140.96 828.461 2137.95 832.257 Q2134.96 836.053 2134.96 842.604 Q2134.96 849.132 2137.95 852.928 Q2140.96 856.725 2146.05 856.725 Q2151.14 856.725 2154.1 852.928 Q2157.09 849.132 2157.09 842.604 Q2157.09 836.053 2154.1 832.257 Q2151.14 828.461 2146.05 828.461 M2146.05 824.665 Q2153.32 824.665 2157.67 829.549 Q2162.02 834.41 2162.02 842.604 Q2162.02 850.776 2157.67 855.66 Q2153.32 860.521 2146.05 860.521 Q2138.76 860.521 2134.38 855.66 Q2130.03 850.799 2130.03 842.604 Q2130.03 834.41 2134.38 829.549 Q2138.76 824.665 2146.05 824.665 Z" fill="#000000" fill-rule="nonzero" fill-opacity="1"></path><path clip-path="url(#clip870)" d="M2187.76 846.91 Q2187.76 842.211 2185.82 839.549 Q2183.9 836.864 2180.52 836.864 Q2177.14 836.864 2175.19 839.549 Q2173.27 842.211 2173.27 846.91 Q2173.27 851.609 2175.19 854.294 Q2177.14 856.956 2180.52 856.956 Q2183.9 856.956 2185.82 854.294 Q2187.76 851.609 2187.76 846.91 M2173.27 837.859 Q2174.61 835.544 2176.65 834.433 Q2178.71 833.299 2181.56 833.299 Q2186.28 833.299 2189.22 837.049 Q2192.18 840.799 2192.18 846.91 Q2192.18 853.021 2189.22 856.771 Q2186.28 860.521 2181.56 860.521 Q2178.71 860.521 2176.65 859.41 Q2174.61 858.276 2173.27 855.961 L2173.27 859.85 L2168.99 859.85 L2168.99 823.831 L2173.27 823.831 L2173.27 837.859 Z" fill="#000000" fill-rule="nonzero" fill-opacity="1"></path><path clip-path="url(#clip870)" d="M2217.9 834.919 L2217.9 838.901 Q2216.09 837.905 2214.27 837.419 Q2212.46 836.91 2210.61 836.91 Q2206.47 836.91 2204.17 839.549 Q2201.88 842.164 2201.88 846.91 Q2201.88 851.655 2204.17 854.294 Q2206.47 856.91 2210.61 856.91 Q2212.46 856.91 2214.27 856.424 Q2216.09 855.914 2217.9 854.919 L2217.9 858.854 Q2216.12 859.688 2214.2 860.104 Q2212.3 860.521 2210.15 860.521 Q2204.29 860.521 2200.84 856.84 Q2197.39 853.16 2197.39 846.91 Q2197.39 840.567 2200.86 836.933 Q2204.36 833.299 2210.42 833.299 Q2212.39 833.299 2214.27 833.715 Q2216.14 834.109 2217.9 834.919 Z" fill="#000000" fill-rule="nonzero" fill-opacity="1"></path><path clip-path="url(#clip870)" d="M2225.31 833.924 L2229.57 833.924 L2229.57 859.85 L2225.31 859.85 L2225.31 833.924 M2225.31 823.831 L2229.57 823.831 L2229.57 829.225 L2225.31 829.225 L2225.31 823.831 Z" fill="#000000" fill-rule="nonzero" fill-opacity="1"></path><path clip-path="url(#clip870)" d="M2260.65 845.822 L2260.65 847.905 L2241.07 847.905 Q2241.35 852.303 2243.71 854.618 Q2246.09 856.91 2250.33 856.91 Q2252.78 856.91 2255.08 856.308 Q2257.39 855.706 2259.66 854.502 L2259.66 858.53 Q2257.37 859.502 2254.96 860.012 Q2252.55 860.521 2250.08 860.521 Q2243.87 860.521 2240.24 856.91 Q2236.63 853.299 2236.63 847.141 Q2236.63 840.776 2240.05 837.049 Q2243.5 833.299 2249.34 833.299 Q2254.57 833.299 2257.6 836.678 Q2260.65 840.035 2260.65 845.822 M2256.4 844.572 Q2256.35 841.077 2254.43 838.993 Q2252.53 836.91 2249.38 836.91 Q2245.82 836.91 2243.66 838.924 Q2241.53 840.938 2241.21 844.595 L2256.4 844.572 M2252.9 859.85 L2255.65 859.85 Q2254.61 861.262 2254.1 862.28 Q2253.62 863.299 2253.62 864.016 Q2253.62 865.081 2254.24 865.613 Q2254.89 866.146 2256.14 866.146 Q2256.88 866.146 2257.6 865.961 Q2258.32 865.799 2259.03 865.451 L2259.03 868.53 Q2258.15 868.762 2257.37 868.877 Q2256.58 868.993 2255.89 868.993 Q2253.06 868.993 2251.72 867.975 Q2250.4 866.979 2250.4 864.826 Q2250.4 863.715 2251 862.488 Q2251.63 861.285 2252.9 859.85 Z" fill="#000000" fill-rule="nonzero" fill-opacity="1"></path><path clip-path="url(#clip870)" d="M2286.3 834.919 L2286.3 838.901 Q2284.5 837.905 2282.67 837.419 Q2280.86 836.91 2279.01 836.91 Q2274.87 836.91 2272.58 839.549 Q2270.28 842.164 2270.28 846.91 Q2270.28 851.655 2272.58 854.294 Q2274.87 856.91 2279.01 856.91 Q2280.86 856.91 2282.67 856.424 Q2284.5 855.914 2286.3 854.919 L2286.3 858.854 Q2284.52 859.688 2282.6 860.104 Q2280.7 860.521 2278.55 860.521 Q2272.69 860.521 2269.24 856.84 Q2265.79 853.16 2265.79 846.91 Q2265.79 840.567 2269.27 836.933 Q2272.76 833.299 2278.83 833.299 Q2280.79 833.299 2282.67 833.715 Q2284.54 834.109 2286.3 834.919 Z" fill="#000000" fill-rule="nonzero" fill-opacity="1"></path><path clip-path="url(#clip870)" d="M2293.71 833.924 L2297.97 833.924 L2297.97 859.85 L2293.71 859.85 L2293.71 833.924 M2293.71 823.831 L2297.97 823.831 L2297.97 829.225 L2293.71 829.225 L2293.71 823.831 Z" fill="#000000" fill-rule="nonzero" fill-opacity="1"></path><path clip-path="url(#clip870)" d="M2329.06 845.822 L2329.06 847.905 L2309.47 847.905 Q2309.75 852.303 2312.11 854.618 Q2314.5 856.91 2318.73 856.91 Q2321.19 856.91 2323.48 856.308 Q2325.79 855.706 2328.06 854.502 L2328.06 858.53 Q2325.77 859.502 2323.36 860.012 Q2320.96 860.521 2318.48 860.521 Q2312.27 860.521 2308.64 856.91 Q2305.03 853.299 2305.03 847.141 Q2305.03 840.776 2308.46 837.049 Q2311.9 833.299 2317.74 833.299 Q2322.97 833.299 2326 836.678 Q2329.06 840.035 2329.06 845.822 M2324.8 844.572 Q2324.75 841.077 2322.83 838.993 Q2320.93 836.91 2317.78 836.91 Q2314.22 836.91 2312.07 838.924 Q2309.94 840.938 2309.61 844.595 L2324.8 844.572 Z" fill="#000000" fill-rule="nonzero" fill-opacity="1"></path></svg>