<svg xmlns="http://www.w3.org/2000/svg" xmlns:xlink="http://www.w3.org/1999/xlink" width="600" height="400" viewBox="0 0 2400 1600">
<defs>
  <clipPath id="clip950">
    <rect x="0" y="0" width="2400" height="1600"></rect>
  </clipPath>
</defs>
<path clip-path="url(#clip950)" d="M0 1600 L2400 1600 L2400 0 L0 0  Z" fill="#ffffff" fill-rule="evenodd" fill-opacity="1"></path>
<defs>
  <clipPath id="clip951">
    <rect x="480" y="0" width="1681" height="1600"></rect>
  </clipPath>
</defs>
<path clip-path="url(#clip950)" d="M210.746 1423.18 L1339.45 1423.18 L1339.45 123.472 L210.746 123.472  Z" fill="#ffffff" fill-rule="evenodd" fill-opacity="1"></path>
<defs>
  <clipPath id="clip952">
    <rect x="210" y="123" width="1130" height="1301"></rect>
  </clipPath>
</defs>
<polyline clip-path="url(#clip952)" style="stroke:#000000; stroke-linecap:round; stroke-linejoin:round; stroke-width:2; stroke-opacity:0.1; fill:none" points="215.387,1423.18 215.387,123.472 "></polyline>
<polyline clip-path="url(#clip952)" style="stroke:#000000; stroke-linecap:round; stroke-linejoin:round; stroke-width:2; stroke-opacity:0.1; fill:none" points="488.417,1423.18 488.417,123.472 "></polyline>
<polyline clip-path="url(#clip952)" style="stroke:#000000; stroke-linecap:round; stroke-linejoin:round; stroke-width:2; stroke-opacity:0.1; fill:none" points="761.447,1423.18 761.447,123.472 "></polyline>
<polyline clip-path="url(#clip952)" style="stroke:#000000; stroke-linecap:round; stroke-linejoin:round; stroke-width:2; stroke-opacity:0.1; fill:none" points="1034.48,1423.18 1034.48,123.472 "></polyline>
<polyline clip-path="url(#clip952)" style="stroke:#000000; stroke-linecap:round; stroke-linejoin:round; stroke-width:2; stroke-opacity:0.1; fill:none" points="1307.51,1423.18 1307.51,123.472 "></polyline>
<polyline clip-path="url(#clip952)" style="stroke:#000000; stroke-linecap:round; stroke-linejoin:round; stroke-width:2; stroke-opacity:0.1; fill:none" points="210.746,1400.34 1339.45,1400.34 "></polyline>
<polyline clip-path="url(#clip952)" style="stroke:#000000; stroke-linecap:round; stroke-linejoin:round; stroke-width:2; stroke-opacity:0.1; fill:none" points="210.746,1090.32 1339.45,1090.32 "></polyline>
<polyline clip-path="url(#clip952)" style="stroke:#000000; stroke-linecap:round; stroke-linejoin:round; stroke-width:2; stroke-opacity:0.1; fill:none" points="210.746,780.3 1339.45,780.3 "></polyline>
<polyline clip-path="url(#clip952)" style="stroke:#000000; stroke-linecap:round; stroke-linejoin:round; stroke-width:2; stroke-opacity:0.1; fill:none" points="210.746,470.278 1339.45,470.278 "></polyline>
<polyline clip-path="url(#clip952)" style="stroke:#000000; stroke-linecap:round; stroke-linejoin:round; stroke-width:2; stroke-opacity:0.1; fill:none" points="210.746,160.256 1339.45,160.256 "></polyline>
<polyline clip-path="url(#clip950)" style="stroke:#000000; stroke-linecap:round; stroke-linejoin:round; stroke-width:4; stroke-opacity:1; fill:none" points="210.746,1423.18 1339.45,1423.18 "></polyline>
<polyline clip-path="url(#clip950)" style="stroke:#000000; stroke-linecap:round; stroke-linejoin:round; stroke-width:4; stroke-opacity:1; fill:none" points="215.387,1423.18 215.387,1404.28 "></polyline>
<polyline clip-path="url(#clip950)" style="stroke:#000000; stroke-linecap:round; stroke-linejoin:round; stroke-width:4; stroke-opacity:1; fill:none" points="488.417,1423.18 488.417,1404.28 "></polyline>
<polyline clip-path="url(#clip950)" style="stroke:#000000; stroke-linecap:round; stroke-linejoin:round; stroke-width:4; stroke-opacity:1; fill:none" points="761.447,1423.18 761.447,1404.28 "></polyline>
<polyline clip-path="url(#clip950)" style="stroke:#000000; stroke-linecap:round; stroke-linejoin:round; stroke-width:4; stroke-opacity:1; fill:none" points="1034.48,1423.18 1034.48,1404.28 "></polyline>
<polyline clip-path="url(#clip950)" style="stroke:#000000; stroke-linecap:round; stroke-linejoin:round; stroke-width:4; stroke-opacity:1; fill:none" points="1307.51,1423.18 1307.51,1404.28 "></polyline>
<path clip-path="url(#clip950)" d="M215.387 1454.1 Q211.776 1454.1 209.948 1457.66 Q208.142 1461.2 208.142 1468.33 Q208.142 1475.44 209.948 1479.01 Q211.776 1482.55 215.387 1482.55 Q219.022 1482.55 220.827 1479.01 Q222.656 1475.44 222.656 1468.33 Q222.656 1461.2 220.827 1457.66 Q219.022 1454.1 215.387 1454.1 M215.387 1450.39 Q221.198 1450.39 224.253 1455 Q227.332 1459.58 227.332 1468.33 Q227.332 1477.06 224.253 1481.67 Q221.198 1486.25 215.387 1486.25 Q209.577 1486.25 206.499 1481.67 Q203.443 1477.06 203.443 1468.33 Q203.443 1459.58 206.499 1455 Q209.577 1450.39 215.387 1450.39 Z" fill="#000000" fill-rule="nonzero" fill-opacity="1"></path><path clip-path="url(#clip950)" d="M463.105 1481.64 L470.743 1481.64 L470.743 1455.28 L462.433 1456.95 L462.433 1452.69 L470.697 1451.02 L475.373 1451.02 L475.373 1481.64 L483.012 1481.64 L483.012 1485.58 L463.105 1485.58 L463.105 1481.64 Z" fill="#000000" fill-rule="nonzero" fill-opacity="1"></path><path clip-path="url(#clip950)" d="M502.456 1454.1 Q498.845 1454.1 497.016 1457.66 Q495.211 1461.2 495.211 1468.33 Q495.211 1475.44 497.016 1479.01 Q498.845 1482.55 502.456 1482.55 Q506.091 1482.55 507.896 1479.01 Q509.725 1475.44 509.725 1468.33 Q509.725 1461.2 507.896 1457.66 Q506.091 1454.1 502.456 1454.1 M502.456 1450.39 Q508.266 1450.39 511.322 1455 Q514.401 1459.58 514.401 1468.33 Q514.401 1477.06 511.322 1481.67 Q508.266 1486.25 502.456 1486.25 Q496.646 1486.25 493.567 1481.67 Q490.512 1477.06 490.512 1468.33 Q490.512 1459.58 493.567 1455 Q496.646 1450.39 502.456 1450.39 Z" fill="#000000" fill-rule="nonzero" fill-opacity="1"></path><path clip-path="url(#clip950)" d="M740.22 1481.64 L756.539 1481.64 L756.539 1485.58 L734.595 1485.58 L734.595 1481.64 Q737.257 1478.89 741.84 1474.26 Q746.447 1469.61 747.627 1468.27 Q749.873 1465.74 750.752 1464.01 Q751.655 1462.25 751.655 1460.56 Q751.655 1457.8 749.711 1456.07 Q747.789 1454.33 744.687 1454.33 Q742.488 1454.33 740.035 1455.09 Q737.604 1455.86 734.826 1457.41 L734.826 1452.69 Q737.65 1451.55 740.104 1450.97 Q742.558 1450.39 744.595 1450.39 Q749.965 1450.39 753.16 1453.08 Q756.354 1455.77 756.354 1460.26 Q756.354 1462.39 755.544 1464.31 Q754.757 1466.2 752.65 1468.8 Q752.072 1469.47 748.97 1472.69 Q745.868 1475.88 740.22 1481.64 Z" fill="#000000" fill-rule="nonzero" fill-opacity="1"></path><path clip-path="url(#clip950)" d="M776.354 1454.1 Q772.743 1454.1 770.914 1457.66 Q769.109 1461.2 769.109 1468.33 Q769.109 1475.44 770.914 1479.01 Q772.743 1482.55 776.354 1482.55 Q779.988 1482.55 781.794 1479.01 Q783.622 1475.44 783.622 1468.33 Q783.622 1461.2 781.794 1457.66 Q779.988 1454.1 776.354 1454.1 M776.354 1450.39 Q782.164 1450.39 785.22 1455 Q788.298 1459.58 788.298 1468.33 Q788.298 1477.06 785.22 1481.67 Q782.164 1486.25 776.354 1486.25 Q770.544 1486.25 767.465 1481.67 Q764.41 1477.06 764.41 1468.33 Q764.41 1459.58 767.465 1455 Q770.544 1450.39 776.354 1450.39 Z" fill="#000000" fill-rule="nonzero" fill-opacity="1"></path><path clip-path="url(#clip950)" d="M1023.32 1466.95 Q1026.68 1467.66 1028.55 1469.93 Q1030.45 1472.2 1030.45 1475.53 Q1030.45 1480.65 1026.93 1483.45 Q1023.41 1486.25 1016.93 1486.25 Q1014.75 1486.25 1012.44 1485.81 Q1010.15 1485.39 1007.69 1484.54 L1007.69 1480.02 Q1009.64 1481.16 1011.95 1481.74 Q1014.27 1482.32 1016.79 1482.32 Q1021.19 1482.32 1023.48 1480.58 Q1025.8 1478.84 1025.8 1475.53 Q1025.8 1472.48 1023.64 1470.77 Q1021.51 1469.03 1017.69 1469.03 L1013.67 1469.03 L1013.67 1465.19 L1017.88 1465.19 Q1021.33 1465.19 1023.16 1463.82 Q1024.99 1462.43 1024.99 1459.84 Q1024.99 1457.18 1023.09 1455.77 Q1021.21 1454.33 1017.69 1454.33 Q1015.77 1454.33 1013.57 1454.75 Q1011.37 1455.16 1008.74 1456.04 L1008.74 1451.88 Q1011.4 1451.14 1013.71 1450.77 Q1016.05 1450.39 1018.11 1450.39 Q1023.43 1450.39 1026.54 1452.83 Q1029.64 1455.23 1029.64 1459.35 Q1029.64 1462.22 1027.99 1464.21 Q1026.35 1466.18 1023.32 1466.95 Z" fill="#000000" fill-rule="nonzero" fill-opacity="1"></path><path clip-path="url(#clip950)" d="M1049.31 1454.1 Q1045.7 1454.1 1043.87 1457.66 Q1042.07 1461.2 1042.07 1468.33 Q1042.07 1475.44 1043.87 1479.01 Q1045.7 1482.55 1049.31 1482.55 Q1052.95 1482.55 1054.75 1479.01 Q1056.58 1475.44 1056.58 1468.33 Q1056.58 1461.2 1054.75 1457.66 Q1052.95 1454.1 1049.31 1454.1 M1049.31 1450.39 Q1055.12 1450.39 1058.18 1455 Q1061.26 1459.58 1061.26 1468.33 Q1061.26 1477.06 1058.18 1481.67 Q1055.12 1486.25 1049.31 1486.25 Q1043.5 1486.25 1040.43 1481.67 Q1037.37 1477.06 1037.37 1468.33 Q1037.37 1459.58 1040.43 1455 Q1043.5 1450.39 1049.31 1450.39 Z" fill="#000000" fill-rule="nonzero" fill-opacity="1"></path><path clip-path="url(#clip950)" d="M1295.68 1455.09 L1283.87 1473.54 L1295.68 1473.54 L1295.68 1455.09 M1294.45 1451.02 L1300.33 1451.02 L1300.33 1473.54 L1305.26 1473.54 L1305.26 1477.43 L1300.33 1477.43 L1300.33 1485.58 L1295.68 1485.58 L1295.68 1477.43 L1280.08 1477.43 L1280.08 1472.92 L1294.45 1451.02 Z" fill="#000000" fill-rule="nonzero" fill-opacity="1"></path><path clip-path="url(#clip950)" d="M1322.99 1454.1 Q1319.38 1454.1 1317.55 1457.66 Q1315.75 1461.2 1315.75 1468.33 Q1315.75 1475.44 1317.55 1479.01 Q1319.38 1482.55 1322.99 1482.55 Q1326.63 1482.55 1328.43 1479.01 Q1330.26 1475.44 1330.26 1468.33 Q1330.26 1461.2 1328.43 1457.66 Q1326.63 1454.1 1322.99 1454.1 M1322.99 1450.39 Q1328.8 1450.39 1331.86 1455 Q1334.94 1459.58 1334.94 1468.33 Q1334.94 1477.06 1331.86 1481.67 Q1328.8 1486.25 1322.99 1486.25 Q1317.18 1486.25 1314.1 1481.67 Q1311.05 1477.06 1311.05 1468.33 Q1311.05 1459.58 1314.1 1455 Q1317.18 1450.39 1322.99 1450.39 Z" fill="#000000" fill-rule="nonzero" fill-opacity="1"></path><path clip-path="url(#clip950)" d="M790.026 1546.53 L790.026 1568.04 L784.169 1568.04 L784.169 1546.72 Q784.169 1541.66 782.196 1539.14 Q780.222 1536.63 776.276 1536.63 Q771.533 1536.63 768.796 1539.65 Q766.059 1542.68 766.059 1547.9 L766.059 1568.04 L760.17 1568.04 L760.17 1532.4 L766.059 1532.4 L766.059 1537.93 Q768.159 1534.72 770.992 1533.13 Q773.857 1531.54 777.581 1531.54 Q783.724 1531.54 786.875 1535.36 Q790.026 1539.14 790.026 1546.53 Z" fill="#000000" fill-rule="nonzero" fill-opacity="1"></path><polyline clip-path="url(#clip950)" style="stroke:#000000; stroke-linecap:round; stroke-linejoin:round; stroke-width:4; stroke-opacity:1; fill:none" points="210.746,1423.18 210.746,123.472 "></polyline>
<polyline clip-path="url(#clip950)" style="stroke:#000000; stroke-linecap:round; stroke-linejoin:round; stroke-width:4; stroke-opacity:1; fill:none" points="210.746,1400.34 220.704,1400.34 "></polyline>
<polyline clip-path="url(#clip950)" style="stroke:#000000; stroke-linecap:round; stroke-linejoin:round; stroke-width:4; stroke-opacity:1; fill:none" points="210.746,1090.32 220.704,1090.32 "></polyline>
<polyline clip-path="url(#clip950)" style="stroke:#000000; stroke-linecap:round; stroke-linejoin:round; stroke-width:4; stroke-opacity:1; fill:none" points="210.746,780.3 220.704,780.3 "></polyline>
<polyline clip-path="url(#clip950)" style="stroke:#000000; stroke-linecap:round; stroke-linejoin:round; stroke-width:4; stroke-opacity:1; fill:none" points="210.746,470.278 220.704,470.278 "></polyline>
<polyline clip-path="url(#clip950)" style="stroke:#000000; stroke-linecap:round; stroke-linejoin:round; stroke-width:4; stroke-opacity:1; fill:none" points="210.746,160.256 220.704,160.256 "></polyline>
<path clip-path="url(#clip950)" d="M114.631 1400.8 L144.306 1400.8 L144.306 1404.73 L114.631 1404.73 L114.631 1400.8 Z" fill="#000000" fill-rule="nonzero" fill-opacity="1"></path><path clip-path="url(#clip950)" d="M158.427 1413.69 L174.746 1413.69 L174.746 1417.62 L152.802 1417.62 L152.802 1413.69 Q155.464 1410.93 160.047 1406.3 Q164.653 1401.65 165.834 1400.31 Q168.079 1397.79 168.959 1396.05 Q169.862 1394.29 169.862 1392.6 Q169.862 1389.85 167.917 1388.11 Q165.996 1386.37 162.894 1386.37 Q160.695 1386.37 158.241 1387.14 Q155.811 1387.9 153.033 1389.45 L153.033 1384.73 Q155.857 1383.6 158.311 1383.02 Q160.765 1382.44 162.802 1382.44 Q168.172 1382.44 171.366 1385.12 Q174.561 1387.81 174.561 1392.3 Q174.561 1394.43 173.751 1396.35 Q172.964 1398.25 170.857 1400.84 Q170.278 1401.51 167.177 1404.73 Q164.075 1407.92 158.427 1413.69 Z" fill="#000000" fill-rule="nonzero" fill-opacity="1"></path><path clip-path="url(#clip950)" d="M114.26 1090.77 L143.936 1090.77 L143.936 1094.71 L114.26 1094.71 L114.26 1090.77 Z" fill="#000000" fill-rule="nonzero" fill-opacity="1"></path><path clip-path="url(#clip950)" d="M154.839 1103.67 L162.477 1103.67 L162.477 1077.3 L154.167 1078.97 L154.167 1074.71 L162.431 1073.04 L167.107 1073.04 L167.107 1103.67 L174.746 1103.67 L174.746 1107.6 L154.839 1107.6 L154.839 1103.67 Z" fill="#000000" fill-rule="nonzero" fill-opacity="1"></path><path clip-path="url(#clip950)" d="M162.802 766.099 Q159.19 766.099 157.362 769.663 Q155.556 773.205 155.556 780.335 Q155.556 787.441 157.362 791.006 Q159.19 794.548 162.802 794.548 Q166.436 794.548 168.241 791.006 Q170.07 787.441 170.07 780.335 Q170.07 773.205 168.241 769.663 Q166.436 766.099 162.802 766.099 M162.802 762.395 Q168.612 762.395 171.667 767.001 Q174.746 771.585 174.746 780.335 Q174.746 789.062 171.667 793.668 Q168.612 798.251 162.802 798.251 Q156.991 798.251 153.913 793.668 Q150.857 789.062 150.857 780.335 Q150.857 771.585 153.913 767.001 Q156.991 762.395 162.802 762.395 Z" fill="#000000" fill-rule="nonzero" fill-opacity="1"></path><path clip-path="url(#clip950)" d="M154.839 483.623 L162.477 483.623 L162.477 457.257 L154.167 458.924 L154.167 454.665 L162.431 452.998 L167.107 452.998 L167.107 483.623 L174.746 483.623 L174.746 487.558 L154.839 487.558 L154.839 483.623 Z" fill="#000000" fill-rule="nonzero" fill-opacity="1"></path><path clip-path="url(#clip950)" d="M158.427 173.601 L174.746 173.601 L174.746 177.536 L152.802 177.536 L152.802 173.601 Q155.464 170.847 160.047 166.217 Q164.653 161.564 165.834 160.222 Q168.079 157.698 168.959 155.962 Q169.862 154.203 169.862 152.513 Q169.862 149.759 167.917 148.023 Q165.996 146.286 162.894 146.286 Q160.695 146.286 158.241 147.05 Q155.811 147.814 153.033 149.365 L153.033 144.643 Q155.857 143.509 158.311 142.93 Q160.765 142.351 162.802 142.351 Q168.172 142.351 171.366 145.036 Q174.561 147.722 174.561 152.212 Q174.561 154.342 173.751 156.263 Q172.964 158.161 170.857 160.754 Q170.278 161.425 167.177 164.643 Q164.075 167.837 158.427 173.601 Z" fill="#000000" fill-rule="nonzero" fill-opacity="1"></path><path clip-path="url(#clip950)" d="M28.3562 775.665 L45.7028 788.556 L64.0042 774.997 L64.0042 781.904 L49.9996 792.28 L64.0042 802.656 L64.0042 809.563 L45.3526 795.717 L28.3562 808.385 L28.3562 801.478 L41.0558 792.025 L28.3562 782.572 L28.3562 775.665 Z" fill="#000000" fill-rule="nonzero" fill-opacity="1"></path><path clip-path="url(#clip950)" d="M42.4881 737.089 L64.0042 737.089 L64.0042 742.946 L42.679 742.946 Q37.6183 742.946 35.1038 744.919 Q32.5894 746.892 32.5894 750.839 Q32.5894 755.582 35.6131 758.319 Q38.6368 761.056 43.8567 761.056 L64.0042 761.056 L64.0042 766.944 L28.3562 766.944 L28.3562 761.056 L33.8944 761.056 Q30.6797 758.955 29.0883 756.123 Q27.4968 753.258 27.4968 749.534 Q27.4968 743.391 31.3163 740.24 Q35.1038 737.089 42.4881 737.089 Z" fill="#000000" fill-rule="nonzero" fill-opacity="1"></path><path clip-path="url(#clip950)" d="M625.032 12.096 L633.215 12.096 L633.215 72.576 L625.032 72.576 L625.032 12.096 Z" fill="#000000" fill-rule="nonzero" fill-opacity="1"></path><path clip-path="url(#clip950)" d="M656.548 14.324 L656.548 27.2059 L671.901 27.2059 L671.901 32.9987 L656.548 32.9987 L656.548 57.6282 Q656.548 63.1779 658.047 64.7578 Q659.587 66.3376 664.245 66.3376 L671.901 66.3376 L671.901 72.576 L664.245 72.576 Q655.617 72.576 652.335 69.3758 Q649.054 66.1351 649.054 57.6282 L649.054 32.9987 L643.585 32.9987 L643.585 27.2059 L649.054 27.2059 L649.054 14.324 L656.548 14.324 Z" fill="#000000" fill-rule="nonzero" fill-opacity="1"></path><path clip-path="url(#clip950)" d="M720.512 48.0275 L720.512 51.6733 L686.241 51.6733 Q686.728 59.3701 690.859 63.421 Q695.032 67.4314 702.445 67.4314 Q706.739 67.4314 710.749 66.3781 Q714.8 65.3249 718.77 63.2184 L718.77 70.267 Q714.76 71.9684 710.547 72.8596 Q706.334 73.7508 701.999 73.7508 Q691.143 73.7508 684.783 67.4314 Q678.464 61.1119 678.464 50.3365 Q678.464 39.1965 684.459 32.6746 Q690.495 26.1121 700.703 26.1121 Q709.858 26.1121 715.165 32.0264 Q720.512 37.9003 720.512 48.0275 M713.058 45.84 Q712.977 39.7232 709.615 36.0774 Q706.293 32.4315 700.784 32.4315 Q694.546 32.4315 690.778 35.9558 Q687.052 39.4801 686.485 45.8805 L713.058 45.84 Z" fill="#000000" fill-rule="nonzero" fill-opacity="1"></path><path clip-path="url(#clip950)" d="M759.036 34.1734 Q757.78 33.4443 756.282 33.1202 Q754.823 32.7556 753.041 32.7556 Q746.721 32.7556 743.319 36.8875 Q739.956 40.9789 739.956 48.6757 L739.956 72.576 L732.462 72.576 L732.462 27.2059 L739.956 27.2059 L739.956 34.2544 Q742.306 30.1225 746.073 28.1376 Q749.841 26.1121 755.228 26.1121 Q755.998 26.1121 756.93 26.2337 Q757.861 26.3147 758.996 26.5172 L759.036 34.1734 Z" fill="#000000" fill-rule="nonzero" fill-opacity="1"></path><path clip-path="url(#clip950)" d="M787.474 49.7694 Q778.44 49.7694 774.956 51.8354 Q771.472 53.9013 771.472 58.8839 Q771.472 62.8538 774.065 65.2034 Q776.698 67.5124 781.195 67.5124 Q787.393 67.5124 791.119 63.1374 Q794.887 58.7219 794.887 51.4303 L794.887 49.7694 L787.474 49.7694 M802.34 46.6907 L802.34 72.576 L794.887 72.576 L794.887 65.6895 Q792.335 69.8214 788.527 71.8063 Q784.719 73.7508 779.21 73.7508 Q772.242 73.7508 768.11 69.8619 Q764.019 65.9325 764.019 59.3701 Q764.019 51.7138 769.123 47.825 Q774.268 43.9361 784.435 43.9361 L794.887 43.9361 L794.887 43.2069 Q794.887 38.0623 791.484 35.2672 Q788.122 32.4315 782.005 32.4315 Q778.116 32.4315 774.43 33.3632 Q770.743 34.295 767.341 36.1584 L767.341 29.2718 Q771.432 27.692 775.28 26.9223 Q779.129 26.1121 782.775 26.1121 Q792.618 26.1121 797.479 31.2163 Q802.34 36.3204 802.34 46.6907 Z" fill="#000000" fill-rule="nonzero" fill-opacity="1"></path><path clip-path="url(#clip950)" d="M850.344 28.9478 L850.344 35.9153 Q847.184 34.1734 843.984 33.3227 Q840.824 32.4315 837.583 32.4315 Q830.332 32.4315 826.322 37.0496 Q822.311 41.6271 822.311 49.9314 Q822.311 58.2358 826.322 62.8538 Q830.332 67.4314 837.583 67.4314 Q840.824 67.4314 843.984 66.5807 Q847.184 65.6895 850.344 63.9476 L850.344 70.8341 Q847.224 72.2924 843.862 73.0216 Q840.54 73.7508 836.773 73.7508 Q826.524 73.7508 820.488 67.3098 Q814.453 60.8689 814.453 49.9314 Q814.453 38.832 820.529 32.472 Q826.646 26.1121 837.259 26.1121 Q840.702 26.1121 843.984 26.8413 Q847.265 27.5299 850.344 28.9478 Z" fill="#000000" fill-rule="nonzero" fill-opacity="1"></path><path clip-path="url(#clip950)" d="M863.306 27.2059 L870.76 27.2059 L870.76 73.3862 Q870.76 82.0551 867.438 85.944 Q864.157 89.8329 856.825 89.8329 L853.989 89.8329 L853.989 83.5134 L855.974 83.5134 Q860.228 83.5134 861.767 81.5285 Q863.306 79.5841 863.306 73.3862 L863.306 27.2059 M863.306 9.54393 L870.76 9.54393 L870.76 18.9825 L863.306 18.9825 L863.306 9.54393 Z" fill="#000000" fill-rule="nonzero" fill-opacity="1"></path><path clip-path="url(#clip950)" d="M925.164 48.0275 L925.164 51.6733 L890.893 51.6733 Q891.379 59.3701 895.511 63.421 Q899.684 67.4314 907.097 67.4314 Q911.391 67.4314 915.401 66.3781 Q919.452 65.3249 923.422 63.2184 L923.422 70.267 Q919.412 71.9684 915.199 72.8596 Q910.986 73.7508 906.651 73.7508 Q895.795 73.7508 889.435 67.4314 Q883.115 61.1119 883.115 50.3365 Q883.115 39.1965 889.111 32.6746 Q895.147 26.1121 905.355 26.1121 Q914.51 26.1121 919.817 32.0264 Q925.164 37.9003 925.164 48.0275 M917.71 45.84 Q917.629 39.7232 914.267 36.0774 Q910.945 32.4315 905.436 32.4315 Q899.197 32.4315 895.43 35.9558 Q891.703 39.4801 891.136 45.8805 L917.71 45.84 Z" fill="#000000" fill-rule="nonzero" fill-opacity="1"></path><polyline clip-path="url(#clip952)" style="stroke:#009af9; stroke-linecap:round; stroke-linejoin:round; stroke-width:4; stroke-opacity:1; fill:none" points="242.69,470.278 269.993,1090.32 297.296,1090.32 324.599,1090.32 351.902,1090.32 379.205,1090.32 406.508,1090.32 433.811,1090.32 461.114,1090.32 488.417,1090.32 515.72,1090.32 543.023,1090.32 570.326,1090.32 597.629,1090.32 624.932,1090.32 652.235,1090.32 679.538,1090.32 706.841,1090.32 734.144,1090.32 761.447,1090.32 788.75,1090.32 816.052,1090.32 843.355,1090.32 870.658,1090.32 897.961,1090.32 925.264,1090.32 952.567,1090.32 979.87,1090.32 1007.17,1090.32 1034.48,1090.32 1061.78,1090.32 1089.08,1090.32 1116.38,1090.32 1143.69,1090.32 1170.99,1090.32 1198.29,1090.32 1225.6,1090.32 1252.9,1090.32 1280.2,1090.32 1307.51,1090.32 "></polyline>
<polyline clip-path="url(#clip952)" style="stroke:#e26f46; stroke-linecap:round; stroke-linejoin:round; stroke-width:4; stroke-opacity:1; fill:none" points="242.69,160.256 269.993,160.256 297.296,160.256 324.599,160.256 351.902,160.256 379.205,160.256 406.508,160.256 433.811,160.256 461.114,160.256 488.417,160.256 515.72,160.256 543.023,160.256 570.326,160.256 597.629,160.256 624.932,160.256 652.235,160.256 679.538,160.256 706.841,160.256 734.144,160.256 761.447,160.256 788.75,160.256 816.052,160.256 843.355,160.256 870.658,160.256 897.961,160.256 925.264,160.256 952.567,160.256 979.87,160.256 1007.17,160.256 1034.48,160.256 1061.78,160.256 1089.08,160.256 1116.38,160.256 1143.69,160.256 1170.99,160.256 1198.29,160.256 1225.6,160.256 1252.9,160.256 1280.2,160.256 1307.51,160.256 "></polyline>
<polyline clip-path="url(#clip952)" style="stroke:#3da44d; stroke-linecap:round; stroke-linejoin:round; stroke-width:4; stroke-opacity:1; fill:none" points="242.69,160.256 269.993,160.256 297.296,160.256 324.599,160.256 351.902,160.256 379.205,160.256 406.508,160.256 433.811,160.256 461.114,160.256 488.417,160.256 515.72,160.256 543.023,160.256 570.326,160.256 597.629,160.257 624.932,160.257 652.235,160.26 679.538,160.27 706.841,160.31 734.144,160.469 761.447,161.108 788.75,163.659 816.052,173.83 843.355,213.959 870.658,365.764 897.961,846.059 925.264,1386.4 952.567,215.421 979.87,371.099 1007.17,860.235 1034.48,1379.73 1061.78,241.327 1089.08,463.339 1116.38,1076.29 1143.69,1117.75 1170.99,1033.03 1198.29,1194.32 1225.6,847.444 1252.9,1385.8 1280.2,217.742 1307.51,379.541 "></polyline>
<polyline clip-path="url(#clip952)" style="stroke:#c271d2; stroke-linecap:round; stroke-linejoin:round; stroke-width:4; stroke-opacity:1; fill:none" points="242.69,470.278 269.993,780.3 297.296,1090.32 324.599,780.3 351.902,1090.32 379.205,780.3 406.508,1090.32 433.811,780.3 461.114,1090.32 488.417,780.3 515.72,1090.32 543.023,780.3 570.326,1090.32 597.629,780.3 624.932,1090.32 652.235,780.3 679.538,1090.32 706.841,780.3 734.144,1090.32 761.447,780.3 788.75,1090.32 816.052,780.3 843.355,1090.32 870.658,780.3 897.961,1090.32 925.264,780.3 952.567,1090.32 979.87,780.3 1007.17,1090.32 1034.48,780.3 1061.78,1090.32 1089.08,780.3 1116.38,1090.32 1143.69,780.3 1170.99,1090.32 1198.29,780.3 1225.6,1090.32 1252.9,780.3 1280.2,1090.32 1307.51,780.3 "></polyline>
<polyline clip-path="url(#clip952)" style="stroke:#ac8d18; stroke-linecap:round; stroke-linejoin:round; stroke-width:4; stroke-opacity:1; fill:none" points="242.69,1090.32 269.993,780.3 297.296,1090.32 324.599,780.3 351.902,1090.32 379.205,780.3 406.508,1090.32 433.811,780.3 461.114,1090.32 488.417,780.3 515.72,1090.32 543.023,780.3 570.326,1090.32 597.629,780.3 624.932,1090.32 652.235,780.3 679.538,1090.32 706.841,780.3 734.144,1090.32 761.447,780.3 788.75,1090.32 816.052,780.3 843.355,1090.32 870.658,780.3 897.961,1090.32 925.264,780.3 952.567,1090.32 979.87,780.3 1007.17,1090.32 1034.48,780.3 1061.78,1090.32 1089.08,780.3 1116.38,1090.32 1143.69,780.3 1170.99,1090.32 1198.29,780.3 1225.6,1090.32 1252.9,780.3 1280.2,1090.32 1307.51,780.3 "></polyline>
<polyline clip-path="url(#clip952)" style="stroke:#00a9ad; stroke-linecap:round; stroke-linejoin:round; stroke-width:4; stroke-opacity:1; fill:none" points="242.69,547.784 269.993,915.935 297.296,1030.98 324.599,887.622 351.902,1053.17 379.205,850.152 406.508,1074.58 433.811,810.979 461.114,1087.29 488.417,786.342 515.72,1090.2 543.023,780.535 570.326,1090.32 597.629,780.3 624.932,1090.32 652.235,780.3 679.538,1090.32 706.841,780.3 734.144,1090.32 761.447,780.3 788.75,1090.32 816.052,780.3 843.355,1090.32 870.658,780.3 897.961,1090.32 925.264,780.3 952.567,1090.32 979.87,780.3 1007.17,1090.32 1034.48,780.3 1061.78,1090.32 1089.08,780.3 1116.38,1090.32 1143.69,780.3 1170.99,1090.32 1198.29,780.3 1225.6,1090.32 1252.9,780.3 1280.2,1090.32 1307.51,780.3 "></polyline>
<polyline clip-path="url(#clip952)" style="stroke:#ed5d92; stroke-linecap:round; stroke-linejoin:round; stroke-width:4; stroke-opacity:1; fill:none" points="242.69,702.795 269.993,1070.95 297.296,817.842 324.599,1085.78 351.902,789.325 379.205,1090.06 406.508,780.825 433.811,1090.32 461.114,780.302 488.417,1090.32 515.72,780.3 543.023,1090.32 570.326,780.3 597.629,1090.32 624.932,780.3 652.235,1090.32 679.538,780.3 706.841,1090.32 734.144,780.3 761.447,1090.32 788.75,780.3 816.052,1090.32 843.355,780.3 870.658,1090.32 897.961,780.3 925.264,1090.32 952.567,780.3 979.87,1090.32 1007.17,780.3 1034.48,1090.32 1061.78,780.3 1089.08,1090.32 1116.38,780.3 1143.69,1090.32 1170.99,780.3 1198.29,1090.32 1225.6,780.3 1252.9,1090.32 1280.2,780.3 1307.51,1090.32 "></polyline>
<path clip-path="url(#clip950)" d="M1410.85 998.09 L2352.76 998.09 L2352.76 583.37 L1410.85 583.37  Z" fill="#ffffff" fill-rule="evenodd" fill-opacity="1"></path>
<polyline clip-path="url(#clip950)" style="stroke:#000000; stroke-linecap:round; stroke-linejoin:round; stroke-width:4; stroke-opacity:1; fill:none" points="1410.85,998.09 2352.76,998.09 2352.76,583.37 1410.85,583.37 1410.85,998.09 "></polyline>
<polyline clip-path="url(#clip950)" style="stroke:#009af9; stroke-linecap:round; stroke-linejoin:round; stroke-width:4; stroke-opacity:1; fill:none" points="1434.65,635.21 1577.45,635.21 "></polyline>
<path clip-path="url(#clip950)" d="M1625.9 626.564 L1616.53 639.179 L1626.39 652.49 L1621.37 652.49 L1613.82 642.304 L1606.27 652.49 L1601.25 652.49 L1611.32 638.925 L1602.11 626.564 L1607.13 626.564 L1614.01 635.8 L1620.88 626.564 L1625.9 626.564 Z" fill="#000000" fill-rule="nonzero" fill-opacity="1"></path><path clip-path="url(#clip950)" d="M1643.01 621.008 Q1639.4 621.008 1637.57 624.573 Q1635.77 628.115 1635.77 635.244 Q1635.77 642.351 1637.57 645.916 Q1639.4 649.457 1643.01 649.457 Q1646.64 649.457 1648.45 645.916 Q1650.28 642.351 1650.28 635.244 Q1650.28 628.115 1648.45 624.573 Q1646.64 621.008 1643.01 621.008 M1643.01 617.305 Q1648.82 617.305 1651.88 621.911 Q1654.95 626.494 1654.95 635.244 Q1654.95 643.971 1651.88 648.578 Q1648.82 653.161 1643.01 653.161 Q1637.2 653.161 1634.12 648.578 Q1631.07 643.971 1631.07 635.244 Q1631.07 626.494 1634.12 621.911 Q1637.2 617.305 1643.01 617.305 Z" fill="#000000" fill-rule="nonzero" fill-opacity="1"></path><path clip-path="url(#clip950)" d="M1663.13 630.962 L1692.8 630.962 L1692.8 634.851 L1663.13 634.851 L1663.13 630.962 M1663.13 640.406 L1692.8 640.406 L1692.8 644.341 L1663.13 644.341 L1663.13 640.406 Z" fill="#000000" fill-rule="nonzero" fill-opacity="1"></path><path clip-path="url(#clip950)" d="M1703.7 648.554 L1711.34 648.554 L1711.34 622.189 L1703.03 623.855 L1703.03 619.596 L1711.3 617.93 L1715.97 617.93 L1715.97 648.554 L1723.61 648.554 L1723.61 652.49 L1703.7 652.49 L1703.7 648.554 Z" fill="#000000" fill-rule="nonzero" fill-opacity="1"></path><path clip-path="url(#clip950)" d="M1733.06 646.61 L1737.94 646.61 L1737.94 652.49 L1733.06 652.49 L1733.06 646.61 Z" fill="#000000" fill-rule="nonzero" fill-opacity="1"></path><path clip-path="url(#clip950)" d="M1758.13 621.008 Q1754.51 621.008 1752.69 624.573 Q1750.88 628.115 1750.88 635.244 Q1750.88 642.351 1752.69 645.916 Q1754.51 649.457 1758.13 649.457 Q1761.76 649.457 1763.57 645.916 Q1765.39 642.351 1765.39 635.244 Q1765.39 628.115 1763.57 624.573 Q1761.76 621.008 1758.13 621.008 M1758.13 617.305 Q1763.94 617.305 1766.99 621.911 Q1770.07 626.494 1770.07 635.244 Q1770.07 643.971 1766.99 648.578 Q1763.94 653.161 1758.13 653.161 Q1752.32 653.161 1749.24 648.578 Q1746.18 643.971 1746.18 635.244 Q1746.18 626.494 1749.24 621.911 Q1752.32 617.305 1758.13 617.305 Z" fill="#000000" fill-rule="nonzero" fill-opacity="1"></path><path clip-path="url(#clip950)" d="M1807.78 630.545 Q1807.06 630.129 1806.2 629.943 Q1805.37 629.735 1804.35 629.735 Q1800.74 629.735 1798.8 632.096 Q1796.88 634.434 1796.88 638.832 L1796.88 652.49 L1792.59 652.49 L1792.59 626.564 L1796.88 626.564 L1796.88 630.592 Q1798.22 628.23 1800.37 627.096 Q1802.52 625.939 1805.6 625.939 Q1806.04 625.939 1806.57 626.008 Q1807.11 626.055 1807.75 626.17 L1807.78 630.545 Z" fill="#000000" fill-rule="nonzero" fill-opacity="1"></path><path clip-path="url(#clip950)" d="M1812.8 630.962 L1842.48 630.962 L1842.48 634.851 L1812.8 634.851 L1812.8 630.962 M1812.8 640.406 L1842.48 640.406 L1842.48 644.341 L1812.8 644.341 L1812.8 640.406 Z" fill="#000000" fill-rule="nonzero" fill-opacity="1"></path><path clip-path="url(#clip950)" d="M1849.81 637.605 L1862.29 637.605 L1862.29 641.402 L1849.81 641.402 L1849.81 637.605 Z" fill="#000000" fill-rule="nonzero" fill-opacity="1"></path><path clip-path="url(#clip950)" d="M1873.7 648.554 L1890.02 648.554 L1890.02 652.49 L1868.08 652.49 L1868.08 648.554 Q1870.74 645.8 1875.32 641.17 Q1879.93 636.517 1881.11 635.175 Q1883.36 632.652 1884.24 630.916 Q1885.14 629.156 1885.14 627.467 Q1885.14 624.712 1883.19 622.976 Q1881.27 621.24 1878.17 621.24 Q1875.97 621.24 1873.52 622.004 Q1871.09 622.768 1868.31 624.318 L1868.31 619.596 Q1871.13 618.462 1873.59 617.883 Q1876.04 617.305 1878.08 617.305 Q1883.45 617.305 1886.64 619.99 Q1889.84 622.675 1889.84 627.166 Q1889.84 629.295 1889.03 631.217 Q1888.24 633.115 1886.13 635.707 Q1885.56 636.379 1882.45 639.596 Q1879.35 642.791 1873.7 648.554 Z" fill="#000000" fill-rule="nonzero" fill-opacity="1"></path><path clip-path="url(#clip950)" d="M1899.84 646.61 L1904.72 646.61 L1904.72 652.49 L1899.84 652.49 L1899.84 646.61 Z" fill="#000000" fill-rule="nonzero" fill-opacity="1"></path><path clip-path="url(#clip950)" d="M1924.91 621.008 Q1921.3 621.008 1919.47 624.573 Q1917.66 628.115 1917.66 635.244 Q1917.66 642.351 1919.47 645.916 Q1921.3 649.457 1924.91 649.457 Q1928.54 649.457 1930.35 645.916 Q1932.18 642.351 1932.18 635.244 Q1932.18 628.115 1930.35 624.573 Q1928.54 621.008 1924.91 621.008 M1924.91 617.305 Q1930.72 617.305 1933.77 621.911 Q1936.85 626.494 1936.85 635.244 Q1936.85 643.971 1933.77 648.578 Q1930.72 653.161 1924.91 653.161 Q1919.1 653.161 1916.02 648.578 Q1912.96 643.971 1912.96 635.244 Q1912.96 626.494 1916.02 621.911 Q1919.1 617.305 1924.91 617.305 Z" fill="#000000" fill-rule="nonzero" fill-opacity="1"></path><polyline clip-path="url(#clip950)" style="stroke:#e26f46; stroke-linecap:round; stroke-linejoin:round; stroke-width:4; stroke-opacity:1; fill:none" points="1434.65,687.05 1577.45,687.05 "></polyline>
<path clip-path="url(#clip950)" d="M1625.9 678.404 L1616.53 691.019 L1626.39 704.33 L1621.37 704.33 L1613.82 694.144 L1606.27 704.33 L1601.25 704.33 L1611.32 690.765 L1602.11 678.404 L1607.13 678.404 L1614.01 687.64 L1620.88 678.404 L1625.9 678.404 Z" fill="#000000" fill-rule="nonzero" fill-opacity="1"></path><path clip-path="url(#clip950)" d="M1643.01 672.848 Q1639.4 672.848 1637.57 676.413 Q1635.77 679.955 1635.77 687.084 Q1635.77 694.191 1637.57 697.756 Q1639.4 701.297 1643.01 701.297 Q1646.64 701.297 1648.45 697.756 Q1650.28 694.191 1650.28 687.084 Q1650.28 679.955 1648.45 676.413 Q1646.64 672.848 1643.01 672.848 M1643.01 669.145 Q1648.82 669.145 1651.88 673.751 Q1654.95 678.334 1654.95 687.084 Q1654.95 695.811 1651.88 700.418 Q1648.82 705.001 1643.01 705.001 Q1637.2 705.001 1634.12 700.418 Q1631.07 695.811 1631.07 687.084 Q1631.07 678.334 1634.12 673.751 Q1637.2 669.145 1643.01 669.145 Z" fill="#000000" fill-rule="nonzero" fill-opacity="1"></path><path clip-path="url(#clip950)" d="M1663.13 682.802 L1692.8 682.802 L1692.8 686.691 L1663.13 686.691 L1663.13 682.802 M1663.13 692.246 L1692.8 692.246 L1692.8 696.181 L1663.13 696.181 L1663.13 692.246 Z" fill="#000000" fill-rule="nonzero" fill-opacity="1"></path><path clip-path="url(#clip950)" d="M1706.92 700.394 L1723.24 700.394 L1723.24 704.33 L1701.3 704.33 L1701.3 700.394 Q1703.96 697.64 1708.54 693.01 Q1713.15 688.357 1714.33 687.015 Q1716.57 684.492 1717.45 682.756 Q1718.36 680.996 1718.36 679.307 Q1718.36 676.552 1716.41 674.816 Q1714.49 673.08 1711.39 673.08 Q1709.19 673.08 1706.74 673.844 Q1704.31 674.608 1701.53 676.158 L1701.53 671.436 Q1704.35 670.302 1706.81 669.723 Q1709.26 669.145 1711.3 669.145 Q1716.67 669.145 1719.86 671.83 Q1723.06 674.515 1723.06 679.006 Q1723.06 681.135 1722.25 683.057 Q1721.46 684.955 1719.35 687.547 Q1718.77 688.219 1715.67 691.436 Q1712.57 694.631 1706.92 700.394 Z" fill="#000000" fill-rule="nonzero" fill-opacity="1"></path><path clip-path="url(#clip950)" d="M1733.06 698.45 L1737.94 698.45 L1737.94 704.33 L1733.06 704.33 L1733.06 698.45 Z" fill="#000000" fill-rule="nonzero" fill-opacity="1"></path><path clip-path="url(#clip950)" d="M1758.13 672.848 Q1754.51 672.848 1752.69 676.413 Q1750.88 679.955 1750.88 687.084 Q1750.88 694.191 1752.69 697.756 Q1754.51 701.297 1758.13 701.297 Q1761.76 701.297 1763.57 697.756 Q1765.39 694.191 1765.39 687.084 Q1765.39 679.955 1763.57 676.413 Q1761.76 672.848 1758.13 672.848 M1758.13 669.145 Q1763.94 669.145 1766.99 673.751 Q1770.07 678.334 1770.07 687.084 Q1770.07 695.811 1766.99 700.418 Q1763.94 705.001 1758.13 705.001 Q1752.32 705.001 1749.24 700.418 Q1746.18 695.811 1746.18 687.084 Q1746.18 678.334 1749.24 673.751 Q1752.32 669.145 1758.13 669.145 Z" fill="#000000" fill-rule="nonzero" fill-opacity="1"></path><path clip-path="url(#clip950)" d="M1807.78 682.385 Q1807.06 681.969 1806.2 681.783 Q1805.37 681.575 1804.35 681.575 Q1800.74 681.575 1798.8 683.936 Q1796.88 686.274 1796.88 690.672 L1796.88 704.33 L1792.59 704.33 L1792.59 678.404 L1796.88 678.404 L1796.88 682.432 Q1798.22 680.07 1800.37 678.936 Q1802.52 677.779 1805.6 677.779 Q1806.04 677.779 1806.57 677.848 Q1807.11 677.895 1807.75 678.01 L1807.78 682.385 Z" fill="#000000" fill-rule="nonzero" fill-opacity="1"></path><path clip-path="url(#clip950)" d="M1812.8 682.802 L1842.48 682.802 L1842.48 686.691 L1812.8 686.691 L1812.8 682.802 M1812.8 692.246 L1842.48 692.246 L1842.48 696.181 L1812.8 696.181 L1812.8 692.246 Z" fill="#000000" fill-rule="nonzero" fill-opacity="1"></path><path clip-path="url(#clip950)" d="M1849.81 689.445 L1862.29 689.445 L1862.29 693.242 L1849.81 693.242 L1849.81 689.445 Z" fill="#000000" fill-rule="nonzero" fill-opacity="1"></path><path clip-path="url(#clip950)" d="M1873.7 700.394 L1890.02 700.394 L1890.02 704.33 L1868.08 704.33 L1868.08 700.394 Q1870.74 697.64 1875.32 693.01 Q1879.93 688.357 1881.11 687.015 Q1883.36 684.492 1884.24 682.756 Q1885.14 680.996 1885.14 679.307 Q1885.14 676.552 1883.19 674.816 Q1881.27 673.08 1878.17 673.08 Q1875.97 673.08 1873.52 673.844 Q1871.09 674.608 1868.31 676.158 L1868.31 671.436 Q1871.13 670.302 1873.59 669.723 Q1876.04 669.145 1878.08 669.145 Q1883.45 669.145 1886.64 671.83 Q1889.84 674.515 1889.84 679.006 Q1889.84 681.135 1889.03 683.057 Q1888.24 684.955 1886.13 687.547 Q1885.56 688.219 1882.45 691.436 Q1879.35 694.631 1873.7 700.394 Z" fill="#000000" fill-rule="nonzero" fill-opacity="1"></path><path clip-path="url(#clip950)" d="M1899.84 698.45 L1904.72 698.45 L1904.72 704.33 L1899.84 704.33 L1899.84 698.45 Z" fill="#000000" fill-rule="nonzero" fill-opacity="1"></path><path clip-path="url(#clip950)" d="M1924.91 672.848 Q1921.3 672.848 1919.47 676.413 Q1917.66 679.955 1917.66 687.084 Q1917.66 694.191 1919.47 697.756 Q1921.3 701.297 1924.91 701.297 Q1928.54 701.297 1930.35 697.756 Q1932.18 694.191 1932.18 687.084 Q1932.18 679.955 1930.35 676.413 Q1928.54 672.848 1924.91 672.848 M1924.91 669.145 Q1930.72 669.145 1933.77 673.751 Q1936.85 678.334 1936.85 687.084 Q1936.85 695.811 1933.77 700.418 Q1930.72 705.001 1924.91 705.001 Q1919.1 705.001 1916.02 700.418 Q1912.96 695.811 1912.96 687.084 Q1912.96 678.334 1916.02 673.751 Q1919.1 669.145 1924.91 669.145 Z" fill="#000000" fill-rule="nonzero" fill-opacity="1"></path><polyline clip-path="url(#clip950)" style="stroke:#3da44d; stroke-linecap:round; stroke-linejoin:round; stroke-width:4; stroke-opacity:1; fill:none" points="1434.65,738.89 1577.45,738.89 "></polyline>
<path clip-path="url(#clip950)" d="M1625.9 730.244 L1616.53 742.859 L1626.39 756.17 L1621.37 756.17 L1613.82 745.984 L1606.27 756.17 L1601.25 756.17 L1611.32 742.605 L1602.11 730.244 L1607.13 730.244 L1614.01 739.48 L1620.88 730.244 L1625.9 730.244 Z" fill="#000000" fill-rule="nonzero" fill-opacity="1"></path><path clip-path="url(#clip950)" d="M1643.01 724.688 Q1639.4 724.688 1637.57 728.253 Q1635.77 731.795 1635.77 738.924 Q1635.77 746.031 1637.57 749.596 Q1639.4 753.137 1643.01 753.137 Q1646.64 753.137 1648.45 749.596 Q1650.28 746.031 1650.28 738.924 Q1650.28 731.795 1648.45 728.253 Q1646.64 724.688 1643.01 724.688 M1643.01 720.985 Q1648.82 720.985 1651.88 725.591 Q1654.95 730.174 1654.95 738.924 Q1654.95 747.651 1651.88 752.258 Q1648.82 756.841 1643.01 756.841 Q1637.2 756.841 1634.12 752.258 Q1631.07 747.651 1631.07 738.924 Q1631.07 730.174 1634.12 725.591 Q1637.2 720.985 1643.01 720.985 Z" fill="#000000" fill-rule="nonzero" fill-opacity="1"></path><path clip-path="url(#clip950)" d="M1663.13 734.642 L1692.8 734.642 L1692.8 738.531 L1663.13 738.531 L1663.13 734.642 M1663.13 744.086 L1692.8 744.086 L1692.8 748.021 L1663.13 748.021 L1663.13 744.086 Z" fill="#000000" fill-rule="nonzero" fill-opacity="1"></path><path clip-path="url(#clip950)" d="M1703.7 752.234 L1711.34 752.234 L1711.34 725.869 L1703.03 727.535 L1703.03 723.276 L1711.3 721.61 L1715.97 721.61 L1715.97 752.234 L1723.61 752.234 L1723.61 756.17 L1703.7 756.17 L1703.7 752.234 Z" fill="#000000" fill-rule="nonzero" fill-opacity="1"></path><path clip-path="url(#clip950)" d="M1733.06 750.29 L1737.94 750.29 L1737.94 756.17 L1733.06 756.17 L1733.06 750.29 Z" fill="#000000" fill-rule="nonzero" fill-opacity="1"></path><path clip-path="url(#clip950)" d="M1748.26 755.452 L1748.26 751.193 Q1750.02 752.026 1751.83 752.466 Q1753.63 752.906 1755.37 752.906 Q1760 752.906 1762.43 749.804 Q1764.88 746.679 1765.23 740.336 Q1763.89 742.327 1761.83 743.392 Q1759.77 744.457 1757.27 744.457 Q1752.08 744.457 1749.05 741.332 Q1746.04 738.184 1746.04 732.744 Q1746.04 727.42 1749.19 724.202 Q1752.34 720.985 1757.57 720.985 Q1763.57 720.985 1766.71 725.591 Q1769.88 730.174 1769.88 738.924 Q1769.88 747.096 1766 751.98 Q1762.13 756.841 1755.58 756.841 Q1753.82 756.841 1752.01 756.494 Q1750.21 756.146 1748.26 755.452 M1757.57 740.799 Q1760.72 740.799 1762.55 738.647 Q1764.4 736.494 1764.4 732.744 Q1764.4 729.017 1762.55 726.864 Q1760.72 724.688 1757.57 724.688 Q1754.42 724.688 1752.57 726.864 Q1750.74 729.017 1750.74 732.744 Q1750.74 736.494 1752.57 738.647 Q1754.42 740.799 1757.57 740.799 Z" fill="#000000" fill-rule="nonzero" fill-opacity="1"></path><path clip-path="url(#clip950)" d="M1778.43 755.452 L1778.43 751.193 Q1780.19 752.026 1781.99 752.466 Q1783.8 752.906 1785.53 752.906 Q1790.16 752.906 1792.59 749.804 Q1795.05 746.679 1795.39 740.336 Q1794.05 742.327 1791.99 743.392 Q1789.93 744.457 1787.43 744.457 Q1782.25 744.457 1779.21 741.332 Q1776.2 738.184 1776.2 732.744 Q1776.2 727.42 1779.35 724.202 Q1782.5 720.985 1787.73 720.985 Q1793.73 720.985 1796.88 725.591 Q1800.05 730.174 1800.05 738.924 Q1800.05 747.096 1796.16 751.98 Q1792.29 756.841 1785.74 756.841 Q1783.98 756.841 1782.18 756.494 Q1780.37 756.146 1778.43 755.452 M1787.73 740.799 Q1790.88 740.799 1792.71 738.647 Q1794.56 736.494 1794.56 732.744 Q1794.56 729.017 1792.71 726.864 Q1790.88 724.688 1787.73 724.688 Q1784.58 724.688 1782.73 726.864 Q1780.9 729.017 1780.9 732.744 Q1780.9 736.494 1782.73 738.647 Q1784.58 740.799 1787.73 740.799 Z" fill="#000000" fill-rule="nonzero" fill-opacity="1"></path><path clip-path="url(#clip950)" d="M1808.59 755.452 L1808.59 751.193 Q1810.35 752.026 1812.15 752.466 Q1813.96 752.906 1815.69 752.906 Q1820.32 752.906 1822.75 749.804 Q1825.21 746.679 1825.56 740.336 Q1824.21 742.327 1822.15 743.392 Q1820.09 744.457 1817.59 744.457 Q1812.41 744.457 1809.38 741.332 Q1806.37 738.184 1806.37 732.744 Q1806.37 727.42 1809.51 724.202 Q1812.66 720.985 1817.89 720.985 Q1823.89 720.985 1827.04 725.591 Q1830.21 730.174 1830.21 738.924 Q1830.21 747.096 1826.32 751.98 Q1822.45 756.841 1815.9 756.841 Q1814.14 756.841 1812.34 756.494 Q1810.53 756.146 1808.59 755.452 M1817.89 740.799 Q1821.04 740.799 1822.87 738.647 Q1824.72 736.494 1824.72 732.744 Q1824.72 729.017 1822.87 726.864 Q1821.04 724.688 1817.89 724.688 Q1814.75 724.688 1812.89 726.864 Q1811.07 729.017 1811.07 732.744 Q1811.07 736.494 1812.89 738.647 Q1814.75 740.799 1817.89 740.799 Z" fill="#000000" fill-rule="nonzero" fill-opacity="1"></path><path clip-path="url(#clip950)" d="M1838.75 755.452 L1838.75 751.193 Q1840.51 752.026 1842.31 752.466 Q1844.12 752.906 1845.86 752.906 Q1850.49 752.906 1852.92 749.804 Q1855.37 746.679 1855.72 740.336 Q1854.38 742.327 1852.31 743.392 Q1850.25 744.457 1847.75 744.457 Q1842.57 744.457 1839.54 741.332 Q1836.53 738.184 1836.53 732.744 Q1836.53 727.42 1839.68 724.202 Q1842.82 720.985 1848.06 720.985 Q1854.05 720.985 1857.2 725.591 Q1860.37 730.174 1860.37 738.924 Q1860.37 747.096 1856.48 751.98 Q1852.62 756.841 1846.06 756.841 Q1844.31 756.841 1842.5 756.494 Q1840.69 756.146 1838.75 755.452 M1848.06 740.799 Q1851.2 740.799 1853.03 738.647 Q1854.88 736.494 1854.88 732.744 Q1854.88 729.017 1853.03 726.864 Q1851.2 724.688 1848.06 724.688 Q1844.91 724.688 1843.06 726.864 Q1841.23 729.017 1841.23 732.744 Q1841.23 736.494 1843.06 738.647 Q1844.91 740.799 1848.06 740.799 Z" fill="#000000" fill-rule="nonzero" fill-opacity="1"></path><path clip-path="url(#clip950)" d="M1868.91 755.452 L1868.91 751.193 Q1870.67 752.026 1872.48 752.466 Q1874.28 752.906 1876.02 752.906 Q1880.65 752.906 1883.08 749.804 Q1885.53 746.679 1885.88 740.336 Q1884.54 742.327 1882.48 743.392 Q1880.42 744.457 1877.92 744.457 Q1872.73 744.457 1869.7 741.332 Q1866.69 738.184 1866.69 732.744 Q1866.69 727.42 1869.84 724.202 Q1872.99 720.985 1878.22 720.985 Q1884.21 720.985 1887.36 725.591 Q1890.53 730.174 1890.53 738.924 Q1890.53 747.096 1886.64 751.98 Q1882.78 756.841 1876.23 756.841 Q1874.47 756.841 1872.66 756.494 Q1870.86 756.146 1868.91 755.452 M1878.22 740.799 Q1881.37 740.799 1883.19 738.647 Q1885.05 736.494 1885.05 732.744 Q1885.05 729.017 1883.19 726.864 Q1881.37 724.688 1878.22 724.688 Q1875.07 724.688 1873.22 726.864 Q1871.39 729.017 1871.39 732.744 Q1871.39 736.494 1873.22 738.647 Q1875.07 740.799 1878.22 740.799 Z" fill="#000000" fill-rule="nonzero" fill-opacity="1"></path><path clip-path="url(#clip950)" d="M1899.07 755.452 L1899.07 751.193 Q1900.83 752.026 1902.64 752.466 Q1904.44 752.906 1906.18 752.906 Q1910.81 752.906 1913.24 749.804 Q1915.69 746.679 1916.04 740.336 Q1914.7 742.327 1912.64 743.392 Q1910.58 744.457 1908.08 744.457 Q1902.89 744.457 1899.86 741.332 Q1896.85 738.184 1896.85 732.744 Q1896.85 727.42 1900 724.202 Q1903.15 720.985 1908.38 720.985 Q1914.37 720.985 1917.52 725.591 Q1920.69 730.174 1920.69 738.924 Q1920.69 747.096 1916.81 751.98 Q1912.94 756.841 1906.39 756.841 Q1904.63 756.841 1902.82 756.494 Q1901.02 756.146 1899.07 755.452 M1908.38 740.799 Q1911.53 740.799 1913.36 738.647 Q1915.21 736.494 1915.21 732.744 Q1915.21 729.017 1913.36 726.864 Q1911.53 724.688 1908.38 724.688 Q1905.23 724.688 1903.38 726.864 Q1901.55 729.017 1901.55 732.744 Q1901.55 736.494 1903.38 738.647 Q1905.23 740.799 1908.38 740.799 Z" fill="#000000" fill-rule="nonzero" fill-opacity="1"></path><path clip-path="url(#clip950)" d="M1929.24 755.452 L1929.24 751.193 Q1930.99 752.026 1932.8 752.466 Q1934.61 752.906 1936.34 752.906 Q1940.97 752.906 1943.4 749.804 Q1945.86 746.679 1946.2 740.336 Q1944.86 742.327 1942.8 743.392 Q1940.74 744.457 1938.24 744.457 Q1933.06 744.457 1930.02 741.332 Q1927.01 738.184 1927.01 732.744 Q1927.01 727.42 1930.16 724.202 Q1933.31 720.985 1938.54 720.985 Q1944.54 720.985 1947.68 725.591 Q1950.86 730.174 1950.86 738.924 Q1950.86 747.096 1946.97 751.98 Q1943.1 756.841 1936.55 756.841 Q1934.79 756.841 1932.99 756.494 Q1931.18 756.146 1929.24 755.452 M1938.54 740.799 Q1941.69 740.799 1943.52 738.647 Q1945.37 736.494 1945.37 732.744 Q1945.37 729.017 1943.52 726.864 Q1941.69 724.688 1938.54 724.688 Q1935.39 724.688 1933.54 726.864 Q1931.71 729.017 1931.71 732.744 Q1931.71 736.494 1933.54 738.647 Q1935.39 740.799 1938.54 740.799 Z" fill="#000000" fill-rule="nonzero" fill-opacity="1"></path><path clip-path="url(#clip950)" d="M1959.4 755.452 L1959.4 751.193 Q1961.16 752.026 1962.96 752.466 Q1964.77 752.906 1966.5 752.906 Q1971.13 752.906 1973.56 749.804 Q1976.02 746.679 1976.37 740.336 Q1975.02 742.327 1972.96 743.392 Q1970.9 744.457 1968.4 744.457 Q1963.22 744.457 1960.18 741.332 Q1957.18 738.184 1957.18 732.744 Q1957.18 727.42 1960.32 724.202 Q1963.47 720.985 1968.7 720.985 Q1974.7 720.985 1977.85 725.591 Q1981.02 730.174 1981.02 738.924 Q1981.02 747.096 1977.13 751.98 Q1973.26 756.841 1966.71 756.841 Q1964.95 756.841 1963.15 756.494 Q1961.34 756.146 1959.4 755.452 M1968.7 740.799 Q1971.85 740.799 1973.68 738.647 Q1975.53 736.494 1975.53 732.744 Q1975.53 729.017 1973.68 726.864 Q1971.85 724.688 1968.7 724.688 Q1965.55 724.688 1963.7 726.864 Q1961.87 729.017 1961.87 732.744 Q1961.87 736.494 1963.7 738.647 Q1965.55 740.799 1968.7 740.799 Z" fill="#000000" fill-rule="nonzero" fill-opacity="1"></path><path clip-path="url(#clip950)" d="M1989.56 755.452 L1989.56 751.193 Q1991.32 752.026 1993.12 752.466 Q1994.93 752.906 1996.67 752.906 Q2001.3 752.906 2003.73 749.804 Q2006.18 746.679 2006.53 740.336 Q2005.18 742.327 2003.12 743.392 Q2001.06 744.457 1998.56 744.457 Q1993.38 744.457 1990.35 741.332 Q1987.34 738.184 1987.34 732.744 Q1987.34 727.42 1990.49 724.202 Q1993.63 720.985 1998.86 720.985 Q2004.86 720.985 2008.01 725.591 Q2011.18 730.174 2011.18 738.924 Q2011.18 747.096 2007.29 751.98 Q2003.43 756.841 1996.87 756.841 Q1995.11 756.841 1993.31 756.494 Q1991.5 756.146 1989.56 755.452 M1998.86 740.799 Q2002.01 740.799 2003.84 738.647 Q2005.69 736.494 2005.69 732.744 Q2005.69 729.017 2003.84 726.864 Q2002.01 724.688 1998.86 724.688 Q1995.72 724.688 1993.86 726.864 Q1992.04 729.017 1992.04 732.744 Q1992.04 736.494 1993.86 738.647 Q1995.72 740.799 1998.86 740.799 Z" fill="#000000" fill-rule="nonzero" fill-opacity="1"></path><path clip-path="url(#clip950)" d="M2019.72 755.452 L2019.72 751.193 Q2021.48 752.026 2023.29 752.466 Q2025.09 752.906 2026.83 752.906 Q2031.46 752.906 2033.89 749.804 Q2036.34 746.679 2036.69 740.336 Q2035.35 742.327 2033.29 743.392 Q2031.23 744.457 2028.73 744.457 Q2023.54 744.457 2020.51 741.332 Q2017.5 738.184 2017.5 732.744 Q2017.5 727.42 2020.65 724.202 Q2023.8 720.985 2029.03 720.985 Q2035.02 720.985 2038.17 725.591 Q2041.34 730.174 2041.34 738.924 Q2041.34 747.096 2037.45 751.98 Q2033.59 756.841 2027.04 756.841 Q2025.28 756.841 2023.47 756.494 Q2021.67 756.146 2019.72 755.452 M2029.03 740.799 Q2032.17 740.799 2034 738.647 Q2035.86 736.494 2035.86 732.744 Q2035.86 729.017 2034 726.864 Q2032.17 724.688 2029.03 724.688 Q2025.88 724.688 2024.03 726.864 Q2022.2 729.017 2022.2 732.744 Q2022.2 736.494 2024.03 738.647 Q2025.88 740.799 2029.03 740.799 Z" fill="#000000" fill-rule="nonzero" fill-opacity="1"></path><path clip-path="url(#clip950)" d="M2049.88 755.452 L2049.88 751.193 Q2051.64 752.026 2053.45 752.466 Q2055.25 752.906 2056.99 752.906 Q2061.62 752.906 2064.05 749.804 Q2066.5 746.679 2066.85 740.336 Q2065.51 742.327 2063.45 743.392 Q2061.39 744.457 2058.89 744.457 Q2053.7 744.457 2050.67 741.332 Q2047.66 738.184 2047.66 732.744 Q2047.66 727.42 2050.81 724.202 Q2053.96 720.985 2059.19 720.985 Q2065.18 720.985 2068.33 725.591 Q2071.5 730.174 2071.5 738.924 Q2071.5 747.096 2067.61 751.98 Q2063.75 756.841 2057.2 756.841 Q2055.44 756.841 2053.63 756.494 Q2051.83 756.146 2049.88 755.452 M2059.19 740.799 Q2062.34 740.799 2064.17 738.647 Q2066.02 736.494 2066.02 732.744 Q2066.02 729.017 2064.17 726.864 Q2062.34 724.688 2059.19 724.688 Q2056.04 724.688 2054.19 726.864 Q2052.36 729.017 2052.36 732.744 Q2052.36 736.494 2054.19 738.647 Q2056.04 740.799 2059.19 740.799 Z" fill="#000000" fill-rule="nonzero" fill-opacity="1"></path><path clip-path="url(#clip950)" d="M2080.05 755.452 L2080.05 751.193 Q2081.8 752.026 2083.61 752.466 Q2085.42 752.906 2087.15 752.906 Q2091.78 752.906 2094.21 749.804 Q2096.67 746.679 2097.01 740.336 Q2095.67 742.327 2093.61 743.392 Q2091.55 744.457 2089.05 744.457 Q2083.86 744.457 2080.83 741.332 Q2077.82 738.184 2077.82 732.744 Q2077.82 727.42 2080.97 724.202 Q2084.12 720.985 2089.35 720.985 Q2095.35 720.985 2098.49 725.591 Q2101.67 730.174 2101.67 738.924 Q2101.67 747.096 2097.78 751.98 Q2093.91 756.841 2087.36 756.841 Q2085.6 756.841 2083.8 756.494 Q2081.99 756.146 2080.05 755.452 M2089.35 740.799 Q2092.5 740.799 2094.33 738.647 Q2096.18 736.494 2096.18 732.744 Q2096.18 729.017 2094.33 726.864 Q2092.5 724.688 2089.35 724.688 Q2086.2 724.688 2084.35 726.864 Q2082.52 729.017 2082.52 732.744 Q2082.52 736.494 2084.35 738.647 Q2086.2 740.799 2089.35 740.799 Z" fill="#000000" fill-rule="nonzero" fill-opacity="1"></path><path clip-path="url(#clip950)" d="M2110.21 755.452 L2110.21 751.193 Q2111.97 752.026 2113.77 752.466 Q2115.58 752.906 2117.31 752.906 Q2121.94 752.906 2124.37 749.804 Q2126.83 746.679 2127.17 740.336 Q2125.83 742.327 2123.77 743.392 Q2121.71 744.457 2119.21 744.457 Q2114.03 744.457 2110.99 741.332 Q2107.98 738.184 2107.98 732.744 Q2107.98 727.42 2111.13 724.202 Q2114.28 720.985 2119.51 720.985 Q2125.51 720.985 2128.66 725.591 Q2131.83 730.174 2131.83 738.924 Q2131.83 747.096 2127.94 751.98 Q2124.07 756.841 2117.52 756.841 Q2115.76 756.841 2113.96 756.494 Q2112.15 756.146 2110.21 755.452 M2119.51 740.799 Q2122.66 740.799 2124.49 738.647 Q2126.34 736.494 2126.34 732.744 Q2126.34 729.017 2124.49 726.864 Q2122.66 724.688 2119.51 724.688 Q2116.36 724.688 2114.51 726.864 Q2112.68 729.017 2112.68 732.744 Q2112.68 736.494 2114.51 738.647 Q2116.36 740.799 2119.51 740.799 Z" fill="#000000" fill-rule="nonzero" fill-opacity="1"></path><path clip-path="url(#clip950)" d="M2140.37 755.452 L2140.37 751.193 Q2142.13 752.026 2143.93 752.466 Q2145.74 752.906 2147.48 752.906 Q2152.1 752.906 2154.54 749.804 Q2156.99 746.679 2157.34 740.336 Q2155.99 742.327 2153.93 743.392 Q2151.87 744.457 2149.37 744.457 Q2144.19 744.457 2141.16 741.332 Q2138.15 738.184 2138.15 732.744 Q2138.15 727.42 2141.29 724.202 Q2144.44 720.985 2149.67 720.985 Q2155.67 720.985 2158.82 725.591 Q2161.99 730.174 2161.99 738.924 Q2161.99 747.096 2158.1 751.98 Q2154.23 756.841 2147.68 756.841 Q2145.92 756.841 2144.12 756.494 Q2142.31 756.146 2140.37 755.452 M2149.67 740.799 Q2152.82 740.799 2154.65 738.647 Q2156.5 736.494 2156.5 732.744 Q2156.5 729.017 2154.65 726.864 Q2152.82 724.688 2149.67 724.688 Q2146.53 724.688 2144.67 726.864 Q2142.85 729.017 2142.85 732.744 Q2142.85 736.494 2144.67 738.647 Q2146.53 740.799 2149.67 740.799 Z" fill="#000000" fill-rule="nonzero" fill-opacity="1"></path><path clip-path="url(#clip950)" d="M2199.88 734.225 Q2199.16 733.809 2198.31 733.623 Q2197.48 733.415 2196.46 733.415 Q2192.85 733.415 2190.9 735.776 Q2188.98 738.114 2188.98 742.512 L2188.98 756.17 L2184.7 756.17 L2184.7 730.244 L2188.98 730.244 L2188.98 734.272 Q2190.32 731.91 2192.48 730.776 Q2194.63 729.619 2197.71 729.619 Q2198.15 729.619 2198.68 729.688 Q2199.21 729.735 2199.86 729.85 L2199.88 734.225 Z" fill="#000000" fill-rule="nonzero" fill-opacity="1"></path><path clip-path="url(#clip950)" d="M2204.91 734.642 L2234.58 734.642 L2234.58 738.531 L2204.91 738.531 L2204.91 734.642 M2204.91 744.086 L2234.58 744.086 L2234.58 748.021 L2204.91 748.021 L2204.91 744.086 Z" fill="#000000" fill-rule="nonzero" fill-opacity="1"></path><path clip-path="url(#clip950)" d="M2241.92 741.285 L2254.4 741.285 L2254.4 745.082 L2241.92 745.082 L2241.92 741.285 Z" fill="#000000" fill-rule="nonzero" fill-opacity="1"></path><path clip-path="url(#clip950)" d="M2265.81 752.234 L2282.13 752.234 L2282.13 756.17 L2260.18 756.17 L2260.18 752.234 Q2262.85 749.48 2267.43 744.85 Q2272.03 740.197 2273.22 738.855 Q2275.46 736.332 2276.34 734.596 Q2277.24 732.836 2277.24 731.147 Q2277.24 728.392 2275.3 726.656 Q2273.38 724.92 2270.28 724.92 Q2268.08 724.92 2265.62 725.684 Q2263.19 726.448 2260.41 727.998 L2260.41 723.276 Q2263.24 722.142 2265.69 721.563 Q2268.15 720.985 2270.18 720.985 Q2275.55 720.985 2278.75 723.67 Q2281.94 726.355 2281.94 730.846 Q2281.94 732.975 2281.13 734.897 Q2280.34 736.795 2278.24 739.387 Q2277.66 740.059 2274.56 743.276 Q2271.46 746.471 2265.81 752.234 Z" fill="#000000" fill-rule="nonzero" fill-opacity="1"></path><path clip-path="url(#clip950)" d="M2291.94 750.29 L2296.83 750.29 L2296.83 756.17 L2291.94 756.17 L2291.94 750.29 Z" fill="#000000" fill-rule="nonzero" fill-opacity="1"></path><path clip-path="url(#clip950)" d="M2317.01 724.688 Q2313.4 724.688 2311.57 728.253 Q2309.77 731.795 2309.77 738.924 Q2309.77 746.031 2311.57 749.596 Q2313.4 753.137 2317.01 753.137 Q2320.65 753.137 2322.45 749.596 Q2324.28 746.031 2324.28 738.924 Q2324.28 731.795 2322.45 728.253 Q2320.65 724.688 2317.01 724.688 M2317.01 720.985 Q2322.82 720.985 2325.88 725.591 Q2328.96 730.174 2328.96 738.924 Q2328.96 747.651 2325.88 752.258 Q2322.82 756.841 2317.01 756.841 Q2311.2 756.841 2308.12 752.258 Q2305.07 747.651 2305.07 738.924 Q2305.07 730.174 2308.12 725.591 Q2311.2 720.985 2317.01 720.985 Z" fill="#000000" fill-rule="nonzero" fill-opacity="1"></path><polyline clip-path="url(#clip950)" style="stroke:#c271d2; stroke-linecap:round; stroke-linejoin:round; stroke-width:4; stroke-opacity:1; fill:none" points="1434.65,790.73 1577.45,790.73 "></polyline>
<path clip-path="url(#clip950)" d="M1625.9 782.084 L1616.53 794.699 L1626.39 808.01 L1621.37 808.01 L1613.82 797.824 L1606.27 808.01 L1601.25 808.01 L1611.32 794.445 L1602.11 782.084 L1607.13 782.084 L1614.01 791.32 L1620.88 782.084 L1625.9 782.084 Z" fill="#000000" fill-rule="nonzero" fill-opacity="1"></path><path clip-path="url(#clip950)" d="M1643.01 776.528 Q1639.4 776.528 1637.57 780.093 Q1635.77 783.635 1635.77 790.764 Q1635.77 797.871 1637.57 801.436 Q1639.4 804.977 1643.01 804.977 Q1646.64 804.977 1648.45 801.436 Q1650.28 797.871 1650.28 790.764 Q1650.28 783.635 1648.45 780.093 Q1646.64 776.528 1643.01 776.528 M1643.01 772.825 Q1648.82 772.825 1651.88 777.431 Q1654.95 782.014 1654.95 790.764 Q1654.95 799.491 1651.88 804.098 Q1648.82 808.681 1643.01 808.681 Q1637.2 808.681 1634.12 804.098 Q1631.07 799.491 1631.07 790.764 Q1631.07 782.014 1634.12 777.431 Q1637.2 772.825 1643.01 772.825 Z" fill="#000000" fill-rule="nonzero" fill-opacity="1"></path><path clip-path="url(#clip950)" d="M1663.13 786.482 L1692.8 786.482 L1692.8 790.371 L1663.13 790.371 L1663.13 786.482 M1663.13 795.926 L1692.8 795.926 L1692.8 799.861 L1663.13 799.861 L1663.13 795.926 Z" fill="#000000" fill-rule="nonzero" fill-opacity="1"></path><path clip-path="url(#clip950)" d="M1703.7 804.074 L1711.34 804.074 L1711.34 777.709 L1703.03 779.375 L1703.03 775.116 L1711.3 773.45 L1715.97 773.45 L1715.97 804.074 L1723.61 804.074 L1723.61 808.01 L1703.7 808.01 L1703.7 804.074 Z" fill="#000000" fill-rule="nonzero" fill-opacity="1"></path><path clip-path="url(#clip950)" d="M1733.06 802.13 L1737.94 802.13 L1737.94 808.01 L1733.06 808.01 L1733.06 802.13 Z" fill="#000000" fill-rule="nonzero" fill-opacity="1"></path><path clip-path="url(#clip950)" d="M1758.13 776.528 Q1754.51 776.528 1752.69 780.093 Q1750.88 783.635 1750.88 790.764 Q1750.88 797.871 1752.69 801.436 Q1754.51 804.977 1758.13 804.977 Q1761.76 804.977 1763.57 801.436 Q1765.39 797.871 1765.39 790.764 Q1765.39 783.635 1763.57 780.093 Q1761.76 776.528 1758.13 776.528 M1758.13 772.825 Q1763.94 772.825 1766.99 777.431 Q1770.07 782.014 1770.07 790.764 Q1770.07 799.491 1766.99 804.098 Q1763.94 808.681 1758.13 808.681 Q1752.32 808.681 1749.24 804.098 Q1746.18 799.491 1746.18 790.764 Q1746.18 782.014 1749.24 777.431 Q1752.32 772.825 1758.13 772.825 Z" fill="#000000" fill-rule="nonzero" fill-opacity="1"></path><path clip-path="url(#clip950)" d="M1807.78 786.065 Q1807.06 785.649 1806.2 785.463 Q1805.37 785.255 1804.35 785.255 Q1800.74 785.255 1798.8 787.616 Q1796.88 789.954 1796.88 794.352 L1796.88 808.01 L1792.59 808.01 L1792.59 782.084 L1796.88 782.084 L1796.88 786.112 Q1798.22 783.75 1800.37 782.616 Q1802.52 781.459 1805.6 781.459 Q1806.04 781.459 1806.57 781.528 Q1807.11 781.575 1807.75 781.69 L1807.78 786.065 Z" fill="#000000" fill-rule="nonzero" fill-opacity="1"></path><path clip-path="url(#clip950)" d="M1812.8 786.482 L1842.48 786.482 L1842.48 790.371 L1812.8 790.371 L1812.8 786.482 M1812.8 795.926 L1842.48 795.926 L1842.48 799.861 L1812.8 799.861 L1812.8 795.926 Z" fill="#000000" fill-rule="nonzero" fill-opacity="1"></path><path clip-path="url(#clip950)" d="M1849.81 793.125 L1862.29 793.125 L1862.29 796.922 L1849.81 796.922 L1849.81 793.125 Z" fill="#000000" fill-rule="nonzero" fill-opacity="1"></path><path clip-path="url(#clip950)" d="M1870.49 804.074 L1878.12 804.074 L1878.12 777.709 L1869.81 779.375 L1869.81 775.116 L1878.08 773.45 L1882.75 773.45 L1882.75 804.074 L1890.39 804.074 L1890.39 808.01 L1870.49 808.01 L1870.49 804.074 Z" fill="#000000" fill-rule="nonzero" fill-opacity="1"></path><path clip-path="url(#clip950)" d="M1899.84 802.13 L1904.72 802.13 L1904.72 808.01 L1899.84 808.01 L1899.84 802.13 Z" fill="#000000" fill-rule="nonzero" fill-opacity="1"></path><path clip-path="url(#clip950)" d="M1924.91 776.528 Q1921.3 776.528 1919.47 780.093 Q1917.66 783.635 1917.66 790.764 Q1917.66 797.871 1919.47 801.436 Q1921.3 804.977 1924.91 804.977 Q1928.54 804.977 1930.35 801.436 Q1932.18 797.871 1932.18 790.764 Q1932.18 783.635 1930.35 780.093 Q1928.54 776.528 1924.91 776.528 M1924.91 772.825 Q1930.72 772.825 1933.77 777.431 Q1936.85 782.014 1936.85 790.764 Q1936.85 799.491 1933.77 804.098 Q1930.72 808.681 1924.91 808.681 Q1919.1 808.681 1916.02 804.098 Q1912.96 799.491 1912.96 790.764 Q1912.96 782.014 1916.02 777.431 Q1919.1 772.825 1924.91 772.825 Z" fill="#000000" fill-rule="nonzero" fill-opacity="1"></path><polyline clip-path="url(#clip950)" style="stroke:#ac8d18; stroke-linecap:round; stroke-linejoin:round; stroke-width:4; stroke-opacity:1; fill:none" points="1434.65,842.57 1577.45,842.57 "></polyline>
<path clip-path="url(#clip950)" d="M1625.9 833.924 L1616.53 846.539 L1626.39 859.85 L1621.37 859.85 L1613.82 849.664 L1606.27 859.85 L1601.25 859.85 L1611.32 846.285 L1602.11 833.924 L1607.13 833.924 L1614.01 843.16 L1620.88 833.924 L1625.9 833.924 Z" fill="#000000" fill-rule="nonzero" fill-opacity="1"></path><path clip-path="url(#clip950)" d="M1643.01 828.368 Q1639.4 828.368 1637.57 831.933 Q1635.77 835.475 1635.77 842.604 Q1635.77 849.711 1637.57 853.276 Q1639.4 856.817 1643.01 856.817 Q1646.64 856.817 1648.45 853.276 Q1650.28 849.711 1650.28 842.604 Q1650.28 835.475 1648.45 831.933 Q1646.64 828.368 1643.01 828.368 M1643.01 824.665 Q1648.82 824.665 1651.88 829.271 Q1654.95 833.854 1654.95 842.604 Q1654.95 851.331 1651.88 855.938 Q1648.82 860.521 1643.01 860.521 Q1637.2 860.521 1634.12 855.938 Q1631.07 851.331 1631.07 842.604 Q1631.07 833.854 1634.12 829.271 Q1637.2 824.665 1643.01 824.665 Z" fill="#000000" fill-rule="nonzero" fill-opacity="1"></path><path clip-path="url(#clip950)" d="M1663.13 838.322 L1692.8 838.322 L1692.8 842.211 L1663.13 842.211 L1663.13 838.322 M1663.13 847.766 L1692.8 847.766 L1692.8 851.701 L1663.13 851.701 L1663.13 847.766 Z" fill="#000000" fill-rule="nonzero" fill-opacity="1"></path><path clip-path="url(#clip950)" d="M1700.14 844.965 L1712.62 844.965 L1712.62 848.762 L1700.14 848.762 L1700.14 844.965 Z" fill="#000000" fill-rule="nonzero" fill-opacity="1"></path><path clip-path="url(#clip950)" d="M1720.81 855.914 L1728.45 855.914 L1728.45 829.549 L1720.14 831.215 L1720.14 826.956 L1728.4 825.29 L1733.08 825.29 L1733.08 855.914 L1740.72 855.914 L1740.72 859.85 L1720.81 859.85 L1720.81 855.914 Z" fill="#000000" fill-rule="nonzero" fill-opacity="1"></path><path clip-path="url(#clip950)" d="M1750.16 853.97 L1755.05 853.97 L1755.05 859.85 L1750.16 859.85 L1750.16 853.97 Z" fill="#000000" fill-rule="nonzero" fill-opacity="1"></path><path clip-path="url(#clip950)" d="M1775.23 828.368 Q1771.62 828.368 1769.79 831.933 Q1767.99 835.475 1767.99 842.604 Q1767.99 849.711 1769.79 853.276 Q1771.62 856.817 1775.23 856.817 Q1778.87 856.817 1780.67 853.276 Q1782.5 849.711 1782.5 842.604 Q1782.5 835.475 1780.67 831.933 Q1778.87 828.368 1775.23 828.368 M1775.23 824.665 Q1781.04 824.665 1784.1 829.271 Q1787.18 833.854 1787.18 842.604 Q1787.18 851.331 1784.1 855.938 Q1781.04 860.521 1775.23 860.521 Q1769.42 860.521 1766.34 855.938 Q1763.29 851.331 1763.29 842.604 Q1763.29 833.854 1766.34 829.271 Q1769.42 824.665 1775.23 824.665 Z" fill="#000000" fill-rule="nonzero" fill-opacity="1"></path><path clip-path="url(#clip950)" d="M1824.88 837.905 Q1824.17 837.489 1823.31 837.303 Q1822.48 837.095 1821.46 837.095 Q1817.85 837.095 1815.9 839.456 Q1813.98 841.794 1813.98 846.192 L1813.98 859.85 L1809.7 859.85 L1809.7 833.924 L1813.98 833.924 L1813.98 837.952 Q1815.32 835.59 1817.48 834.456 Q1819.63 833.299 1822.71 833.299 Q1823.15 833.299 1823.68 833.368 Q1824.21 833.415 1824.86 833.53 L1824.88 837.905 Z" fill="#000000" fill-rule="nonzero" fill-opacity="1"></path><path clip-path="url(#clip950)" d="M1829.91 838.322 L1859.58 838.322 L1859.58 842.211 L1829.91 842.211 L1829.91 838.322 M1829.91 847.766 L1859.58 847.766 L1859.58 851.701 L1829.91 851.701 L1829.91 847.766 Z" fill="#000000" fill-rule="nonzero" fill-opacity="1"></path><path clip-path="url(#clip950)" d="M1866.92 844.965 L1879.4 844.965 L1879.4 848.762 L1866.92 848.762 L1866.92 844.965 Z" fill="#000000" fill-rule="nonzero" fill-opacity="1"></path><path clip-path="url(#clip950)" d="M1887.59 855.914 L1895.23 855.914 L1895.23 829.549 L1886.92 831.215 L1886.92 826.956 L1895.18 825.29 L1899.86 825.29 L1899.86 855.914 L1907.5 855.914 L1907.5 859.85 L1887.59 859.85 L1887.59 855.914 Z" fill="#000000" fill-rule="nonzero" fill-opacity="1"></path><path clip-path="url(#clip950)" d="M1916.94 853.97 L1921.83 853.97 L1921.83 859.85 L1916.94 859.85 L1916.94 853.97 Z" fill="#000000" fill-rule="nonzero" fill-opacity="1"></path><path clip-path="url(#clip950)" d="M1942.01 828.368 Q1938.4 828.368 1936.57 831.933 Q1934.77 835.475 1934.77 842.604 Q1934.77 849.711 1936.57 853.276 Q1938.4 856.817 1942.01 856.817 Q1945.65 856.817 1947.45 853.276 Q1949.28 849.711 1949.28 842.604 Q1949.28 835.475 1947.45 831.933 Q1945.65 828.368 1942.01 828.368 M1942.01 824.665 Q1947.82 824.665 1950.88 829.271 Q1953.96 833.854 1953.96 842.604 Q1953.96 851.331 1950.88 855.938 Q1947.82 860.521 1942.01 860.521 Q1936.2 860.521 1933.12 855.938 Q1930.07 851.331 1930.07 842.604 Q1930.07 833.854 1933.12 829.271 Q1936.2 824.665 1942.01 824.665 Z" fill="#000000" fill-rule="nonzero" fill-opacity="1"></path><polyline clip-path="url(#clip950)" style="stroke:#00a9ad; stroke-linecap:round; stroke-linejoin:round; stroke-width:4; stroke-opacity:1; fill:none" points="1434.65,894.41 1577.45,894.41 "></polyline>
<path clip-path="url(#clip950)" d="M1625.9 885.764 L1616.53 898.379 L1626.39 911.69 L1621.37 911.69 L1613.82 901.504 L1606.27 911.69 L1601.25 911.69 L1611.32 898.125 L1602.11 885.764 L1607.13 885.764 L1614.01 895 L1620.88 885.764 L1625.9 885.764 Z" fill="#000000" fill-rule="nonzero" fill-opacity="1"></path><path clip-path="url(#clip950)" d="M1643.01 880.208 Q1639.4 880.208 1637.57 883.773 Q1635.77 887.315 1635.77 894.444 Q1635.77 901.551 1637.57 905.116 Q1639.4 908.657 1643.01 908.657 Q1646.64 908.657 1648.45 905.116 Q1650.28 901.551 1650.28 894.444 Q1650.28 887.315 1648.45 883.773 Q1646.64 880.208 1643.01 880.208 M1643.01 876.505 Q1648.82 876.505 1651.88 881.111 Q1654.95 885.694 1654.95 894.444 Q1654.95 903.171 1651.88 907.778 Q1648.82 912.361 1643.01 912.361 Q1637.2 912.361 1634.12 907.778 Q1631.07 903.171 1631.07 894.444 Q1631.07 885.694 1634.12 881.111 Q1637.2 876.505 1643.01 876.505 Z" fill="#000000" fill-rule="nonzero" fill-opacity="1"></path><path clip-path="url(#clip950)" d="M1663.13 890.162 L1692.8 890.162 L1692.8 894.051 L1663.13 894.051 L1663.13 890.162 M1663.13 899.606 L1692.8 899.606 L1692.8 903.541 L1663.13 903.541 L1663.13 899.606 Z" fill="#000000" fill-rule="nonzero" fill-opacity="1"></path><path clip-path="url(#clip950)" d="M1712.89 880.208 Q1709.28 880.208 1707.45 883.773 Q1705.65 887.315 1705.65 894.444 Q1705.65 901.551 1707.45 905.116 Q1709.28 908.657 1712.89 908.657 Q1716.53 908.657 1718.33 905.116 Q1720.16 901.551 1720.16 894.444 Q1720.16 887.315 1718.33 883.773 Q1716.53 880.208 1712.89 880.208 M1712.89 876.505 Q1718.7 876.505 1721.76 881.111 Q1724.84 885.694 1724.84 894.444 Q1724.84 903.171 1721.76 907.778 Q1718.7 912.361 1712.89 912.361 Q1707.08 912.361 1704.01 907.778 Q1700.95 903.171 1700.95 894.444 Q1700.95 885.694 1704.01 881.111 Q1707.08 876.505 1712.89 876.505 Z" fill="#000000" fill-rule="nonzero" fill-opacity="1"></path><path clip-path="url(#clip950)" d="M1733.06 905.81 L1737.94 905.81 L1737.94 911.69 L1733.06 911.69 L1733.06 905.81 Z" fill="#000000" fill-rule="nonzero" fill-opacity="1"></path><path clip-path="url(#clip950)" d="M1746.95 877.13 L1769.17 877.13 L1769.17 879.12 L1756.62 911.69 L1751.74 911.69 L1763.54 881.065 L1746.95 881.065 L1746.95 877.13 Z" fill="#000000" fill-rule="nonzero" fill-opacity="1"></path><path clip-path="url(#clip950)" d="M1778.33 877.13 L1796.69 877.13 L1796.69 881.065 L1782.62 881.065 L1782.62 889.537 Q1783.63 889.19 1784.65 889.028 Q1785.67 888.842 1786.69 888.842 Q1792.48 888.842 1795.86 892.014 Q1799.24 895.185 1799.24 900.602 Q1799.24 906.18 1795.76 909.282 Q1792.29 912.361 1785.97 912.361 Q1783.8 912.361 1781.53 911.99 Q1779.28 911.62 1776.88 910.879 L1776.88 906.18 Q1778.96 907.315 1781.18 907.87 Q1783.4 908.426 1785.88 908.426 Q1789.88 908.426 1792.22 906.319 Q1794.56 904.213 1794.56 900.602 Q1794.56 896.991 1792.22 894.884 Q1789.88 892.778 1785.88 892.778 Q1784.01 892.778 1782.13 893.194 Q1780.28 893.611 1778.33 894.491 L1778.33 877.13 Z" fill="#000000" fill-rule="nonzero" fill-opacity="1"></path><path clip-path="url(#clip950)" d="M1837.94 889.745 Q1837.22 889.329 1836.37 889.143 Q1835.53 888.935 1834.51 888.935 Q1830.9 888.935 1828.96 891.296 Q1827.04 893.634 1827.04 898.032 L1827.04 911.69 L1822.75 911.69 L1822.75 885.764 L1827.04 885.764 L1827.04 889.792 Q1828.38 887.43 1830.53 886.296 Q1832.69 885.139 1835.76 885.139 Q1836.2 885.139 1836.74 885.208 Q1837.27 885.255 1837.92 885.37 L1837.94 889.745 Z" fill="#000000" fill-rule="nonzero" fill-opacity="1"></path><path clip-path="url(#clip950)" d="M1842.96 890.162 L1872.64 890.162 L1872.64 894.051 L1842.96 894.051 L1842.96 890.162 M1842.96 899.606 L1872.64 899.606 L1872.64 903.541 L1842.96 903.541 L1842.96 899.606 Z" fill="#000000" fill-rule="nonzero" fill-opacity="1"></path><path clip-path="url(#clip950)" d="M1879.98 896.805 L1892.45 896.805 L1892.45 900.602 L1879.98 900.602 L1879.98 896.805 Z" fill="#000000" fill-rule="nonzero" fill-opacity="1"></path><path clip-path="url(#clip950)" d="M1900.65 907.754 L1908.29 907.754 L1908.29 881.389 L1899.98 883.055 L1899.98 878.796 L1908.24 877.13 L1912.92 877.13 L1912.92 907.754 L1920.56 907.754 L1920.56 911.69 L1900.65 911.69 L1900.65 907.754 Z" fill="#000000" fill-rule="nonzero" fill-opacity="1"></path><path clip-path="url(#clip950)" d="M1930 905.81 L1934.88 905.81 L1934.88 911.69 L1930 911.69 L1930 905.81 Z" fill="#000000" fill-rule="nonzero" fill-opacity="1"></path><path clip-path="url(#clip950)" d="M1955.07 880.208 Q1951.46 880.208 1949.63 883.773 Q1947.82 887.315 1947.82 894.444 Q1947.82 901.551 1949.63 905.116 Q1951.46 908.657 1955.07 908.657 Q1958.7 908.657 1960.51 905.116 Q1962.34 901.551 1962.34 894.444 Q1962.34 887.315 1960.51 883.773 Q1958.7 880.208 1955.07 880.208 M1955.07 876.505 Q1960.88 876.505 1963.93 881.111 Q1967.01 885.694 1967.01 894.444 Q1967.01 903.171 1963.93 907.778 Q1960.88 912.361 1955.07 912.361 Q1949.26 912.361 1946.18 907.778 Q1943.12 903.171 1943.12 894.444 Q1943.12 885.694 1946.18 881.111 Q1949.26 876.505 1955.07 876.505 Z" fill="#000000" fill-rule="nonzero" fill-opacity="1"></path><polyline clip-path="url(#clip950)" style="stroke:#ed5d92; stroke-linecap:round; stroke-linejoin:round; stroke-width:4; stroke-opacity:1; fill:none" points="1434.65,946.25 1577.45,946.25 "></polyline>
<path clip-path="url(#clip950)" d="M1625.9 937.604 L1616.53 950.219 L1626.39 963.53 L1621.37 963.53 L1613.82 953.344 L1606.27 963.53 L1601.25 963.53 L1611.32 949.965 L1602.11 937.604 L1607.13 937.604 L1614.01 946.84 L1620.88 937.604 L1625.9 937.604 Z" fill="#000000" fill-rule="nonzero" fill-opacity="1"></path><path clip-path="url(#clip950)" d="M1643.01 932.048 Q1639.4 932.048 1637.57 935.613 Q1635.77 939.155 1635.77 946.284 Q1635.77 953.391 1637.57 956.956 Q1639.4 960.497 1643.01 960.497 Q1646.64 960.497 1648.45 956.956 Q1650.28 953.391 1650.28 946.284 Q1650.28 939.155 1648.45 935.613 Q1646.64 932.048 1643.01 932.048 M1643.01 928.345 Q1648.82 928.345 1651.88 932.951 Q1654.95 937.534 1654.95 946.284 Q1654.95 955.011 1651.88 959.618 Q1648.82 964.201 1643.01 964.201 Q1637.2 964.201 1634.12 959.618 Q1631.07 955.011 1631.07 946.284 Q1631.07 937.534 1634.12 932.951 Q1637.2 928.345 1643.01 928.345 Z" fill="#000000" fill-rule="nonzero" fill-opacity="1"></path><path clip-path="url(#clip950)" d="M1663.13 942.002 L1692.8 942.002 L1692.8 945.891 L1663.13 945.891 L1663.13 942.002 M1663.13 951.446 L1692.8 951.446 L1692.8 955.381 L1663.13 955.381 L1663.13 951.446 Z" fill="#000000" fill-rule="nonzero" fill-opacity="1"></path><path clip-path="url(#clip950)" d="M1712.89 932.048 Q1709.28 932.048 1707.45 935.613 Q1705.65 939.155 1705.65 946.284 Q1705.65 953.391 1707.45 956.956 Q1709.28 960.497 1712.89 960.497 Q1716.53 960.497 1718.33 956.956 Q1720.16 953.391 1720.16 946.284 Q1720.16 939.155 1718.33 935.613 Q1716.53 932.048 1712.89 932.048 M1712.89 928.345 Q1718.7 928.345 1721.76 932.951 Q1724.84 937.534 1724.84 946.284 Q1724.84 955.011 1721.76 959.618 Q1718.7 964.201 1712.89 964.201 Q1707.08 964.201 1704.01 959.618 Q1700.95 955.011 1700.95 946.284 Q1700.95 937.534 1704.01 932.951 Q1707.08 928.345 1712.89 928.345 Z" fill="#000000" fill-rule="nonzero" fill-opacity="1"></path><path clip-path="url(#clip950)" d="M1733.06 957.65 L1737.94 957.65 L1737.94 963.53 L1733.06 963.53 L1733.06 957.65 Z" fill="#000000" fill-rule="nonzero" fill-opacity="1"></path><path clip-path="url(#clip950)" d="M1752.15 959.594 L1768.47 959.594 L1768.47 963.53 L1746.53 963.53 L1746.53 959.594 Q1749.19 956.84 1753.77 952.21 Q1758.38 947.557 1759.56 946.215 Q1761.81 943.692 1762.69 941.956 Q1763.59 940.196 1763.59 938.507 Q1763.59 935.752 1761.64 934.016 Q1759.72 932.28 1756.62 932.28 Q1754.42 932.28 1751.97 933.044 Q1749.54 933.808 1746.76 935.358 L1746.76 930.636 Q1749.58 929.502 1752.04 928.923 Q1754.49 928.345 1756.53 928.345 Q1761.9 928.345 1765.09 931.03 Q1768.29 933.715 1768.29 938.206 Q1768.29 940.335 1767.48 942.257 Q1766.69 944.155 1764.58 946.747 Q1764.01 947.419 1760.9 950.636 Q1757.8 953.831 1752.15 959.594 Z" fill="#000000" fill-rule="nonzero" fill-opacity="1"></path><path clip-path="url(#clip950)" d="M1778.33 928.97 L1796.69 928.97 L1796.69 932.905 L1782.62 932.905 L1782.62 941.377 Q1783.63 941.03 1784.65 940.868 Q1785.67 940.682 1786.69 940.682 Q1792.48 940.682 1795.86 943.854 Q1799.24 947.025 1799.24 952.442 Q1799.24 958.02 1795.76 961.122 Q1792.29 964.201 1785.97 964.201 Q1783.8 964.201 1781.53 963.83 Q1779.28 963.46 1776.88 962.719 L1776.88 958.02 Q1778.96 959.155 1781.18 959.71 Q1783.4 960.266 1785.88 960.266 Q1789.88 960.266 1792.22 958.159 Q1794.56 956.053 1794.56 952.442 Q1794.56 948.831 1792.22 946.724 Q1789.88 944.618 1785.88 944.618 Q1784.01 944.618 1782.13 945.034 Q1780.28 945.451 1778.33 946.331 L1778.33 928.97 Z" fill="#000000" fill-rule="nonzero" fill-opacity="1"></path><path clip-path="url(#clip950)" d="M1837.94 941.585 Q1837.22 941.169 1836.37 940.983 Q1835.53 940.775 1834.51 940.775 Q1830.9 940.775 1828.96 943.136 Q1827.04 945.474 1827.04 949.872 L1827.04 963.53 L1822.75 963.53 L1822.75 937.604 L1827.04 937.604 L1827.04 941.632 Q1828.38 939.27 1830.53 938.136 Q1832.69 936.979 1835.76 936.979 Q1836.2 936.979 1836.74 937.048 Q1837.27 937.095 1837.92 937.21 L1837.94 941.585 Z" fill="#000000" fill-rule="nonzero" fill-opacity="1"></path><path clip-path="url(#clip950)" d="M1842.96 942.002 L1872.64 942.002 L1872.64 945.891 L1842.96 945.891 L1842.96 942.002 M1842.96 951.446 L1872.64 951.446 L1872.64 955.381 L1842.96 955.381 L1842.96 951.446 Z" fill="#000000" fill-rule="nonzero" fill-opacity="1"></path><path clip-path="url(#clip950)" d="M1879.98 948.645 L1892.45 948.645 L1892.45 952.442 L1879.98 952.442 L1879.98 948.645 Z" fill="#000000" fill-rule="nonzero" fill-opacity="1"></path><path clip-path="url(#clip950)" d="M1900.65 959.594 L1908.29 959.594 L1908.29 933.229 L1899.98 934.895 L1899.98 930.636 L1908.24 928.97 L1912.92 928.97 L1912.92 959.594 L1920.56 959.594 L1920.56 963.53 L1900.65 963.53 L1900.65 959.594 Z" fill="#000000" fill-rule="nonzero" fill-opacity="1"></path><path clip-path="url(#clip950)" d="M1930 957.65 L1934.88 957.65 L1934.88 963.53 L1930 963.53 L1930 957.65 Z" fill="#000000" fill-rule="nonzero" fill-opacity="1"></path><path clip-path="url(#clip950)" d="M1955.07 932.048 Q1951.46 932.048 1949.63 935.613 Q1947.82 939.155 1947.82 946.284 Q1947.82 953.391 1949.63 956.956 Q1951.46 960.497 1955.07 960.497 Q1958.7 960.497 1960.51 956.956 Q1962.34 953.391 1962.34 946.284 Q1962.34 939.155 1960.51 935.613 Q1958.7 932.048 1955.07 932.048 M1955.07 928.345 Q1960.88 928.345 1963.93 932.951 Q1967.01 937.534 1967.01 946.284 Q1967.01 955.011 1963.93 959.618 Q1960.88 964.201 1955.07 964.201 Q1949.26 964.201 1946.18 959.618 Q1943.12 955.011 1943.12 946.284 Q1943.12 937.534 1946.18 932.951 Q1949.26 928.345 1955.07 928.345 Z" fill="#000000" fill-rule="nonzero" fill-opacity="1"></path></svg>