<svg xmlns="http://www.w3.org/2000/svg" xmlns:xlink="http://www.w3.org/1999/xlink" width="600" height="400" viewBox="0 0 2400 1600">
<defs>
  <clipPath id="clip020">
    <rect x="0" y="0" width="2400" height="1600"></rect>
  </clipPath>
</defs>
<path clip-path="url(#clip020)" d="M0 1600 L2400 1600 L2400 0 L0 0  Z" fill="#ffffff" fill-rule="evenodd" fill-opacity="1"></path>
<defs>
  <clipPath id="clip021">
    <rect x="480" y="0" width="1681" height="1600"></rect>
  </clipPath>
</defs>
<path clip-path="url(#clip020)" d="M210.746 1423.18 L1339.45 1423.18 L1339.45 123.472 L210.746 123.472  Z" fill="#ffffff" fill-rule="evenodd" fill-opacity="1"></path>
<defs>
  <clipPath id="clip022">
    <rect x="210" y="123" width="1130" height="1301"></rect>
  </clipPath>
</defs>
<polyline clip-path="url(#clip022)" style="stroke:#000000; stroke-linecap:round; stroke-linejoin:round; stroke-width:2; stroke-opacity:0.1; fill:none" points="215.387,1423.18 215.387,123.472 "></polyline>
<polyline clip-path="url(#clip022)" style="stroke:#000000; stroke-linecap:round; stroke-linejoin:round; stroke-width:2; stroke-opacity:0.1; fill:none" points="488.417,1423.18 488.417,123.472 "></polyline>
<polyline clip-path="url(#clip022)" style="stroke:#000000; stroke-linecap:round; stroke-linejoin:round; stroke-width:2; stroke-opacity:0.1; fill:none" points="761.447,1423.18 761.447,123.472 "></polyline>
<polyline clip-path="url(#clip022)" style="stroke:#000000; stroke-linecap:round; stroke-linejoin:round; stroke-width:2; stroke-opacity:0.1; fill:none" points="1034.48,1423.18 1034.48,123.472 "></polyline>
<polyline clip-path="url(#clip022)" style="stroke:#000000; stroke-linecap:round; stroke-linejoin:round; stroke-width:2; stroke-opacity:0.1; fill:none" points="1307.51,1423.18 1307.51,123.472 "></polyline>
<polyline clip-path="url(#clip022)" style="stroke:#000000; stroke-linecap:round; stroke-linejoin:round; stroke-width:2; stroke-opacity:0.1; fill:none" points="210.746,1400.34 1339.45,1400.34 "></polyline>
<polyline clip-path="url(#clip022)" style="stroke:#000000; stroke-linecap:round; stroke-linejoin:round; stroke-width:2; stroke-opacity:0.1; fill:none" points="210.746,1090.32 1339.45,1090.32 "></polyline>
<polyline clip-path="url(#clip022)" style="stroke:#000000; stroke-linecap:round; stroke-linejoin:round; stroke-width:2; stroke-opacity:0.1; fill:none" points="210.746,780.3 1339.45,780.3 "></polyline>
<polyline clip-path="url(#clip022)" style="stroke:#000000; stroke-linecap:round; stroke-linejoin:round; stroke-width:2; stroke-opacity:0.1; fill:none" points="210.746,470.278 1339.45,470.278 "></polyline>
<polyline clip-path="url(#clip022)" style="stroke:#000000; stroke-linecap:round; stroke-linejoin:round; stroke-width:2; stroke-opacity:0.1; fill:none" points="210.746,160.256 1339.45,160.256 "></polyline>
<polyline clip-path="url(#clip020)" style="stroke:#000000; stroke-linecap:round; stroke-linejoin:round; stroke-width:4; stroke-opacity:1; fill:none" points="210.746,1423.18 1339.45,1423.18 "></polyline>
<polyline clip-path="url(#clip020)" style="stroke:#000000; stroke-linecap:round; stroke-linejoin:round; stroke-width:4; stroke-opacity:1; fill:none" points="215.387,1423.18 215.387,1404.28 "></polyline>
<polyline clip-path="url(#clip020)" style="stroke:#000000; stroke-linecap:round; stroke-linejoin:round; stroke-width:4; stroke-opacity:1; fill:none" points="488.417,1423.18 488.417,1404.28 "></polyline>
<polyline clip-path="url(#clip020)" style="stroke:#000000; stroke-linecap:round; stroke-linejoin:round; stroke-width:4; stroke-opacity:1; fill:none" points="761.447,1423.18 761.447,1404.28 "></polyline>
<polyline clip-path="url(#clip020)" style="stroke:#000000; stroke-linecap:round; stroke-linejoin:round; stroke-width:4; stroke-opacity:1; fill:none" points="1034.48,1423.18 1034.48,1404.28 "></polyline>
<polyline clip-path="url(#clip020)" style="stroke:#000000; stroke-linecap:round; stroke-linejoin:round; stroke-width:4; stroke-opacity:1; fill:none" points="1307.51,1423.18 1307.51,1404.28 "></polyline>
<path clip-path="url(#clip020)" d="M215.387 1454.1 Q211.776 1454.1 209.948 1457.66 Q208.142 1461.2 208.142 1468.33 Q208.142 1475.44 209.948 1479.01 Q211.776 1482.55 215.387 1482.55 Q219.022 1482.55 220.827 1479.01 Q222.656 1475.44 222.656 1468.33 Q222.656 1461.2 220.827 1457.66 Q219.022 1454.1 215.387 1454.1 M215.387 1450.39 Q221.198 1450.39 224.253 1455 Q227.332 1459.58 227.332 1468.33 Q227.332 1477.06 224.253 1481.67 Q221.198 1486.25 215.387 1486.25 Q209.577 1486.25 206.499 1481.67 Q203.443 1477.06 203.443 1468.33 Q203.443 1459.58 206.499 1455 Q209.577 1450.39 215.387 1450.39 Z" fill="#000000" fill-rule="nonzero" fill-opacity="1"></path><path clip-path="url(#clip020)" d="M463.105 1481.64 L470.743 1481.64 L470.743 1455.28 L462.433 1456.95 L462.433 1452.69 L470.697 1451.02 L475.373 1451.02 L475.373 1481.64 L483.012 1481.64 L483.012 1485.58 L463.105 1485.58 L463.105 1481.64 Z" fill="#000000" fill-rule="nonzero" fill-opacity="1"></path><path clip-path="url(#clip020)" d="M502.456 1454.1 Q498.845 1454.1 497.016 1457.66 Q495.211 1461.2 495.211 1468.33 Q495.211 1475.44 497.016 1479.01 Q498.845 1482.55 502.456 1482.55 Q506.091 1482.55 507.896 1479.01 Q509.725 1475.44 509.725 1468.33 Q509.725 1461.2 507.896 1457.66 Q506.091 1454.1 502.456 1454.1 M502.456 1450.39 Q508.266 1450.39 511.322 1455 Q514.401 1459.58 514.401 1468.33 Q514.401 1477.06 511.322 1481.67 Q508.266 1486.25 502.456 1486.25 Q496.646 1486.25 493.567 1481.67 Q490.512 1477.06 490.512 1468.33 Q490.512 1459.58 493.567 1455 Q496.646 1450.39 502.456 1450.39 Z" fill="#000000" fill-rule="nonzero" fill-opacity="1"></path><path clip-path="url(#clip020)" d="M740.22 1481.64 L756.539 1481.64 L756.539 1485.58 L734.595 1485.58 L734.595 1481.64 Q737.257 1478.89 741.84 1474.26 Q746.447 1469.61 747.627 1468.27 Q749.873 1465.74 750.752 1464.01 Q751.655 1462.25 751.655 1460.56 Q751.655 1457.8 749.711 1456.07 Q747.789 1454.33 744.687 1454.33 Q742.488 1454.33 740.035 1455.09 Q737.604 1455.86 734.826 1457.41 L734.826 1452.69 Q737.65 1451.55 740.104 1450.97 Q742.558 1450.39 744.595 1450.39 Q749.965 1450.39 753.16 1453.08 Q756.354 1455.77 756.354 1460.26 Q756.354 1462.39 755.544 1464.31 Q754.757 1466.2 752.65 1468.8 Q752.072 1469.47 748.97 1472.69 Q745.868 1475.88 740.22 1481.64 Z" fill="#000000" fill-rule="nonzero" fill-opacity="1"></path><path clip-path="url(#clip020)" d="M776.354 1454.1 Q772.743 1454.1 770.914 1457.66 Q769.109 1461.2 769.109 1468.33 Q769.109 1475.44 770.914 1479.01 Q772.743 1482.55 776.354 1482.55 Q779.988 1482.55 781.794 1479.01 Q783.622 1475.44 783.622 1468.33 Q783.622 1461.2 781.794 1457.66 Q779.988 1454.1 776.354 1454.1 M776.354 1450.39 Q782.164 1450.39 785.22 1455 Q788.298 1459.58 788.298 1468.33 Q788.298 1477.06 785.22 1481.67 Q782.164 1486.25 776.354 1486.25 Q770.544 1486.25 767.465 1481.67 Q764.41 1477.06 764.41 1468.33 Q764.41 1459.58 767.465 1455 Q770.544 1450.39 776.354 1450.39 Z" fill="#000000" fill-rule="nonzero" fill-opacity="1"></path><path clip-path="url(#clip020)" d="M1023.32 1466.95 Q1026.68 1467.66 1028.55 1469.93 Q1030.45 1472.2 1030.45 1475.53 Q1030.45 1480.65 1026.93 1483.45 Q1023.41 1486.25 1016.93 1486.25 Q1014.75 1486.25 1012.44 1485.81 Q1010.15 1485.39 1007.69 1484.54 L1007.69 1480.02 Q1009.64 1481.16 1011.95 1481.74 Q1014.27 1482.32 1016.79 1482.32 Q1021.19 1482.32 1023.48 1480.58 Q1025.8 1478.84 1025.8 1475.53 Q1025.8 1472.48 1023.64 1470.77 Q1021.51 1469.03 1017.69 1469.03 L1013.67 1469.03 L1013.67 1465.19 L1017.88 1465.19 Q1021.33 1465.19 1023.16 1463.82 Q1024.99 1462.43 1024.99 1459.84 Q1024.99 1457.18 1023.09 1455.77 Q1021.21 1454.33 1017.69 1454.33 Q1015.77 1454.33 1013.57 1454.75 Q1011.37 1455.16 1008.74 1456.04 L1008.74 1451.88 Q1011.4 1451.14 1013.71 1450.77 Q1016.05 1450.39 1018.11 1450.39 Q1023.43 1450.39 1026.54 1452.83 Q1029.64 1455.23 1029.64 1459.35 Q1029.64 1462.22 1027.99 1464.21 Q1026.35 1466.18 1023.32 1466.95 Z" fill="#000000" fill-rule="nonzero" fill-opacity="1"></path><path clip-path="url(#clip020)" d="M1049.31 1454.1 Q1045.7 1454.1 1043.87 1457.66 Q1042.07 1461.2 1042.07 1468.33 Q1042.07 1475.44 1043.87 1479.01 Q1045.7 1482.55 1049.31 1482.55 Q1052.95 1482.55 1054.75 1479.01 Q1056.58 1475.44 1056.58 1468.33 Q1056.58 1461.2 1054.75 1457.66 Q1052.95 1454.1 1049.31 1454.1 M1049.31 1450.39 Q1055.12 1450.39 1058.18 1455 Q1061.26 1459.58 1061.26 1468.33 Q1061.26 1477.06 1058.18 1481.67 Q1055.12 1486.25 1049.31 1486.25 Q1043.5 1486.25 1040.43 1481.67 Q1037.37 1477.06 1037.37 1468.33 Q1037.37 1459.58 1040.43 1455 Q1043.5 1450.39 1049.31 1450.39 Z" fill="#000000" fill-rule="nonzero" fill-opacity="1"></path><path clip-path="url(#clip020)" d="M1295.68 1455.09 L1283.87 1473.54 L1295.68 1473.54 L1295.68 1455.09 M1294.45 1451.02 L1300.33 1451.02 L1300.33 1473.54 L1305.26 1473.54 L1305.26 1477.43 L1300.33 1477.43 L1300.33 1485.58 L1295.68 1485.58 L1295.68 1477.43 L1280.08 1477.43 L1280.08 1472.92 L1294.45 1451.02 Z" fill="#000000" fill-rule="nonzero" fill-opacity="1"></path><path clip-path="url(#clip020)" d="M1322.99 1454.1 Q1319.38 1454.1 1317.55 1457.66 Q1315.75 1461.2 1315.75 1468.33 Q1315.75 1475.44 1317.55 1479.01 Q1319.38 1482.55 1322.99 1482.55 Q1326.63 1482.55 1328.43 1479.01 Q1330.26 1475.44 1330.26 1468.33 Q1330.26 1461.2 1328.43 1457.66 Q1326.63 1454.1 1322.99 1454.1 M1322.99 1450.39 Q1328.8 1450.39 1331.86 1455 Q1334.94 1459.58 1334.94 1468.33 Q1334.94 1477.06 1331.86 1481.67 Q1328.8 1486.25 1322.99 1486.25 Q1317.18 1486.25 1314.1 1481.67 Q1311.05 1477.06 1311.05 1468.33 Q1311.05 1459.58 1314.1 1455 Q1317.18 1450.39 1322.99 1450.39 Z" fill="#000000" fill-rule="nonzero" fill-opacity="1"></path><path clip-path="url(#clip020)" d="M790.026 1546.53 L790.026 1568.04 L784.169 1568.04 L784.169 1546.72 Q784.169 1541.66 782.196 1539.14 Q780.222 1536.63 776.276 1536.63 Q771.533 1536.63 768.796 1539.65 Q766.059 1542.68 766.059 1547.9 L766.059 1568.04 L760.17 1568.04 L760.17 1532.4 L766.059 1532.4 L766.059 1537.93 Q768.159 1534.72 770.992 1533.13 Q773.857 1531.54 777.581 1531.54 Q783.724 1531.54 786.875 1535.36 Q790.026 1539.14 790.026 1546.53 Z" fill="#000000" fill-rule="nonzero" fill-opacity="1"></path><polyline clip-path="url(#clip020)" style="stroke:#000000; stroke-linecap:round; stroke-linejoin:round; stroke-width:4; stroke-opacity:1; fill:none" points="210.746,1423.18 210.746,123.472 "></polyline>
<polyline clip-path="url(#clip020)" style="stroke:#000000; stroke-linecap:round; stroke-linejoin:round; stroke-width:4; stroke-opacity:1; fill:none" points="210.746,1400.34 220.704,1400.34 "></polyline>
<polyline clip-path="url(#clip020)" style="stroke:#000000; stroke-linecap:round; stroke-linejoin:round; stroke-width:4; stroke-opacity:1; fill:none" points="210.746,1090.32 220.704,1090.32 "></polyline>
<polyline clip-path="url(#clip020)" style="stroke:#000000; stroke-linecap:round; stroke-linejoin:round; stroke-width:4; stroke-opacity:1; fill:none" points="210.746,780.3 220.704,780.3 "></polyline>
<polyline clip-path="url(#clip020)" style="stroke:#000000; stroke-linecap:round; stroke-linejoin:round; stroke-width:4; stroke-opacity:1; fill:none" points="210.746,470.278 220.704,470.278 "></polyline>
<polyline clip-path="url(#clip020)" style="stroke:#000000; stroke-linecap:round; stroke-linejoin:round; stroke-width:4; stroke-opacity:1; fill:none" points="210.746,160.256 220.704,160.256 "></polyline>
<path clip-path="url(#clip020)" d="M114.631 1400.8 L144.306 1400.8 L144.306 1404.73 L114.631 1404.73 L114.631 1400.8 Z" fill="#000000" fill-rule="nonzero" fill-opacity="1"></path><path clip-path="url(#clip020)" d="M158.427 1413.69 L174.746 1413.69 L174.746 1417.62 L152.802 1417.62 L152.802 1413.69 Q155.464 1410.93 160.047 1406.3 Q164.653 1401.65 165.834 1400.31 Q168.079 1397.79 168.959 1396.05 Q169.862 1394.29 169.862 1392.6 Q169.862 1389.85 167.917 1388.11 Q165.996 1386.37 162.894 1386.37 Q160.695 1386.37 158.241 1387.14 Q155.811 1387.9 153.033 1389.45 L153.033 1384.73 Q155.857 1383.6 158.311 1383.02 Q160.765 1382.44 162.802 1382.44 Q168.172 1382.44 171.366 1385.12 Q174.561 1387.81 174.561 1392.3 Q174.561 1394.43 173.751 1396.35 Q172.964 1398.25 170.857 1400.84 Q170.278 1401.51 167.177 1404.73 Q164.075 1407.92 158.427 1413.69 Z" fill="#000000" fill-rule="nonzero" fill-opacity="1"></path><path clip-path="url(#clip020)" d="M114.26 1090.77 L143.936 1090.77 L143.936 1094.71 L114.26 1094.71 L114.26 1090.77 Z" fill="#000000" fill-rule="nonzero" fill-opacity="1"></path><path clip-path="url(#clip020)" d="M154.839 1103.67 L162.477 1103.67 L162.477 1077.3 L154.167 1078.97 L154.167 1074.71 L162.431 1073.04 L167.107 1073.04 L167.107 1103.67 L174.746 1103.67 L174.746 1107.6 L154.839 1107.6 L154.839 1103.67 Z" fill="#000000" fill-rule="nonzero" fill-opacity="1"></path><path clip-path="url(#clip020)" d="M162.802 766.099 Q159.19 766.099 157.362 769.663 Q155.556 773.205 155.556 780.335 Q155.556 787.441 157.362 791.006 Q159.19 794.548 162.802 794.548 Q166.436 794.548 168.241 791.006 Q170.07 787.441 170.07 780.335 Q170.07 773.205 168.241 769.663 Q166.436 766.099 162.802 766.099 M162.802 762.395 Q168.612 762.395 171.667 767.001 Q174.746 771.585 174.746 780.335 Q174.746 789.062 171.667 793.668 Q168.612 798.251 162.802 798.251 Q156.991 798.251 153.913 793.668 Q150.857 789.062 150.857 780.335 Q150.857 771.585 153.913 767.001 Q156.991 762.395 162.802 762.395 Z" fill="#000000" fill-rule="nonzero" fill-opacity="1"></path><path clip-path="url(#clip020)" d="M154.839 483.623 L162.477 483.623 L162.477 457.257 L154.167 458.924 L154.167 454.665 L162.431 452.998 L167.107 452.998 L167.107 483.623 L174.746 483.623 L174.746 487.558 L154.839 487.558 L154.839 483.623 Z" fill="#000000" fill-rule="nonzero" fill-opacity="1"></path><path clip-path="url(#clip020)" d="M158.427 173.601 L174.746 173.601 L174.746 177.536 L152.802 177.536 L152.802 173.601 Q155.464 170.847 160.047 166.217 Q164.653 161.564 165.834 160.222 Q168.079 157.698 168.959 155.962 Q169.862 154.203 169.862 152.513 Q169.862 149.759 167.917 148.023 Q165.996 146.286 162.894 146.286 Q160.695 146.286 158.241 147.05 Q155.811 147.814 153.033 149.365 L153.033 144.643 Q155.857 143.509 158.311 142.93 Q160.765 142.351 162.802 142.351 Q168.172 142.351 171.366 145.036 Q174.561 147.722 174.561 152.212 Q174.561 154.342 173.751 156.263 Q172.964 158.161 170.857 160.754 Q170.278 161.425 167.177 164.643 Q164.075 167.837 158.427 173.601 Z" fill="#000000" fill-rule="nonzero" fill-opacity="1"></path><path clip-path="url(#clip020)" d="M28.3562 775.665 L45.7028 788.556 L64.0042 774.997 L64.0042 781.904 L49.9996 792.28 L64.0042 802.656 L64.0042 809.563 L45.3526 795.717 L28.3562 808.385 L28.3562 801.478 L41.0558 792.025 L28.3562 782.572 L28.3562 775.665 Z" fill="#000000" fill-rule="nonzero" fill-opacity="1"></path><path clip-path="url(#clip020)" d="M42.4881 737.089 L64.0042 737.089 L64.0042 742.946 L42.679 742.946 Q37.6183 742.946 35.1038 744.919 Q32.5894 746.892 32.5894 750.839 Q32.5894 755.582 35.6131 758.319 Q38.6368 761.056 43.8567 761.056 L64.0042 761.056 L64.0042 766.944 L28.3562 766.944 L28.3562 761.056 L33.8944 761.056 Q30.6797 758.955 29.0883 756.123 Q27.4968 753.258 27.4968 749.534 Q27.4968 743.391 31.3163 740.24 Q35.1038 737.089 42.4881 737.089 Z" fill="#000000" fill-rule="nonzero" fill-opacity="1"></path><path clip-path="url(#clip020)" d="M625.032 12.096 L633.215 12.096 L633.215 72.576 L625.032 72.576 L625.032 12.096 Z" fill="#000000" fill-rule="nonzero" fill-opacity="1"></path><path clip-path="url(#clip020)" d="M656.548 14.324 L656.548 27.2059 L671.901 27.2059 L671.901 32.9987 L656.548 32.9987 L656.548 57.6282 Q656.548 63.1779 658.047 64.7578 Q659.587 66.3376 664.245 66.3376 L671.901 66.3376 L671.901 72.576 L664.245 72.576 Q655.617 72.576 652.335 69.3758 Q649.054 66.1351 649.054 57.6282 L649.054 32.9987 L643.585 32.9987 L643.585 27.2059 L649.054 27.2059 L649.054 14.324 L656.548 14.324 Z" fill="#000000" fill-rule="nonzero" fill-opacity="1"></path><path clip-path="url(#clip020)" d="M720.512 48.0275 L720.512 51.6733 L686.241 51.6733 Q686.728 59.3701 690.859 63.421 Q695.032 67.4314 702.445 67.4314 Q706.739 67.4314 710.749 66.3781 Q714.8 65.3249 718.77 63.2184 L718.77 70.267 Q714.76 71.9684 710.547 72.8596 Q706.334 73.7508 701.999 73.7508 Q691.143 73.7508 684.783 67.4314 Q678.464 61.1119 678.464 50.3365 Q678.464 39.1965 684.459 32.6746 Q690.495 26.1121 700.703 26.1121 Q709.858 26.1121 715.165 32.0264 Q720.512 37.9003 720.512 48.0275 M713.058 45.84 Q712.977 39.7232 709.615 36.0774 Q706.293 32.4315 700.784 32.4315 Q694.546 32.4315 690.778 35.9558 Q687.052 39.4801 686.485 45.8805 L713.058 45.84 Z" fill="#000000" fill-rule="nonzero" fill-opacity="1"></path><path clip-path="url(#clip020)" d="M759.036 34.1734 Q757.78 33.4443 756.282 33.1202 Q754.823 32.7556 753.041 32.7556 Q746.721 32.7556 743.319 36.8875 Q739.956 40.9789 739.956 48.6757 L739.956 72.576 L732.462 72.576 L732.462 27.2059 L739.956 27.2059 L739.956 34.2544 Q742.306 30.1225 746.073 28.1376 Q749.841 26.1121 755.228 26.1121 Q755.998 26.1121 756.93 26.2337 Q757.861 26.3147 758.996 26.5172 L759.036 34.1734 Z" fill="#000000" fill-rule="nonzero" fill-opacity="1"></path><path clip-path="url(#clip020)" d="M787.474 49.7694 Q778.44 49.7694 774.956 51.8354 Q771.472 53.9013 771.472 58.8839 Q771.472 62.8538 774.065 65.2034 Q776.698 67.5124 781.195 67.5124 Q787.393 67.5124 791.119 63.1374 Q794.887 58.7219 794.887 51.4303 L794.887 49.7694 L787.474 49.7694 M802.34 46.6907 L802.34 72.576 L794.887 72.576 L794.887 65.6895 Q792.335 69.8214 788.527 71.8063 Q784.719 73.7508 779.21 73.7508 Q772.242 73.7508 768.11 69.8619 Q764.019 65.9325 764.019 59.3701 Q764.019 51.7138 769.123 47.825 Q774.268 43.9361 784.435 43.9361 L794.887 43.9361 L794.887 43.2069 Q794.887 38.0623 791.484 35.2672 Q788.122 32.4315 782.005 32.4315 Q778.116 32.4315 774.43 33.3632 Q770.743 34.295 767.341 36.1584 L767.341 29.2718 Q771.432 27.692 775.28 26.9223 Q779.129 26.1121 782.775 26.1121 Q792.618 26.1121 797.479 31.2163 Q802.34 36.3204 802.34 46.6907 Z" fill="#000000" fill-rule="nonzero" fill-opacity="1"></path><path clip-path="url(#clip020)" d="M850.344 28.9478 L850.344 35.9153 Q847.184 34.1734 843.984 33.3227 Q840.824 32.4315 837.583 32.4315 Q830.332 32.4315 826.322 37.0496 Q822.311 41.6271 822.311 49.9314 Q822.311 58.2358 826.322 62.8538 Q830.332 67.4314 837.583 67.4314 Q840.824 67.4314 843.984 66.5807 Q847.184 65.6895 850.344 63.9476 L850.344 70.8341 Q847.224 72.2924 843.862 73.0216 Q840.54 73.7508 836.773 73.7508 Q826.524 73.7508 820.488 67.3098 Q814.453 60.8689 814.453 49.9314 Q814.453 38.832 820.529 32.472 Q826.646 26.1121 837.259 26.1121 Q840.702 26.1121 843.984 26.8413 Q847.265 27.5299 850.344 28.9478 Z" fill="#000000" fill-rule="nonzero" fill-opacity="1"></path><path clip-path="url(#clip020)" d="M863.306 27.2059 L870.76 27.2059 L870.76 73.3862 Q870.76 82.0551 867.438 85.944 Q864.157 89.8329 856.825 89.8329 L853.989 89.8329 L853.989 83.5134 L855.974 83.5134 Q860.228 83.5134 861.767 81.5285 Q863.306 79.5841 863.306 73.3862 L863.306 27.2059 M863.306 9.54393 L870.76 9.54393 L870.76 18.9825 L863.306 18.9825 L863.306 9.54393 Z" fill="#000000" fill-rule="nonzero" fill-opacity="1"></path><path clip-path="url(#clip020)" d="M925.164 48.0275 L925.164 51.6733 L890.893 51.6733 Q891.379 59.3701 895.511 63.421 Q899.684 67.4314 907.097 67.4314 Q911.391 67.4314 915.401 66.3781 Q919.452 65.3249 923.422 63.2184 L923.422 70.267 Q919.412 71.9684 915.199 72.8596 Q910.986 73.7508 906.651 73.7508 Q895.795 73.7508 889.435 67.4314 Q883.115 61.1119 883.115 50.3365 Q883.115 39.1965 889.111 32.6746 Q895.147 26.1121 905.355 26.1121 Q914.51 26.1121 919.817 32.0264 Q925.164 37.9003 925.164 48.0275 M917.71 45.84 Q917.629 39.7232 914.267 36.0774 Q910.945 32.4315 905.436 32.4315 Q899.197 32.4315 895.43 35.9558 Q891.703 39.4801 891.136 45.8805 L917.71 45.84 Z" fill="#000000" fill-rule="nonzero" fill-opacity="1"></path><polyline clip-path="url(#clip022)" style="stroke:#009af9; stroke-linecap:round; stroke-linejoin:round; stroke-width:4; stroke-opacity:1; fill:none" points="242.69,470.278 269.993,1090.32 297.296,1090.32 324.599,1090.32 351.902,1090.32 379.205,1090.32 406.508,1090.32 433.811,1090.32 461.114,1090.32 488.417,1090.32 515.72,1090.32 543.023,1090.32 570.326,1090.32 597.629,1090.32 624.932,1090.32 652.235,1090.32 679.538,1090.32 706.841,1090.32 734.144,1090.32 761.447,1090.32 788.75,1090.32 816.052,1090.32 843.355,1090.32 870.658,1090.32 897.961,1090.32 925.264,1090.32 952.567,1090.32 979.87,1090.32 1007.17,1090.32 1034.48,1090.32 1061.78,1090.32 1089.08,1090.32 1116.38,1090.32 1143.69,1090.32 1170.99,1090.32 1198.29,1090.32 1225.6,1090.32 1252.9,1090.32 1280.2,1090.32 1307.51,1090.32 "></polyline>
<polyline clip-path="url(#clip022)" style="stroke:#e26f46; stroke-linecap:round; stroke-linejoin:round; stroke-width:4; stroke-opacity:1; fill:none" points="242.69,160.256 269.993,160.256 297.296,160.256 324.599,160.256 351.902,160.256 379.205,160.256 406.508,160.256 433.811,160.256 461.114,160.256 488.417,160.256 515.72,160.256 543.023,160.256 570.326,160.256 597.629,160.256 624.932,160.256 652.235,160.256 679.538,160.256 706.841,160.256 734.144,160.256 761.447,160.256 788.75,160.256 816.052,160.256 843.355,160.256 870.658,160.256 897.961,160.256 925.264,160.256 952.567,160.256 979.87,160.256 1007.17,160.256 1034.48,160.256 1061.78,160.256 1089.08,160.256 1116.38,160.256 1143.69,160.256 1170.99,160.256 1198.29,160.256 1225.6,160.256 1252.9,160.256 1280.2,160.256 1307.51,160.256 "></polyline>
<polyline clip-path="url(#clip022)" style="stroke:#3da44d; stroke-linecap:round; stroke-linejoin:round; stroke-width:4; stroke-opacity:1; fill:none" points="242.69,160.256 269.993,160.256 297.296,160.256 324.599,160.256 351.902,160.256 379.205,160.256 406.508,160.256 433.811,160.256 461.114,160.256 488.417,160.256 515.72,160.256 543.023,160.256 570.326,160.256 597.629,160.257 624.932,160.257 652.235,160.26 679.538,160.27 706.841,160.31 734.144,160.469 761.447,161.108 788.75,163.659 816.052,173.83 843.355,213.959 870.658,365.764 897.961,846.059 925.264,1386.4 952.567,215.421 979.87,371.099 1007.17,860.235 1034.48,1379.73 1061.78,241.327 1089.08,463.339 1116.38,1076.29 1143.69,1117.75 1170.99,1033.03 1198.29,1194.32 1225.6,847.444 1252.9,1385.8 1280.2,217.742 1307.51,379.541 "></polyline>
<path clip-path="url(#clip020)" d="M1410.85 894.41 L2352.76 894.41 L2352.76 687.05 L1410.85 687.05  Z" fill="#ffffff" fill-rule="evenodd" fill-opacity="1"></path>
<polyline clip-path="url(#clip020)" style="stroke:#000000; stroke-linecap:round; stroke-linejoin:round; stroke-width:4; stroke-opacity:1; fill:none" points="1410.85,894.41 2352.76,894.41 2352.76,687.05 1410.85,687.05 1410.85,894.41 "></polyline>
<polyline clip-path="url(#clip020)" style="stroke:#009af9; stroke-linecap:round; stroke-linejoin:round; stroke-width:4; stroke-opacity:1; fill:none" points="1434.65,738.89 1577.45,738.89 "></polyline>
<path clip-path="url(#clip020)" d="M1625.9 730.244 L1616.53 742.859 L1626.39 756.17 L1621.37 756.17 L1613.82 745.984 L1606.27 756.17 L1601.25 756.17 L1611.32 742.605 L1602.11 730.244 L1607.13 730.244 L1614.01 739.48 L1620.88 730.244 L1625.9 730.244 Z" fill="#000000" fill-rule="nonzero" fill-opacity="1"></path><path clip-path="url(#clip020)" d="M1643.01 724.688 Q1639.4 724.688 1637.57 728.253 Q1635.77 731.795 1635.77 738.924 Q1635.77 746.031 1637.57 749.596 Q1639.4 753.137 1643.01 753.137 Q1646.64 753.137 1648.45 749.596 Q1650.28 746.031 1650.28 738.924 Q1650.28 731.795 1648.45 728.253 Q1646.64 724.688 1643.01 724.688 M1643.01 720.985 Q1648.82 720.985 1651.88 725.591 Q1654.95 730.174 1654.95 738.924 Q1654.95 747.651 1651.88 752.258 Q1648.82 756.841 1643.01 756.841 Q1637.2 756.841 1634.12 752.258 Q1631.07 747.651 1631.07 738.924 Q1631.07 730.174 1634.12 725.591 Q1637.2 720.985 1643.01 720.985 Z" fill="#000000" fill-rule="nonzero" fill-opacity="1"></path><path clip-path="url(#clip020)" d="M1663.13 734.642 L1692.8 734.642 L1692.8 738.531 L1663.13 738.531 L1663.13 734.642 M1663.13 744.086 L1692.8 744.086 L1692.8 748.021 L1663.13 748.021 L1663.13 744.086 Z" fill="#000000" fill-rule="nonzero" fill-opacity="1"></path><path clip-path="url(#clip020)" d="M1703.7 752.234 L1711.34 752.234 L1711.34 725.869 L1703.03 727.535 L1703.03 723.276 L1711.3 721.61 L1715.97 721.61 L1715.97 752.234 L1723.61 752.234 L1723.61 756.17 L1703.7 756.17 L1703.7 752.234 Z" fill="#000000" fill-rule="nonzero" fill-opacity="1"></path><path clip-path="url(#clip020)" d="M1733.06 750.29 L1737.94 750.29 L1737.94 756.17 L1733.06 756.17 L1733.06 750.29 Z" fill="#000000" fill-rule="nonzero" fill-opacity="1"></path><path clip-path="url(#clip020)" d="M1758.13 724.688 Q1754.51 724.688 1752.69 728.253 Q1750.88 731.795 1750.88 738.924 Q1750.88 746.031 1752.69 749.596 Q1754.51 753.137 1758.13 753.137 Q1761.76 753.137 1763.57 749.596 Q1765.39 746.031 1765.39 738.924 Q1765.39 731.795 1763.57 728.253 Q1761.76 724.688 1758.13 724.688 M1758.13 720.985 Q1763.94 720.985 1766.99 725.591 Q1770.07 730.174 1770.07 738.924 Q1770.07 747.651 1766.99 752.258 Q1763.94 756.841 1758.13 756.841 Q1752.32 756.841 1749.24 752.258 Q1746.18 747.651 1746.18 738.924 Q1746.18 730.174 1749.24 725.591 Q1752.32 720.985 1758.13 720.985 Z" fill="#000000" fill-rule="nonzero" fill-opacity="1"></path><path clip-path="url(#clip020)" d="M1807.78 734.225 Q1807.06 733.809 1806.2 733.623 Q1805.37 733.415 1804.35 733.415 Q1800.74 733.415 1798.8 735.776 Q1796.88 738.114 1796.88 742.512 L1796.88 756.17 L1792.59 756.17 L1792.59 730.244 L1796.88 730.244 L1796.88 734.272 Q1798.22 731.91 1800.37 730.776 Q1802.52 729.619 1805.6 729.619 Q1806.04 729.619 1806.57 729.688 Q1807.11 729.735 1807.75 729.85 L1807.78 734.225 Z" fill="#000000" fill-rule="nonzero" fill-opacity="1"></path><path clip-path="url(#clip020)" d="M1812.8 734.642 L1842.48 734.642 L1842.48 738.531 L1812.8 738.531 L1812.8 734.642 M1812.8 744.086 L1842.48 744.086 L1842.48 748.021 L1812.8 748.021 L1812.8 744.086 Z" fill="#000000" fill-rule="nonzero" fill-opacity="1"></path><path clip-path="url(#clip020)" d="M1849.81 741.285 L1862.29 741.285 L1862.29 745.082 L1849.81 745.082 L1849.81 741.285 Z" fill="#000000" fill-rule="nonzero" fill-opacity="1"></path><path clip-path="url(#clip020)" d="M1873.7 752.234 L1890.02 752.234 L1890.02 756.17 L1868.08 756.17 L1868.08 752.234 Q1870.74 749.48 1875.32 744.85 Q1879.93 740.197 1881.11 738.855 Q1883.36 736.332 1884.24 734.596 Q1885.14 732.836 1885.14 731.147 Q1885.14 728.392 1883.19 726.656 Q1881.27 724.92 1878.17 724.92 Q1875.97 724.92 1873.52 725.684 Q1871.09 726.448 1868.31 727.998 L1868.31 723.276 Q1871.13 722.142 1873.59 721.563 Q1876.04 720.985 1878.08 720.985 Q1883.45 720.985 1886.64 723.67 Q1889.84 726.355 1889.84 730.846 Q1889.84 732.975 1889.03 734.897 Q1888.24 736.795 1886.13 739.387 Q1885.56 740.059 1882.45 743.276 Q1879.35 746.471 1873.7 752.234 Z" fill="#000000" fill-rule="nonzero" fill-opacity="1"></path><path clip-path="url(#clip020)" d="M1899.84 750.29 L1904.72 750.29 L1904.72 756.17 L1899.84 756.17 L1899.84 750.29 Z" fill="#000000" fill-rule="nonzero" fill-opacity="1"></path><path clip-path="url(#clip020)" d="M1924.91 724.688 Q1921.3 724.688 1919.47 728.253 Q1917.66 731.795 1917.66 738.924 Q1917.66 746.031 1919.47 749.596 Q1921.3 753.137 1924.91 753.137 Q1928.54 753.137 1930.35 749.596 Q1932.18 746.031 1932.18 738.924 Q1932.18 731.795 1930.35 728.253 Q1928.54 724.688 1924.91 724.688 M1924.91 720.985 Q1930.72 720.985 1933.77 725.591 Q1936.85 730.174 1936.85 738.924 Q1936.85 747.651 1933.77 752.258 Q1930.72 756.841 1924.91 756.841 Q1919.1 756.841 1916.02 752.258 Q1912.96 747.651 1912.96 738.924 Q1912.96 730.174 1916.02 725.591 Q1919.1 720.985 1924.91 720.985 Z" fill="#000000" fill-rule="nonzero" fill-opacity="1"></path><polyline clip-path="url(#clip020)" style="stroke:#e26f46; stroke-linecap:round; stroke-linejoin:round; stroke-width:4; stroke-opacity:1; fill:none" points="1434.65,790.73 1577.45,790.73 "></polyline>
<path clip-path="url(#clip020)" d="M1625.9 782.084 L1616.53 794.699 L1626.39 808.01 L1621.37 808.01 L1613.82 797.824 L1606.27 808.01 L1601.25 808.01 L1611.32 794.445 L1602.11 782.084 L1607.13 782.084 L1614.01 791.32 L1620.88 782.084 L1625.9 782.084 Z" fill="#000000" fill-rule="nonzero" fill-opacity="1"></path><path clip-path="url(#clip020)" d="M1643.01 776.528 Q1639.4 776.528 1637.57 780.093 Q1635.77 783.635 1635.77 790.764 Q1635.77 797.871 1637.57 801.436 Q1639.4 804.977 1643.01 804.977 Q1646.64 804.977 1648.45 801.436 Q1650.28 797.871 1650.28 790.764 Q1650.28 783.635 1648.45 780.093 Q1646.64 776.528 1643.01 776.528 M1643.01 772.825 Q1648.82 772.825 1651.88 777.431 Q1654.95 782.014 1654.95 790.764 Q1654.95 799.491 1651.88 804.098 Q1648.82 808.681 1643.01 808.681 Q1637.2 808.681 1634.12 804.098 Q1631.07 799.491 1631.07 790.764 Q1631.07 782.014 1634.12 777.431 Q1637.2 772.825 1643.01 772.825 Z" fill="#000000" fill-rule="nonzero" fill-opacity="1"></path><path clip-path="url(#clip020)" d="M1663.13 786.482 L1692.8 786.482 L1692.8 790.371 L1663.13 790.371 L1663.13 786.482 M1663.13 795.926 L1692.8 795.926 L1692.8 799.861 L1663.13 799.861 L1663.13 795.926 Z" fill="#000000" fill-rule="nonzero" fill-opacity="1"></path><path clip-path="url(#clip020)" d="M1706.92 804.074 L1723.24 804.074 L1723.24 808.01 L1701.3 808.01 L1701.3 804.074 Q1703.96 801.32 1708.54 796.69 Q1713.15 792.037 1714.33 790.695 Q1716.57 788.172 1717.45 786.436 Q1718.36 784.676 1718.36 782.987 Q1718.36 780.232 1716.41 778.496 Q1714.49 776.76 1711.39 776.76 Q1709.19 776.76 1706.74 777.524 Q1704.31 778.288 1701.53 779.838 L1701.53 775.116 Q1704.35 773.982 1706.81 773.403 Q1709.26 772.825 1711.3 772.825 Q1716.67 772.825 1719.86 775.51 Q1723.06 778.195 1723.06 782.686 Q1723.06 784.815 1722.25 786.737 Q1721.46 788.635 1719.35 791.227 Q1718.77 791.899 1715.67 795.116 Q1712.57 798.311 1706.92 804.074 Z" fill="#000000" fill-rule="nonzero" fill-opacity="1"></path><path clip-path="url(#clip020)" d="M1733.06 802.13 L1737.94 802.13 L1737.94 808.01 L1733.06 808.01 L1733.06 802.13 Z" fill="#000000" fill-rule="nonzero" fill-opacity="1"></path><path clip-path="url(#clip020)" d="M1758.13 776.528 Q1754.51 776.528 1752.69 780.093 Q1750.88 783.635 1750.88 790.764 Q1750.88 797.871 1752.69 801.436 Q1754.51 804.977 1758.13 804.977 Q1761.76 804.977 1763.57 801.436 Q1765.39 797.871 1765.39 790.764 Q1765.39 783.635 1763.57 780.093 Q1761.76 776.528 1758.13 776.528 M1758.13 772.825 Q1763.94 772.825 1766.99 777.431 Q1770.07 782.014 1770.07 790.764 Q1770.07 799.491 1766.99 804.098 Q1763.94 808.681 1758.13 808.681 Q1752.32 808.681 1749.24 804.098 Q1746.18 799.491 1746.18 790.764 Q1746.18 782.014 1749.24 777.431 Q1752.32 772.825 1758.13 772.825 Z" fill="#000000" fill-rule="nonzero" fill-opacity="1"></path><path clip-path="url(#clip020)" d="M1807.78 786.065 Q1807.06 785.649 1806.2 785.463 Q1805.37 785.255 1804.35 785.255 Q1800.74 785.255 1798.8 787.616 Q1796.88 789.954 1796.88 794.352 L1796.88 808.01 L1792.59 808.01 L1792.59 782.084 L1796.88 782.084 L1796.88 786.112 Q1798.22 783.75 1800.37 782.616 Q1802.52 781.459 1805.6 781.459 Q1806.04 781.459 1806.57 781.528 Q1807.11 781.575 1807.75 781.69 L1807.78 786.065 Z" fill="#000000" fill-rule="nonzero" fill-opacity="1"></path><path clip-path="url(#clip020)" d="M1812.8 786.482 L1842.48 786.482 L1842.48 790.371 L1812.8 790.371 L1812.8 786.482 M1812.8 795.926 L1842.48 795.926 L1842.48 799.861 L1812.8 799.861 L1812.8 795.926 Z" fill="#000000" fill-rule="nonzero" fill-opacity="1"></path><path clip-path="url(#clip020)" d="M1849.81 793.125 L1862.29 793.125 L1862.29 796.922 L1849.81 796.922 L1849.81 793.125 Z" fill="#000000" fill-rule="nonzero" fill-opacity="1"></path><path clip-path="url(#clip020)" d="M1873.7 804.074 L1890.02 804.074 L1890.02 808.01 L1868.08 808.01 L1868.08 804.074 Q1870.74 801.32 1875.32 796.69 Q1879.93 792.037 1881.11 790.695 Q1883.36 788.172 1884.24 786.436 Q1885.14 784.676 1885.14 782.987 Q1885.14 780.232 1883.19 778.496 Q1881.27 776.76 1878.17 776.76 Q1875.97 776.76 1873.52 777.524 Q1871.09 778.288 1868.31 779.838 L1868.31 775.116 Q1871.13 773.982 1873.59 773.403 Q1876.04 772.825 1878.08 772.825 Q1883.45 772.825 1886.64 775.51 Q1889.84 778.195 1889.84 782.686 Q1889.84 784.815 1889.03 786.737 Q1888.24 788.635 1886.13 791.227 Q1885.56 791.899 1882.45 795.116 Q1879.35 798.311 1873.7 804.074 Z" fill="#000000" fill-rule="nonzero" fill-opacity="1"></path><path clip-path="url(#clip020)" d="M1899.84 802.13 L1904.72 802.13 L1904.72 808.01 L1899.84 808.01 L1899.84 802.13 Z" fill="#000000" fill-rule="nonzero" fill-opacity="1"></path><path clip-path="url(#clip020)" d="M1924.91 776.528 Q1921.3 776.528 1919.47 780.093 Q1917.66 783.635 1917.66 790.764 Q1917.66 797.871 1919.47 801.436 Q1921.3 804.977 1924.91 804.977 Q1928.54 804.977 1930.35 801.436 Q1932.18 797.871 1932.18 790.764 Q1932.18 783.635 1930.35 780.093 Q1928.54 776.528 1924.91 776.528 M1924.91 772.825 Q1930.72 772.825 1933.77 777.431 Q1936.85 782.014 1936.85 790.764 Q1936.85 799.491 1933.77 804.098 Q1930.72 808.681 1924.91 808.681 Q1919.1 808.681 1916.02 804.098 Q1912.96 799.491 1912.96 790.764 Q1912.96 782.014 1916.02 777.431 Q1919.1 772.825 1924.91 772.825 Z" fill="#000000" fill-rule="nonzero" fill-opacity="1"></path><polyline clip-path="url(#clip020)" style="stroke:#3da44d; stroke-linecap:round; stroke-linejoin:round; stroke-width:4; stroke-opacity:1; fill:none" points="1434.65,842.57 1577.45,842.57 "></polyline>
<path clip-path="url(#clip020)" d="M1625.9 833.924 L1616.53 846.539 L1626.39 859.85 L1621.37 859.85 L1613.82 849.664 L1606.27 859.85 L1601.25 859.85 L1611.32 846.285 L1602.11 833.924 L1607.13 833.924 L1614.01 843.16 L1620.88 833.924 L1625.9 833.924 Z" fill="#000000" fill-rule="nonzero" fill-opacity="1"></path><path clip-path="url(#clip020)" d="M1643.01 828.368 Q1639.4 828.368 1637.57 831.933 Q1635.77 835.475 1635.77 842.604 Q1635.77 849.711 1637.57 853.276 Q1639.4 856.817 1643.01 856.817 Q1646.64 856.817 1648.45 853.276 Q1650.28 849.711 1650.28 842.604 Q1650.28 835.475 1648.45 831.933 Q1646.64 828.368 1643.01 828.368 M1643.01 824.665 Q1648.82 824.665 1651.88 829.271 Q1654.95 833.854 1654.95 842.604 Q1654.95 851.331 1651.88 855.938 Q1648.82 860.521 1643.01 860.521 Q1637.2 860.521 1634.12 855.938 Q1631.07 851.331 1631.07 842.604 Q1631.07 833.854 1634.12 829.271 Q1637.2 824.665 1643.01 824.665 Z" fill="#000000" fill-rule="nonzero" fill-opacity="1"></path><path clip-path="url(#clip020)" d="M1663.13 838.322 L1692.8 838.322 L1692.8 842.211 L1663.13 842.211 L1663.13 838.322 M1663.13 847.766 L1692.8 847.766 L1692.8 851.701 L1663.13 851.701 L1663.13 847.766 Z" fill="#000000" fill-rule="nonzero" fill-opacity="1"></path><path clip-path="url(#clip020)" d="M1703.7 855.914 L1711.34 855.914 L1711.34 829.549 L1703.03 831.215 L1703.03 826.956 L1711.3 825.29 L1715.97 825.29 L1715.97 855.914 L1723.61 855.914 L1723.61 859.85 L1703.7 859.85 L1703.7 855.914 Z" fill="#000000" fill-rule="nonzero" fill-opacity="1"></path><path clip-path="url(#clip020)" d="M1733.06 853.97 L1737.94 853.97 L1737.94 859.85 L1733.06 859.85 L1733.06 853.97 Z" fill="#000000" fill-rule="nonzero" fill-opacity="1"></path><path clip-path="url(#clip020)" d="M1748.26 859.132 L1748.26 854.873 Q1750.02 855.706 1751.83 856.146 Q1753.63 856.586 1755.37 856.586 Q1760 856.586 1762.43 853.484 Q1764.88 850.359 1765.23 844.016 Q1763.89 846.007 1761.83 847.072 Q1759.77 848.137 1757.27 848.137 Q1752.08 848.137 1749.05 845.012 Q1746.04 841.864 1746.04 836.424 Q1746.04 831.1 1749.19 827.882 Q1752.34 824.665 1757.57 824.665 Q1763.57 824.665 1766.71 829.271 Q1769.88 833.854 1769.88 842.604 Q1769.88 850.776 1766 855.66 Q1762.13 860.521 1755.58 860.521 Q1753.82 860.521 1752.01 860.174 Q1750.21 859.826 1748.26 859.132 M1757.57 844.479 Q1760.72 844.479 1762.55 842.327 Q1764.4 840.174 1764.4 836.424 Q1764.4 832.697 1762.55 830.544 Q1760.72 828.368 1757.57 828.368 Q1754.42 828.368 1752.57 830.544 Q1750.74 832.697 1750.74 836.424 Q1750.74 840.174 1752.57 842.327 Q1754.42 844.479 1757.57 844.479 Z" fill="#000000" fill-rule="nonzero" fill-opacity="1"></path><path clip-path="url(#clip020)" d="M1778.43 859.132 L1778.43 854.873 Q1780.19 855.706 1781.99 856.146 Q1783.8 856.586 1785.53 856.586 Q1790.16 856.586 1792.59 853.484 Q1795.05 850.359 1795.39 844.016 Q1794.05 846.007 1791.99 847.072 Q1789.93 848.137 1787.43 848.137 Q1782.25 848.137 1779.21 845.012 Q1776.2 841.864 1776.2 836.424 Q1776.2 831.1 1779.35 827.882 Q1782.5 824.665 1787.73 824.665 Q1793.73 824.665 1796.88 829.271 Q1800.05 833.854 1800.05 842.604 Q1800.05 850.776 1796.16 855.66 Q1792.29 860.521 1785.74 860.521 Q1783.98 860.521 1782.18 860.174 Q1780.37 859.826 1778.43 859.132 M1787.73 844.479 Q1790.88 844.479 1792.71 842.327 Q1794.56 840.174 1794.56 836.424 Q1794.56 832.697 1792.71 830.544 Q1790.88 828.368 1787.73 828.368 Q1784.58 828.368 1782.73 830.544 Q1780.9 832.697 1780.9 836.424 Q1780.9 840.174 1782.73 842.327 Q1784.58 844.479 1787.73 844.479 Z" fill="#000000" fill-rule="nonzero" fill-opacity="1"></path><path clip-path="url(#clip020)" d="M1808.59 859.132 L1808.59 854.873 Q1810.35 855.706 1812.15 856.146 Q1813.96 856.586 1815.69 856.586 Q1820.32 856.586 1822.75 853.484 Q1825.21 850.359 1825.56 844.016 Q1824.21 846.007 1822.15 847.072 Q1820.09 848.137 1817.59 848.137 Q1812.41 848.137 1809.38 845.012 Q1806.37 841.864 1806.37 836.424 Q1806.37 831.1 1809.51 827.882 Q1812.66 824.665 1817.89 824.665 Q1823.89 824.665 1827.04 829.271 Q1830.21 833.854 1830.21 842.604 Q1830.21 850.776 1826.32 855.66 Q1822.45 860.521 1815.9 860.521 Q1814.14 860.521 1812.34 860.174 Q1810.53 859.826 1808.59 859.132 M1817.89 844.479 Q1821.04 844.479 1822.87 842.327 Q1824.72 840.174 1824.72 836.424 Q1824.72 832.697 1822.87 830.544 Q1821.04 828.368 1817.89 828.368 Q1814.75 828.368 1812.89 830.544 Q1811.07 832.697 1811.07 836.424 Q1811.07 840.174 1812.89 842.327 Q1814.75 844.479 1817.89 844.479 Z" fill="#000000" fill-rule="nonzero" fill-opacity="1"></path><path clip-path="url(#clip020)" d="M1838.75 859.132 L1838.75 854.873 Q1840.51 855.706 1842.31 856.146 Q1844.12 856.586 1845.86 856.586 Q1850.49 856.586 1852.92 853.484 Q1855.37 850.359 1855.72 844.016 Q1854.38 846.007 1852.31 847.072 Q1850.25 848.137 1847.75 848.137 Q1842.57 848.137 1839.54 845.012 Q1836.53 841.864 1836.53 836.424 Q1836.53 831.1 1839.68 827.882 Q1842.82 824.665 1848.06 824.665 Q1854.05 824.665 1857.2 829.271 Q1860.37 833.854 1860.37 842.604 Q1860.37 850.776 1856.48 855.66 Q1852.62 860.521 1846.06 860.521 Q1844.31 860.521 1842.5 860.174 Q1840.69 859.826 1838.75 859.132 M1848.06 844.479 Q1851.2 844.479 1853.03 842.327 Q1854.88 840.174 1854.88 836.424 Q1854.88 832.697 1853.03 830.544 Q1851.2 828.368 1848.06 828.368 Q1844.91 828.368 1843.06 830.544 Q1841.23 832.697 1841.23 836.424 Q1841.23 840.174 1843.06 842.327 Q1844.91 844.479 1848.06 844.479 Z" fill="#000000" fill-rule="nonzero" fill-opacity="1"></path><path clip-path="url(#clip020)" d="M1868.91 859.132 L1868.91 854.873 Q1870.67 855.706 1872.48 856.146 Q1874.28 856.586 1876.02 856.586 Q1880.65 856.586 1883.08 853.484 Q1885.53 850.359 1885.88 844.016 Q1884.54 846.007 1882.48 847.072 Q1880.42 848.137 1877.92 848.137 Q1872.73 848.137 1869.7 845.012 Q1866.69 841.864 1866.69 836.424 Q1866.69 831.1 1869.84 827.882 Q1872.99 824.665 1878.22 824.665 Q1884.21 824.665 1887.36 829.271 Q1890.53 833.854 1890.53 842.604 Q1890.53 850.776 1886.64 855.66 Q1882.78 860.521 1876.23 860.521 Q1874.47 860.521 1872.66 860.174 Q1870.86 859.826 1868.91 859.132 M1878.22 844.479 Q1881.37 844.479 1883.19 842.327 Q1885.05 840.174 1885.05 836.424 Q1885.05 832.697 1883.19 830.544 Q1881.37 828.368 1878.22 828.368 Q1875.07 828.368 1873.22 830.544 Q1871.39 832.697 1871.39 836.424 Q1871.39 840.174 1873.22 842.327 Q1875.07 844.479 1878.22 844.479 Z" fill="#000000" fill-rule="nonzero" fill-opacity="1"></path><path clip-path="url(#clip020)" d="M1899.07 859.132 L1899.07 854.873 Q1900.83 855.706 1902.64 856.146 Q1904.44 856.586 1906.18 856.586 Q1910.81 856.586 1913.24 853.484 Q1915.69 850.359 1916.04 844.016 Q1914.7 846.007 1912.64 847.072 Q1910.58 848.137 1908.08 848.137 Q1902.89 848.137 1899.86 845.012 Q1896.85 841.864 1896.85 836.424 Q1896.85 831.1 1900 827.882 Q1903.15 824.665 1908.38 824.665 Q1914.37 824.665 1917.52 829.271 Q1920.69 833.854 1920.69 842.604 Q1920.69 850.776 1916.81 855.66 Q1912.94 860.521 1906.39 860.521 Q1904.63 860.521 1902.82 860.174 Q1901.02 859.826 1899.07 859.132 M1908.38 844.479 Q1911.53 844.479 1913.36 842.327 Q1915.21 840.174 1915.21 836.424 Q1915.21 832.697 1913.36 830.544 Q1911.53 828.368 1908.38 828.368 Q1905.23 828.368 1903.38 830.544 Q1901.55 832.697 1901.55 836.424 Q1901.55 840.174 1903.38 842.327 Q1905.23 844.479 1908.38 844.479 Z" fill="#000000" fill-rule="nonzero" fill-opacity="1"></path><path clip-path="url(#clip020)" d="M1929.24 859.132 L1929.24 854.873 Q1930.99 855.706 1932.8 856.146 Q1934.61 856.586 1936.34 856.586 Q1940.97 856.586 1943.4 853.484 Q1945.86 850.359 1946.2 844.016 Q1944.86 846.007 1942.8 847.072 Q1940.74 848.137 1938.24 848.137 Q1933.06 848.137 1930.02 845.012 Q1927.01 841.864 1927.01 836.424 Q1927.01 831.1 1930.16 827.882 Q1933.31 824.665 1938.54 824.665 Q1944.54 824.665 1947.68 829.271 Q1950.86 833.854 1950.86 842.604 Q1950.86 850.776 1946.97 855.66 Q1943.1 860.521 1936.55 860.521 Q1934.79 860.521 1932.99 860.174 Q1931.18 859.826 1929.24 859.132 M1938.54 844.479 Q1941.69 844.479 1943.52 842.327 Q1945.37 840.174 1945.37 836.424 Q1945.37 832.697 1943.52 830.544 Q1941.69 828.368 1938.54 828.368 Q1935.39 828.368 1933.54 830.544 Q1931.71 832.697 1931.71 836.424 Q1931.71 840.174 1933.54 842.327 Q1935.39 844.479 1938.54 844.479 Z" fill="#000000" fill-rule="nonzero" fill-opacity="1"></path><path clip-path="url(#clip020)" d="M1959.4 859.132 L1959.4 854.873 Q1961.16 855.706 1962.96 856.146 Q1964.77 856.586 1966.5 856.586 Q1971.13 856.586 1973.56 853.484 Q1976.02 850.359 1976.37 844.016 Q1975.02 846.007 1972.96 847.072 Q1970.9 848.137 1968.4 848.137 Q1963.22 848.137 1960.18 845.012 Q1957.18 841.864 1957.18 836.424 Q1957.18 831.1 1960.32 827.882 Q1963.47 824.665 1968.7 824.665 Q1974.7 824.665 1977.85 829.271 Q1981.02 833.854 1981.02 842.604 Q1981.02 850.776 1977.13 855.66 Q1973.26 860.521 1966.71 860.521 Q1964.95 860.521 1963.15 860.174 Q1961.34 859.826 1959.4 859.132 M1968.7 844.479 Q1971.85 844.479 1973.68 842.327 Q1975.53 840.174 1975.53 836.424 Q1975.53 832.697 1973.68 830.544 Q1971.85 828.368 1968.7 828.368 Q1965.55 828.368 1963.7 830.544 Q1961.87 832.697 1961.87 836.424 Q1961.87 840.174 1963.7 842.327 Q1965.55 844.479 1968.7 844.479 Z" fill="#000000" fill-rule="nonzero" fill-opacity="1"></path><path clip-path="url(#clip020)" d="M1989.56 859.132 L1989.56 854.873 Q1991.32 855.706 1993.12 856.146 Q1994.93 856.586 1996.67 856.586 Q2001.3 856.586 2003.73 853.484 Q2006.18 850.359 2006.53 844.016 Q2005.18 846.007 2003.12 847.072 Q2001.06 848.137 1998.56 848.137 Q1993.38 848.137 1990.35 845.012 Q1987.34 841.864 1987.34 836.424 Q1987.34 831.1 1990.49 827.882 Q1993.63 824.665 1998.86 824.665 Q2004.86 824.665 2008.01 829.271 Q2011.18 833.854 2011.18 842.604 Q2011.18 850.776 2007.29 855.66 Q2003.43 860.521 1996.87 860.521 Q1995.11 860.521 1993.31 860.174 Q1991.5 859.826 1989.56 859.132 M1998.86 844.479 Q2002.01 844.479 2003.84 842.327 Q2005.69 840.174 2005.69 836.424 Q2005.69 832.697 2003.84 830.544 Q2002.01 828.368 1998.86 828.368 Q1995.72 828.368 1993.86 830.544 Q1992.04 832.697 1992.04 836.424 Q1992.04 840.174 1993.86 842.327 Q1995.72 844.479 1998.86 844.479 Z" fill="#000000" fill-rule="nonzero" fill-opacity="1"></path><path clip-path="url(#clip020)" d="M2019.72 859.132 L2019.72 854.873 Q2021.48 855.706 2023.29 856.146 Q2025.09 856.586 2026.83 856.586 Q2031.46 856.586 2033.89 853.484 Q2036.34 850.359 2036.69 844.016 Q2035.35 846.007 2033.29 847.072 Q2031.23 848.137 2028.73 848.137 Q2023.54 848.137 2020.51 845.012 Q2017.5 841.864 2017.5 836.424 Q2017.5 831.1 2020.65 827.882 Q2023.8 824.665 2029.03 824.665 Q2035.02 824.665 2038.17 829.271 Q2041.34 833.854 2041.34 842.604 Q2041.34 850.776 2037.45 855.66 Q2033.59 860.521 2027.04 860.521 Q2025.28 860.521 2023.47 860.174 Q2021.67 859.826 2019.72 859.132 M2029.03 844.479 Q2032.17 844.479 2034 842.327 Q2035.86 840.174 2035.86 836.424 Q2035.86 832.697 2034 830.544 Q2032.17 828.368 2029.03 828.368 Q2025.88 828.368 2024.03 830.544 Q2022.2 832.697 2022.2 836.424 Q2022.2 840.174 2024.03 842.327 Q2025.88 844.479 2029.03 844.479 Z" fill="#000000" fill-rule="nonzero" fill-opacity="1"></path><path clip-path="url(#clip020)" d="M2049.88 859.132 L2049.88 854.873 Q2051.64 855.706 2053.45 856.146 Q2055.25 856.586 2056.99 856.586 Q2061.62 856.586 2064.05 853.484 Q2066.5 850.359 2066.85 844.016 Q2065.51 846.007 2063.45 847.072 Q2061.39 848.137 2058.89 848.137 Q2053.7 848.137 2050.67 845.012 Q2047.66 841.864 2047.66 836.424 Q2047.66 831.1 2050.81 827.882 Q2053.96 824.665 2059.19 824.665 Q2065.18 824.665 2068.33 829.271 Q2071.5 833.854 2071.5 842.604 Q2071.5 850.776 2067.61 855.66 Q2063.75 860.521 2057.2 860.521 Q2055.44 860.521 2053.63 860.174 Q2051.83 859.826 2049.88 859.132 M2059.19 844.479 Q2062.34 844.479 2064.17 842.327 Q2066.02 840.174 2066.02 836.424 Q2066.02 832.697 2064.17 830.544 Q2062.34 828.368 2059.19 828.368 Q2056.04 828.368 2054.19 830.544 Q2052.36 832.697 2052.36 836.424 Q2052.36 840.174 2054.19 842.327 Q2056.04 844.479 2059.19 844.479 Z" fill="#000000" fill-rule="nonzero" fill-opacity="1"></path><path clip-path="url(#clip020)" d="M2080.05 859.132 L2080.05 854.873 Q2081.8 855.706 2083.61 856.146 Q2085.42 856.586 2087.15 856.586 Q2091.78 856.586 2094.21 853.484 Q2096.67 850.359 2097.01 844.016 Q2095.67 846.007 2093.61 847.072 Q2091.55 848.137 2089.05 848.137 Q2083.86 848.137 2080.83 845.012 Q2077.82 841.864 2077.82 836.424 Q2077.82 831.1 2080.97 827.882 Q2084.12 824.665 2089.35 824.665 Q2095.35 824.665 2098.49 829.271 Q2101.67 833.854 2101.67 842.604 Q2101.67 850.776 2097.78 855.66 Q2093.91 860.521 2087.36 860.521 Q2085.6 860.521 2083.8 860.174 Q2081.99 859.826 2080.05 859.132 M2089.35 844.479 Q2092.5 844.479 2094.33 842.327 Q2096.18 840.174 2096.18 836.424 Q2096.18 832.697 2094.33 830.544 Q2092.5 828.368 2089.35 828.368 Q2086.2 828.368 2084.35 830.544 Q2082.52 832.697 2082.52 836.424 Q2082.52 840.174 2084.35 842.327 Q2086.2 844.479 2089.35 844.479 Z" fill="#000000" fill-rule="nonzero" fill-opacity="1"></path><path clip-path="url(#clip020)" d="M2110.21 859.132 L2110.21 854.873 Q2111.97 855.706 2113.77 856.146 Q2115.58 856.586 2117.31 856.586 Q2121.94 856.586 2124.37 853.484 Q2126.83 850.359 2127.17 844.016 Q2125.83 846.007 2123.77 847.072 Q2121.71 848.137 2119.21 848.137 Q2114.03 848.137 2110.99 845.012 Q2107.98 841.864 2107.98 836.424 Q2107.98 831.1 2111.13 827.882 Q2114.28 824.665 2119.51 824.665 Q2125.51 824.665 2128.66 829.271 Q2131.83 833.854 2131.83 842.604 Q2131.83 850.776 2127.94 855.66 Q2124.07 860.521 2117.52 860.521 Q2115.76 860.521 2113.96 860.174 Q2112.15 859.826 2110.21 859.132 M2119.51 844.479 Q2122.66 844.479 2124.49 842.327 Q2126.34 840.174 2126.34 836.424 Q2126.34 832.697 2124.49 830.544 Q2122.66 828.368 2119.51 828.368 Q2116.36 828.368 2114.51 830.544 Q2112.68 832.697 2112.68 836.424 Q2112.68 840.174 2114.51 842.327 Q2116.36 844.479 2119.51 844.479 Z" fill="#000000" fill-rule="nonzero" fill-opacity="1"></path><path clip-path="url(#clip020)" d="M2140.37 859.132 L2140.37 854.873 Q2142.13 855.706 2143.93 856.146 Q2145.74 856.586 2147.48 856.586 Q2152.1 856.586 2154.54 853.484 Q2156.99 850.359 2157.34 844.016 Q2155.99 846.007 2153.93 847.072 Q2151.87 848.137 2149.37 848.137 Q2144.19 848.137 2141.16 845.012 Q2138.15 841.864 2138.15 836.424 Q2138.15 831.1 2141.29 827.882 Q2144.44 824.665 2149.67 824.665 Q2155.67 824.665 2158.82 829.271 Q2161.99 833.854 2161.99 842.604 Q2161.99 850.776 2158.1 855.66 Q2154.23 860.521 2147.68 860.521 Q2145.92 860.521 2144.12 860.174 Q2142.31 859.826 2140.37 859.132 M2149.67 844.479 Q2152.82 844.479 2154.65 842.327 Q2156.5 840.174 2156.5 836.424 Q2156.5 832.697 2154.65 830.544 Q2152.82 828.368 2149.67 828.368 Q2146.53 828.368 2144.67 830.544 Q2142.85 832.697 2142.85 836.424 Q2142.85 840.174 2144.67 842.327 Q2146.53 844.479 2149.67 844.479 Z" fill="#000000" fill-rule="nonzero" fill-opacity="1"></path><path clip-path="url(#clip020)" d="M2199.88 837.905 Q2199.16 837.489 2198.31 837.303 Q2197.48 837.095 2196.46 837.095 Q2192.85 837.095 2190.9 839.456 Q2188.98 841.794 2188.98 846.192 L2188.98 859.85 L2184.7 859.85 L2184.7 833.924 L2188.98 833.924 L2188.98 837.952 Q2190.32 835.59 2192.48 834.456 Q2194.63 833.299 2197.71 833.299 Q2198.15 833.299 2198.68 833.368 Q2199.21 833.415 2199.86 833.53 L2199.88 837.905 Z" fill="#000000" fill-rule="nonzero" fill-opacity="1"></path><path clip-path="url(#clip020)" d="M2204.91 838.322 L2234.58 838.322 L2234.58 842.211 L2204.91 842.211 L2204.91 838.322 M2204.91 847.766 L2234.58 847.766 L2234.58 851.701 L2204.91 851.701 L2204.91 847.766 Z" fill="#000000" fill-rule="nonzero" fill-opacity="1"></path><path clip-path="url(#clip020)" d="M2241.92 844.965 L2254.4 844.965 L2254.4 848.762 L2241.92 848.762 L2241.92 844.965 Z" fill="#000000" fill-rule="nonzero" fill-opacity="1"></path><path clip-path="url(#clip020)" d="M2265.81 855.914 L2282.13 855.914 L2282.13 859.85 L2260.18 859.85 L2260.18 855.914 Q2262.85 853.16 2267.43 848.53 Q2272.03 843.877 2273.22 842.535 Q2275.46 840.012 2276.34 838.276 Q2277.24 836.516 2277.24 834.827 Q2277.24 832.072 2275.3 830.336 Q2273.38 828.6 2270.28 828.6 Q2268.08 828.6 2265.62 829.364 Q2263.19 830.128 2260.41 831.678 L2260.41 826.956 Q2263.24 825.822 2265.69 825.243 Q2268.15 824.665 2270.18 824.665 Q2275.55 824.665 2278.75 827.35 Q2281.94 830.035 2281.94 834.526 Q2281.94 836.655 2281.13 838.577 Q2280.34 840.475 2278.24 843.067 Q2277.66 843.739 2274.56 846.956 Q2271.46 850.151 2265.81 855.914 Z" fill="#000000" fill-rule="nonzero" fill-opacity="1"></path><path clip-path="url(#clip020)" d="M2291.94 853.97 L2296.83 853.97 L2296.83 859.85 L2291.94 859.85 L2291.94 853.97 Z" fill="#000000" fill-rule="nonzero" fill-opacity="1"></path><path clip-path="url(#clip020)" d="M2317.01 828.368 Q2313.4 828.368 2311.57 831.933 Q2309.77 835.475 2309.77 842.604 Q2309.77 849.711 2311.57 853.276 Q2313.4 856.817 2317.01 856.817 Q2320.65 856.817 2322.45 853.276 Q2324.28 849.711 2324.28 842.604 Q2324.28 835.475 2322.45 831.933 Q2320.65 828.368 2317.01 828.368 M2317.01 824.665 Q2322.82 824.665 2325.88 829.271 Q2328.96 833.854 2328.96 842.604 Q2328.96 851.331 2325.88 855.938 Q2322.82 860.521 2317.01 860.521 Q2311.2 860.521 2308.12 855.938 Q2305.07 851.331 2305.07 842.604 Q2305.07 833.854 2308.12 829.271 Q2311.2 824.665 2317.01 824.665 Z" fill="#000000" fill-rule="nonzero" fill-opacity="1"></path></svg>