<svg xmlns="http://www.w3.org/2000/svg" xmlns:xlink="http://www.w3.org/1999/xlink" width="600" height="400" viewBox="0 0 2400 1600">
<defs>
  <clipPath id="clip180">
    <rect x="0" y="0" width="2400" height="1600"></rect>
  </clipPath>
</defs>
<path clip-path="url(#clip180)" d="M0 1600 L2400 1600 L2400 0 L0 0  Z" fill="#ffffff" fill-rule="evenodd" fill-opacity="1"></path>
<defs>
  <clipPath id="clip181">
    <rect x="480" y="0" width="1681" height="1600"></rect>
  </clipPath>
</defs>
<path clip-path="url(#clip180)" d="M257.204 1423.18 L1707.59 1423.18 L1707.59 123.472 L257.204 123.472  Z" fill="#ffffff" fill-rule="evenodd" fill-opacity="1"></path>
<defs>
  <clipPath id="clip182">
    <rect x="257" y="123" width="1451" height="1301"></rect>
  </clipPath>
</defs>
<polyline clip-path="url(#clip182)" style="stroke:#000000; stroke-linecap:round; stroke-linejoin:round; stroke-width:2; stroke-opacity:0.1; fill:none" points="263.168,1423.18 263.168,123.472 "></polyline>
<polyline clip-path="url(#clip182)" style="stroke:#000000; stroke-linecap:round; stroke-linejoin:round; stroke-width:2; stroke-opacity:0.1; fill:none" points="614.011,1423.18 614.011,123.472 "></polyline>
<polyline clip-path="url(#clip182)" style="stroke:#000000; stroke-linecap:round; stroke-linejoin:round; stroke-width:2; stroke-opacity:0.1; fill:none" points="964.853,1423.18 964.853,123.472 "></polyline>
<polyline clip-path="url(#clip182)" style="stroke:#000000; stroke-linecap:round; stroke-linejoin:round; stroke-width:2; stroke-opacity:0.1; fill:none" points="1315.7,1423.18 1315.7,123.472 "></polyline>
<polyline clip-path="url(#clip182)" style="stroke:#000000; stroke-linecap:round; stroke-linejoin:round; stroke-width:2; stroke-opacity:0.1; fill:none" points="1666.54,1423.18 1666.54,123.472 "></polyline>
<polyline clip-path="url(#clip182)" style="stroke:#000000; stroke-linecap:round; stroke-linejoin:round; stroke-width:2; stroke-opacity:0.1; fill:none" points="257.204,1386.4 1707.59,1386.4 "></polyline>
<polyline clip-path="url(#clip182)" style="stroke:#000000; stroke-linecap:round; stroke-linejoin:round; stroke-width:2; stroke-opacity:0.1; fill:none" points="257.204,1079.86 1707.59,1079.86 "></polyline>
<polyline clip-path="url(#clip182)" style="stroke:#000000; stroke-linecap:round; stroke-linejoin:round; stroke-width:2; stroke-opacity:0.1; fill:none" points="257.204,773.326 1707.59,773.326 "></polyline>
<polyline clip-path="url(#clip182)" style="stroke:#000000; stroke-linecap:round; stroke-linejoin:round; stroke-width:2; stroke-opacity:0.1; fill:none" points="257.204,466.791 1707.59,466.791 "></polyline>
<polyline clip-path="url(#clip182)" style="stroke:#000000; stroke-linecap:round; stroke-linejoin:round; stroke-width:2; stroke-opacity:0.1; fill:none" points="257.204,160.256 1707.59,160.256 "></polyline>
<polyline clip-path="url(#clip180)" style="stroke:#000000; stroke-linecap:round; stroke-linejoin:round; stroke-width:4; stroke-opacity:1; fill:none" points="257.204,1423.18 1707.59,1423.18 "></polyline>
<polyline clip-path="url(#clip180)" style="stroke:#000000; stroke-linecap:round; stroke-linejoin:round; stroke-width:4; stroke-opacity:1; fill:none" points="263.168,1423.18 263.168,1404.28 "></polyline>
<polyline clip-path="url(#clip180)" style="stroke:#000000; stroke-linecap:round; stroke-linejoin:round; stroke-width:4; stroke-opacity:1; fill:none" points="614.011,1423.18 614.011,1404.28 "></polyline>
<polyline clip-path="url(#clip180)" style="stroke:#000000; stroke-linecap:round; stroke-linejoin:round; stroke-width:4; stroke-opacity:1; fill:none" points="964.853,1423.18 964.853,1404.28 "></polyline>
<polyline clip-path="url(#clip180)" style="stroke:#000000; stroke-linecap:round; stroke-linejoin:round; stroke-width:4; stroke-opacity:1; fill:none" points="1315.7,1423.18 1315.7,1404.28 "></polyline>
<polyline clip-path="url(#clip180)" style="stroke:#000000; stroke-linecap:round; stroke-linejoin:round; stroke-width:4; stroke-opacity:1; fill:none" points="1666.54,1423.18 1666.54,1404.28 "></polyline>
<path clip-path="url(#clip180)" d="M263.168 1454.1 Q259.557 1454.1 257.729 1457.66 Q255.923 1461.2 255.923 1468.33 Q255.923 1475.44 257.729 1479.01 Q259.557 1482.55 263.168 1482.55 Q266.803 1482.55 268.608 1479.01 Q270.437 1475.44 270.437 1468.33 Q270.437 1461.2 268.608 1457.66 Q266.803 1454.1 263.168 1454.1 M263.168 1450.39 Q268.979 1450.39 272.034 1455 Q275.113 1459.58 275.113 1468.33 Q275.113 1477.06 272.034 1481.67 Q268.979 1486.25 263.168 1486.25 Q257.358 1486.25 254.28 1481.67 Q251.224 1477.06 251.224 1468.33 Q251.224 1459.58 254.28 1455 Q257.358 1450.39 263.168 1450.39 Z" fill="#000000" fill-rule="nonzero" fill-opacity="1"></path><path clip-path="url(#clip180)" d="M588.699 1481.64 L596.337 1481.64 L596.337 1455.28 L588.027 1456.95 L588.027 1452.69 L596.291 1451.02 L600.967 1451.02 L600.967 1481.64 L608.606 1481.64 L608.606 1485.58 L588.699 1485.58 L588.699 1481.64 Z" fill="#000000" fill-rule="nonzero" fill-opacity="1"></path><path clip-path="url(#clip180)" d="M628.05 1454.1 Q624.439 1454.1 622.61 1457.66 Q620.805 1461.2 620.805 1468.33 Q620.805 1475.44 622.61 1479.01 Q624.439 1482.55 628.05 1482.55 Q631.684 1482.55 633.49 1479.01 Q635.319 1475.44 635.319 1468.33 Q635.319 1461.2 633.49 1457.66 Q631.684 1454.1 628.05 1454.1 M628.05 1450.39 Q633.86 1450.39 636.916 1455 Q639.995 1459.58 639.995 1468.33 Q639.995 1477.06 636.916 1481.67 Q633.86 1486.25 628.05 1486.25 Q622.24 1486.25 619.161 1481.67 Q616.106 1477.06 616.106 1468.33 Q616.106 1459.58 619.161 1455 Q622.24 1450.39 628.05 1450.39 Z" fill="#000000" fill-rule="nonzero" fill-opacity="1"></path><path clip-path="url(#clip180)" d="M943.627 1481.64 L959.946 1481.64 L959.946 1485.58 L938.002 1485.58 L938.002 1481.64 Q940.664 1478.89 945.247 1474.26 Q949.853 1469.61 951.034 1468.27 Q953.279 1465.74 954.159 1464.01 Q955.062 1462.25 955.062 1460.56 Q955.062 1457.8 953.117 1456.07 Q951.196 1454.33 948.094 1454.33 Q945.895 1454.33 943.441 1455.09 Q941.011 1455.86 938.233 1457.41 L938.233 1452.69 Q941.057 1451.55 943.511 1450.97 Q945.965 1450.39 948.002 1450.39 Q953.372 1450.39 956.566 1453.08 Q959.761 1455.77 959.761 1460.26 Q959.761 1462.39 958.951 1464.31 Q958.164 1466.2 956.057 1468.8 Q955.478 1469.47 952.377 1472.69 Q949.275 1475.88 943.627 1481.64 Z" fill="#000000" fill-rule="nonzero" fill-opacity="1"></path><path clip-path="url(#clip180)" d="M979.761 1454.1 Q976.15 1454.1 974.321 1457.66 Q972.515 1461.2 972.515 1468.33 Q972.515 1475.44 974.321 1479.01 Q976.15 1482.55 979.761 1482.55 Q983.395 1482.55 985.201 1479.01 Q987.029 1475.44 987.029 1468.33 Q987.029 1461.2 985.201 1457.66 Q983.395 1454.1 979.761 1454.1 M979.761 1450.39 Q985.571 1450.39 988.626 1455 Q991.705 1459.58 991.705 1468.33 Q991.705 1477.06 988.626 1481.67 Q985.571 1486.25 979.761 1486.25 Q973.951 1486.25 970.872 1481.67 Q967.816 1477.06 967.816 1468.33 Q967.816 1459.58 970.872 1455 Q973.951 1450.39 979.761 1450.39 Z" fill="#000000" fill-rule="nonzero" fill-opacity="1"></path><path clip-path="url(#clip180)" d="M1304.54 1466.95 Q1307.9 1467.66 1309.77 1469.93 Q1311.67 1472.2 1311.67 1475.53 Q1311.67 1480.65 1308.15 1483.45 Q1304.63 1486.25 1298.15 1486.25 Q1295.97 1486.25 1293.66 1485.81 Q1291.37 1485.39 1288.91 1484.54 L1288.91 1480.02 Q1290.86 1481.16 1293.17 1481.74 Q1295.49 1482.32 1298.01 1482.32 Q1302.41 1482.32 1304.7 1480.58 Q1307.02 1478.84 1307.02 1475.53 Q1307.02 1472.48 1304.86 1470.77 Q1302.73 1469.03 1298.91 1469.03 L1294.89 1469.03 L1294.89 1465.19 L1299.1 1465.19 Q1302.55 1465.19 1304.38 1463.82 Q1306.21 1462.43 1306.21 1459.84 Q1306.21 1457.18 1304.31 1455.77 Q1302.43 1454.33 1298.91 1454.33 Q1296.99 1454.33 1294.79 1454.75 Q1292.59 1455.16 1289.96 1456.04 L1289.96 1451.88 Q1292.62 1451.14 1294.93 1450.77 Q1297.27 1450.39 1299.33 1450.39 Q1304.65 1450.39 1307.76 1452.83 Q1310.86 1455.23 1310.86 1459.35 Q1310.86 1462.22 1309.21 1464.21 Q1307.57 1466.18 1304.54 1466.95 Z" fill="#000000" fill-rule="nonzero" fill-opacity="1"></path><path clip-path="url(#clip180)" d="M1330.53 1454.1 Q1326.92 1454.1 1325.09 1457.66 Q1323.29 1461.2 1323.29 1468.33 Q1323.29 1475.44 1325.09 1479.01 Q1326.92 1482.55 1330.53 1482.55 Q1334.17 1482.55 1335.97 1479.01 Q1337.8 1475.44 1337.8 1468.33 Q1337.8 1461.2 1335.97 1457.66 Q1334.17 1454.1 1330.53 1454.1 M1330.53 1450.39 Q1336.34 1450.39 1339.4 1455 Q1342.48 1459.58 1342.48 1468.33 Q1342.48 1477.06 1339.4 1481.67 Q1336.34 1486.25 1330.53 1486.25 Q1324.72 1486.25 1321.64 1481.67 Q1318.59 1477.06 1318.59 1468.33 Q1318.59 1459.58 1321.64 1455 Q1324.72 1450.39 1330.53 1450.39 Z" fill="#000000" fill-rule="nonzero" fill-opacity="1"></path><path clip-path="url(#clip180)" d="M1654.71 1455.09 L1642.9 1473.54 L1654.71 1473.54 L1654.71 1455.09 M1653.48 1451.02 L1659.36 1451.02 L1659.36 1473.54 L1664.29 1473.54 L1664.29 1477.43 L1659.36 1477.43 L1659.36 1485.58 L1654.71 1485.58 L1654.71 1477.43 L1639.11 1477.43 L1639.11 1472.92 L1653.48 1451.02 Z" fill="#000000" fill-rule="nonzero" fill-opacity="1"></path><path clip-path="url(#clip180)" d="M1682.02 1454.1 Q1678.41 1454.1 1676.58 1457.66 Q1674.78 1461.2 1674.78 1468.33 Q1674.78 1475.44 1676.58 1479.01 Q1678.41 1482.55 1682.02 1482.55 Q1685.66 1482.55 1687.46 1479.01 Q1689.29 1475.44 1689.29 1468.33 Q1689.29 1461.2 1687.46 1457.66 Q1685.66 1454.1 1682.02 1454.1 M1682.02 1450.39 Q1687.83 1450.39 1690.89 1455 Q1693.97 1459.58 1693.97 1468.33 Q1693.97 1477.06 1690.89 1481.67 Q1687.83 1486.25 1682.02 1486.25 Q1676.21 1486.25 1673.14 1481.67 Q1670.08 1477.06 1670.08 1468.33 Q1670.08 1459.58 1673.14 1455 Q1676.21 1450.39 1682.02 1450.39 Z" fill="#000000" fill-rule="nonzero" fill-opacity="1"></path><path clip-path="url(#clip180)" d="M997.323 1546.53 L997.323 1568.04 L991.467 1568.04 L991.467 1546.72 Q991.467 1541.66 989.493 1539.14 Q987.52 1536.63 983.573 1536.63 Q978.831 1536.63 976.093 1539.65 Q973.356 1542.68 973.356 1547.9 L973.356 1568.04 L967.468 1568.04 L967.468 1532.4 L973.356 1532.4 L973.356 1537.93 Q975.457 1534.72 978.29 1533.13 Q981.154 1531.54 984.878 1531.54 Q991.021 1531.54 994.172 1535.36 Q997.323 1539.14 997.323 1546.53 Z" fill="#000000" fill-rule="nonzero" fill-opacity="1"></path><polyline clip-path="url(#clip180)" style="stroke:#000000; stroke-linecap:round; stroke-linejoin:round; stroke-width:4; stroke-opacity:1; fill:none" points="257.204,1423.18 257.204,123.472 "></polyline>
<polyline clip-path="url(#clip180)" style="stroke:#000000; stroke-linecap:round; stroke-linejoin:round; stroke-width:4; stroke-opacity:1; fill:none" points="257.204,1386.4 270.284,1386.4 "></polyline>
<polyline clip-path="url(#clip180)" style="stroke:#000000; stroke-linecap:round; stroke-linejoin:round; stroke-width:4; stroke-opacity:1; fill:none" points="257.204,1079.86 270.284,1079.86 "></polyline>
<polyline clip-path="url(#clip180)" style="stroke:#000000; stroke-linecap:round; stroke-linejoin:round; stroke-width:4; stroke-opacity:1; fill:none" points="257.204,773.326 270.284,773.326 "></polyline>
<polyline clip-path="url(#clip180)" style="stroke:#000000; stroke-linecap:round; stroke-linejoin:round; stroke-width:4; stroke-opacity:1; fill:none" points="257.204,466.791 270.284,466.791 "></polyline>
<polyline clip-path="url(#clip180)" style="stroke:#000000; stroke-linecap:round; stroke-linejoin:round; stroke-width:4; stroke-opacity:1; fill:none" points="257.204,160.256 270.284,160.256 "></polyline>
<path clip-path="url(#clip180)" d="M114.26 1386.85 L143.936 1386.85 L143.936 1390.78 L114.26 1390.78 L114.26 1386.85 Z" fill="#000000" fill-rule="nonzero" fill-opacity="1"></path><path clip-path="url(#clip180)" d="M154.839 1399.74 L162.477 1399.74 L162.477 1373.37 L154.167 1375.04 L154.167 1370.78 L162.431 1369.12 L167.107 1369.12 L167.107 1399.74 L174.746 1399.74 L174.746 1403.68 L154.839 1403.68 L154.839 1399.74 Z" fill="#000000" fill-rule="nonzero" fill-opacity="1"></path><path clip-path="url(#clip180)" d="M184.19 1397.8 L189.075 1397.8 L189.075 1403.68 L184.19 1403.68 L184.19 1397.8 Z" fill="#000000" fill-rule="nonzero" fill-opacity="1"></path><path clip-path="url(#clip180)" d="M209.26 1372.19 Q205.649 1372.19 203.82 1375.76 Q202.014 1379.3 202.014 1386.43 Q202.014 1393.54 203.82 1397.1 Q205.649 1400.64 209.26 1400.64 Q212.894 1400.64 214.699 1397.1 Q216.528 1393.54 216.528 1386.43 Q216.528 1379.3 214.699 1375.76 Q212.894 1372.19 209.26 1372.19 M209.26 1368.49 Q215.07 1368.49 218.125 1373.1 Q221.204 1377.68 221.204 1386.43 Q221.204 1395.16 218.125 1399.76 Q215.07 1404.35 209.26 1404.35 Q203.449 1404.35 200.371 1399.76 Q197.315 1395.16 197.315 1386.43 Q197.315 1377.68 200.371 1373.1 Q203.449 1368.49 209.26 1368.49 Z" fill="#000000" fill-rule="nonzero" fill-opacity="1"></path><path clip-path="url(#clip180)" d="M115.256 1080.31 L144.931 1080.31 L144.931 1084.25 L115.256 1084.25 L115.256 1080.31 Z" fill="#000000" fill-rule="nonzero" fill-opacity="1"></path><path clip-path="url(#clip180)" d="M165.024 1065.66 Q161.413 1065.66 159.584 1069.22 Q157.778 1072.77 157.778 1079.9 Q157.778 1087 159.584 1090.57 Q161.413 1094.11 165.024 1094.11 Q168.658 1094.11 170.464 1090.57 Q172.292 1087 172.292 1079.9 Q172.292 1072.77 170.464 1069.22 Q168.658 1065.66 165.024 1065.66 M165.024 1061.96 Q170.834 1061.96 173.889 1066.56 Q176.968 1071.15 176.968 1079.9 Q176.968 1088.62 173.889 1093.23 Q170.834 1097.81 165.024 1097.81 Q159.214 1097.81 156.135 1093.23 Q153.079 1088.62 153.079 1079.9 Q153.079 1071.15 156.135 1066.56 Q159.214 1061.96 165.024 1061.96 Z" fill="#000000" fill-rule="nonzero" fill-opacity="1"></path><path clip-path="url(#clip180)" d="M185.186 1091.26 L190.07 1091.26 L190.07 1097.14 L185.186 1097.14 L185.186 1091.26 Z" fill="#000000" fill-rule="nonzero" fill-opacity="1"></path><path clip-path="url(#clip180)" d="M200.301 1062.58 L218.658 1062.58 L218.658 1066.52 L204.584 1066.52 L204.584 1074.99 Q205.602 1074.64 206.621 1074.48 Q207.639 1074.29 208.658 1074.29 Q214.445 1074.29 217.824 1077.47 Q221.204 1080.64 221.204 1086.05 Q221.204 1091.63 217.732 1094.73 Q214.26 1097.81 207.94 1097.81 Q205.764 1097.81 203.496 1097.44 Q201.25 1097.07 198.843 1096.33 L198.843 1091.63 Q200.926 1092.77 203.149 1093.32 Q205.371 1093.88 207.848 1093.88 Q211.852 1093.88 214.19 1091.77 Q216.528 1089.66 216.528 1086.05 Q216.528 1082.44 214.19 1080.34 Q211.852 1078.23 207.848 1078.23 Q205.973 1078.23 204.098 1078.65 Q202.246 1079.06 200.301 1079.94 L200.301 1062.58 Z" fill="#000000" fill-rule="nonzero" fill-opacity="1"></path><path clip-path="url(#clip180)" d="M164.028 759.125 Q160.417 759.125 158.589 762.689 Q156.783 766.231 156.783 773.361 Q156.783 780.467 158.589 784.032 Q160.417 787.574 164.028 787.574 Q167.663 787.574 169.468 784.032 Q171.297 780.467 171.297 773.361 Q171.297 766.231 169.468 762.689 Q167.663 759.125 164.028 759.125 M164.028 755.421 Q169.839 755.421 172.894 760.027 Q175.973 764.611 175.973 773.361 Q175.973 782.088 172.894 786.694 Q169.839 791.277 164.028 791.277 Q158.218 791.277 155.14 786.694 Q152.084 782.088 152.084 773.361 Q152.084 764.611 155.14 760.027 Q158.218 755.421 164.028 755.421 Z" fill="#000000" fill-rule="nonzero" fill-opacity="1"></path><path clip-path="url(#clip180)" d="M184.19 784.726 L189.075 784.726 L189.075 790.606 L184.19 790.606 L184.19 784.726 Z" fill="#000000" fill-rule="nonzero" fill-opacity="1"></path><path clip-path="url(#clip180)" d="M209.26 759.125 Q205.649 759.125 203.82 762.689 Q202.014 766.231 202.014 773.361 Q202.014 780.467 203.82 784.032 Q205.649 787.574 209.26 787.574 Q212.894 787.574 214.699 784.032 Q216.528 780.467 216.528 773.361 Q216.528 766.231 214.699 762.689 Q212.894 759.125 209.26 759.125 M209.26 755.421 Q215.07 755.421 218.125 760.027 Q221.204 764.611 221.204 773.361 Q221.204 782.088 218.125 786.694 Q215.07 791.277 209.26 791.277 Q203.449 791.277 200.371 786.694 Q197.315 782.088 197.315 773.361 Q197.315 764.611 200.371 760.027 Q203.449 755.421 209.26 755.421 Z" fill="#000000" fill-rule="nonzero" fill-opacity="1"></path><path clip-path="url(#clip180)" d="M165.024 452.59 Q161.413 452.59 159.584 456.155 Q157.778 459.696 157.778 466.826 Q157.778 473.932 159.584 477.497 Q161.413 481.039 165.024 481.039 Q168.658 481.039 170.464 477.497 Q172.292 473.932 172.292 466.826 Q172.292 459.696 170.464 456.155 Q168.658 452.59 165.024 452.59 M165.024 448.886 Q170.834 448.886 173.889 453.493 Q176.968 458.076 176.968 466.826 Q176.968 475.553 173.889 480.159 Q170.834 484.742 165.024 484.742 Q159.214 484.742 156.135 480.159 Q153.079 475.553 153.079 466.826 Q153.079 458.076 156.135 453.493 Q159.214 448.886 165.024 448.886 Z" fill="#000000" fill-rule="nonzero" fill-opacity="1"></path><path clip-path="url(#clip180)" d="M185.186 478.192 L190.07 478.192 L190.07 484.071 L185.186 484.071 L185.186 478.192 Z" fill="#000000" fill-rule="nonzero" fill-opacity="1"></path><path clip-path="url(#clip180)" d="M200.301 449.511 L218.658 449.511 L218.658 453.446 L204.584 453.446 L204.584 461.918 Q205.602 461.571 206.621 461.409 Q207.639 461.224 208.658 461.224 Q214.445 461.224 217.824 464.395 Q221.204 467.567 221.204 472.983 Q221.204 478.562 217.732 481.664 Q214.26 484.742 207.94 484.742 Q205.764 484.742 203.496 484.372 Q201.25 484.002 198.843 483.261 L198.843 478.562 Q200.926 479.696 203.149 480.252 Q205.371 480.807 207.848 480.807 Q211.852 480.807 214.19 478.701 Q216.528 476.594 216.528 472.983 Q216.528 469.372 214.19 467.266 Q211.852 465.159 207.848 465.159 Q205.973 465.159 204.098 465.576 Q202.246 465.993 200.301 466.872 L200.301 449.511 Z" fill="#000000" fill-rule="nonzero" fill-opacity="1"></path><path clip-path="url(#clip180)" d="M154.839 173.601 L162.477 173.601 L162.477 147.236 L154.167 148.902 L154.167 144.643 L162.431 142.976 L167.107 142.976 L167.107 173.601 L174.746 173.601 L174.746 177.536 L154.839 177.536 L154.839 173.601 Z" fill="#000000" fill-rule="nonzero" fill-opacity="1"></path><path clip-path="url(#clip180)" d="M184.19 171.657 L189.075 171.657 L189.075 177.536 L184.19 177.536 L184.19 171.657 Z" fill="#000000" fill-rule="nonzero" fill-opacity="1"></path><path clip-path="url(#clip180)" d="M209.26 146.055 Q205.649 146.055 203.82 149.62 Q202.014 153.161 202.014 160.291 Q202.014 167.397 203.82 170.962 Q205.649 174.504 209.26 174.504 Q212.894 174.504 214.699 170.962 Q216.528 167.397 216.528 160.291 Q216.528 153.161 214.699 149.62 Q212.894 146.055 209.26 146.055 M209.26 142.351 Q215.07 142.351 218.125 146.958 Q221.204 151.541 221.204 160.291 Q221.204 169.018 218.125 173.624 Q215.07 178.208 209.26 178.208 Q203.449 178.208 200.371 173.624 Q197.315 169.018 197.315 160.291 Q197.315 151.541 200.371 146.958 Q203.449 142.351 209.26 142.351 Z" fill="#000000" fill-rule="nonzero" fill-opacity="1"></path><path clip-path="url(#clip180)" d="M28.3562 775.665 L45.7028 788.556 L64.0042 774.997 L64.0042 781.904 L49.9996 792.28 L64.0042 802.656 L64.0042 809.563 L45.3526 795.717 L28.3562 808.385 L28.3562 801.478 L41.0558 792.025 L28.3562 782.572 L28.3562 775.665 Z" fill="#000000" fill-rule="nonzero" fill-opacity="1"></path><path clip-path="url(#clip180)" d="M42.4881 737.089 L64.0042 737.089 L64.0042 742.946 L42.679 742.946 Q37.6183 742.946 35.1038 744.919 Q32.5894 746.892 32.5894 750.839 Q32.5894 755.582 35.6131 758.319 Q38.6368 761.056 43.8567 761.056 L64.0042 761.056 L64.0042 766.944 L28.3562 766.944 L28.3562 761.056 L33.8944 761.056 Q30.6797 758.955 29.0883 756.123 Q27.4968 753.258 27.4968 749.534 Q27.4968 743.391 31.3163 740.24 Q35.1038 737.089 42.4881 737.089 Z" fill="#000000" fill-rule="nonzero" fill-opacity="1"></path><path clip-path="url(#clip180)" d="M832.33 12.096 L840.513 12.096 L840.513 72.576 L832.33 72.576 L832.33 12.096 Z" fill="#000000" fill-rule="nonzero" fill-opacity="1"></path><path clip-path="url(#clip180)" d="M863.846 14.324 L863.846 27.2059 L879.199 27.2059 L879.199 32.9987 L863.846 32.9987 L863.846 57.6282 Q863.846 63.1779 865.345 64.7578 Q866.884 66.3376 871.543 66.3376 L879.199 66.3376 L879.199 72.576 L871.543 72.576 Q862.914 72.576 859.633 69.3758 Q856.352 66.1351 856.352 57.6282 L856.352 32.9987 L850.883 32.9987 L850.883 27.2059 L856.352 27.2059 L856.352 14.324 L863.846 14.324 Z" fill="#000000" fill-rule="nonzero" fill-opacity="1"></path><path clip-path="url(#clip180)" d="M927.81 48.0275 L927.81 51.6733 L893.539 51.6733 Q894.025 59.3701 898.157 63.421 Q902.329 67.4314 909.743 67.4314 Q914.037 67.4314 918.047 66.3781 Q922.098 65.3249 926.068 63.2184 L926.068 70.267 Q922.057 71.9684 917.844 72.8596 Q913.631 73.7508 909.297 73.7508 Q898.441 73.7508 892.081 67.4314 Q885.761 61.1119 885.761 50.3365 Q885.761 39.1965 891.757 32.6746 Q897.792 26.1121 908.001 26.1121 Q917.156 26.1121 922.462 32.0264 Q927.81 37.9003 927.81 48.0275 M920.356 45.84 Q920.275 39.7232 916.913 36.0774 Q913.591 32.4315 908.082 32.4315 Q901.843 32.4315 898.076 35.9558 Q894.349 39.4801 893.782 45.8805 L920.356 45.84 Z" fill="#000000" fill-rule="nonzero" fill-opacity="1"></path><path clip-path="url(#clip180)" d="M966.334 34.1734 Q965.078 33.4443 963.579 33.1202 Q962.121 32.7556 960.338 32.7556 Q954.019 32.7556 950.616 36.8875 Q947.254 40.9789 947.254 48.6757 L947.254 72.576 L939.76 72.576 L939.76 27.2059 L947.254 27.2059 L947.254 34.2544 Q949.603 30.1225 953.371 28.1376 Q957.138 26.1121 962.526 26.1121 Q963.296 26.1121 964.227 26.2337 Q965.159 26.3147 966.293 26.5172 L966.334 34.1734 Z" fill="#000000" fill-rule="nonzero" fill-opacity="1"></path><path clip-path="url(#clip180)" d="M994.771 49.7694 Q985.738 49.7694 982.254 51.8354 Q978.77 53.9013 978.77 58.8839 Q978.77 62.8538 981.363 65.2034 Q983.996 67.5124 988.492 67.5124 Q994.69 67.5124 998.417 63.1374 Q1002.18 58.7219 1002.18 51.4303 L1002.18 49.7694 L994.771 49.7694 M1009.64 46.6907 L1009.64 72.576 L1002.18 72.576 L1002.18 65.6895 Q999.632 69.8214 995.824 71.8063 Q992.016 73.7508 986.507 73.7508 Q979.54 73.7508 975.408 69.8619 Q971.316 65.9325 971.316 59.3701 Q971.316 51.7138 976.42 47.825 Q981.565 43.9361 991.733 43.9361 L1002.18 43.9361 L1002.18 43.2069 Q1002.18 38.0623 998.781 35.2672 Q995.419 32.4315 989.302 32.4315 Q985.413 32.4315 981.727 33.3632 Q978.041 34.295 974.638 36.1584 L974.638 29.2718 Q978.729 27.692 982.578 26.9223 Q986.426 26.1121 990.072 26.1121 Q999.916 26.1121 1004.78 31.2163 Q1009.64 36.3204 1009.64 46.6907 Z" fill="#000000" fill-rule="nonzero" fill-opacity="1"></path><path clip-path="url(#clip180)" d="M1057.64 28.9478 L1057.64 35.9153 Q1054.48 34.1734 1051.28 33.3227 Q1048.12 32.4315 1044.88 32.4315 Q1037.63 32.4315 1033.62 37.0496 Q1029.61 41.6271 1029.61 49.9314 Q1029.61 58.2358 1033.62 62.8538 Q1037.63 67.4314 1044.88 67.4314 Q1048.12 67.4314 1051.28 66.5807 Q1054.48 65.6895 1057.64 63.9476 L1057.64 70.8341 Q1054.52 72.2924 1051.16 73.0216 Q1047.84 73.7508 1044.07 73.7508 Q1033.82 73.7508 1027.79 67.3098 Q1021.75 60.8689 1021.75 49.9314 Q1021.75 38.832 1027.83 32.472 Q1033.94 26.1121 1044.56 26.1121 Q1048 26.1121 1051.28 26.8413 Q1054.56 27.5299 1057.64 28.9478 Z" fill="#000000" fill-rule="nonzero" fill-opacity="1"></path><path clip-path="url(#clip180)" d="M1070.6 27.2059 L1078.06 27.2059 L1078.06 73.3862 Q1078.06 82.0551 1074.74 85.944 Q1071.45 89.8329 1064.12 89.8329 L1061.29 89.8329 L1061.29 83.5134 L1063.27 83.5134 Q1067.53 83.5134 1069.06 81.5285 Q1070.6 79.5841 1070.6 73.3862 L1070.6 27.2059 M1070.6 9.54393 L1078.06 9.54393 L1078.06 18.9825 L1070.6 18.9825 L1070.6 9.54393 Z" fill="#000000" fill-rule="nonzero" fill-opacity="1"></path><path clip-path="url(#clip180)" d="M1132.46 48.0275 L1132.46 51.6733 L1098.19 51.6733 Q1098.68 59.3701 1102.81 63.421 Q1106.98 67.4314 1114.39 67.4314 Q1118.69 67.4314 1122.7 66.3781 Q1126.75 65.3249 1130.72 63.2184 L1130.72 70.267 Q1126.71 71.9684 1122.5 72.8596 Q1118.28 73.7508 1113.95 73.7508 Q1103.09 73.7508 1096.73 67.4314 Q1090.41 61.1119 1090.41 50.3365 Q1090.41 39.1965 1096.41 32.6746 Q1102.44 26.1121 1112.65 26.1121 Q1121.81 26.1121 1127.11 32.0264 Q1132.46 37.9003 1132.46 48.0275 M1125.01 45.84 Q1124.93 39.7232 1121.56 36.0774 Q1118.24 32.4315 1112.73 32.4315 Q1106.49 32.4315 1102.73 35.9558 Q1099 39.4801 1098.43 45.8805 L1125.01 45.84 Z" fill="#000000" fill-rule="nonzero" fill-opacity="1"></path><polyline clip-path="url(#clip182)" style="stroke:#009af9; stroke-linecap:round; stroke-linejoin:round; stroke-width:4; stroke-opacity:1; fill:none" points="298.253,160.256 333.337,1386.4 368.421,1386.4 403.505,1386.4 438.59,1386.4 473.674,1386.4 508.758,1386.4 543.842,1386.4 578.927,1386.4 614.011,1386.4 649.095,1386.4 684.179,1386.4 719.264,1386.4 754.348,1386.4 789.432,1386.4 824.516,1386.4 859.601,1386.4 894.685,1386.4 929.769,1386.4 964.853,1386.4 999.938,1386.4 1035.02,1386.4 1070.11,1386.4 1105.19,1386.4 1140.27,1386.4 1175.36,1386.4 1210.44,1386.4 1245.53,1386.4 1280.61,1386.4 1315.7,1386.4 1350.78,1386.4 1385.86,1386.4 1420.95,1386.4 1456.03,1386.4 1491.12,1386.4 1526.2,1386.4 1561.29,1386.4 1596.37,1386.4 1631.45,1386.4 1666.54,1386.4 "></polyline>
<polyline clip-path="url(#clip182)" style="stroke:#e26f46; stroke-linecap:round; stroke-linejoin:round; stroke-width:4; stroke-opacity:1; fill:none" points="298.253,313.524 333.337,1041.54 368.421,1269.05 403.505,985.556 438.59,1312.93 473.674,911.46 508.758,1355.27 543.842,833.993 578.927,1380.39 614.011,785.274 649.095,1386.16 684.179,773.792 719.264,1386.4 754.348,773.327 789.432,1386.4 824.516,773.326 859.601,1386.4 894.685,773.326 929.769,1386.4 964.853,773.326 999.938,1386.4 1035.02,773.326 1070.11,1386.4 1105.19,773.326 1140.27,1386.4 1175.36,773.326 1210.44,1386.4 1245.53,773.326 1280.61,1386.4 1315.7,773.326 1350.78,1386.4 1385.86,773.326 1420.95,1386.4 1456.03,773.326 1491.12,1386.4 1526.2,773.326 1561.29,1386.4 1596.37,773.326 1631.45,1386.4 1666.54,773.326 "></polyline>
<polyline clip-path="url(#clip182)" style="stroke:#3da44d; stroke-linecap:round; stroke-linejoin:round; stroke-width:4; stroke-opacity:1; fill:none" points="298.253,620.059 333.337,1348.08 368.421,847.565 403.505,1377.41 438.59,791.174 473.674,1385.88 508.758,774.365 543.842,1386.39 578.927,773.33 614.011,1386.4 649.095,773.326 684.179,1386.4 719.264,773.326 754.348,1386.4 789.432,773.326 824.516,1386.4 859.601,773.326 894.685,1386.4 929.769,773.326 964.853,1386.4 999.938,773.326 1035.02,1386.4 1070.11,773.326 1105.19,1386.4 1140.27,773.326 1175.36,1386.4 1210.44,773.326 1245.53,1386.4 1280.61,773.326 1315.7,1386.4 1350.78,773.326 1385.86,1386.4 1420.95,773.326 1456.03,1386.4 1491.12,773.326 1526.2,1386.4 1561.29,773.326 1596.37,1386.4 1631.45,773.326 1666.54,1386.4 "></polyline>
<path clip-path="url(#clip180)" d="M1777.44 894.41 L2352.76 894.41 L2352.76 687.05 L1777.44 687.05  Z" fill="#ffffff" fill-rule="evenodd" fill-opacity="1"></path>
<polyline clip-path="url(#clip180)" style="stroke:#000000; stroke-linecap:round; stroke-linejoin:round; stroke-width:4; stroke-opacity:1; fill:none" points="1777.44,894.41 2352.76,894.41 2352.76,687.05 1777.44,687.05 1777.44,894.41 "></polyline>
<polyline clip-path="url(#clip180)" style="stroke:#009af9; stroke-linecap:round; stroke-linejoin:round; stroke-width:4; stroke-opacity:1; fill:none" points="1800.72,738.89 1940.43,738.89 "></polyline>
<path clip-path="url(#clip180)" d="M1988.36 730.244 L1978.99 742.859 L1988.85 756.17 L1983.83 756.17 L1976.28 745.984 L1968.73 756.17 L1963.71 756.17 L1973.78 742.605 L1964.57 730.244 L1969.59 730.244 L1976.46 739.48 L1983.34 730.244 L1988.36 730.244 Z" fill="#000000" fill-rule="nonzero" fill-opacity="1"></path><path clip-path="url(#clip180)" d="M2005.47 724.688 Q2001.86 724.688 2000.03 728.253 Q1998.22 731.795 1998.22 738.924 Q1998.22 746.031 2000.03 749.596 Q2001.86 753.137 2005.47 753.137 Q2009.1 753.137 2010.91 749.596 Q2012.74 746.031 2012.74 738.924 Q2012.74 731.795 2010.91 728.253 Q2009.1 724.688 2005.47 724.688 M2005.47 720.985 Q2011.28 720.985 2014.33 725.591 Q2017.41 730.174 2017.41 738.924 Q2017.41 747.651 2014.33 752.258 Q2011.28 756.841 2005.47 756.841 Q1999.66 756.841 1996.58 752.258 Q1993.52 747.651 1993.52 738.924 Q1993.52 730.174 1996.58 725.591 Q1999.66 720.985 2005.47 720.985 Z" fill="#000000" fill-rule="nonzero" fill-opacity="1"></path><path clip-path="url(#clip180)" d="M2025.58 734.642 L2055.26 734.642 L2055.26 738.531 L2025.58 738.531 L2025.58 734.642 M2025.58 744.086 L2055.26 744.086 L2055.26 748.021 L2025.58 748.021 L2025.58 744.086 Z" fill="#000000" fill-rule="nonzero" fill-opacity="1"></path><path clip-path="url(#clip180)" d="M2066.16 752.234 L2073.8 752.234 L2073.8 725.869 L2065.49 727.535 L2065.49 723.276 L2073.76 721.61 L2078.43 721.61 L2078.43 752.234 L2086.07 752.234 L2086.07 756.17 L2066.16 756.17 L2066.16 752.234 Z" fill="#000000" fill-rule="nonzero" fill-opacity="1"></path><path clip-path="url(#clip180)" d="M2095.51 750.29 L2100.4 750.29 L2100.4 756.17 L2095.51 756.17 L2095.51 750.29 Z" fill="#000000" fill-rule="nonzero" fill-opacity="1"></path><path clip-path="url(#clip180)" d="M2120.58 724.688 Q2116.97 724.688 2115.14 728.253 Q2113.34 731.795 2113.34 738.924 Q2113.34 746.031 2115.14 749.596 Q2116.97 753.137 2120.58 753.137 Q2124.22 753.137 2126.02 749.596 Q2127.85 746.031 2127.85 738.924 Q2127.85 731.795 2126.02 728.253 Q2124.22 724.688 2120.58 724.688 M2120.58 720.985 Q2126.39 720.985 2129.45 725.591 Q2132.53 730.174 2132.53 738.924 Q2132.53 747.651 2129.45 752.258 Q2126.39 756.841 2120.58 756.841 Q2114.77 756.841 2111.7 752.258 Q2108.64 747.651 2108.64 738.924 Q2108.64 730.174 2111.7 725.591 Q2114.77 720.985 2120.58 720.985 Z" fill="#000000" fill-rule="nonzero" fill-opacity="1"></path><path clip-path="url(#clip180)" d="M2170.24 734.225 Q2169.52 733.809 2168.66 733.623 Q2167.83 733.415 2166.81 733.415 Q2163.2 733.415 2161.26 735.776 Q2159.33 738.114 2159.33 742.512 L2159.33 756.17 L2155.05 756.17 L2155.05 730.244 L2159.33 730.244 L2159.33 734.272 Q2160.68 731.91 2162.83 730.776 Q2164.98 729.619 2168.06 729.619 Q2168.5 729.619 2169.03 729.688 Q2169.57 729.735 2170.21 729.85 L2170.24 734.225 Z" fill="#000000" fill-rule="nonzero" fill-opacity="1"></path><path clip-path="url(#clip180)" d="M2175.26 734.642 L2204.94 734.642 L2204.94 738.531 L2175.26 738.531 L2175.26 734.642 M2175.26 744.086 L2204.94 744.086 L2204.94 748.021 L2175.26 748.021 L2175.26 744.086 Z" fill="#000000" fill-rule="nonzero" fill-opacity="1"></path><path clip-path="url(#clip180)" d="M2212.27 741.285 L2224.75 741.285 L2224.75 745.082 L2212.27 745.082 L2212.27 741.285 Z" fill="#000000" fill-rule="nonzero" fill-opacity="1"></path><path clip-path="url(#clip180)" d="M2236.16 752.234 L2252.48 752.234 L2252.48 756.17 L2230.54 756.17 L2230.54 752.234 Q2233.2 749.48 2237.78 744.85 Q2242.39 740.197 2243.57 738.855 Q2245.82 736.332 2246.69 734.596 Q2247.6 732.836 2247.6 731.147 Q2247.6 728.392 2245.65 726.656 Q2243.73 724.92 2240.63 724.92 Q2238.43 724.92 2235.98 725.684 Q2233.55 726.448 2230.77 727.998 L2230.77 723.276 Q2233.59 722.142 2236.05 721.563 Q2238.5 720.985 2240.54 720.985 Q2245.91 720.985 2249.1 723.67 Q2252.3 726.355 2252.3 730.846 Q2252.3 732.975 2251.49 734.897 Q2250.7 736.795 2248.59 739.387 Q2248.01 740.059 2244.91 743.276 Q2241.81 746.471 2236.16 752.234 Z" fill="#000000" fill-rule="nonzero" fill-opacity="1"></path><path clip-path="url(#clip180)" d="M2262.3 750.29 L2267.18 750.29 L2267.18 756.17 L2262.3 756.17 L2262.3 750.29 Z" fill="#000000" fill-rule="nonzero" fill-opacity="1"></path><path clip-path="url(#clip180)" d="M2287.37 724.688 Q2283.75 724.688 2281.93 728.253 Q2280.12 731.795 2280.12 738.924 Q2280.12 746.031 2281.93 749.596 Q2283.75 753.137 2287.37 753.137 Q2291 753.137 2292.81 749.596 Q2294.63 746.031 2294.63 738.924 Q2294.63 731.795 2292.81 728.253 Q2291 724.688 2287.37 724.688 M2287.37 720.985 Q2293.18 720.985 2296.23 725.591 Q2299.31 730.174 2299.31 738.924 Q2299.31 747.651 2296.23 752.258 Q2293.18 756.841 2287.37 756.841 Q2281.56 756.841 2278.48 752.258 Q2275.42 747.651 2275.42 738.924 Q2275.42 730.174 2278.48 725.591 Q2281.56 720.985 2287.37 720.985 Z" fill="#000000" fill-rule="nonzero" fill-opacity="1"></path><polyline clip-path="url(#clip180)" style="stroke:#e26f46; stroke-linecap:round; stroke-linejoin:round; stroke-width:4; stroke-opacity:1; fill:none" points="1800.72,790.73 1940.43,790.73 "></polyline>
<path clip-path="url(#clip180)" d="M1988.36 782.084 L1978.99 794.699 L1988.85 808.01 L1983.83 808.01 L1976.28 797.824 L1968.73 808.01 L1963.71 808.01 L1973.78 794.445 L1964.57 782.084 L1969.59 782.084 L1976.46 791.32 L1983.34 782.084 L1988.36 782.084 Z" fill="#000000" fill-rule="nonzero" fill-opacity="1"></path><path clip-path="url(#clip180)" d="M2005.47 776.528 Q2001.86 776.528 2000.03 780.093 Q1998.22 783.635 1998.22 790.764 Q1998.22 797.871 2000.03 801.436 Q2001.86 804.977 2005.47 804.977 Q2009.1 804.977 2010.91 801.436 Q2012.74 797.871 2012.74 790.764 Q2012.74 783.635 2010.91 780.093 Q2009.1 776.528 2005.47 776.528 M2005.47 772.825 Q2011.28 772.825 2014.33 777.431 Q2017.41 782.014 2017.41 790.764 Q2017.41 799.491 2014.33 804.098 Q2011.28 808.681 2005.47 808.681 Q1999.66 808.681 1996.58 804.098 Q1993.52 799.491 1993.52 790.764 Q1993.52 782.014 1996.58 777.431 Q1999.66 772.825 2005.47 772.825 Z" fill="#000000" fill-rule="nonzero" fill-opacity="1"></path><path clip-path="url(#clip180)" d="M2025.58 786.482 L2055.26 786.482 L2055.26 790.371 L2025.58 790.371 L2025.58 786.482 M2025.58 795.926 L2055.26 795.926 L2055.26 799.861 L2025.58 799.861 L2025.58 795.926 Z" fill="#000000" fill-rule="nonzero" fill-opacity="1"></path><path clip-path="url(#clip180)" d="M2075.35 776.528 Q2071.74 776.528 2069.91 780.093 Q2068.11 783.635 2068.11 790.764 Q2068.11 797.871 2069.91 801.436 Q2071.74 804.977 2075.35 804.977 Q2078.99 804.977 2080.79 801.436 Q2082.62 797.871 2082.62 790.764 Q2082.62 783.635 2080.79 780.093 Q2078.99 776.528 2075.35 776.528 M2075.35 772.825 Q2081.16 772.825 2084.22 777.431 Q2087.3 782.014 2087.3 790.764 Q2087.3 799.491 2084.22 804.098 Q2081.16 808.681 2075.35 808.681 Q2069.54 808.681 2066.46 804.098 Q2063.41 799.491 2063.41 790.764 Q2063.41 782.014 2066.46 777.431 Q2069.54 772.825 2075.35 772.825 Z" fill="#000000" fill-rule="nonzero" fill-opacity="1"></path><path clip-path="url(#clip180)" d="M2095.51 802.13 L2100.4 802.13 L2100.4 808.01 L2095.51 808.01 L2095.51 802.13 Z" fill="#000000" fill-rule="nonzero" fill-opacity="1"></path><path clip-path="url(#clip180)" d="M2109.4 773.45 L2131.63 773.45 L2131.63 775.44 L2119.08 808.01 L2114.2 808.01 L2126 777.385 L2109.4 777.385 L2109.4 773.45 Z" fill="#000000" fill-rule="nonzero" fill-opacity="1"></path><path clip-path="url(#clip180)" d="M2140.79 773.45 L2159.15 773.45 L2159.15 777.385 L2145.07 777.385 L2145.07 785.857 Q2146.09 785.51 2147.11 785.348 Q2148.13 785.162 2149.15 785.162 Q2154.94 785.162 2158.32 788.334 Q2161.7 791.505 2161.7 796.922 Q2161.7 802.5 2158.22 805.602 Q2154.75 808.681 2148.43 808.681 Q2146.26 808.681 2143.99 808.31 Q2141.74 807.94 2139.33 807.199 L2139.33 802.5 Q2141.42 803.635 2143.64 804.19 Q2145.86 804.746 2148.34 804.746 Q2152.34 804.746 2154.68 802.639 Q2157.02 800.533 2157.02 796.922 Q2157.02 793.311 2154.68 791.204 Q2152.34 789.098 2148.34 789.098 Q2146.46 789.098 2144.59 789.514 Q2142.74 789.931 2140.79 790.811 L2140.79 773.45 Z" fill="#000000" fill-rule="nonzero" fill-opacity="1"></path><path clip-path="url(#clip180)" d="M2200.4 786.065 Q2199.68 785.649 2198.82 785.463 Q2197.99 785.255 2196.97 785.255 Q2193.36 785.255 2191.42 787.616 Q2189.5 789.954 2189.5 794.352 L2189.5 808.01 L2185.21 808.01 L2185.21 782.084 L2189.5 782.084 L2189.5 786.112 Q2190.84 783.75 2192.99 782.616 Q2195.14 781.459 2198.22 781.459 Q2198.66 781.459 2199.19 781.528 Q2199.73 781.575 2200.38 781.69 L2200.4 786.065 Z" fill="#000000" fill-rule="nonzero" fill-opacity="1"></path><path clip-path="url(#clip180)" d="M2205.42 786.482 L2235.1 786.482 L2235.1 790.371 L2205.42 790.371 L2205.42 786.482 M2205.42 795.926 L2235.1 795.926 L2235.1 799.861 L2205.42 799.861 L2205.42 795.926 Z" fill="#000000" fill-rule="nonzero" fill-opacity="1"></path><path clip-path="url(#clip180)" d="M2242.44 793.125 L2254.91 793.125 L2254.91 796.922 L2242.44 796.922 L2242.44 793.125 Z" fill="#000000" fill-rule="nonzero" fill-opacity="1"></path><path clip-path="url(#clip180)" d="M2263.11 804.074 L2270.75 804.074 L2270.75 777.709 L2262.44 779.375 L2262.44 775.116 L2270.7 773.45 L2275.38 773.45 L2275.38 804.074 L2283.01 804.074 L2283.01 808.01 L2263.11 808.01 L2263.11 804.074 Z" fill="#000000" fill-rule="nonzero" fill-opacity="1"></path><path clip-path="url(#clip180)" d="M2292.46 802.13 L2297.34 802.13 L2297.34 808.01 L2292.46 808.01 L2292.46 802.13 Z" fill="#000000" fill-rule="nonzero" fill-opacity="1"></path><path clip-path="url(#clip180)" d="M2317.53 776.528 Q2313.92 776.528 2312.09 780.093 Q2310.28 783.635 2310.28 790.764 Q2310.28 797.871 2312.09 801.436 Q2313.92 804.977 2317.53 804.977 Q2321.16 804.977 2322.97 801.436 Q2324.8 797.871 2324.8 790.764 Q2324.8 783.635 2322.97 780.093 Q2321.16 776.528 2317.53 776.528 M2317.53 772.825 Q2323.34 772.825 2326.39 777.431 Q2329.47 782.014 2329.47 790.764 Q2329.47 799.491 2326.39 804.098 Q2323.34 808.681 2317.53 808.681 Q2311.72 808.681 2308.64 804.098 Q2305.58 799.491 2305.58 790.764 Q2305.58 782.014 2308.64 777.431 Q2311.72 772.825 2317.53 772.825 Z" fill="#000000" fill-rule="nonzero" fill-opacity="1"></path><polyline clip-path="url(#clip180)" style="stroke:#3da44d; stroke-linecap:round; stroke-linejoin:round; stroke-width:4; stroke-opacity:1; fill:none" points="1800.72,842.57 1940.43,842.57 "></polyline>
<path clip-path="url(#clip180)" d="M1988.36 833.924 L1978.99 846.539 L1988.85 859.85 L1983.83 859.85 L1976.28 849.664 L1968.73 859.85 L1963.71 859.85 L1973.78 846.285 L1964.57 833.924 L1969.59 833.924 L1976.46 843.16 L1983.34 833.924 L1988.36 833.924 Z" fill="#000000" fill-rule="nonzero" fill-opacity="1"></path><path clip-path="url(#clip180)" d="M2005.47 828.368 Q2001.86 828.368 2000.03 831.933 Q1998.22 835.475 1998.22 842.604 Q1998.22 849.711 2000.03 853.276 Q2001.86 856.817 2005.47 856.817 Q2009.1 856.817 2010.91 853.276 Q2012.74 849.711 2012.74 842.604 Q2012.74 835.475 2010.91 831.933 Q2009.1 828.368 2005.47 828.368 M2005.47 824.665 Q2011.28 824.665 2014.33 829.271 Q2017.41 833.854 2017.41 842.604 Q2017.41 851.331 2014.33 855.938 Q2011.28 860.521 2005.47 860.521 Q1999.66 860.521 1996.58 855.938 Q1993.52 851.331 1993.52 842.604 Q1993.52 833.854 1996.58 829.271 Q1999.66 824.665 2005.47 824.665 Z" fill="#000000" fill-rule="nonzero" fill-opacity="1"></path><path clip-path="url(#clip180)" d="M2025.58 838.322 L2055.26 838.322 L2055.26 842.211 L2025.58 842.211 L2025.58 838.322 M2025.58 847.766 L2055.26 847.766 L2055.26 851.701 L2025.58 851.701 L2025.58 847.766 Z" fill="#000000" fill-rule="nonzero" fill-opacity="1"></path><path clip-path="url(#clip180)" d="M2075.35 828.368 Q2071.74 828.368 2069.91 831.933 Q2068.11 835.475 2068.11 842.604 Q2068.11 849.711 2069.91 853.276 Q2071.74 856.817 2075.35 856.817 Q2078.99 856.817 2080.79 853.276 Q2082.62 849.711 2082.62 842.604 Q2082.62 835.475 2080.79 831.933 Q2078.99 828.368 2075.35 828.368 M2075.35 824.665 Q2081.16 824.665 2084.22 829.271 Q2087.3 833.854 2087.3 842.604 Q2087.3 851.331 2084.22 855.938 Q2081.16 860.521 2075.35 860.521 Q2069.54 860.521 2066.46 855.938 Q2063.41 851.331 2063.41 842.604 Q2063.41 833.854 2066.46 829.271 Q2069.54 824.665 2075.35 824.665 Z" fill="#000000" fill-rule="nonzero" fill-opacity="1"></path><path clip-path="url(#clip180)" d="M2095.51 853.97 L2100.4 853.97 L2100.4 859.85 L2095.51 859.85 L2095.51 853.97 Z" fill="#000000" fill-rule="nonzero" fill-opacity="1"></path><path clip-path="url(#clip180)" d="M2114.61 855.914 L2130.93 855.914 L2130.93 859.85 L2108.99 859.85 L2108.99 855.914 Q2111.65 853.16 2116.23 848.53 Q2120.84 843.877 2122.02 842.535 Q2124.26 840.012 2125.14 838.276 Q2126.05 836.516 2126.05 834.827 Q2126.05 832.072 2124.1 830.336 Q2122.18 828.6 2119.08 828.6 Q2116.88 828.6 2114.43 829.364 Q2112 830.128 2109.22 831.678 L2109.22 826.956 Q2112.04 825.822 2114.5 825.243 Q2116.95 824.665 2118.99 824.665 Q2124.36 824.665 2127.55 827.35 Q2130.75 830.035 2130.75 834.526 Q2130.75 836.655 2129.94 838.577 Q2129.15 840.475 2127.04 843.067 Q2126.46 843.739 2123.36 846.956 Q2120.26 850.151 2114.61 855.914 Z" fill="#000000" fill-rule="nonzero" fill-opacity="1"></path><path clip-path="url(#clip180)" d="M2140.79 825.29 L2159.15 825.29 L2159.15 829.225 L2145.07 829.225 L2145.07 837.697 Q2146.09 837.35 2147.11 837.188 Q2148.13 837.002 2149.15 837.002 Q2154.94 837.002 2158.32 840.174 Q2161.7 843.345 2161.7 848.762 Q2161.7 854.34 2158.22 857.442 Q2154.75 860.521 2148.43 860.521 Q2146.26 860.521 2143.99 860.15 Q2141.74 859.78 2139.33 859.039 L2139.33 854.34 Q2141.42 855.475 2143.64 856.03 Q2145.86 856.586 2148.34 856.586 Q2152.34 856.586 2154.68 854.479 Q2157.02 852.373 2157.02 848.762 Q2157.02 845.151 2154.68 843.044 Q2152.34 840.938 2148.34 840.938 Q2146.46 840.938 2144.59 841.354 Q2142.74 841.771 2140.79 842.651 L2140.79 825.29 Z" fill="#000000" fill-rule="nonzero" fill-opacity="1"></path><path clip-path="url(#clip180)" d="M2200.4 837.905 Q2199.68 837.489 2198.82 837.303 Q2197.99 837.095 2196.97 837.095 Q2193.36 837.095 2191.42 839.456 Q2189.5 841.794 2189.5 846.192 L2189.5 859.85 L2185.21 859.85 L2185.21 833.924 L2189.5 833.924 L2189.5 837.952 Q2190.84 835.59 2192.99 834.456 Q2195.14 833.299 2198.22 833.299 Q2198.66 833.299 2199.19 833.368 Q2199.73 833.415 2200.38 833.53 L2200.4 837.905 Z" fill="#000000" fill-rule="nonzero" fill-opacity="1"></path><path clip-path="url(#clip180)" d="M2205.42 838.322 L2235.1 838.322 L2235.1 842.211 L2205.42 842.211 L2205.42 838.322 M2205.42 847.766 L2235.1 847.766 L2235.1 851.701 L2205.42 851.701 L2205.42 847.766 Z" fill="#000000" fill-rule="nonzero" fill-opacity="1"></path><path clip-path="url(#clip180)" d="M2242.44 844.965 L2254.91 844.965 L2254.91 848.762 L2242.44 848.762 L2242.44 844.965 Z" fill="#000000" fill-rule="nonzero" fill-opacity="1"></path><path clip-path="url(#clip180)" d="M2263.11 855.914 L2270.75 855.914 L2270.75 829.549 L2262.44 831.215 L2262.44 826.956 L2270.7 825.29 L2275.38 825.29 L2275.38 855.914 L2283.01 855.914 L2283.01 859.85 L2263.11 859.85 L2263.11 855.914 Z" fill="#000000" fill-rule="nonzero" fill-opacity="1"></path><path clip-path="url(#clip180)" d="M2292.46 853.97 L2297.34 853.97 L2297.34 859.85 L2292.46 859.85 L2292.46 853.97 Z" fill="#000000" fill-rule="nonzero" fill-opacity="1"></path><path clip-path="url(#clip180)" d="M2317.53 828.368 Q2313.92 828.368 2312.09 831.933 Q2310.28 835.475 2310.28 842.604 Q2310.28 849.711 2312.09 853.276 Q2313.92 856.817 2317.53 856.817 Q2321.16 856.817 2322.97 853.276 Q2324.8 849.711 2324.8 842.604 Q2324.8 835.475 2322.97 831.933 Q2321.16 828.368 2317.53 828.368 M2317.53 824.665 Q2323.34 824.665 2326.39 829.271 Q2329.47 833.854 2329.47 842.604 Q2329.47 851.331 2326.39 855.938 Q2323.34 860.521 2317.53 860.521 Q2311.72 860.521 2308.64 855.938 Q2305.58 851.331 2305.58 842.604 Q2305.58 833.854 2308.64 829.271 Q2311.72 824.665 2317.53 824.665 Z" fill="#000000" fill-rule="nonzero" fill-opacity="1"></path></svg>