<svg xmlns="http://www.w3.org/2000/svg" xmlns:xlink="http://www.w3.org/1999/xlink" width="600" height="400" viewBox="0 0 2400 1600">
<defs>
  <clipPath id="clip140">
    <rect x="0" y="0" width="2400" height="1600"></rect>
  </clipPath>
</defs>
<path clip-path="url(#clip140)" d="M0 1600 L2400 1600 L2400 0 L0 0  Z" fill="#ffffff" fill-rule="evenodd" fill-opacity="1"></path>
<defs>
  <clipPath id="clip141">
    <rect x="480" y="0" width="1681" height="1600"></rect>
  </clipPath>
</defs>
<path clip-path="url(#clip140)" d="M257.204 1423.18 L1720.64 1423.18 L1720.64 123.472 L257.204 123.472  Z" fill="#ffffff" fill-rule="evenodd" fill-opacity="1"></path>
<defs>
  <clipPath id="clip142">
    <rect x="257" y="123" width="1464" height="1301"></rect>
  </clipPath>
</defs>
<polyline clip-path="url(#clip142)" style="stroke:#000000; stroke-linecap:round; stroke-linejoin:round; stroke-width:2; stroke-opacity:0.1; fill:none" points="263.222,1423.18 263.222,123.472 "></polyline>
<polyline clip-path="url(#clip142)" style="stroke:#000000; stroke-linecap:round; stroke-linejoin:round; stroke-width:2; stroke-opacity:0.1; fill:none" points="617.223,1423.18 617.223,123.472 "></polyline>
<polyline clip-path="url(#clip142)" style="stroke:#000000; stroke-linecap:round; stroke-linejoin:round; stroke-width:2; stroke-opacity:0.1; fill:none" points="971.223,1423.18 971.223,123.472 "></polyline>
<polyline clip-path="url(#clip142)" style="stroke:#000000; stroke-linecap:round; stroke-linejoin:round; stroke-width:2; stroke-opacity:0.1; fill:none" points="1325.22,1423.18 1325.22,123.472 "></polyline>
<polyline clip-path="url(#clip142)" style="stroke:#000000; stroke-linecap:round; stroke-linejoin:round; stroke-width:2; stroke-opacity:0.1; fill:none" points="1679.22,1423.18 1679.22,123.472 "></polyline>
<polyline clip-path="url(#clip142)" style="stroke:#000000; stroke-linecap:round; stroke-linejoin:round; stroke-width:2; stroke-opacity:0.1; fill:none" points="257.204,1386.4 1720.64,1386.4 "></polyline>
<polyline clip-path="url(#clip142)" style="stroke:#000000; stroke-linecap:round; stroke-linejoin:round; stroke-width:2; stroke-opacity:0.1; fill:none" points="257.204,1079.86 1720.64,1079.86 "></polyline>
<polyline clip-path="url(#clip142)" style="stroke:#000000; stroke-linecap:round; stroke-linejoin:round; stroke-width:2; stroke-opacity:0.1; fill:none" points="257.204,773.326 1720.64,773.326 "></polyline>
<polyline clip-path="url(#clip142)" style="stroke:#000000; stroke-linecap:round; stroke-linejoin:round; stroke-width:2; stroke-opacity:0.1; fill:none" points="257.204,466.791 1720.64,466.791 "></polyline>
<polyline clip-path="url(#clip142)" style="stroke:#000000; stroke-linecap:round; stroke-linejoin:round; stroke-width:2; stroke-opacity:0.1; fill:none" points="257.204,160.256 1720.64,160.256 "></polyline>
<polyline clip-path="url(#clip140)" style="stroke:#000000; stroke-linecap:round; stroke-linejoin:round; stroke-width:4; stroke-opacity:1; fill:none" points="257.204,1423.18 1720.64,1423.18 "></polyline>
<polyline clip-path="url(#clip140)" style="stroke:#000000; stroke-linecap:round; stroke-linejoin:round; stroke-width:4; stroke-opacity:1; fill:none" points="263.222,1423.18 263.222,1404.28 "></polyline>
<polyline clip-path="url(#clip140)" style="stroke:#000000; stroke-linecap:round; stroke-linejoin:round; stroke-width:4; stroke-opacity:1; fill:none" points="617.223,1423.18 617.223,1404.28 "></polyline>
<polyline clip-path="url(#clip140)" style="stroke:#000000; stroke-linecap:round; stroke-linejoin:round; stroke-width:4; stroke-opacity:1; fill:none" points="971.223,1423.18 971.223,1404.28 "></polyline>
<polyline clip-path="url(#clip140)" style="stroke:#000000; stroke-linecap:round; stroke-linejoin:round; stroke-width:4; stroke-opacity:1; fill:none" points="1325.22,1423.18 1325.22,1404.28 "></polyline>
<polyline clip-path="url(#clip140)" style="stroke:#000000; stroke-linecap:round; stroke-linejoin:round; stroke-width:4; stroke-opacity:1; fill:none" points="1679.22,1423.18 1679.22,1404.28 "></polyline>
<path clip-path="url(#clip140)" d="M263.222 1454.1 Q259.611 1454.1 257.782 1457.66 Q255.977 1461.2 255.977 1468.33 Q255.977 1475.44 257.782 1479.01 Q259.611 1482.55 263.222 1482.55 Q266.856 1482.55 268.662 1479.01 Q270.491 1475.44 270.491 1468.33 Q270.491 1461.2 268.662 1457.66 Q266.856 1454.1 263.222 1454.1 M263.222 1450.39 Q269.032 1450.39 272.088 1455 Q275.166 1459.58 275.166 1468.33 Q275.166 1477.06 272.088 1481.67 Q269.032 1486.25 263.222 1486.25 Q257.412 1486.25 254.333 1481.67 Q251.278 1477.06 251.278 1468.33 Q251.278 1459.58 254.333 1455 Q257.412 1450.39 263.222 1450.39 Z" fill="#000000" fill-rule="nonzero" fill-opacity="1"></path><path clip-path="url(#clip140)" d="M591.91 1481.64 L599.549 1481.64 L599.549 1455.28 L591.239 1456.95 L591.239 1452.69 L599.503 1451.02 L604.179 1451.02 L604.179 1481.64 L611.818 1481.64 L611.818 1485.58 L591.91 1485.58 L591.91 1481.64 Z" fill="#000000" fill-rule="nonzero" fill-opacity="1"></path><path clip-path="url(#clip140)" d="M631.262 1454.1 Q627.651 1454.1 625.822 1457.66 Q624.017 1461.2 624.017 1468.33 Q624.017 1475.44 625.822 1479.01 Q627.651 1482.55 631.262 1482.55 Q634.896 1482.55 636.702 1479.01 Q638.53 1475.44 638.53 1468.33 Q638.53 1461.2 636.702 1457.66 Q634.896 1454.1 631.262 1454.1 M631.262 1450.39 Q637.072 1450.39 640.128 1455 Q643.206 1459.58 643.206 1468.33 Q643.206 1477.06 640.128 1481.67 Q637.072 1486.25 631.262 1486.25 Q625.452 1486.25 622.373 1481.67 Q619.318 1477.06 619.318 1468.33 Q619.318 1459.58 622.373 1455 Q625.452 1450.39 631.262 1450.39 Z" fill="#000000" fill-rule="nonzero" fill-opacity="1"></path><path clip-path="url(#clip140)" d="M949.997 1481.64 L966.316 1481.64 L966.316 1485.58 L944.372 1485.58 L944.372 1481.64 Q947.034 1478.89 951.617 1474.26 Q956.223 1469.61 957.404 1468.27 Q959.649 1465.74 960.529 1464.01 Q961.432 1462.25 961.432 1460.56 Q961.432 1457.8 959.487 1456.07 Q957.566 1454.33 954.464 1454.33 Q952.265 1454.33 949.811 1455.09 Q947.381 1455.86 944.603 1457.41 L944.603 1452.69 Q947.427 1451.55 949.881 1450.97 Q952.334 1450.39 954.371 1450.39 Q959.742 1450.39 962.936 1453.08 Q966.131 1455.77 966.131 1460.26 Q966.131 1462.39 965.321 1464.31 Q964.533 1466.2 962.427 1468.8 Q961.848 1469.47 958.746 1472.69 Q955.645 1475.88 949.997 1481.64 Z" fill="#000000" fill-rule="nonzero" fill-opacity="1"></path><path clip-path="url(#clip140)" d="M986.131 1454.1 Q982.519 1454.1 980.691 1457.66 Q978.885 1461.2 978.885 1468.33 Q978.885 1475.44 980.691 1479.01 Q982.519 1482.55 986.131 1482.55 Q989.765 1482.55 991.57 1479.01 Q993.399 1475.44 993.399 1468.33 Q993.399 1461.2 991.57 1457.66 Q989.765 1454.1 986.131 1454.1 M986.131 1450.39 Q991.941 1450.39 994.996 1455 Q998.075 1459.58 998.075 1468.33 Q998.075 1477.06 994.996 1481.67 Q991.941 1486.25 986.131 1486.25 Q980.32 1486.25 977.242 1481.67 Q974.186 1477.06 974.186 1468.33 Q974.186 1459.58 977.242 1455 Q980.32 1450.39 986.131 1450.39 Z" fill="#000000" fill-rule="nonzero" fill-opacity="1"></path><path clip-path="url(#clip140)" d="M1314.07 1466.95 Q1317.42 1467.66 1319.3 1469.93 Q1321.2 1472.2 1321.2 1475.53 Q1321.2 1480.65 1317.68 1483.45 Q1314.16 1486.25 1307.68 1486.25 Q1305.5 1486.25 1303.19 1485.81 Q1300.9 1485.39 1298.44 1484.54 L1298.44 1480.02 Q1300.39 1481.16 1302.7 1481.74 Q1305.02 1482.32 1307.54 1482.32 Q1311.94 1482.32 1314.23 1480.58 Q1316.54 1478.84 1316.54 1475.53 Q1316.54 1472.48 1314.39 1470.77 Q1312.26 1469.03 1308.44 1469.03 L1304.41 1469.03 L1304.41 1465.19 L1308.63 1465.19 Q1312.08 1465.19 1313.9 1463.82 Q1315.73 1462.43 1315.73 1459.84 Q1315.73 1457.18 1313.84 1455.77 Q1311.96 1454.33 1308.44 1454.33 Q1306.52 1454.33 1304.32 1454.75 Q1302.12 1455.16 1299.48 1456.04 L1299.48 1451.88 Q1302.15 1451.14 1304.46 1450.77 Q1306.8 1450.39 1308.86 1450.39 Q1314.18 1450.39 1317.28 1452.83 Q1320.39 1455.23 1320.39 1459.35 Q1320.39 1462.22 1318.74 1464.21 Q1317.1 1466.18 1314.07 1466.95 Z" fill="#000000" fill-rule="nonzero" fill-opacity="1"></path><path clip-path="url(#clip140)" d="M1340.06 1454.1 Q1336.45 1454.1 1334.62 1457.66 Q1332.82 1461.2 1332.82 1468.33 Q1332.82 1475.44 1334.62 1479.01 Q1336.45 1482.55 1340.06 1482.55 Q1343.7 1482.55 1345.5 1479.01 Q1347.33 1475.44 1347.33 1468.33 Q1347.33 1461.2 1345.5 1457.66 Q1343.7 1454.1 1340.06 1454.1 M1340.06 1450.39 Q1345.87 1450.39 1348.93 1455 Q1352.01 1459.58 1352.01 1468.33 Q1352.01 1477.06 1348.93 1481.67 Q1345.87 1486.25 1340.06 1486.25 Q1334.25 1486.25 1331.17 1481.67 Q1328.12 1477.06 1328.12 1468.33 Q1328.12 1459.58 1331.17 1455 Q1334.25 1450.39 1340.06 1450.39 Z" fill="#000000" fill-rule="nonzero" fill-opacity="1"></path><path clip-path="url(#clip140)" d="M1667.4 1455.09 L1655.59 1473.54 L1667.4 1473.54 L1667.4 1455.09 M1666.17 1451.02 L1672.05 1451.02 L1672.05 1473.54 L1676.98 1473.54 L1676.98 1477.43 L1672.05 1477.43 L1672.05 1485.58 L1667.4 1485.58 L1667.4 1477.43 L1651.79 1477.43 L1651.79 1472.92 L1666.17 1451.02 Z" fill="#000000" fill-rule="nonzero" fill-opacity="1"></path><path clip-path="url(#clip140)" d="M1694.71 1454.1 Q1691.1 1454.1 1689.27 1457.66 Q1687.47 1461.2 1687.47 1468.33 Q1687.47 1475.44 1689.27 1479.01 Q1691.1 1482.55 1694.71 1482.55 Q1698.34 1482.55 1700.15 1479.01 Q1701.98 1475.44 1701.98 1468.33 Q1701.98 1461.2 1700.15 1457.66 Q1698.34 1454.1 1694.71 1454.1 M1694.71 1450.39 Q1700.52 1450.39 1703.58 1455 Q1706.65 1459.58 1706.65 1468.33 Q1706.65 1477.06 1703.58 1481.67 Q1700.52 1486.25 1694.71 1486.25 Q1688.9 1486.25 1685.82 1481.67 Q1682.77 1477.06 1682.77 1468.33 Q1682.77 1459.58 1685.82 1455 Q1688.9 1450.39 1694.71 1450.39 Z" fill="#000000" fill-rule="nonzero" fill-opacity="1"></path><path clip-path="url(#clip140)" d="M1003.85 1546.53 L1003.85 1568.04 L997.994 1568.04 L997.994 1546.72 Q997.994 1541.66 996.021 1539.14 Q994.048 1536.63 990.101 1536.63 Q985.358 1536.63 982.621 1539.65 Q979.884 1542.68 979.884 1547.9 L979.884 1568.04 L973.996 1568.04 L973.996 1532.4 L979.884 1532.4 L979.884 1537.93 Q981.985 1534.72 984.817 1533.13 Q987.682 1531.54 991.406 1531.54 Q997.549 1531.54 1000.7 1535.36 Q1003.85 1539.14 1003.85 1546.53 Z" fill="#000000" fill-rule="nonzero" fill-opacity="1"></path><polyline clip-path="url(#clip140)" style="stroke:#000000; stroke-linecap:round; stroke-linejoin:round; stroke-width:4; stroke-opacity:1; fill:none" points="257.204,1423.18 257.204,123.472 "></polyline>
<polyline clip-path="url(#clip140)" style="stroke:#000000; stroke-linecap:round; stroke-linejoin:round; stroke-width:4; stroke-opacity:1; fill:none" points="257.204,1386.4 270.401,1386.4 "></polyline>
<polyline clip-path="url(#clip140)" style="stroke:#000000; stroke-linecap:round; stroke-linejoin:round; stroke-width:4; stroke-opacity:1; fill:none" points="257.204,1079.86 270.401,1079.86 "></polyline>
<polyline clip-path="url(#clip140)" style="stroke:#000000; stroke-linecap:round; stroke-linejoin:round; stroke-width:4; stroke-opacity:1; fill:none" points="257.204,773.326 270.401,773.326 "></polyline>
<polyline clip-path="url(#clip140)" style="stroke:#000000; stroke-linecap:round; stroke-linejoin:round; stroke-width:4; stroke-opacity:1; fill:none" points="257.204,466.791 270.401,466.791 "></polyline>
<polyline clip-path="url(#clip140)" style="stroke:#000000; stroke-linecap:round; stroke-linejoin:round; stroke-width:4; stroke-opacity:1; fill:none" points="257.204,160.256 270.401,160.256 "></polyline>
<path clip-path="url(#clip140)" d="M114.26 1386.85 L143.936 1386.85 L143.936 1390.78 L114.26 1390.78 L114.26 1386.85 Z" fill="#000000" fill-rule="nonzero" fill-opacity="1"></path><path clip-path="url(#clip140)" d="M154.839 1399.74 L162.477 1399.74 L162.477 1373.37 L154.167 1375.04 L154.167 1370.78 L162.431 1369.12 L167.107 1369.12 L167.107 1399.74 L174.746 1399.74 L174.746 1403.68 L154.839 1403.68 L154.839 1399.74 Z" fill="#000000" fill-rule="nonzero" fill-opacity="1"></path><path clip-path="url(#clip140)" d="M184.19 1397.8 L189.075 1397.8 L189.075 1403.68 L184.19 1403.68 L184.19 1397.8 Z" fill="#000000" fill-rule="nonzero" fill-opacity="1"></path><path clip-path="url(#clip140)" d="M209.26 1372.19 Q205.649 1372.19 203.82 1375.76 Q202.014 1379.3 202.014 1386.43 Q202.014 1393.54 203.82 1397.1 Q205.649 1400.64 209.26 1400.64 Q212.894 1400.64 214.699 1397.1 Q216.528 1393.54 216.528 1386.43 Q216.528 1379.3 214.699 1375.76 Q212.894 1372.19 209.26 1372.19 M209.26 1368.49 Q215.07 1368.49 218.125 1373.1 Q221.204 1377.68 221.204 1386.43 Q221.204 1395.16 218.125 1399.76 Q215.07 1404.35 209.26 1404.35 Q203.449 1404.35 200.371 1399.76 Q197.315 1395.16 197.315 1386.43 Q197.315 1377.68 200.371 1373.1 Q203.449 1368.49 209.26 1368.49 Z" fill="#000000" fill-rule="nonzero" fill-opacity="1"></path><path clip-path="url(#clip140)" d="M115.256 1080.31 L144.931 1080.31 L144.931 1084.25 L115.256 1084.25 L115.256 1080.31 Z" fill="#000000" fill-rule="nonzero" fill-opacity="1"></path><path clip-path="url(#clip140)" d="M165.024 1065.66 Q161.413 1065.66 159.584 1069.22 Q157.778 1072.77 157.778 1079.9 Q157.778 1087 159.584 1090.57 Q161.413 1094.11 165.024 1094.11 Q168.658 1094.11 170.464 1090.57 Q172.292 1087 172.292 1079.9 Q172.292 1072.77 170.464 1069.22 Q168.658 1065.66 165.024 1065.66 M165.024 1061.96 Q170.834 1061.96 173.889 1066.56 Q176.968 1071.15 176.968 1079.9 Q176.968 1088.62 173.889 1093.23 Q170.834 1097.81 165.024 1097.81 Q159.214 1097.81 156.135 1093.23 Q153.079 1088.62 153.079 1079.9 Q153.079 1071.15 156.135 1066.56 Q159.214 1061.96 165.024 1061.96 Z" fill="#000000" fill-rule="nonzero" fill-opacity="1"></path><path clip-path="url(#clip140)" d="M185.186 1091.26 L190.07 1091.26 L190.07 1097.14 L185.186 1097.14 L185.186 1091.26 Z" fill="#000000" fill-rule="nonzero" fill-opacity="1"></path><path clip-path="url(#clip140)" d="M200.301 1062.58 L218.658 1062.58 L218.658 1066.52 L204.584 1066.52 L204.584 1074.99 Q205.602 1074.64 206.621 1074.48 Q207.639 1074.29 208.658 1074.29 Q214.445 1074.29 217.824 1077.47 Q221.204 1080.64 221.204 1086.05 Q221.204 1091.63 217.732 1094.73 Q214.26 1097.81 207.94 1097.81 Q205.764 1097.81 203.496 1097.44 Q201.25 1097.07 198.843 1096.33 L198.843 1091.63 Q200.926 1092.77 203.149 1093.32 Q205.371 1093.88 207.848 1093.88 Q211.852 1093.88 214.19 1091.77 Q216.528 1089.66 216.528 1086.05 Q216.528 1082.44 214.19 1080.34 Q211.852 1078.23 207.848 1078.23 Q205.973 1078.23 204.098 1078.65 Q202.246 1079.06 200.301 1079.94 L200.301 1062.58 Z" fill="#000000" fill-rule="nonzero" fill-opacity="1"></path><path clip-path="url(#clip140)" d="M164.028 759.125 Q160.417 759.125 158.589 762.689 Q156.783 766.231 156.783 773.361 Q156.783 780.467 158.589 784.032 Q160.417 787.574 164.028 787.574 Q167.663 787.574 169.468 784.032 Q171.297 780.467 171.297 773.361 Q171.297 766.231 169.468 762.689 Q167.663 759.125 164.028 759.125 M164.028 755.421 Q169.839 755.421 172.894 760.027 Q175.973 764.611 175.973 773.361 Q175.973 782.088 172.894 786.694 Q169.839 791.277 164.028 791.277 Q158.218 791.277 155.14 786.694 Q152.084 782.088 152.084 773.361 Q152.084 764.611 155.14 760.027 Q158.218 755.421 164.028 755.421 Z" fill="#000000" fill-rule="nonzero" fill-opacity="1"></path><path clip-path="url(#clip140)" d="M184.19 784.726 L189.075 784.726 L189.075 790.606 L184.19 790.606 L184.19 784.726 Z" fill="#000000" fill-rule="nonzero" fill-opacity="1"></path><path clip-path="url(#clip140)" d="M209.26 759.125 Q205.649 759.125 203.82 762.689 Q202.014 766.231 202.014 773.361 Q202.014 780.467 203.82 784.032 Q205.649 787.574 209.26 787.574 Q212.894 787.574 214.699 784.032 Q216.528 780.467 216.528 773.361 Q216.528 766.231 214.699 762.689 Q212.894 759.125 209.26 759.125 M209.26 755.421 Q215.07 755.421 218.125 760.027 Q221.204 764.611 221.204 773.361 Q221.204 782.088 218.125 786.694 Q215.07 791.277 209.26 791.277 Q203.449 791.277 200.371 786.694 Q197.315 782.088 197.315 773.361 Q197.315 764.611 200.371 760.027 Q203.449 755.421 209.26 755.421 Z" fill="#000000" fill-rule="nonzero" fill-opacity="1"></path><path clip-path="url(#clip140)" d="M165.024 452.59 Q161.413 452.59 159.584 456.155 Q157.778 459.696 157.778 466.826 Q157.778 473.932 159.584 477.497 Q161.413 481.039 165.024 481.039 Q168.658 481.039 170.464 477.497 Q172.292 473.932 172.292 466.826 Q172.292 459.696 170.464 456.155 Q168.658 452.59 165.024 452.59 M165.024 448.886 Q170.834 448.886 173.889 453.493 Q176.968 458.076 176.968 466.826 Q176.968 475.553 173.889 480.159 Q170.834 484.742 165.024 484.742 Q159.214 484.742 156.135 480.159 Q153.079 475.553 153.079 466.826 Q153.079 458.076 156.135 453.493 Q159.214 448.886 165.024 448.886 Z" fill="#000000" fill-rule="nonzero" fill-opacity="1"></path><path clip-path="url(#clip140)" d="M185.186 478.192 L190.07 478.192 L190.07 484.071 L185.186 484.071 L185.186 478.192 Z" fill="#000000" fill-rule="nonzero" fill-opacity="1"></path><path clip-path="url(#clip140)" d="M200.301 449.511 L218.658 449.511 L218.658 453.446 L204.584 453.446 L204.584 461.918 Q205.602 461.571 206.621 461.409 Q207.639 461.224 208.658 461.224 Q214.445 461.224 217.824 464.395 Q221.204 467.567 221.204 472.983 Q221.204 478.562 217.732 481.664 Q214.26 484.742 207.94 484.742 Q205.764 484.742 203.496 484.372 Q201.25 484.002 198.843 483.261 L198.843 478.562 Q200.926 479.696 203.149 480.252 Q205.371 480.807 207.848 480.807 Q211.852 480.807 214.19 478.701 Q216.528 476.594 216.528 472.983 Q216.528 469.372 214.19 467.266 Q211.852 465.159 207.848 465.159 Q205.973 465.159 204.098 465.576 Q202.246 465.993 200.301 466.872 L200.301 449.511 Z" fill="#000000" fill-rule="nonzero" fill-opacity="1"></path><path clip-path="url(#clip140)" d="M154.839 173.601 L162.477 173.601 L162.477 147.236 L154.167 148.902 L154.167 144.643 L162.431 142.976 L167.107 142.976 L167.107 173.601 L174.746 173.601 L174.746 177.536 L154.839 177.536 L154.839 173.601 Z" fill="#000000" fill-rule="nonzero" fill-opacity="1"></path><path clip-path="url(#clip140)" d="M184.19 171.657 L189.075 171.657 L189.075 177.536 L184.19 177.536 L184.19 171.657 Z" fill="#000000" fill-rule="nonzero" fill-opacity="1"></path><path clip-path="url(#clip140)" d="M209.26 146.055 Q205.649 146.055 203.82 149.62 Q202.014 153.161 202.014 160.291 Q202.014 167.397 203.82 170.962 Q205.649 174.504 209.26 174.504 Q212.894 174.504 214.699 170.962 Q216.528 167.397 216.528 160.291 Q216.528 153.161 214.699 149.62 Q212.894 146.055 209.26 146.055 M209.26 142.351 Q215.07 142.351 218.125 146.958 Q221.204 151.541 221.204 160.291 Q221.204 169.018 218.125 173.624 Q215.07 178.208 209.26 178.208 Q203.449 178.208 200.371 173.624 Q197.315 169.018 197.315 160.291 Q197.315 151.541 200.371 146.958 Q203.449 142.351 209.26 142.351 Z" fill="#000000" fill-rule="nonzero" fill-opacity="1"></path><path clip-path="url(#clip140)" d="M28.3562 775.665 L45.7028 788.556 L64.0042 774.997 L64.0042 781.904 L49.9996 792.28 L64.0042 802.656 L64.0042 809.563 L45.3526 795.717 L28.3562 808.385 L28.3562 801.478 L41.0558 792.025 L28.3562 782.572 L28.3562 775.665 Z" fill="#000000" fill-rule="nonzero" fill-opacity="1"></path><path clip-path="url(#clip140)" d="M42.4881 737.089 L64.0042 737.089 L64.0042 742.946 L42.679 742.946 Q37.6183 742.946 35.1038 744.919 Q32.5894 746.892 32.5894 750.839 Q32.5894 755.582 35.6131 758.319 Q38.6368 761.056 43.8567 761.056 L64.0042 761.056 L64.0042 766.944 L28.3562 766.944 L28.3562 761.056 L33.8944 761.056 Q30.6797 758.955 29.0883 756.123 Q27.4968 753.258 27.4968 749.534 Q27.4968 743.391 31.3163 740.24 Q35.1038 737.089 42.4881 737.089 Z" fill="#000000" fill-rule="nonzero" fill-opacity="1"></path><path clip-path="url(#clip140)" d="M838.858 12.096 L847.04 12.096 L847.04 72.576 L838.858 72.576 L838.858 12.096 Z" fill="#000000" fill-rule="nonzero" fill-opacity="1"></path><path clip-path="url(#clip140)" d="M870.374 14.324 L870.374 27.2059 L885.727 27.2059 L885.727 32.9987 L870.374 32.9987 L870.374 57.6282 Q870.374 63.1779 871.872 64.7578 Q873.412 66.3376 878.07 66.3376 L885.727 66.3376 L885.727 72.576 L878.07 72.576 Q869.442 72.576 866.161 69.3758 Q862.879 66.1351 862.879 57.6282 L862.879 32.9987 L857.411 32.9987 L857.411 27.2059 L862.879 27.2059 L862.879 14.324 L870.374 14.324 Z" fill="#000000" fill-rule="nonzero" fill-opacity="1"></path><path clip-path="url(#clip140)" d="M934.337 48.0275 L934.337 51.6733 L900.067 51.6733 Q900.553 59.3701 904.685 63.421 Q908.857 67.4314 916.27 67.4314 Q920.564 67.4314 924.575 66.3781 Q928.626 65.3249 932.595 63.2184 L932.595 70.267 Q928.585 71.9684 924.372 72.8596 Q920.159 73.7508 915.825 73.7508 Q904.968 73.7508 898.608 67.4314 Q892.289 61.1119 892.289 50.3365 Q892.289 39.1965 898.284 32.6746 Q904.32 26.1121 914.528 26.1121 Q923.683 26.1121 928.99 32.0264 Q934.337 37.9003 934.337 48.0275 M926.884 45.84 Q926.803 39.7232 923.44 36.0774 Q920.119 32.4315 914.609 32.4315 Q908.371 32.4315 904.604 35.9558 Q900.877 39.4801 900.31 45.8805 L926.884 45.84 Z" fill="#000000" fill-rule="nonzero" fill-opacity="1"></path><path clip-path="url(#clip140)" d="M972.861 34.1734 Q971.606 33.4443 970.107 33.1202 Q968.649 32.7556 966.866 32.7556 Q960.547 32.7556 957.144 36.8875 Q953.782 40.9789 953.782 48.6757 L953.782 72.576 L946.288 72.576 L946.288 27.2059 L953.782 27.2059 L953.782 34.2544 Q956.131 30.1225 959.899 28.1376 Q963.666 26.1121 969.054 26.1121 Q969.823 26.1121 970.755 26.2337 Q971.687 26.3147 972.821 26.5172 L972.861 34.1734 Z" fill="#000000" fill-rule="nonzero" fill-opacity="1"></path><path clip-path="url(#clip140)" d="M1001.3 49.7694 Q992.265 49.7694 988.782 51.8354 Q985.298 53.9013 985.298 58.8839 Q985.298 62.8538 987.89 65.2034 Q990.523 67.5124 995.02 67.5124 Q1001.22 67.5124 1004.94 63.1374 Q1008.71 58.7219 1008.71 51.4303 L1008.71 49.7694 L1001.3 49.7694 M1016.17 46.6907 L1016.17 72.576 L1008.71 72.576 L1008.71 65.6895 Q1006.16 69.8214 1002.35 71.8063 Q998.544 73.7508 993.035 73.7508 Q986.067 73.7508 981.935 69.8619 Q977.844 65.9325 977.844 59.3701 Q977.844 51.7138 982.948 47.825 Q988.093 43.9361 998.261 43.9361 L1008.71 43.9361 L1008.71 43.2069 Q1008.71 38.0623 1005.31 35.2672 Q1001.95 32.4315 995.83 32.4315 Q991.941 32.4315 988.255 33.3632 Q984.569 34.295 981.166 36.1584 L981.166 29.2718 Q985.257 27.692 989.106 26.9223 Q992.954 26.1121 996.6 26.1121 Q1006.44 26.1121 1011.3 31.2163 Q1016.17 36.3204 1016.17 46.6907 Z" fill="#000000" fill-rule="nonzero" fill-opacity="1"></path><path clip-path="url(#clip140)" d="M1064.17 28.9478 L1064.17 35.9153 Q1061.01 34.1734 1057.81 33.3227 Q1054.65 32.4315 1051.41 32.4315 Q1044.16 32.4315 1040.15 37.0496 Q1036.14 41.6271 1036.14 49.9314 Q1036.14 58.2358 1040.15 62.8538 Q1044.16 67.4314 1051.41 67.4314 Q1054.65 67.4314 1057.81 66.5807 Q1061.01 65.6895 1064.17 63.9476 L1064.17 70.8341 Q1061.05 72.2924 1057.69 73.0216 Q1054.37 73.7508 1050.6 73.7508 Q1040.35 73.7508 1034.31 67.3098 Q1028.28 60.8689 1028.28 49.9314 Q1028.28 38.832 1034.35 32.472 Q1040.47 26.1121 1051.08 26.1121 Q1054.53 26.1121 1057.81 26.8413 Q1061.09 27.5299 1064.17 28.9478 Z" fill="#000000" fill-rule="nonzero" fill-opacity="1"></path><path clip-path="url(#clip140)" d="M1077.13 27.2059 L1084.59 27.2059 L1084.59 73.3862 Q1084.59 82.0551 1081.26 85.944 Q1077.98 89.8329 1070.65 89.8329 L1067.81 89.8329 L1067.81 83.5134 L1069.8 83.5134 Q1074.05 83.5134 1075.59 81.5285 Q1077.13 79.5841 1077.13 73.3862 L1077.13 27.2059 M1077.13 9.54393 L1084.59 9.54393 L1084.59 18.9825 L1077.13 18.9825 L1077.13 9.54393 Z" fill="#000000" fill-rule="nonzero" fill-opacity="1"></path><path clip-path="url(#clip140)" d="M1138.99 48.0275 L1138.99 51.6733 L1104.72 51.6733 Q1105.2 59.3701 1109.34 63.421 Q1113.51 67.4314 1120.92 67.4314 Q1125.22 67.4314 1129.23 66.3781 Q1133.28 65.3249 1137.25 63.2184 L1137.25 70.267 Q1133.24 71.9684 1129.02 72.8596 Q1124.81 73.7508 1120.48 73.7508 Q1109.62 73.7508 1103.26 67.4314 Q1096.94 61.1119 1096.94 50.3365 Q1096.94 39.1965 1102.94 32.6746 Q1108.97 26.1121 1119.18 26.1121 Q1128.34 26.1121 1133.64 32.0264 Q1138.99 37.9003 1138.99 48.0275 M1131.54 45.84 Q1131.45 39.7232 1128.09 36.0774 Q1124.77 32.4315 1119.26 32.4315 Q1113.02 32.4315 1109.26 35.9558 Q1105.53 39.4801 1104.96 45.8805 L1131.54 45.84 Z" fill="#000000" fill-rule="nonzero" fill-opacity="1"></path><polyline clip-path="url(#clip142)" style="stroke:#009af9; stroke-linecap:round; stroke-linejoin:round; stroke-width:4; stroke-opacity:1; fill:none" points="298.622,160.256 334.022,1386.4 369.422,1386.4 404.822,1386.4 440.222,1386.4 475.622,1386.4 511.022,1386.4 546.423,1386.4 581.823,1386.4 617.223,1386.4 652.623,1386.4 688.023,1386.4 723.423,1386.4 758.823,1386.4 794.223,1386.4 829.623,1386.4 865.023,1386.4 900.423,1386.4 935.823,1386.4 971.223,1386.4 1006.62,1386.4 1042.02,1386.4 1077.42,1386.4 1112.82,1386.4 1148.22,1386.4 1183.62,1386.4 1219.02,1386.4 1254.42,1386.4 1289.82,1386.4 1325.22,1386.4 1360.62,1386.4 1396.02,1386.4 1431.42,1386.4 1466.82,1386.4 1502.22,1386.4 1537.62,1386.4 1573.02,1386.4 1608.42,1386.4 1643.82,1386.4 1679.22,1386.4 "></polyline>
<polyline clip-path="url(#clip142)" style="stroke:#ff0000; stroke-linecap:round; stroke-linejoin:round; stroke-width:4; stroke-opacity:1; fill:none" points="298.622,160.256 334.022,773.326 369.422,1386.4 404.822,773.326 440.222,1386.4 475.622,773.326 511.022,1386.4 546.423,773.326 581.823,1386.4 617.223,773.326 652.623,1386.4 688.023,773.326 723.423,1386.4 758.823,773.326 794.223,1386.4 829.623,773.326 865.023,1386.4 900.423,773.326 935.823,1386.4 971.223,773.326 1006.62,1386.4 1042.02,773.326 1077.42,1386.4 1112.82,773.326 1148.22,1386.4 1183.62,773.326 1219.02,1386.4 1254.42,773.326 1289.82,1386.4 1325.22,773.326 1360.62,1386.4 1396.02,773.326 1431.42,1386.4 1466.82,773.326 1502.22,1386.4 1537.62,773.326 1573.02,1386.4 1608.42,773.326 1643.82,1386.4 1679.22,773.326 "></polyline>
<polyline clip-path="url(#clip142)" style="stroke:#3da44d; stroke-linecap:round; stroke-linejoin:round; stroke-width:4; stroke-opacity:1; fill:none" stroke-dasharray="16, 10" points="298.622,1386.4 334.022,773.326 369.422,1386.4 404.822,773.326 440.222,1386.4 475.622,773.326 511.022,1386.4 546.423,773.326 581.823,1386.4 617.223,773.326 652.623,1386.4 688.023,773.326 723.423,1386.4 758.823,773.326 794.223,1386.4 829.623,773.326 865.023,1386.4 900.423,773.326 935.823,1386.4 971.223,773.326 1006.62,1386.4 1042.02,773.326 1077.42,1386.4 1112.82,773.326 1148.22,1386.4 1183.62,773.326 1219.02,1386.4 1254.42,773.326 1289.82,1386.4 1325.22,773.326 1360.62,1386.4 1396.02,773.326 1431.42,1386.4 1466.82,773.326 1502.22,1386.4 1537.62,773.326 1573.02,1386.4 1608.42,773.326 1643.82,1386.4 1679.22,773.326 "></polyline>
<path clip-path="url(#clip140)" d="M1790.49 894.41 L2352.76 894.41 L2352.76 687.05 L1790.49 687.05  Z" fill="#ffffff" fill-rule="evenodd" fill-opacity="1"></path>
<polyline clip-path="url(#clip140)" style="stroke:#000000; stroke-linecap:round; stroke-linejoin:round; stroke-width:4; stroke-opacity:1; fill:none" points="1790.49,894.41 2352.76,894.41 2352.76,687.05 1790.49,687.05 1790.49,894.41 "></polyline>
<polyline clip-path="url(#clip140)" style="stroke:#009af9; stroke-linecap:round; stroke-linejoin:round; stroke-width:4; stroke-opacity:1; fill:none" points="1813.78,738.89 1953.48,738.89 "></polyline>
<path clip-path="url(#clip140)" d="M2001.42 730.244 L1992.04 742.859 L2001.9 756.17 L1996.88 756.17 L1989.33 745.984 L1981.79 756.17 L1976.77 756.17 L1986.83 742.605 L1977.62 730.244 L1982.65 730.244 L1989.52 739.48 L1996.4 730.244 L2001.42 730.244 Z" fill="#000000" fill-rule="nonzero" fill-opacity="1"></path><path clip-path="url(#clip140)" d="M2018.52 724.688 Q2014.91 724.688 2013.08 728.253 Q2011.28 731.795 2011.28 738.924 Q2011.28 746.031 2013.08 749.596 Q2014.91 753.137 2018.52 753.137 Q2022.16 753.137 2023.96 749.596 Q2025.79 746.031 2025.79 738.924 Q2025.79 731.795 2023.96 728.253 Q2022.16 724.688 2018.52 724.688 M2018.52 720.985 Q2024.33 720.985 2027.39 725.591 Q2030.47 730.174 2030.47 738.924 Q2030.47 747.651 2027.39 752.258 Q2024.33 756.841 2018.52 756.841 Q2012.71 756.841 2009.64 752.258 Q2006.58 747.651 2006.58 738.924 Q2006.58 730.174 2009.64 725.591 Q2012.71 720.985 2018.52 720.985 Z" fill="#000000" fill-rule="nonzero" fill-opacity="1"></path><path clip-path="url(#clip140)" d="M2038.64 734.642 L2068.32 734.642 L2068.32 738.531 L2038.64 738.531 L2038.64 734.642 M2038.64 744.086 L2068.32 744.086 L2068.32 748.021 L2038.64 748.021 L2038.64 744.086 Z" fill="#000000" fill-rule="nonzero" fill-opacity="1"></path><path clip-path="url(#clip140)" d="M2079.22 752.234 L2086.86 752.234 L2086.86 725.869 L2078.55 727.535 L2078.55 723.276 L2086.81 721.61 L2091.49 721.61 L2091.49 752.234 L2099.13 752.234 L2099.13 756.17 L2079.22 756.17 L2079.22 752.234 Z" fill="#000000" fill-rule="nonzero" fill-opacity="1"></path><path clip-path="url(#clip140)" d="M2108.57 750.29 L2113.45 750.29 L2113.45 756.17 L2108.57 756.17 L2108.57 750.29 Z" fill="#000000" fill-rule="nonzero" fill-opacity="1"></path><path clip-path="url(#clip140)" d="M2133.64 724.688 Q2130.03 724.688 2128.2 728.253 Q2126.39 731.795 2126.39 738.924 Q2126.39 746.031 2128.2 749.596 Q2130.03 753.137 2133.64 753.137 Q2137.27 753.137 2139.08 749.596 Q2140.91 746.031 2140.91 738.924 Q2140.91 731.795 2139.08 728.253 Q2137.27 724.688 2133.64 724.688 M2133.64 720.985 Q2139.45 720.985 2142.51 725.591 Q2145.58 730.174 2145.58 738.924 Q2145.58 747.651 2142.51 752.258 Q2139.45 756.841 2133.64 756.841 Q2127.83 756.841 2124.75 752.258 Q2121.7 747.651 2121.7 738.924 Q2121.7 730.174 2124.75 725.591 Q2127.83 720.985 2133.64 720.985 Z" fill="#000000" fill-rule="nonzero" fill-opacity="1"></path><path clip-path="url(#clip140)" d="M2183.29 734.225 Q2182.57 733.809 2181.72 733.623 Q2180.88 733.415 2179.87 733.415 Q2176.26 733.415 2174.31 735.776 Q2172.39 738.114 2172.39 742.512 L2172.39 756.17 L2168.11 756.17 L2168.11 730.244 L2172.39 730.244 L2172.39 734.272 Q2173.73 731.91 2175.88 730.776 Q2178.04 729.619 2181.12 729.619 Q2181.56 729.619 2182.09 729.688 Q2182.62 729.735 2183.27 729.85 L2183.29 734.225 Z" fill="#000000" fill-rule="nonzero" fill-opacity="1"></path><path clip-path="url(#clip140)" d="M2188.32 734.642 L2217.99 734.642 L2217.99 738.531 L2188.32 738.531 L2188.32 734.642 M2188.32 744.086 L2217.99 744.086 L2217.99 748.021 L2188.32 748.021 L2188.32 744.086 Z" fill="#000000" fill-rule="nonzero" fill-opacity="1"></path><path clip-path="url(#clip140)" d="M2225.33 741.285 L2237.81 741.285 L2237.81 745.082 L2225.33 745.082 L2225.33 741.285 Z" fill="#000000" fill-rule="nonzero" fill-opacity="1"></path><path clip-path="url(#clip140)" d="M2249.22 752.234 L2265.54 752.234 L2265.54 756.17 L2243.59 756.17 L2243.59 752.234 Q2246.25 749.48 2250.84 744.85 Q2255.44 740.197 2256.63 738.855 Q2258.87 736.332 2259.75 734.596 Q2260.65 732.836 2260.65 731.147 Q2260.65 728.392 2258.71 726.656 Q2256.79 724.92 2253.69 724.92 Q2251.49 724.92 2249.03 725.684 Q2246.6 726.448 2243.82 727.998 L2243.82 723.276 Q2246.65 722.142 2249.1 721.563 Q2251.56 720.985 2253.59 720.985 Q2258.96 720.985 2262.16 723.67 Q2265.35 726.355 2265.35 730.846 Q2265.35 732.975 2264.54 734.897 Q2263.75 736.795 2261.65 739.387 Q2261.07 740.059 2257.97 743.276 Q2254.87 746.471 2249.22 752.234 Z" fill="#000000" fill-rule="nonzero" fill-opacity="1"></path><path clip-path="url(#clip140)" d="M2275.35 750.29 L2280.24 750.29 L2280.24 756.17 L2275.35 756.17 L2275.35 750.29 Z" fill="#000000" fill-rule="nonzero" fill-opacity="1"></path><path clip-path="url(#clip140)" d="M2300.42 724.688 Q2296.81 724.688 2294.98 728.253 Q2293.18 731.795 2293.18 738.924 Q2293.18 746.031 2294.98 749.596 Q2296.81 753.137 2300.42 753.137 Q2304.06 753.137 2305.86 749.596 Q2307.69 746.031 2307.69 738.924 Q2307.69 731.795 2305.86 728.253 Q2304.06 724.688 2300.42 724.688 M2300.42 720.985 Q2306.23 720.985 2309.29 725.591 Q2312.37 730.174 2312.37 738.924 Q2312.37 747.651 2309.29 752.258 Q2306.23 756.841 2300.42 756.841 Q2294.61 756.841 2291.53 752.258 Q2288.48 747.651 2288.48 738.924 Q2288.48 730.174 2291.53 725.591 Q2294.61 720.985 2300.42 720.985 Z" fill="#000000" fill-rule="nonzero" fill-opacity="1"></path><polyline clip-path="url(#clip140)" style="stroke:#ff0000; stroke-linecap:round; stroke-linejoin:round; stroke-width:4; stroke-opacity:1; fill:none" points="1813.78,790.73 1953.48,790.73 "></polyline>
<path clip-path="url(#clip140)" d="M2001.42 782.084 L1992.04 794.699 L2001.9 808.01 L1996.88 808.01 L1989.33 797.824 L1981.79 808.01 L1976.77 808.01 L1986.83 794.445 L1977.62 782.084 L1982.65 782.084 L1989.52 791.32 L1996.4 782.084 L2001.42 782.084 Z" fill="#000000" fill-rule="nonzero" fill-opacity="1"></path><path clip-path="url(#clip140)" d="M2018.52 776.528 Q2014.91 776.528 2013.08 780.093 Q2011.28 783.635 2011.28 790.764 Q2011.28 797.871 2013.08 801.436 Q2014.91 804.977 2018.52 804.977 Q2022.16 804.977 2023.96 801.436 Q2025.79 797.871 2025.79 790.764 Q2025.79 783.635 2023.96 780.093 Q2022.16 776.528 2018.52 776.528 M2018.52 772.825 Q2024.33 772.825 2027.39 777.431 Q2030.47 782.014 2030.47 790.764 Q2030.47 799.491 2027.39 804.098 Q2024.33 808.681 2018.52 808.681 Q2012.71 808.681 2009.64 804.098 Q2006.58 799.491 2006.58 790.764 Q2006.58 782.014 2009.64 777.431 Q2012.71 772.825 2018.52 772.825 Z" fill="#000000" fill-rule="nonzero" fill-opacity="1"></path><path clip-path="url(#clip140)" d="M2038.64 786.482 L2068.32 786.482 L2068.32 790.371 L2038.64 790.371 L2038.64 786.482 M2038.64 795.926 L2068.32 795.926 L2068.32 799.861 L2038.64 799.861 L2038.64 795.926 Z" fill="#000000" fill-rule="nonzero" fill-opacity="1"></path><path clip-path="url(#clip140)" d="M2079.22 804.074 L2086.86 804.074 L2086.86 777.709 L2078.55 779.375 L2078.55 775.116 L2086.81 773.45 L2091.49 773.45 L2091.49 804.074 L2099.13 804.074 L2099.13 808.01 L2079.22 808.01 L2079.22 804.074 Z" fill="#000000" fill-rule="nonzero" fill-opacity="1"></path><path clip-path="url(#clip140)" d="M2108.57 802.13 L2113.45 802.13 L2113.45 808.01 L2108.57 808.01 L2108.57 802.13 Z" fill="#000000" fill-rule="nonzero" fill-opacity="1"></path><path clip-path="url(#clip140)" d="M2133.64 776.528 Q2130.03 776.528 2128.2 780.093 Q2126.39 783.635 2126.39 790.764 Q2126.39 797.871 2128.2 801.436 Q2130.03 804.977 2133.64 804.977 Q2137.27 804.977 2139.08 801.436 Q2140.91 797.871 2140.91 790.764 Q2140.91 783.635 2139.08 780.093 Q2137.27 776.528 2133.64 776.528 M2133.64 772.825 Q2139.45 772.825 2142.51 777.431 Q2145.58 782.014 2145.58 790.764 Q2145.58 799.491 2142.51 804.098 Q2139.45 808.681 2133.64 808.681 Q2127.83 808.681 2124.75 804.098 Q2121.7 799.491 2121.7 790.764 Q2121.7 782.014 2124.75 777.431 Q2127.83 772.825 2133.64 772.825 Z" fill="#000000" fill-rule="nonzero" fill-opacity="1"></path><path clip-path="url(#clip140)" d="M2183.29 786.065 Q2182.57 785.649 2181.72 785.463 Q2180.88 785.255 2179.87 785.255 Q2176.26 785.255 2174.31 787.616 Q2172.39 789.954 2172.39 794.352 L2172.39 808.01 L2168.11 808.01 L2168.11 782.084 L2172.39 782.084 L2172.39 786.112 Q2173.73 783.75 2175.88 782.616 Q2178.04 781.459 2181.12 781.459 Q2181.56 781.459 2182.09 781.528 Q2182.62 781.575 2183.27 781.69 L2183.29 786.065 Z" fill="#000000" fill-rule="nonzero" fill-opacity="1"></path><path clip-path="url(#clip140)" d="M2188.32 786.482 L2217.99 786.482 L2217.99 790.371 L2188.32 790.371 L2188.32 786.482 M2188.32 795.926 L2217.99 795.926 L2217.99 799.861 L2188.32 799.861 L2188.32 795.926 Z" fill="#000000" fill-rule="nonzero" fill-opacity="1"></path><path clip-path="url(#clip140)" d="M2225.33 793.125 L2237.81 793.125 L2237.81 796.922 L2225.33 796.922 L2225.33 793.125 Z" fill="#000000" fill-rule="nonzero" fill-opacity="1"></path><path clip-path="url(#clip140)" d="M2246 804.074 L2253.64 804.074 L2253.64 777.709 L2245.33 779.375 L2245.33 775.116 L2253.59 773.45 L2258.27 773.45 L2258.27 804.074 L2265.91 804.074 L2265.91 808.01 L2246 808.01 L2246 804.074 Z" fill="#000000" fill-rule="nonzero" fill-opacity="1"></path><path clip-path="url(#clip140)" d="M2275.35 802.13 L2280.24 802.13 L2280.24 808.01 L2275.35 808.01 L2275.35 802.13 Z" fill="#000000" fill-rule="nonzero" fill-opacity="1"></path><path clip-path="url(#clip140)" d="M2300.42 776.528 Q2296.81 776.528 2294.98 780.093 Q2293.18 783.635 2293.18 790.764 Q2293.18 797.871 2294.98 801.436 Q2296.81 804.977 2300.42 804.977 Q2304.06 804.977 2305.86 801.436 Q2307.69 797.871 2307.69 790.764 Q2307.69 783.635 2305.86 780.093 Q2304.06 776.528 2300.42 776.528 M2300.42 772.825 Q2306.23 772.825 2309.29 777.431 Q2312.37 782.014 2312.37 790.764 Q2312.37 799.491 2309.29 804.098 Q2306.23 808.681 2300.42 808.681 Q2294.61 808.681 2291.53 804.098 Q2288.48 799.491 2288.48 790.764 Q2288.48 782.014 2291.53 777.431 Q2294.61 772.825 2300.42 772.825 Z" fill="#000000" fill-rule="nonzero" fill-opacity="1"></path><polyline clip-path="url(#clip140)" style="stroke:#3da44d; stroke-linecap:round; stroke-linejoin:round; stroke-width:4; stroke-opacity:1; fill:none" stroke-dasharray="16, 10" points="1813.78,842.57 1953.48,842.57 "></polyline>
<path clip-path="url(#clip140)" d="M2001.42 833.924 L1992.04 846.539 L2001.9 859.85 L1996.88 859.85 L1989.33 849.664 L1981.79 859.85 L1976.77 859.85 L1986.83 846.285 L1977.62 833.924 L1982.65 833.924 L1989.52 843.16 L1996.4 833.924 L2001.42 833.924 Z" fill="#000000" fill-rule="nonzero" fill-opacity="1"></path><path clip-path="url(#clip140)" d="M2018.52 828.368 Q2014.91 828.368 2013.08 831.933 Q2011.28 835.475 2011.28 842.604 Q2011.28 849.711 2013.08 853.276 Q2014.91 856.817 2018.52 856.817 Q2022.16 856.817 2023.96 853.276 Q2025.79 849.711 2025.79 842.604 Q2025.79 835.475 2023.96 831.933 Q2022.16 828.368 2018.52 828.368 M2018.52 824.665 Q2024.33 824.665 2027.39 829.271 Q2030.47 833.854 2030.47 842.604 Q2030.47 851.331 2027.39 855.938 Q2024.33 860.521 2018.52 860.521 Q2012.71 860.521 2009.64 855.938 Q2006.58 851.331 2006.58 842.604 Q2006.58 833.854 2009.64 829.271 Q2012.71 824.665 2018.52 824.665 Z" fill="#000000" fill-rule="nonzero" fill-opacity="1"></path><path clip-path="url(#clip140)" d="M2038.64 838.322 L2068.32 838.322 L2068.32 842.211 L2038.64 842.211 L2038.64 838.322 M2038.64 847.766 L2068.32 847.766 L2068.32 851.701 L2038.64 851.701 L2038.64 847.766 Z" fill="#000000" fill-rule="nonzero" fill-opacity="1"></path><path clip-path="url(#clip140)" d="M2075.65 844.965 L2088.13 844.965 L2088.13 848.762 L2075.65 848.762 L2075.65 844.965 Z" fill="#000000" fill-rule="nonzero" fill-opacity="1"></path><path clip-path="url(#clip140)" d="M2096.33 855.914 L2103.96 855.914 L2103.96 829.549 L2095.65 831.215 L2095.65 826.956 L2103.92 825.29 L2108.59 825.29 L2108.59 855.914 L2116.23 855.914 L2116.23 859.85 L2096.33 859.85 L2096.33 855.914 Z" fill="#000000" fill-rule="nonzero" fill-opacity="1"></path><path clip-path="url(#clip140)" d="M2125.68 853.97 L2130.56 853.97 L2130.56 859.85 L2125.68 859.85 L2125.68 853.97 Z" fill="#000000" fill-rule="nonzero" fill-opacity="1"></path><path clip-path="url(#clip140)" d="M2150.75 828.368 Q2147.14 828.368 2145.31 831.933 Q2143.5 835.475 2143.5 842.604 Q2143.5 849.711 2145.31 853.276 Q2147.14 856.817 2150.75 856.817 Q2154.38 856.817 2156.19 853.276 Q2158.01 849.711 2158.01 842.604 Q2158.01 835.475 2156.19 831.933 Q2154.38 828.368 2150.75 828.368 M2150.75 824.665 Q2156.56 824.665 2159.61 829.271 Q2162.69 833.854 2162.69 842.604 Q2162.69 851.331 2159.61 855.938 Q2156.56 860.521 2150.75 860.521 Q2144.94 860.521 2141.86 855.938 Q2138.8 851.331 2138.8 842.604 Q2138.8 833.854 2141.86 829.271 Q2144.94 824.665 2150.75 824.665 Z" fill="#000000" fill-rule="nonzero" fill-opacity="1"></path><path clip-path="url(#clip140)" d="M2200.4 837.905 Q2199.68 837.489 2198.82 837.303 Q2197.99 837.095 2196.97 837.095 Q2193.36 837.095 2191.42 839.456 Q2189.5 841.794 2189.5 846.192 L2189.5 859.85 L2185.21 859.85 L2185.21 833.924 L2189.5 833.924 L2189.5 837.952 Q2190.84 835.59 2192.99 834.456 Q2195.14 833.299 2198.22 833.299 Q2198.66 833.299 2199.19 833.368 Q2199.73 833.415 2200.38 833.53 L2200.4 837.905 Z" fill="#000000" fill-rule="nonzero" fill-opacity="1"></path><path clip-path="url(#clip140)" d="M2205.42 838.322 L2235.1 838.322 L2235.1 842.211 L2205.42 842.211 L2205.42 838.322 M2205.42 847.766 L2235.1 847.766 L2235.1 851.701 L2205.42 851.701 L2205.42 847.766 Z" fill="#000000" fill-rule="nonzero" fill-opacity="1"></path><path clip-path="url(#clip140)" d="M2242.44 844.965 L2254.91 844.965 L2254.91 848.762 L2242.44 848.762 L2242.44 844.965 Z" fill="#000000" fill-rule="nonzero" fill-opacity="1"></path><path clip-path="url(#clip140)" d="M2263.11 855.914 L2270.75 855.914 L2270.75 829.549 L2262.44 831.215 L2262.44 826.956 L2270.7 825.29 L2275.38 825.29 L2275.38 855.914 L2283.01 855.914 L2283.01 859.85 L2263.11 859.85 L2263.11 855.914 Z" fill="#000000" fill-rule="nonzero" fill-opacity="1"></path><path clip-path="url(#clip140)" d="M2292.46 853.97 L2297.34 853.97 L2297.34 859.85 L2292.46 859.85 L2292.46 853.97 Z" fill="#000000" fill-rule="nonzero" fill-opacity="1"></path><path clip-path="url(#clip140)" d="M2317.53 828.368 Q2313.92 828.368 2312.09 831.933 Q2310.28 835.475 2310.28 842.604 Q2310.28 849.711 2312.09 853.276 Q2313.92 856.817 2317.53 856.817 Q2321.16 856.817 2322.97 853.276 Q2324.8 849.711 2324.8 842.604 Q2324.8 835.475 2322.97 831.933 Q2321.16 828.368 2317.53 828.368 M2317.53 824.665 Q2323.34 824.665 2326.39 829.271 Q2329.47 833.854 2329.47 842.604 Q2329.47 851.331 2326.39 855.938 Q2323.34 860.521 2317.53 860.521 Q2311.72 860.521 2308.64 855.938 Q2305.58 851.331 2305.58 842.604 Q2305.58 833.854 2308.64 829.271 Q2311.72 824.665 2317.53 824.665 Z" fill="#000000" fill-rule="nonzero" fill-opacity="1"></path></svg>